<?xml version="1.0" standalone="no"?>
<!DOCTYPE svg PUBLIC "-//W3C//DTD SVG 20010904//EN"
 "http://www.w3.org/TR/2001/REC-SVG-20010904/DTD/svg10.dtd">
<svg version="1.0" xmlns="http://www.w3.org/2000/svg"
 width="163.000000pt" height="163.000000pt" viewBox="0 0 163.000000 163.000000"
 preserveAspectRatio="xMidYMid meet">
<metadata>
Created by potrace 1.11, written by Peter Selinger 2001-2013
</metadata>
<g transform="translate(0.000000,163.000000) scale(0.100000,-0.100000)"
fill="#000000" stroke="none">
<path d="M350 1604 c-94 -34 -156 -90 -196 -179 -24 -52 -27 -72 -26 -155 1
-105 1 -108 25 -164 29 -67 31 -106 7 -185 -36 -116 -17 -224 47 -275 43 -33
64 -60 58 -74 -2 -7 0 -10 5 -7 13 8 26 -26 34 -89 8 -57 25 -92 58 -123 27
-25 108 -64 120 -57 4 3 8 2 8 -3 0 -4 10 -8 23 -9 114 -6 138 -8 143 -16 3
-4 10 -5 16 -2 16 10 197 10 191 1 -3 -5 4 -4 16 2 15 8 21 9 21 1 0 -7 5 -8
13 -3 17 11 31 10 40 -2 5 -7 9 -7 15 1 8 12 71 13 89 1 6 -4 14 -4 17 1 2 4
30 8 60 8 31 -1 56 2 56 7 0 4 10 7 23 7 13 0 28 5 35 12 7 7 12 9 12 5 0 -4
18 2 40 13 41 21 140 112 140 129 0 5 6 16 13 23 21 21 48 115 54 188 7 88 -9
156 -62 255 -60 112 -74 168 -80 325 -4 115 -17 159 -66 214 -75 85 -157 109
-341 99 -170 -9 -184 -7 -302 30 -127 40 -232 47 -306 21z"/>
<path d="M1180 236 c0 -2 8 -10 18 -17 15 -13 16 -12 3 4 -13 16 -21 21 -21
13z"/>
<path d="M789 173 c-13 -16 -12 -17 4 -4 9 7 17 15 17 17 0 8 -8 3 -21 -13z"/>
</g>
</svg>
