<svg xmlns="http://www.w3.org/2000/svg" viewBox="0 0 485 485">
   <g>
     <path d="m472.227,35.998l-455.977,0c-8.96,0 -16.25,7.29 -16.25,16.25l0,383.98c0,8.961 7.29,16.25 16.25,16.25l455.977,0c8.96,0 16.25,-7.289 16.25,-16.25l0,-383.98c0,-8.96 -7.29,-16.25 -16.25,-16.25zm-463.727,233.797c8.632,-7.003 18.187,-12.819 28.452,-17.27c29.968,-12.996 63.203,-13.544 93.585,-1.541c30.38,12.002 54.269,35.117 67.265,65.087c13.004,29.988 13.292,64.555 0.883,95.235l-190.185,0l0,-141.511zm197.1,42.894c-13.899,-32.053 -39.448,-56.774 -71.94,-69.61c-32.492,-12.837 -68.039,-12.251 -100.09,1.648c-8.89,3.855 -17.292,8.657 -25.07,14.324l0,-71.738l37.286,-16.169l10.427,24.048c0.766,1.766 2.626,2.802 4.527,2.512c14.637,-2.186 29.51,-2.429 44.209,-0.718c1.919,0.219 3.736,-0.869 4.444,-2.66l9.636,-24.388l75.301,29.748l-9.635,24.388c-0.708,1.791 -0.122,3.834 1.426,4.979c11.915,8.811 22.61,19.158 31.79,30.752c1.294,1.636 3.56,2.069 5.35,1.103l23.714,-10.283l32.21,74.282l-23.667,10.263c-0.029,0.009 -0.058,0.019 -0.086,0.029c-1.933,0.67 -3.113,2.622 -2.811,4.645c2.192,14.644 2.435,29.525 0.722,44.23c-0.223,1.913 0.869,3.737 2.661,4.444l24.389,9.632l-5.198,13.156l-67.388,0c11.981,-31.975 11.251,-67.58 -2.207,-98.617zm78.13,77.64l-21.597,-8.529c1.299,-13.296 1.081,-26.706 -0.65,-39.954l21.293,-9.234c4.183,-1.813 6.108,-6.698 4.293,-10.89l-32.383,-74.68c-1.818,-4.189 -6.698,-6.122 -10.882,-4.309l-21.295,9.234c-8.479,-10.308 -18.118,-19.631 -28.72,-27.779l8.531,-21.595c1.673,-4.237 -0.418,-9.052 -4.667,-10.735l-75.706,-29.908c-4.247,-1.675 -9.066,0.41 -10.74,4.649l-8.532,21.594c-13.296,-1.297 -26.705,-1.08 -39.951,0.649l-9.235,-21.297c-1.817,-4.183 -6.703,-6.104 -10.891,-4.286l-34.098,14.788l0,-75.241l471.477,0l0,43.833l-88.882,0c-2.347,0 -4.25,1.903 -4.25,4.25s1.903,4.25 4.25,4.25l88.882,0l0,256.167l-195.644,0l4.043,-10.233c1.676,-4.248 -0.407,-9.067 -4.646,-10.744zm-267.48,-345.831l455.977,0c4.273,0 7.75,3.476 7.75,7.75l0,15.058l-309.882,0c-2.347,0 -4.25,1.903 -4.25,4.25s1.903,4.25 4.25,4.25l309.882,0l0,18.5l-471.477,0l0,-42.058c0,-4.273 3.477,-7.75 7.75,-7.75zm455.977,399.48l-455.977,0c-4.273,0 -7.75,-3.477 -7.75,-7.75l0,-16.423l471.477,0l0,16.423c0,4.274 -3.477,7.75 -7.75,7.75z"/>
     <path d="m38.095,84.806c8.409,0 15.25,-6.841 15.25,-15.25s-6.841,-15.25 -15.25,-15.25c-8.409,0 -15.25,6.841 -15.25,15.25s6.841,15.25 15.25,15.25zm0,-22c3.722,0 6.75,3.028 6.75,6.75s-3.028,6.75 -6.75,6.75c-3.722,0 -6.75,-3.028 -6.75,-6.75s3.028,-6.75 6.75,-6.75z"/>
     <path d="m80.595,84.806c8.409,0 15.25,-6.841 15.25,-15.25s-6.841,-15.25 -15.25,-15.25c-8.409,0 -15.25,6.841 -15.25,15.25s6.841,15.25 15.25,15.25zm0,-22c3.722,0 6.75,3.028 6.75,6.75s-3.028,6.75 -6.75,6.75c-3.722,0 -6.75,-3.028 -6.75,-6.75s3.028,-6.75 6.75,-6.75z"/>
     <path d="m123.095,84.806c8.409,0 15.25,-6.841 15.25,-15.25s-6.841,-15.25 -15.25,-15.25c-8.409,0 -15.25,6.841 -15.25,15.25s6.841,15.25 15.25,15.25zm0,-22c3.722,0 6.75,3.028 6.75,6.75s-3.028,6.75 -6.75,6.75c-3.722,0 -6.75,-3.028 -6.75,-6.75s3.028,-6.75 6.75,-6.75z"/>
     <path d="m52.633,288.691c-2.153,0.934 -3.142,3.437 -2.208,5.59c0.935,2.154 3.438,3.141 5.59,2.208c37.625,-16.315 81.507,1.022 97.823,38.646c0.695,1.603 2.259,2.56 3.901,2.56c0.564,0 1.138,-0.113 1.689,-0.352c2.153,-0.934 3.142,-3.437 2.208,-5.59c-18.18,-41.923 -67.079,-61.241 -109.003,-43.062z"/>
     <path d="m60.522,331.867c-1.098,-2.927 -3.896,-4.867 -7.022,-4.867l-8,0c-3.126,0 -5.925,1.939 -7.022,4.867l-24,64c-1.455,3.878 0.511,8.201 4.389,9.656c3.878,1.455 8.201,-0.511 9.656,-4.389l4.174,-11.134l33.605,0l4.175,11.133c1.129,3.011 3.987,4.869 7.023,4.869c0.875,0 1.765,-0.154 2.632,-0.479c3.878,-1.454 5.844,-5.778 4.389,-9.656l-23.999,-64zm-22.2,43.133l11.178,-29.807l11.178,29.807l-22.356,0z"/>
     <path d="m131.5,329l-28,0c-4.142,0 -7.5,3.358 -7.5,7.5l0,64c0,4.142 3.358,7.5 7.5,7.5s7.5,-3.358 7.5,-7.5l0,-16.5l20.5,0c15.164,0 27.5,-12.336 27.5,-27.5s-12.336,-27.5 -27.5,-27.5zm0,40l-20.5,0l0,-25l20.5,0c6.893,0 12.5,5.607 12.5,12.5s-5.607,12.5 -12.5,12.5z"/>
     <path d="m176.5,329c-4.142,0 -7.5,3.358 -7.5,7.5l0,64c0,4.142 3.358,7.5 7.5,7.5s7.5,-3.358 7.5,-7.5l0,-64c0,-4.142 -3.358,-7.5 -7.5,-7.5z"/>
   </g>
</svg>