<svg viewBox="0 0 512 512" xmlns="http://www.w3.org/2000/svg">
   <defs>
        <style>.cls-1{fill:#333232;}.cls-2{opacity:0.3;}.cls-3{fill:#fff;}</style>
   </defs>
    <g>
        <circle class="cls-1" cx="256" cy="256" r="256"/>
        <path class="cls-2" d="M512,256c0-5.64-.25-11.21-.61-16.76-.94-1.15-109.62-109.88-111-110.91A18.43,18.43,0,0,0,385.71,121H126.29a18.49,18.49,0,0,0-18.47,18.46V322.23a18.38,18.38,0,0,0,7.34,14.67,18.57,18.57,0,0,0,3.59,3.59c1,1.36,163.94,164.27,165.3,165.3a18.57,18.57,0,0,0,3.59,3.59c.14.19.32.36.47.54C414.33,494.11,512,386.5,512,256Z"/>
        <path class="cls-3" d="M385.71,121H126.29a18.49,18.49,0,0,0-18.47,18.46V322.23a18.47,18.47,0,0,0,18.47,18.43H198v31.9A18.48,18.48,0,0,0,216.46,391h79.08A18.48,18.48,0,0,0,314,372.55v-31.9h71.71a18.47,18.47,0,0,0,18.46-18.43V139.45A18.48,18.48,0,0,0,385.71,121ZM113.29,139.45a13,13,0,0,1,13-13H385.71a13,13,0,0,1,13,13v8.88H113.29ZM308.54,372.55a13,13,0,0,1-13,13H216.46a13,13,0,0,1-13-13v-72a13,13,0,0,1,13-13h79.08a13,13,0,0,1,13,13ZM287.28,282H278v-8.66a22,22,0,0,0-43.91,0V282h-9.33v-8.66a31.28,31.28,0,0,1,62.56,0Zm-14.79,0h-33v-8.66a16.49,16.49,0,0,1,33,0Zm23,0h-2.8v-8.66a36.74,36.74,0,0,0-73.48,0V282h-2.8A18.49,18.49,0,0,0,198,300.51v24.85H128.57a5.46,5.46,0,0,1-5.45-5.45V163.62H388.88V319.91a5.46,5.46,0,0,1-5.45,5.45H314V300.51A18.49,18.49,0,0,0,295.54,282Zm103.17,40.19a13,13,0,0,1-13,13H314v-4.37h69.43a10.93,10.93,0,0,0,10.91-10.91v-159a2.73,2.73,0,0,0-2.73-2.73H120.39a2.73,2.73,0,0,0-2.73,2.73v159a10.93,10.93,0,0,0,10.91,10.92H198v4.37H126.29a13,13,0,0,1-13-13V153.79H398.71ZM132.19,137.39a4.33,4.33,0,1,1-4.33-4.33A4.33,4.33,0,0,1,132.19,137.39Zm15.48,0a4.33,4.33,0,1,1-4.33-4.33A4.33,4.33,0,0,1,147.66,137.39Zm15.48,0a4.33,4.33,0,1,1-4.33-4.33A4.33,4.33,0,0,1,163.14,137.39ZM256,336.63a11.69,11.69,0,0,0-6.06,21.69v10.43a6.06,6.06,0,0,0,12.12,0V358.32A11.69,11.69,0,0,0,256,336.63Zm2.31,17.47a2.73,2.73,0,0,0-1.72,2.54v12.12c0,.65-1.19.66-1.19,0V356.64a2.73,2.73,0,0,0-1.72-2.54,6.23,6.23,0,1,1,4.62,0Z"/>
    </g>
</svg>