<svg xmlns="http://www.w3.org/2000/svg" viewBox="0 0 48 48">
    <g>
        <path d="m43.26,9.432442l-37.817,0l0,24.794558l37.817,0l0,-24.794558l0,0zm-2.834,21.978621l-32.15,0l0,-19.162685l32.15,0l0,19.162685l0,0z"/>
        <path d="m41.189731,35.385l-16.979929,0l-0.995665,0l-16.980853,0l-5.031022,0.273l0,3.746l45.01849,0l0,-3.746l-5.031022,-0.273zm-12.534103,2.469l-10.477135,0l0,-0.75l10.477135,0l0,0.75z"/>
        <path d="m11.963,21.5l25.166,0l0,-8.711968l-25.166,0l0,8.711968zm0.5,-8.005516l24.166,0l0,7.299063l-24.166,0l0,-7.299063z"/>
        <path d="m11.939,28.047l7.739,0l0,-5.563l-7.739,0l0,5.563zm0.5,-5.062l6.739,0l0,4.563l-6.739,0l0,-4.563z"/>
        <path d="m20.645,28.047l7.738,0l0,-5.563l-7.738,0l0,5.563zm0.5,-5.062l6.738,0l0,4.563l-6.738,0l0,-4.563z"/>
        <path d="m29.413,28.047l7.738,0l0,-5.563l-7.738,0l0,5.563zm0.5,-5.062l6.738,0l0,4.563l-6.738,0l0,-4.563z"/>
        <rect height="0.484" width="6.976" y="29.312" x="11.939"/>
        <rect height="0.484" width="7.739" y="30.203" x="11.939"/>
        <rect height="0.484" width="6.976" y="29.312" x="20.644"/>
        <rect height="0.484" width="7.739" y="30.203" x="20.644"/>
        <rect height="0.484" width="6.977" y="29.273" x="29.489"/>
        <rect height="0.484" width="7.738" y="30.164" x="29.489"/>
        <path d="m17.000147,19.213207l-4.062635,-1.809201l0,-0.791554l4.062635,-1.816608l0,1.024128l-2.841158,1.200372l2.841158,1.167963l0,1.0249zm3.081377,-5.388556l-1.723919,6.481824l-1.005965,0l1.723919,-6.481824l1.005965,0zm3.17696,3.195694l-2.841518,-1.200218l0,-1.024128l4.062635,1.816454l0,0.791554l-4.062635,1.809201l0,-1.0249l2.841518,-1.167963z"/>
        <path d="m22.956259,25.142383l-1.685426,-0.684327l0,-0.299405l1.685426,-0.687132l0,0.387379l-1.178684,0.454038l1.178684,0.441776l0,0.387672zm1.27834,-2.038213l-0.715185,2.451736l-0.417336,0l0.715185,-2.451736l0.417336,0zm1.317999,1.208765l-1.178834,-0.453983l0,-0.387373l1.685426,0.687072l0,0.299405l-1.685426,0.684327l0,-0.387672l1.178834,-0.441776z"/>
        <path d="m31.706248,25.246553l-1.68543,-0.68433l0,-0.29941l1.68543,-0.68713l0,0.38738l-1.17869,0.45404l1.17869,0.44177l0,0.38768zm1.27834,-2.03822l-0.71519,2.45174l-0.41733,0l0.71518,-2.45174l0.41734,0zm1.318,1.20877l-1.17884,-0.45398l0,-0.38738l1.68543,0.68707l0,0.29941l-1.68543,0.68433l0,-0.38768l1.17884,-0.44177z"/>
        <path d="m14.206271,25.14238l-1.68543,-0.68432l0,-0.29941l1.68543,-0.68713l0,0.38738l-1.17869,0.45404l1.17869,0.44177l0,0.38767zm1.27834,-2.03821l-0.71519,2.45174l-0.41733,0l0.71518,-2.45174l0.41734,0zm1.318,1.20877l-1.17884,-0.45399l0,-0.38737l1.68543,0.68707l0,0.29941l-1.68543,0.68432l0,-0.38767l1.17884,-0.44177z"/>
    </g>
</svg>