<svg xmlns="http://www.w3.org/2000/svg" viewBox="0 0 512 512">
    <g>
        <path d="m128.12115,0.77248c-17.6,0 -32,14.4 -32,32l0,448c0,17.6 14.4,32 32,32l320,0c17.6,0 32,-14.4 32,-32l0,-352l-128,-128l-224,0z" fill="#E2E5E7"/>
        <path d="m384,128l96,0l-128,-128l0,96c0,17.6 14.4,32 32,32z" fill="#B0B7BD"/>
        <path d="m378.80777,459.81685c0,4.66346 -6.50286,8.47901 -14.45079,8.47901l-317.91742,0c-7.94794,0 -14.45079,-3.81555 -14.45079,-8.47901l0,-84.79003c0,-4.66345 6.50285,-8.47901 14.45079,-8.47901l317.91742,0c7.94793,0 14.45079,3.81556 14.45079,8.47901l0,84.79003z" fill="#576D7E"/>
        <path d="m364.92701,468.37406l-268.64449,0l0,16l268.64449,0c7.77655,0 14.13918,-7.2 14.13918,-16l0,-16c0,8.8 -6.36263,16 -14.13918,16z" fill="#CAD1D8"/>
        <path d="m378.35417,339.07941c0,4.66346 -6.50286,8.47901 -14.45079,8.47901l-317.91742,0c-7.94794,0 -14.45079,-3.81555 -14.45079,-8.47901l0,-84.79003c0,-4.66345 6.50285,-8.47901 14.45079,-8.47901l317.91742,0c7.94793,0 14.45079,3.81556 14.45079,8.47901l0,84.79003z" fill="#576D7E"/>
        <path d="m364.62761,347.71512l-268.64449,0l0,16l268.64449,0c7.77655,0 14.13918,-7.2 14.13918,-16l0,-16c0,8.8 -6.36263,16 -14.13918,16z" fill="#CAD1D8"/>
        <path d="m364.62761,224.96036l-268.64449,0l0,16l268.64449,0c7.77655,0 14.13918,-7.2 14.13918,-16l0,-16c0,8.8 -6.36263,16 -14.13918,16z" fill="#CAD1D8"/>
        <path d="m378.05477,216.62405c0,4.66346 -6.50286,8.47901 -14.45079,8.47901l-317.91742,0c-7.94794,0 -14.45079,-3.81555 -14.45079,-8.47901l0,-84.79003c0,-4.66345 6.50285,-8.47901 14.45079,-8.47901l317.91742,0c7.94793,0 14.45079,3.81556 14.45079,8.47901l0,84.79003z" fill="#576D7E"/>
        <path d="m80.2048,136.09248c0,-4.4708 3.34981,-9.36498 8.76103,-9.36498l29.74565,0c16.74905,0 31.82318,11.78667 31.82318,34.39474c0,21.40569 -15.07413,33.31091 -31.82318,33.31091l-21.51607,0l0,17.88324c0,5.97801 -3.59138,9.34805 -8.22958,9.34805c-4.25168,0 -8.76104,-3.37004 -8.76104,-9.34805c0,0 0,-76.22391 0,-76.22391l0.00001,0zm16.99061,7.70538l0,33.71735l21.49998,0c8.63219,0 15.46065,-7.99327 15.46065,-16.39297c0,-9.48353 -6.82846,-17.32438 -15.46065,-17.32438l-21.49998,0l0,0z" fill="#FFFFFF"/>
        <path d="m164.32041,213.26474l0,-76.9013c0,-4.87724 3.34981,-8.3997 9.14756,-8.3997c4.49325,0 7.84307,3.52246 7.84307,8.3997l0,29.5175l41.96923,0l0,-29.5175c0,-4.87724 4.12284,-8.3997 8.76104,-8.3997c4.49325,0 7.988,3.52246 7.988,8.3997l0,76.9013c0,4.74177 -3.49475,8.3997 -7.988,8.3997c-4.6382,0 -8.76104,-3.65793 -8.76104,-8.3997l0,-29.63604l-41.96923,0l0,29.63604c0,4.74177 -3.34981,8.3997 -7.84307,8.3997c-5.79775,0 -9.14756,-3.65793 -9.14756,-8.3997z" fill="#FFFFFF"/>
        <path d="m258.11505,136.09248c0,-4.4708 3.34981,-9.36498 8.76103,-9.36498l29.74566,0c16.74903,0 31.82317,11.78667 31.82317,34.39474c0,21.40569 -15.07414,33.31091 -31.82317,33.31091l-21.49998,0l0,17.88324c0,5.97801 -3.60748,9.34805 -8.24568,9.34805c-4.25168,0 -8.76103,-3.37004 -8.76103,-9.34805l0,-76.22391l0,0zm17.00671,7.70538l0,33.71735l21.49998,0c8.6322,0 15.46066,-7.99327 15.46066,-16.39297c0,-9.48353 -6.82846,-17.32438 -15.46066,-17.32438l-21.49998,0l0,0z" fill="#FFFFFF"/>
    </g>
    <g transform="matrix(0.6667120265092983,0,0,0.7951225596322143,-317.85445019183106,-2113.1459884927995) ">
        <path fill="#ffffff" d="m798.345239,3171.327224l-3.157,-0.533c-18.709,-3.051 -21.504,-7.915 -21.504,-10.539c0,-4.245 8.512,-10.667 21.355,-10.667c12.608,0 20.928,5.995 21.355,10.304c0.555,5.867 5.739,10.389 11.627,9.6c5.867,-0.555 10.155,-5.76 9.6,-11.627c-1.621,-16.896 -19.925,-29.632 -42.603,-29.632c-23.936,0 -42.688,14.059 -42.688,32c0,16.704 13.248,27.328 39.403,31.595l1.728,-10.517l1.429,11.051c17.728,2.923 21.44,7.36 21.44,10.56c0,4.245 -8.512,10.667 -21.355,10.667c-12.608,0 -20.928,-6.016 -21.355,-10.325c-0.555,-5.867 -5.611,-10.24 -11.627,-9.6c-5.867,0.555 -10.155,5.76 -9.6,11.627c1.622,16.895 19.926,29.631 42.603,29.631c23.936,0 42.688,-14.059 42.688,-32c0,-16.683 -13.227,-27.307 -39.339,-31.595z"/>
        <path fill="#ffffff" d="m944.351239,3160.255224c0,-17.643 -14.357,-32 -32,-32l-21.333,0c-17.643,0 -32,14.357 -32,32l0,42.667c0,17.643 14.357,32 32,32l21.333,0c4.928,0 9.536,-1.216 13.696,-3.2l0.085,0.085c2.091,2.069 4.821,3.115 7.552,3.115s5.461,-1.045 7.531,-3.115c4.16,-4.16 4.16,-10.923 0,-15.083l-0.085,-0.085c2.005,-4.16 3.221,-8.789 3.221,-13.717l0,-42.667zm-21.334,38.272l-3.136,-3.136c-4.16,-4.16 -10.923,-4.16 -15.083,0c-4.16,4.16 -4.16,10.923 0,15.083l3.115,3.115l-16.896,0c-5.888,0 -10.667,-4.779 -10.667,-10.667l0,-42.667c0,-5.888 4.779,-10.667 10.667,-10.667l21.333,0c5.888,0 10.667,4.779 10.667,10.667l0,38.272z"/>
        <path fill="#ffffff" d="m1019.017239,3213.589224l-32,0l0,-74.667c0,-5.888 -4.779,-10.667 -10.667,-10.667c-5.888,0 -10.667,4.779 -10.667,10.667l0,85.333c0,5.888 4.779,10.667 10.667,10.667l42.667,0c5.888,0 10.667,-4.779 10.667,-10.667c0,-5.888 -4.779,-10.666 -10.667,-10.666z"/>
        <path fill="#ffffff" d="m725.129239,3172.031224c-5.291,-2.624 -11.669,-0.491 -14.315,4.779l-11.797,23.616l-11.797,-23.595c-2.645,-5.269 -9.045,-7.403 -14.315,-4.779c-5.269,2.645 -7.424,9.045 -4.779,14.315l18.965,37.909l-18.944,37.867c-2.624,5.269 -0.491,11.669 4.779,14.315c1.536,0.768 3.157,1.131 4.757,1.131c3.904,0 7.659,-2.155 9.557,-5.909l42.667,-85.333c2.625,-5.27 0.492,-11.67 -4.778,-14.316z"/>
        <path fill="#ffffff" d="m638.388239,3128.810224c-4.331,-1.472 -9.152,0.043 -11.904,3.712l-23.467,31.275l-23.466,-31.275c-2.752,-3.669 -7.509,-5.184 -11.904,-3.712c-4.352,1.451 -7.296,5.525 -7.296,10.112l0,85.333c0,5.888 4.779,10.667 10.667,10.667s10.666,-4.779 10.666,-10.667l0,-53.333l12.8,17.067c4.032,5.376 13.056,5.376 17.067,0l12.8,-17.067l0,53.333c0,5.888 4.779,10.667 10.667,10.667s10.666,-4.779 10.666,-10.667l0,-85.333c0,-4.587 -2.944,-8.661 -7.296,-10.112z"/>
    </g>
    <g transform="matrix(1.3757672514242492,0,0,1.0004905022540997,-2987.6594338888904,-2002.749443423928) ">
        <path fill="#FFFFFF" d="m2272.059545,2262.490309c0,-10.752 16.896,-10.752 16.896,0l0,50.528c0,20.08 -9.6,32.24 -31.712,32.24c-10.88,0 -19.968,-2.96 -27.888,-13.168c-6.528,-7.808 5.744,-19.056 12.4,-10.88c5.376,6.656 11.12,8.192 16.752,7.92c7.168,-0.256 13.44,-3.456 13.568,-16.112l0,-50.528l-0.016,0z"/>
        <path fill="#FFFFFF" d="m2308.587545,2273.994309c2.944,-24.816 40.416,-29.28 58.08,-15.712c8.704,7.024 -0.512,18.16 -8.192,12.528c-9.472,-6.016 -30.96,-8.832 -33.648,4.464c-3.456,20.992 52.192,8.976 51.296,42.992c-0.896,32.496 -47.968,33.264 -65.632,18.672c-4.224,-3.44 -4.096,-9.056 -1.792,-12.528c3.328,-3.312 7.024,-4.464 11.392,-0.896c10.48,7.168 37.488,12.544 39.408,-5.648c-1.664,-18.912 -54.88,-7.52 -50.912,-43.872z"/>
    </g>
</svg>