<svg viewBox="0 0 512 512" xmlns="http://www.w3.org/2000/svg"><circle cx="256" cy="256" r="256" fill="#3498db"/><path style="opacity:.3" d="M130.365,191.375 L0.866,277.208 C11.647,408.671 121.757,512.000 256.000,512.000 C261.115,512.000 266.194,511.850 271.235,511.554 L382.229,325.198 C382.229,325.198 343.904,306.215 329.000,270.000 C316.503,239.633 326.000,191.000 326.000,191.000 L272.000,247.000 L219.000,187.000 L180.041,217.769 L130.365,191.375 Z"/><path class="cls-3" d="M212.424,195.024 C219.740,195.985 232.388,193.644 227.506,245.339 C227.269,247.850 221.614,269.148 203.626,240.308 C199.183,233.184 181.919,190.156 175.976,189.993 C156.025,189.446 136.460,188.621 129.474,192.508 C123.106,196.051 138.091,225.798 163.408,265.465 C184.111,297.905 206.037,323.247 243.845,329.618 C250.907,330.324 269.532,331.168 275.265,328.360 C279.267,326.400 274.405,298.268 287.834,295.655 C293.871,294.480 316.813,324.872 325.538,328.360 C330.832,330.475 342.501,331.261 354.446,330.875 C367.368,330.458 381.938,332.003 383.352,323.328 C386.514,303.931 344.404,278.711 343.134,266.723 C342.223,258.125 358.537,242.274 367.014,230.245 C377.342,215.588 388.535,197.947 382.096,192.508 C378.911,189.819 366.628,189.926 354.446,189.993 C341.994,190.061 329.644,190.131 326.795,191.250 C324.151,192.290 318.194,206.642 310.457,221.440 C301.707,238.173 290.898,254.252 284.063,254.145 C275.206,254.006 277.255,226.502 277.779,206.345 C278.127,192.960 275.958,188.785 274.009,187.477 C269.278,184.302 256.413,181.188 256.413,181.188 C256.413,181.188 217.943,178.267 212.424,195.024 Z" fill="#fff"/></svg>