<?xml version="1.0" standalone="no"?>
<!DOCTYPE svg PUBLIC "-//W3C//DTD SVG 20010904//EN"
 "http://www.w3.org/TR/2001/REC-SVG-20010904/DTD/svg10.dtd">
<svg version="1.0" xmlns="http://www.w3.org/2000/svg"
 width="700.000000pt" height="700.000000pt" viewBox="0 0 700.000000 700.000000"
 preserveAspectRatio="xMidYMid meet">
<metadata>
Created by potrace 1.11, written by Peter Selinger 2001-2013
</metadata>
<g transform="translate(0.000000,700.000000) scale(0.100000,-0.100000)"
fill="#000000" stroke="none">
<path d="M3298 6995 c-2 -2 -40 -5 -85 -9 -203 -14 -257 -63 -268 -244 -15
-239 -80 -389 -234 -542 -114 -113 -246 -184 -386 -208 -53 -9 -218 -9 -277 1
-150 24 -299 98 -416 208 -70 66 -116 89 -175 89 -61 0 -92 -16 -197 -103
-210 -175 -482 -461 -516 -544 -18 -42 -18 -105 0 -148 8 -19 41 -62 73 -97
70 -75 119 -144 151 -213 150 -318 75 -682 -185 -905 -113 -96 -225 -149 -398
-186 -11 -2 -51 -7 -90 -10 -38 -3 -88 -7 -109 -9 -79 -7 -153 -87 -162 -173
-2 -20 -7 -71 -11 -112 -10 -100 -9 -460 1 -584 8 -109 25 -163 59 -192 63
-54 113 -71 228 -78 175 -10 311 -65 450 -180 134 -110 236 -287 265 -456 10
-55 10 -211 0 -265 -26 -148 -100 -290 -216 -415 -78 -83 -100 -146 -78 -222
24 -84 311 -398 528 -578 87 -73 122 -90 185 -90 58 0 96 20 163 83 165 158
384 237 616 224 115 -7 193 -28 293 -81 175 -92 310 -250 372 -437 29 -89 31
-101 37 -204 6 -134 12 -162 39 -205 24 -38 74 -71 125 -83 134 -31 709 -28
832 4 91 24 137 97 142 229 3 49 7 97 10 107 2 10 7 34 10 53 7 47 43 140 86
220 52 98 193 234 297 288 140 73 197 86 353 87 221 0 396 -68 563 -220 34
-31 77 -64 96 -72 41 -17 115 -15 156 5 124 61 587 522 631 629 18 42 18 105
-1 149 -8 19 -41 63 -73 97 -303 320 -304 783 -2 1086 99 99 257 190 360 207
19 3 38 8 41 10 7 4 85 11 201 18 82 5 128 30 162 89 40 69 50 169 50 472 1
382 -15 466 -95 524 -51 37 -87 48 -199 56 -285 22 -520 176 -645 425 -61 120
-79 205 -78 360 2 200 73 368 227 535 59 65 85 120 81 177 -2 40 -24 93 -52
123 -10 11 -36 42 -58 70 -90 112 -291 314 -420 420 -33 28 -62 53 -65 57 -11
15 -81 38 -113 38 -70 0 -97 -13 -165 -74 -162 -150 -325 -221 -532 -233 -244
-14 -469 84 -622 271 -57 69 -116 179 -143 262 -24 79 -23 69 -40 296 -5 63
-36 123 -77 150 -58 38 -161 50 -470 53 -125 1 -229 1 -230 0z m421 -2357 c53
-10 130 -31 171 -45 270 -92 516 -304 647 -558 39 -76 88 -200 97 -248 3 -12
11 -53 20 -92 15 -71 17 -333 2 -400 -69 -313 -194 -524 -424 -715 -133 -110
-359 -212 -525 -235 -23 -3 -50 -8 -61 -12 -23 -6 -253 -6 -286 2 -14 3 -45 8
-70 11 -63 9 -212 59 -295 99 -305 147 -536 432 -620 764 -25 100 -30 145 -30
291 0 154 5 191 41 315 50 176 146 343 275 479 151 159 385 295 570 332 193
38 343 42 488 12z"/>
</g>
</svg>
