<?xml version="1.0" standalone="no"?>
<!DOCTYPE svg PUBLIC "-//W3C//DTD SVG 20010904//EN"
 "http://www.w3.org/TR/2001/REC-SVG-20010904/DTD/svg10.dtd">
<svg version="1.0" xmlns="http://www.w3.org/2000/svg"
 width="700.000000pt" height="700.000000pt" viewBox="0 0 700.000000 700.000000"
 preserveAspectRatio="xMidYMid meet">
<metadata>
Created by potrace 1.11, written by Peter Selinger 2001-2013
</metadata>
<g transform="translate(0.000000,700.000000) scale(0.100000,-0.100000)"
fill="#000000" stroke="none">
<path d="M3250 6989 c-185 -22 -298 -43 -448 -85 -210 -59 -398 -136 -568
-234 -45 -26 -88 -50 -95 -53 -31 -14 -185 -129 -277 -204 -343 -285 -599
-663 -736 -1089 -19 -59 -18 -55 -50 -206 -22 -104 -31 -166 -42 -278 -9 -96
-3 -387 9 -445 4 -16 9 -52 12 -79 27 -240 179 -640 329 -863 153 -228 228
-317 466 -553 201 -198 248 -260 300 -395 17 -44 48 -164 55 -215 3 -25 8 -56
10 -70 2 -14 7 -74 10 -135 4 -60 8 -114 8 -120 1 -6 -29 -11 -69 -13 l-71 -3
1 -107 1 -107 108 -2 c60 -1 111 -4 114 -7 5 -5 7 -220 4 -301 -1 -19 -8 -20
-113 -20 l-113 0 -1 -107 -2 -108 114 0 c63 0 114 -3 115 -7 1 -11 1 -284 0
-305 -1 -15 -15 -18 -113 -20 l-113 -3 0 -105 0 -105 337 -1 c186 0 340 -2
342 -5 3 -2 6 -58 7 -123 2 -180 38 -288 128 -383 116 -123 158 -133 596 -133
360 0 406 5 495 57 96 57 175 169 204 290 7 33 14 111 15 174 1 62 4 116 7
118 2 3 156 5 342 5 l337 1 0 105 0 105 -112 3 c-80 2 -113 6 -114 15 -1 7 -2
81 -3 164 l-1 153 116 0 116 0 -2 103 c-2 56 -3 105 -4 108 0 4 -47 6 -103 5
-57 -1 -107 -1 -113 1 -11 4 -13 308 -2 319 4 4 48 6 99 6 51 -1 100 1 109 4
13 3 15 22 15 109 l-1 105 -63 0 -64 0 6 32 c3 18 8 51 12 73 3 22 15 76 26
120 11 44 21 87 23 95 15 74 123 298 196 407 59 88 252 346 278 372 36 36 220
281 283 376 64 96 156 266 190 350 59 143 120 334 133 415 3 19 10 58 15 85 5
28 12 73 15 100 3 28 8 66 10 85 6 44 7 307 1 380 -8 96 -17 163 -40 275 -5
21 -35 143 -40 160 -2 6 -5 17 -8 25 -3 8 -18 53 -33 100 -66 202 -230 494
-387 688 -110 136 -308 324 -449 424 -57 41 -140 98 -143 98 -2 0 -33 18 -68
39 -265 161 -611 280 -952 327 -123 17 -493 25 -596 13z"/>
</g>
</svg>
