<?xml version="1.0" standalone="no"?>
<!DOCTYPE svg PUBLIC "-//W3C//DTD SVG 20010904//EN"
 "http://www.w3.org/TR/2001/REC-SVG-20010904/DTD/svg10.dtd">
<svg version="1.0" xmlns="http://www.w3.org/2000/svg"
 width="231.000000pt" height="231.000000pt" viewBox="0 0 231.000000 231.000000"
 preserveAspectRatio="xMidYMid meet">
<metadata>
Created by potrace 1.11, written by Peter Selinger 2001-2013
</metadata>
<g transform="translate(0.000000,231.000000) scale(0.100000,-0.100000)"
fill="#000000" stroke="none">
<path d="M989 2206 c-2 -2 -26 -6 -54 -10 -265 -31 -559 -195 -737 -411 -140
-171 -210 -326 -182 -400 20 -51 136 -66 359 -48 185 15 491 9 585 -11 169
-36 309 -107 422 -214 53 -50 152 -176 183 -232 11 -19 25 -42 32 -50 6 -9 61
-113 121 -232 147 -290 182 -338 253 -338 93 0 261 296 304 540 110 616 -264
1208 -865 1369 -41 11 -91 23 -110 26 -42 8 -304 17 -311 11z"/>
<path d="M630 1134 c-93 -19 -218 -84 -291 -151 -127 -118 -198 -268 -136
-290 12 -4 126 -8 252 -8 261 0 298 -7 404 -75 81 -52 140 -130 236 -312 48
-89 92 -160 108 -172 26 -19 30 -19 55 -5 34 19 92 114 121 199 29 84 38 228
21 312 -42 201 -167 362 -345 448 -137 66 -278 83 -425 54z"/>
</g>
</svg>
