<?xml version="1.0" encoding="utf-8"?><svg xmlns="http://www.w3.org/2000/svg" xmlns:xlink="http://www.w3.org/1999/xlink"><symbol viewBox="0 0 19.25 19.25" id="cart" xmlns="http://www.w3.org/2000/svg"><path d="M19.006 2.97a1.003 1.003 0 0 0-.756-.345H4.431l-.195-1.164A1 1 0 0 0 3.25.625H1a1 1 0 1 0 0 2h1.403l1.86 11.164c.008.045.031.082.045.124.016.053.029.103.054.151a.982.982 0 0 0 .12.179c.031.039.059.078.095.112a.96.96 0 0 0 .193.13c.038.021.071.049.112.065a.97.97 0 0 0 .367.075H16.25a1 1 0 1 0 0-2H6.097l-.166-1H17.25a1 1 0 0 0 .99-.858l1-7a1.002 1.002 0 0 0-.234-.797zm-1.909 1.655l-.285 2H13.25v-2h3.847zm-4.847 0v2h-3v-2h3zm0 3v2h-3v-2h3zm-4-3v2h-3a.481.481 0 0 0-.148.03l-.338-2.03H8.25zm-2.986 3H8.25v2H5.597l-.333-2zm7.986 2v-2h3.418l-.285 2H13.25z"/><circle cx="6.75" cy="17.125" r="1.5"/><circle cx="15.75" cy="17.125" r="1.5"/></symbol><symbol viewBox="0 0 471.829 471.829" id="charge" xmlns="http://www.w3.org/2000/svg"><path d="M319.089 27.221h-36.482V0H187.34v27.221h-34.603c-22.517 0-40.829 18.317-40.829 40.832v362.946c0 22.51 18.317 40.83 40.829 40.83h166.352c22.524 0 40.832-18.32 40.832-40.83V68.052c0-22.514-18.308-40.831-40.832-40.831zm13.616 403.781c0 7.501-6.108 13.607-13.616 13.607H152.737c-7.508 0-13.615-6.095-13.615-13.607V68.052c0-7.501 6.107-13.611 13.615-13.611h166.352c7.508 0 13.616 6.109 13.616 13.611v362.95zm-14.843-2.502H153.966v-59.719h163.892V428.5h.004zm0-74.429H153.966v-59.716h163.892v59.716h.004zm0-74.431H153.966v-59.72h163.892v59.72h.004zm0-74.262H153.966v-59.719h163.892v59.719h.004z"/></symbol><symbol viewBox="0 0 96.124 96.123" id="facebook" xmlns="http://www.w3.org/2000/svg"><path d="M72.089.02L59.624 0C45.62 0 36.57 9.285 36.57 23.656v10.907H24.037a1.96 1.96 0 0 0-1.96 1.961v15.803a1.96 1.96 0 0 0 1.96 1.96H36.57v39.876a1.96 1.96 0 0 0 1.96 1.96h16.352a1.96 1.96 0 0 0 1.96-1.96V54.287h14.654a1.96 1.96 0 0 0 1.96-1.96l.006-15.803a1.963 1.963 0 0 0-1.961-1.961H56.842v-9.246c0-4.444 1.059-6.7 6.848-6.7l8.397-.003a1.96 1.96 0 0 0 1.959-1.96V1.98A1.96 1.96 0 0 0 72.089.02z"/></symbol><symbol viewBox="0 0 169.063 169.063" id="instagram" xmlns="http://www.w3.org/2000/svg"><path d="M122.406 0H46.654C20.929 0 0 20.93 0 46.655v75.752c0 25.726 20.929 46.655 46.654 46.655h75.752c25.727 0 46.656-20.93 46.656-46.655V46.655C169.063 20.93 148.133 0 122.406 0zm31.657 122.407c0 17.455-14.201 31.655-31.656 31.655H46.654C29.2 154.063 15 139.862 15 122.407V46.655C15 29.201 29.2 15 46.654 15h75.752c17.455 0 31.656 14.201 31.656 31.655v75.752z"/><path d="M84.531 40.97c-24.021 0-43.563 19.542-43.563 43.563 0 24.02 19.542 43.561 43.563 43.561s43.563-19.541 43.563-43.561c0-24.021-19.542-43.563-43.563-43.563zm0 72.123c-15.749 0-28.563-12.812-28.563-28.561 0-15.75 12.813-28.563 28.563-28.563s28.563 12.813 28.563 28.563c0 15.749-12.814 28.561-28.563 28.561zm45.39-84.842c-2.89 0-5.729 1.17-7.77 3.22a11.053 11.053 0 0 0-3.23 7.78c0 2.891 1.18 5.73 3.23 7.78 2.04 2.04 4.88 3.22 7.77 3.22 2.9 0 5.73-1.18 7.78-3.22 2.05-2.05 3.22-4.89 3.22-7.78 0-2.9-1.17-5.74-3.22-7.78-2.04-2.05-4.88-3.22-7.78-3.22z"/></symbol><symbol viewBox="0 0 512 512" id="marker" xmlns="http://www.w3.org/2000/svg"><path d="M256 0C153.755 0 70.573 83.182 70.573 185.426c0 126.888 165.939 313.167 173.004 321.035 6.636 7.391 18.222 7.378 24.846 0 7.065-7.868 173.004-194.147 173.004-321.035C441.425 83.182 358.244 0 256 0zm0 278.719c-51.442 0-93.292-41.851-93.292-93.293S204.559 92.134 256 92.134s93.291 41.851 93.291 93.293-41.85 93.292-93.291 93.292z"/></symbol><symbol viewBox="0 0 56 56" id="menu-alt" xmlns="http://www.w3.org/2000/svg"><path d="M28 0C12.561 0 0 12.561 0 28s12.561 28 28 28 28-12.561 28-28S43.439 0 28 0zm12 41H16a2 2 0 0 1 0-4h24a2 2 0 0 1 0 4zm0-11H16a2 2 0 0 1 0-4h24a2 2 0 0 1 0 4zm0-11H16a2 2 0 0 1 0-4h24a2 2 0 0 1 0 4z"/></symbol><symbol viewBox="0 0 51.636 51.636" id="nav" xmlns="http://www.w3.org/2000/svg"><path d="M51.353.914a.999.999 0 0 0-1.135-.213L.583 23.481a1 1 0 0 0 .252 1.895l22.263 3.731 2.545 21.038a1.002 1.002 0 0 0 1.889.324l24-48.415a1 1 0 0 0-.179-1.14z"/></symbol><symbol viewBox="0 0 492.004 492.004" id="right" xmlns="http://www.w3.org/2000/svg"><path d="M484.14 226.886L306.46 49.202c-5.072-5.072-11.832-7.856-19.04-7.856-7.216 0-13.972 2.788-19.044 7.856l-16.132 16.136c-5.068 5.064-7.86 11.828-7.86 19.04 0 7.208 2.792 14.2 7.86 19.264L355.9 207.526H26.58C11.732 207.526 0 219.15 0 234.002v22.812c0 14.852 11.732 27.648 26.58 27.648h330.496L252.248 388.926c-5.068 5.072-7.86 11.652-7.86 18.864 0 7.204 2.792 13.88 7.86 18.948l16.132 16.084c5.072 5.072 11.828 7.836 19.044 7.836 7.208 0 13.968-2.8 19.04-7.872l177.68-177.68c5.084-5.088 7.88-11.88 7.86-19.1.016-7.244-2.776-14.04-7.864-19.12z"/></symbol><symbol viewBox="0 0 47.94 47.94" id="star" xmlns="http://www.w3.org/2000/svg"><path d="M26.285 2.486l5.407 10.956a2.58 2.58 0 0 0 1.944 1.412l12.091 1.757c2.118.308 2.963 2.91 1.431 4.403l-8.749 8.528a2.582 2.582 0 0 0-.742 2.285l2.065 12.042c.362 2.109-1.852 3.717-3.746 2.722l-10.814-5.685a2.585 2.585 0 0 0-2.403 0l-10.814 5.685c-1.894.996-4.108-.613-3.746-2.722l2.065-12.042a2.582 2.582 0 0 0-.742-2.285L.783 21.014c-1.532-1.494-.687-4.096 1.431-4.403l12.091-1.757a2.58 2.58 0 0 0 1.944-1.412l5.407-10.956c.946-1.919 3.682-1.919 4.629 0z"/></symbol><symbol viewBox="0 0 49.94 49.94" id="star-empty" xmlns="http://www.w3.org/2000/svg"><path d="M48.856 22.731a3.56 3.56 0 0 0 .906-3.671 3.56 3.56 0 0 0-2.892-2.438l-12.092-1.757a1.58 1.58 0 0 1-1.19-.865L28.182 3.043a3.56 3.56 0 0 0-3.212-1.996 3.56 3.56 0 0 0-3.211 1.996L16.352 14c-.23.467-.676.79-1.191.865L3.069 16.623A3.557 3.557 0 0 0 .178 19.06a3.56 3.56 0 0 0 .906 3.671l8.749 8.528c.373.364.544.888.456 1.4L8.224 44.702a3.559 3.559 0 0 0 1.424 3.502 3.552 3.552 0 0 0 3.772.273l10.814-5.686a1.583 1.583 0 0 1 1.472 0l10.815 5.686a3.568 3.568 0 0 0 3.772-.273 3.559 3.559 0 0 0 1.424-3.502L39.651 32.66a1.582 1.582 0 0 1 .456-1.4l8.749-8.529zM37.681 32.998l2.065 12.042a1.553 1.553 0 0 1-.629 1.547 1.558 1.558 0 0 1-1.665.121l-10.815-5.687a3.588 3.588 0 0 0-3.334.001L12.49 46.708a1.56 1.56 0 0 1-1.666-.121 1.554 1.554 0 0 1-.629-1.547l2.065-12.042a3.581 3.581 0 0 0-1.03-3.17l-8.75-8.529a1.55 1.55 0 0 1-.4-1.621c.19-.586.667-.988 1.276-1.077l12.091-1.757a3.576 3.576 0 0 0 2.697-1.959l5.407-10.957a1.551 1.551 0 0 1 1.418-.881c.616 0 1.146.329 1.419.881l5.407 10.957a3.575 3.575 0 0 0 2.696 1.959l12.092 1.757a1.552 1.552 0 0 1 1.276 1.077c.19.585.041 1.191-.4 1.621l-8.749 8.528a3.58 3.58 0 0 0-1.029 3.171z"/></symbol><symbol viewBox="0 0 512 512" id="statistics" xmlns="http://www.w3.org/2000/svg"><path d="M76 240c12.102 0 23.055-4.855 31.148-12.652l44.403 22.199c-.223 1.808-.551 3.586-.551 5.453 0 24.813 20.188 45 45 45s45-20.188 45-45c0-6.926-1.703-13.41-4.512-19.277l60.235-60.235C302.59 178.297 309.074 180 316 180c24.813 0 45-20.188 45-45 0-4.672-.918-9.09-2.246-13.328L411.09 82.43C418.23 87.2 426.79 90 436 90c24.813 0 45-20.188 45-45S460.812 0 436 0s-45 20.188-45 45c0 4.672.918 9.09 2.246 13.328L340.91 97.57C333.77 92.8 325.21 90 316 90c-24.813 0-45 20.188-45 45 0 6.926 1.703 13.41 4.512 19.277l-60.235 60.235C209.41 211.703 202.926 210 196 210c-12.102 0-23.055 4.855-31.148 12.652l-44.403-22.199c.223-1.808.551-3.586.551-5.453 0-24.813-20.187-45-45-45s-45 20.188-45 45 20.188 45 45 45zm0 0"/><path d="M497 482h-16V165c0-8.29-6.71-15-15-15h-60c-8.29 0-15 6.71-15 15v317h-30V255c0-8.29-6.71-15-15-15h-60c-8.29 0-15 6.71-15 15v227h-30V375c0-8.29-6.71-15-15-15h-60c-8.29 0-15 6.71-15 15v107h-30V315c0-8.29-6.71-15-15-15H46c-8.29 0-15 6.71-15 15v167H15c-8.29 0-15 6.71-15 15s6.71 15 15 15h482c8.29 0 15-6.71 15-15s-6.71-15-15-15zm0 0"/></symbol><symbol viewBox="0 0 612 612" id="twitter" xmlns="http://www.w3.org/2000/svg"><path d="M612 116.258a250.714 250.714 0 0 1-72.088 19.772c25.929-15.527 45.777-40.155 55.184-69.411-24.322 14.379-51.169 24.82-79.775 30.48-22.907-24.437-55.49-39.658-91.63-39.658-69.334 0-125.551 56.217-125.551 125.513 0 9.828 1.109 19.427 3.251 28.606-104.326-5.24-196.835-55.223-258.75-131.174-10.823 18.51-16.98 40.078-16.98 63.101 0 43.559 22.181 81.993 55.835 104.479a125.556 125.556 0 0 1-56.867-15.756v1.568c0 60.806 43.291 111.554 100.693 123.104-10.517 2.83-21.607 4.398-33.08 4.398-8.107 0-15.947-.803-23.634-2.333 15.985 49.907 62.336 86.199 117.253 87.194-42.947 33.654-97.099 53.655-155.916 53.655-10.134 0-20.116-.612-29.944-1.721 55.567 35.681 121.536 56.485 192.438 56.485 230.948 0 357.188-191.291 357.188-357.188l-.421-16.253c24.666-17.593 46.005-39.697 62.794-64.861z"/></symbol></svg>