<?xml version="1.0" encoding="utf-8"?><svg xmlns="http://www.w3.org/2000/svg" xmlns:xlink="http://www.w3.org/1999/xlink"><symbol viewBox="0 0 512 512" id="like" xmlns="http://www.w3.org/2000/svg"><path d="M104 224H24c-13.255 0-24 10.745-24 24v240c0 13.255 10.745 24 24 24h80c13.255 0 24-10.745 24-24V248c0-13.255-10.745-24-24-24zM64 472c-13.255 0-24-10.745-24-24s10.745-24 24-24 24 10.745 24 24-10.745 24-24 24zM384 81.452c0 42.416-25.97 66.208-33.277 94.548h101.723c33.397 0 59.397 27.746 59.553 58.098.084 17.938-7.546 37.249-19.439 49.197l-.11.11c9.836 23.337 8.237 56.037-9.308 79.469 8.681 25.895-.069 57.704-16.382 74.757 4.298 17.598 2.244 32.575-6.148 44.632C440.202 511.587 389.616 512 346.839 512l-2.845-.001c-48.287-.017-87.806-17.598-119.56-31.725-15.957-7.099-36.821-15.887-52.651-16.178-6.54-.12-11.783-5.457-11.783-11.998v-213.77c0-3.2 1.282-6.271 3.558-8.521 39.614-39.144 56.648-80.587 89.117-113.111 14.804-14.832 20.188-37.236 25.393-58.902C282.515 39.293 291.817 0 312 0c24 0 72 8 72 81.452z"/></symbol><symbol viewBox="0 0 512 512" id="mail" xmlns="http://www.w3.org/2000/svg"><path d="M502.3 190.8c3.9-3.1 9.7-.2 9.7 4.7V400c0 26.5-21.5 48-48 48H48c-26.5 0-48-21.5-48-48V195.6c0-5 5.7-7.8 9.7-4.7 22.4 17.4 52.1 39.5 154.1 113.6 21.1 15.4 56.7 47.8 92.2 47.6 35.7.3 72-32.8 92.3-47.6 102-74.1 131.6-96.3 154-113.7zM256 320c23.2.4 56.6-29.2 73.4-41.4 132.7-96.3 142.8-104.7 173.4-128.7 5.8-4.5 9.2-11.5 9.2-18.9v-19c0-26.5-21.5-48-48-48H48C21.5 64 0 85.5 0 112v19c0 7.4 3.4 14.3 9.2 18.9 30.6 23.9 40.7 32.4 173.4 128.7 16.8 12.2 50.2 41.8 73.4 41.4z"/></symbol><symbol viewBox="0 0 384 512" id="marker" xmlns="http://www.w3.org/2000/svg"><path d="M172.268 501.67C26.97 291.031 0 269.413 0 192 0 85.961 85.961 0 192 0s192 85.961 192 192c0 77.413-26.97 99.031-172.268 309.67-9.535 13.774-29.93 13.773-39.464 0zM192 272c44.183 0 80-35.817 80-80s-35.817-80-80-80-80 35.817-80 80 35.817 80 80 80z"/></symbol><symbol viewBox="0 0 320 512" id="mobile" xmlns="http://www.w3.org/2000/svg"><path d="M272 0H48C21.5 0 0 21.5 0 48v416c0 26.5 21.5 48 48 48h224c26.5 0 48-21.5 48-48V48c0-26.5-21.5-48-48-48zM160 480c-17.7 0-32-14.3-32-32s14.3-32 32-32 32 14.3 32 32-14.3 32-32 32zm112-108c0 6.6-5.4 12-12 12H60c-6.6 0-12-5.4-12-12V60c0-6.6 5.4-12 12-12h200c6.6 0 12 5.4 12 12v312z"/></symbol><symbol viewBox="0 0 640 512" id="money" xmlns="http://www.w3.org/2000/svg"><path d="M640 120v272c0 13.255-10.745 24-24 24H24c-13.255 0-24-10.745-24-24V120c0-13.255 10.745-24 24-24h592c13.255 0 24 10.745 24 24zM96 384c0-35.346-28.654-64-64-64v64h64zm0-256H32v64c35.346 0 64-28.654 64-64zm304 128c0-53.021-35.816-96-80-96s-80 42.979-80 96c0 53.012 35.814 96 80 96 44.167 0 80-42.969 80-96zm208 64c-35.346 0-64 28.654-64 64h64v-64zm0-192h-64c0 35.346 28.654 64 64 64v-64zM277.563 299.527c0-7.477 3.917-11.572 11.573-11.572h15.131v-39.878c0-5.163.534-10.503.534-10.503h-.356s-1.779 2.67-2.848 3.738c-4.451 4.273-10.504 4.451-15.666-1.068l-5.518-6.231c-5.342-5.341-4.984-11.216.534-16.379l21.72-19.939c4.449-4.095 8.366-5.697 14.42-5.697h12.105c7.656 0 11.749 3.916 11.749 11.572v84.384h15.488c7.655 0 11.572 4.094 11.572 11.572v8.901c0 7.477-3.917 11.572-11.572 11.572h-67.293c-7.656 0-11.573-4.095-11.573-11.572v-8.9z"/></symbol><symbol viewBox="0 0 512 512" id="phone" xmlns="http://www.w3.org/2000/svg"><path d="M493.4 24.6l-104-24c-11.3-2.6-22.9 3.3-27.5 13.9l-48 112c-4.2 9.8-1.4 21.3 6.9 28l60.6 49.6c-36 76.7-98.9 140.5-177.2 177.2l-49.6-60.6c-6.8-8.3-18.2-11.1-28-6.9l-112 48C3.9 366.5-2 378.1.6 389.4l24 104C27.1 504.2 36.7 512 48 512c256.1 0 464-207.5 464-464 0-11.2-7.7-20.9-18.6-23.4z"/></symbol><symbol viewBox="0 0 448 512" id="plane" xmlns="http://www.w3.org/2000/svg"><path d="M446.7 98.6l-67.6 318.8c-5.1 22.5-18.4 28.1-37.3 17.5l-103-75.9-49.7 47.8c-5.5 5.5-10.1 10.1-20.7 10.1l7.4-104.9 190.9-172.5c8.3-7.4-1.8-11.5-12.9-4.1L117.8 284 16.2 252.2c-22.1-6.9-22.5-22.1 4.6-32.7L418.2 66.4c18.4-6.9 34.5 4.1 28.5 32.2z"/></symbol><symbol viewBox="0 0 512 512" id="shield" xmlns="http://www.w3.org/2000/svg"><path d="M496 128c0 221.282-135.934 344.645-221.539 380.308a48 48 0 0 1-36.923 0C130.495 463.713 16 326.487 16 128a48 48 0 0 1 29.539-44.308l192-80a48 48 0 0 1 36.923 0l192 80A48 48 0 0 1 496 128zM256 446.313l.066.034c93.735-46.689 172.497-156.308 175.817-307.729L256 65.333v380.98z"/></symbol><symbol viewBox="0 0 320 512" id="sort-down" xmlns="http://www.w3.org/2000/svg"><path d="M41 288h238c21.4 0 32.1 25.9 17 41L177 448c-9.4 9.4-24.6 9.4-33.9 0L24 329c-15.1-15.1-4.4-41 17-41z"/></symbol><symbol viewBox="0 0 320 512" id="sort-up" xmlns="http://www.w3.org/2000/svg"><path d="M279 224H41c-21.4 0-32.1-25.9-17-41L143 64c9.4-9.4 24.6-9.4 33.9 0l119 119c15.2 15.1 4.5 41-16.9 41z"/></symbol><symbol viewBox="0 0 576 512" id="star" xmlns="http://www.w3.org/2000/svg"><path d="M259.3 17.8L194 150.2 47.9 171.5c-26.2 3.8-36.7 36.1-17.7 54.6l105.7 103-25 145.5c-4.5 26.3 23.2 46 46.4 33.7L288 439.6l130.7 68.7c23.2 12.2 50.9-7.4 46.4-33.7l-25-145.5 105.7-103c19-18.5 8.5-50.8-17.7-54.6L382 150.2 316.7 17.8c-11.7-23.6-45.6-23.9-57.4 0z"/></symbol><symbol viewBox="0 0 512 512" id="user" xmlns="http://www.w3.org/2000/svg"><path d="M256 0c88.366 0 160 71.634 160 160s-71.634 160-160 160S96 248.366 96 160 167.634 0 256 0zm183.283 333.821l-71.313-17.828c-74.923 53.89-165.738 41.864-223.94 0l-71.313 17.828C29.981 344.505 0 382.903 0 426.955V464c0 26.51 21.49 48 48 48h416c26.51 0 48-21.49 48-48v-37.045c0-44.052-29.981-82.45-72.717-93.134z"/></symbol><symbol viewBox="0 0 640 512" id="user-plus" xmlns="http://www.w3.org/2000/svg"><path d="M224 32c77.32 0 140 62.68 140 140s-62.68 140-140 140S84 249.32 84 172 146.68 32 224 32zm160.373 292.093l-62.399-15.6c-65.557 47.154-145.021 36.631-195.948 0l-62.399 15.6C26.233 333.442 0 367.04 0 405.585V438c0 23.196 18.804 42 42 42h364c23.196 0 42-18.804 42-42v-32.415c0-38.545-26.233-72.143-63.627-81.492zM628 224.889h-68.889V156c0-6.627-5.373-12-12-12h-38.222c-6.627 0-12 5.373-12 12l-.002 68.887-68.887.002c-6.627 0-12 5.373-12 12v38.222c0 6.627 5.373 12 12 12l68.887.002.002 68.887c0 6.627 5.373 12 12 12h38.222c6.627 0 12-5.373 12-12l.002-68.887 68.887-.002c6.627 0 12-5.373 12-12v-38.222c0-6.627-5.373-12-12-12z"/></symbol><symbol viewBox="0 0 640 512" id="users" xmlns="http://www.w3.org/2000/svg"><path d="M320 64c57.99 0 105 47.01 105 105s-47.01 105-105 105-105-47.01-105-105S262.01 64 320 64zm113.463 217.366l-39.982-9.996c-49.168 35.365-108.766 27.473-146.961 0l-39.982 9.996C174.485 289.379 152 318.177 152 351.216V412c0 19.882 16.118 36 36 36h264c19.882 0 36-16.118 36-36v-60.784c0-33.039-22.485-61.837-54.537-69.85zM528 300c38.66 0 70-31.34 70-70s-31.34-70-70-70-70 31.34-70 70 31.34 70 70 70zm-416 0c38.66 0 70-31.34 70-70s-31.34-70-70-70-70 31.34-70 70 31.34 70 70 70zm24 112v-60.784c0-16.551 4.593-32.204 12.703-45.599-29.988 14.72-63.336 8.708-85.69-7.37l-26.655 6.664C14.99 310.252 0 329.452 0 351.477V392c0 13.255 10.745 24 24 24h112.169a52.417 52.417 0 0 1-.169-4zm467.642-107.09l-26.655-6.664c-27.925 20.086-60.89 19.233-85.786 7.218C499.369 318.893 504 334.601 504 351.216V412c0 1.347-.068 2.678-.169 4H616c13.255 0 24-10.745 24-24v-40.523c0-22.025-14.99-41.225-36.358-46.567z"/></symbol></svg>