<svg xmlns="http://www.w3.org/2000/svg" viewBox="0 0 20.51 20.51"><path d="M20.46 14.48c-.17 3.73-2.25 5.79-6 6-1.09 0-1.44.06-4.23.06s-3.13 0-4.23-.06c-3.73-.17-5.8-2.24-6-6v-4.22C0 7.52 0 7.12.06 6 .23 2.3 2.31.23 6 .06 7.12 0 7.46 0 10.26 0s3.13 0 4.23.06c3.73.17 5.8 2.26 6 6 0 1.09.06 1.44.06 4.23s0 3.13-.06 4.23zm-1.85-8.37c-.13-2.76-1.42-4.07-4.22-4.2-1.07-.06-1.4-.06-4.14-.06s-3.06 0-4.14.06C3.32 2 2 3.35 1.91 6.11c-.06 1.08-.06 1.4-.06 4.14s0 3.07.06 4.14c.09 2.77 1.42 4.09 4.2 4.21 1.08.06 1.4.06 4.14.06s3.07 0 4.14-.06c2.79-.13 4.08-1.45 4.22-4.21 0-1.08.06-1.4.06-4.14s0-3.06-.07-4.14zM15.73 6A1.23 1.23 0 1 1 17 4.77 1.22 1.22 0 0 1 15.73 6zm-5.48 9.52a5.27 5.27 0 1 1 5.26-5.27 5.27 5.27 0 0 1-5.26 5.27zm0-8.69a3.42 3.42 0 1 0 3.42 3.42 3.43 3.43 0 0 0-3.41-3.41z" fill="#fff"/></svg>