<svg xmlns="http://www.w3.org/2000/svg" viewBox="0 0 22.57 23.32"><path d="M22.06 5.61A7.78 7.78 0 0 0 16.8.53a29.18 29.18 0 0 0-11 0A7.78 7.78 0 0 0 .51 5.58a21.51 21.51 0 0 0 0 9.26 7.85 7.85 0 0 0 5 5v2.46a1 1 0 0 0 1.7.68l2.49-2.59h1.62a29.29 29.29 0 0 0 5.46-.39 7.78 7.78 0 0 0 5.25-5.05 21.51 21.51 0 0 0 .03-9.34zM18 14.84a3.76 3.76 0 0 1-1.61 1.78 3.89 3.89 0 0 1-.7.22c-.27-.08-.53-.14-.77-.24a17.55 17.55 0 0 1-6.62-4.42A17.18 17.18 0 0 1 5.74 8.3c-.32-.66-.6-1.35-.88-2a1.76 1.76 0 0 1 .52-1.73 4.08 4.08 0 0 1 1.36-1 .88.88 0 0 1 1.09.26 14.1 14.1 0 0 1 1.7 2.32 1.13 1.13 0 0 1-.32 1.53c-.13.09-.25.19-.36.29a1.2 1.2 0 0 0-.27.29.79.79 0 0 0-.05.7 6.31 6.31 0 0 0 3.54 3.92 1.81 1.81 0 0 0 .91.22c.56-.07.73-.67 1.12-1a1.06 1.06 0 0 1 1.27-.1c.41.26.81.54 1.2.82a13.68 13.68 0 0 1 1.13.86.9.9 0 0 1 .3 1.16z" fill="#fff"/></svg>