<svg xmlns="http://www.w3.org/2000/svg" viewBox="0 0 129.91 40.76"><defs><style>.cls-3{fill:#262424}</style></defs><g style="isolation:isolate"><g style="mix-blend-mode:multiply"><path class="cls-3" d="M35.43 9.48a2.6 2.6 0 0 0 2.7-.14 2.66 2.66 0 0 0 .32-3.08 2.25 2.25 0 1 0-3 3.22zm34.19-4.06C67.4 6.46 67 8 66.77 10.6A5.91 5.91 0 0 1 63.52 9 12.8 12.8 0 0 0 62 11a6.52 6.52 0 0 0 4.89 2.53c1.06 4.89 4.49 6.53 4.43 9.92 0 .72-.55 2.67-2 3.08-1.09.29-2.88-.17-2.9-1.55 2.07 0 2.53-3.88-.46-4.05-1.52-.09-1.81.55-2.33 1.35-1.23 1.72.15 5.63 2.51 6.72a7.38 7.38 0 0 0 4.34.37 4.79 4.79 0 0 0 2.59-1.5c1.38-1.27 1.55-2.93 1.55-4.72 0-3.8-3.13-6.07-4.31-9.46 1.67-.06 3.65-.52 4.37-1.47 1.61-2.16 1.09-5.29.06-6.21a5.28 5.28 0 0 0-5.12-.59zm3 4.54c-.29.37-.92 1-2.76.92a3.34 3.34 0 0 1 .81-2.62c1.68-1.26 2.66.9 2 1.74zm41.21 16.23c-.86-.89-.6-3.19-.37-4.8 1.61-.12 2.9.11 4.69-1.18 2-1.47 2.3-5.81 1.06-7.33s-3.62-1.44-5.52-1c-2.36.55-2.85 4.4-3.16 7.65-.11 1.3-.27 2.89-.26 4.41-1.34 1.75-2 2.31-2.51 2.58-.83.4-2.16.23-2.21-.66-.29-3.62-.58-8.68-.49-10.81 1.58-3.36 2.24-4.31 2.88-6.1.89-2.42 1.67-3.77 1-6.73-.63-2.7-4-2.3-5.15-2-2.76.86-2.1 4.14-2.21 5.67.23 9.75.09 13.08.17 16.13v.31c-1.77 2-3.14 3.34-4.12 4.32-.2-3.51-.06-10-.29-14.69a22.88 22.88 0 0 0-3.16 0c0 4.31.12 7.65.26 11.39-1.27 1.35-3.36 3-3.45.89 0-1.09-.32-7.68-.34-12.25a12.14 12.14 0 0 0-3.22 0c.23 4.72.23 7.74.26 8.71 0 .57.06 1.18.1 1.82a14.93 14.93 0 0 1-3.23 3.44c-1.09.86-3.28.78-3.25-1.5l.09-8.31c1.27-.11 2.33-.14 4.08-.29a17.86 17.86 0 0 0 0-2.59c-1.55 0-3.08.09-4.08.06.12-2.07-.09-3.48 0-5.46-1.32 0-2.55.13-3.4.13l-.09 9c0 2.13-.11 5.84.14 9.95a2.83 2.83 0 0 0 .75 1.7c.95 1 4.72 1.67 7.45-.78a13.53 13.53 0 0 0 1.63-1.69v.13a2.72 2.72 0 0 0 1.52 2.5c2.07.63 3.91-1 5.18-2.21.06 1 .11 1.75.14 2.53a26.52 26.52 0 0 0-2.82 2.53 9.13 9.13 0 0 0-2.16 3c-.63 1.73-.12 4.14.72 4.95a4.53 4.53 0 0 0 4.14 1.09c2-.29 3.42-1.15 3.25-6.41-.06-1.44-.09-2.59-.17-3.83a45.76 45.76 0 0 0 4.14-4.61A10.4 10.4 0 0 0 102 27c.32 3.22 5.29 3 6.7 2.16a8 8 0 0 0 2-2 3.36 3.36 0 0 0 .83 1.37c.81.72 6.9 4.14 12.25-4.83a6.38 6.38 0 0 0-1.35-1.7c-4.69 6-7.43 5.42-8.6 4.19zm1.5-11.7c1.09-.2 2 0 2 1.38a3.2 3.2 0 0 1-.83 2.3 4 4 0 0 1-2.76.58c.06-1.13.26-4.04 1.58-4.27zM95 35.91c-.06.72 0 2-1.55 2.1-.63 0-1.27-1.12-1.12-2.24.14-.95 1.73-2.3 2.65-3.36.02.97.14 2.17.02 3.5zm9.4-29.71V4c0-1.64 2.53-2.42 2.19.6a20.07 20.07 0 0 1-1.9 6.27c-.11-2.08-.31-3.61-.28-4.67z"/><path class="cls-3" d="M52.21 12.08l-2.59.1s.2 1.66.29 4.39a16.25 16.25 0 0 1-1.07 7c-.6 1.27-2.9 3.25-3 1.32 0-.81-.23-5.32-.26-6.3 0-1.18-.06-4.8-.2-6.82-1.12 0-2.13.11-3 .14 0 2.13.14 7.56.3 11-1.39 1.94-3.05 4-4.12 3.15-.69-.55-.17-8.37-.29-14.21A30 30 0 0 0 35 12c-.09 4.23 0 7 0 10.4-1.76 2-3.13 3.32-4.1 4.29-.2-3.51-.06-10-.29-14.69a22.89 22.89 0 0 0-3.16 0c0 4.31.12 7.65.26 11.39-1.27 1.35-3.36 3-3.45.89 0-1.09-.32-7.68-.35-12.25a12.14 12.14 0 0 0-3.22 0c.23 4.72.23 7.74.26 8.71 0 .57.06 1.18.1 1.82a10.81 10.81 0 0 1-2.57 2.84c-.26.2-1 .86-1.73.72s-.52-2.56-.55-3.34.06-1.47-.12-3.36-1.21-3.13-3.48-3.28c.75-1.47 2.07-3.62 3.39-5.87.43-.72 1-1.64 1.67-3a13.36 13.36 0 0 0-2.82-1.35c-1.09 2-2 3.31-2.93 5.26-.72 1.44-1.64 3-2.62 4.77-.09-2.79 0-4.72-.06-5.52s.14-3.08.06-4.26a46.14 46.14 0 0 0-4.92 0A7 7 0 0 0 0 8.85a6.72 6.72 0 0 0 1.55 2A5.22 5.22 0 0 1 4 9.1 4.69 4.69 0 0 1 6.1 9v5.87l-.06 8.63c0 2.13-.06 4.66 0 5.64a23.49 23.49 0 0 0 3.19 0V18.68c.75.06 2.7-.2 3.25.78a6.55 6.55 0 0 1 .52 3.19c0 1.9 0 4.57.49 5.69s1.87 1.12 2.93 1c.89-.09 2.51-.53 4.79-3.3v.22a2.72 2.72 0 0 0 1.52 2.5c2.07.63 3.91-1 5.18-2.21.06 1 .11 1.75.14 2.53a26.52 26.52 0 0 0-2.82 2.53 9.13 9.13 0 0 0-2.16 3c-.63 1.73-.11 4.14.72 4.95A4.54 4.54 0 0 0 28 40.68c2-.29 3.42-1.15 3.25-6.41-.06-1.44-.09-2.59-.17-3.83a44.41 44.41 0 0 0 4.05-4.51v.2c.06 3.11 2.79 3.65 5.06 2.85a14.26 14.26 0 0 0 2.75-2.51c.25 1.56.81 2.8 1.81 2.94 2.5.37 4.6-.63 6.53-4 1-1.77 1.94-5.64 1.43-10.2a4.54 4.54 0 0 0 3.87-1.43c-.23-.75-.46-1.41-.72-2.16-1.14.93-3.03 1.08-3.65.46zM28.33 35.91c-.06.72 0 2-1.55 2.1-.63 0-1.27-1.12-1.12-2.24.14-.95 1.73-2.3 2.65-3.36-.04.97.13 2.17.02 3.5zM129.8 3.51a5.4 5.4 0 0 0-.78 0 20.87 20.87 0 0 0-1 1.92 7.61 7.61 0 0 0-1-2h-.92l-.1 4.41h.9a21.27 21.27 0 0 0 0-2.86c.64 1.34 1 1.75 1 1.76.3-.16.45-.52 1.09-1.72 0 1.44.05 1.53 0 2.82h.84zm-7.35.06v.85h.92v3.42h.93V4.46h1v-.89c-.87 0-2.3-.06-2.85 0z"/></g></g></svg>