<svg viewBox="0 0 48 48" xmlns="http://www.w3.org/2000/svg"><path d="M24,48 C37.2548347,48 48,37.2548347 48,24 C48,10.7451653 37.2548347,0 24,0 C10.7451653,0 0,10.7451653 0,24 C0,37.2548347 10.7451653,48 24,48 Z" fill="#346DA6"/><path d="M1.34050988,31.9285231 C3.74441512,38.7992888 9.1849849,44.2438116 16.0532227,46.6530951 L24.9996078,37.7067101 L24,30.569033 L29.5994324,23.9960899 L23.1963074,22.700284 L30.5278412,14.7687507 L21.7502835,11.5187495 L1.34050988,31.9285231 Z" fill="#000000" fill-opacity="0.400000006"/><path d="M20.3697792,37.8514504 L20.3697792,23.999169 L17.5546312,23.999169 L17.5546312,19.4074851 L20.3697791,19.4074851 L20.3697792,16.6307091 C20.3697792,12.8853138 21.4895959,10.1844952 25.5904818,10.1844952 L30.4690876,10.1844952 L30.4690876,14.766752 L27.0338036,14.766752 C25.3135155,14.766752 24.921499,15.909901 24.921499,17.1070088 L24.921499,19.4074842 L30.2155385,19.4074847 L29.4929383,23.999169 L24.921499,23.999169 L24.921499,37.8514499 L20.3697792,37.8514504 Z" fill="#FFFFFF"/></svg>