<?xml version="1.0" encoding="iso-8859-1"?>
<!-- Generator: Adobe Illustrator 19.0.0, SVG Export Plug-In . SVG Version: 6.00 Build 0)  -->
<svg version="1.1" id="Capa_1" xmlns="http://www.w3.org/2000/svg" xmlns:xlink="http://www.w3.org/1999/xlink" x="0px" y="0px"
	 viewBox="0 0 512.001 512.001" style="enable-background:new 0 0 512.001 512.001;" xml:space="preserve">
<path style="fill:#00B76C;" d="M163.778,163.779L80.281,80.282C35.311,125.252,7.497,187.378,7.497,256h118.083
	C125.579,219.986,140.177,187.38,163.778,163.779z"/>
<path style="fill:#00A05B;" d="M101.821,256h23.758c0-36.014,14.598-68.62,38.199-92.221l-10.766-10.766
	C121.912,176.604,101.821,213.954,101.821,256z"/>
<path style="fill:#546F7A;" d="M125.579,256H7.497c0,68.623,27.815,130.748,72.785,175.718l83.497-83.497
	C140.177,324.62,125.579,292.015,125.579,256z"/>
<path style="fill:#475D63;" d="M101.821,256L101.821,256c0,42.046,20.091,79.396,51.192,102.987l10.766-10.766
	C140.178,324.62,125.58,292.014,125.58,256H101.821z"/>
<path style="fill:#3D4FF9;" d="M163.778,348.221l-83.497,83.497c44.97,44.97,107.096,72.785,175.718,72.785V386.421
	C219.984,386.421,187.38,371.823,163.778,348.221z"/>
<path style="fill:#3046C1;" d="M231.011,385.191c2.025,0,4.037-0.053,6.04-0.145c-28.43-4.139-53.889-17.441-73.273-36.825
	l-10.766,10.766C174.688,375.428,201.708,385.191,231.011,385.191z"/>
<path style="fill:#39A4FA;" d="M256,386.421v118.083c68.623,0,130.748-27.815,175.718-72.785l-83.497-83.497
	C324.619,371.823,292.015,386.421,256,386.421z"/>
<path style="fill:#0091E2;" d="M256,503.257v1.245c68.623,0,130.748-27.815,175.718-72.785l-12.938-12.938
	C378.342,465.385,320.842,496.782,256,503.257z"/>
<path style="fill:#8B41F7;" d="M386.42,256c0,36.015-14.598,68.62-38.199,92.221l83.497,83.497
	c44.97-44.97,72.785-107.096,72.785-175.718L386.42,256L386.42,256z"/>
<path style="fill:#7539D3;" d="M479.513,256L479.513,256c0,62.262-22.9,119.175-60.734,162.78l12.938,12.938
	c44.97-44.97,72.785-107.096,72.785-175.718L479.513,256L479.513,256z"/>
<path style="fill:#FF434D;" d="M386.42,256h118.083c0-68.623-27.815-130.748-72.785-175.718l-83.497,83.497
	C371.822,187.38,386.42,219.986,386.42,256z"/>
<path style="fill:#DD3646;" d="M479.513,256h24.989c0-68.623-27.815-130.748-72.785-175.718L418.779,93.22
	C456.614,136.825,479.513,193.738,479.513,256z"/>
<path style="fill:#FF6137;" d="M348.221,163.779l83.497-83.497C386.748,35.312,324.622,7.497,256,7.497V125.58
	C292.015,125.58,324.619,140.177,348.221,163.779z"/>
<path style="fill:#E04F32;" d="M418.779,93.22l12.938-12.938C386.748,35.312,324.622,7.497,256,7.497v1.245
	C320.842,15.218,378.342,46.615,418.779,93.22z"/>
<path style="fill:#FFD039;" d="M256,125.58V7.497c-68.623,0-130.748,27.815-175.718,72.785l83.497,83.497
	C187.38,140.177,219.984,125.58,256,125.58z"/>
<path style="fill:#FFAE47;" d="M231.011,126.81c-29.303,0-56.323,9.762-77.998,26.203l10.766,10.766
	c19.383-19.383,44.841-32.686,73.272-36.824C235.048,126.863,233.036,126.81,231.011,126.81z"/>
<path d="M437.019,74.981C388.667,26.629,324.379,0.001,256,0.001S123.332,26.629,74.98,74.981C26.628,123.333,0,187.62,0,256
	c0,68.381,26.628,132.668,74.981,181.02C123.332,485.372,187.62,512,256.001,512c68.38,0,132.667-26.628,181.02-74.981
	c48.352-48.353,74.981-112.639,74.981-181.02C512,187.62,485.371,123.333,437.019,74.981z M393.718,248.503
	c-1.677-31.535-13.924-61.098-35.035-84.584l68.781-68.781l4.175-4.175c40.5,43.037,63.461,98.47,65.255,157.539H393.718z
	 M342.919,342.92c-23.217,23.218-54.085,36.004-86.919,36.004s-63.703-12.786-86.92-36.004s-36.003-54.086-36.003-86.92
	s12.786-63.703,36.003-86.92c23.218-23.218,54.086-36.004,86.92-36.004s63.703,12.786,86.919,36.003
	c23.218,23.218,36.005,54.086,36.005,86.92C378.924,288.834,366.138,319.703,342.919,342.92z M248.503,15.108v20.258
	c0,4.14,3.357,7.497,7.497,7.497c4.141,0,7.497-3.357,7.497-7.497V15.108c59.069,1.793,114.501,24.755,157.539,65.254
	l-72.956,72.956c-23.485-21.113-53.047-33.357-84.583-35.035V65.352c0-4.14-3.355-7.497-7.497-7.497
	c-4.14,0-7.497,3.357-7.497,7.497v52.931c-31.535,1.677-61.099,13.923-84.585,35.035L90.964,80.363
	C134.001,39.863,189.434,16.901,248.503,15.108z M58.867,248.503h-43.76c1.793-59.069,24.755-114.502,65.255-157.539l72.956,72.956
	c-21.113,23.486-33.358,53.048-35.035,84.584H88.854c-4.14,0-7.497,3.357-7.497,7.497s3.357,7.497,7.497,7.497h29.428
	c1.677,31.535,13.923,61.099,35.035,84.585l-72.956,72.956c-40.5-43.037-63.461-98.47-65.255-157.539h43.76
	c4.14,0,7.497-3.357,7.497-7.497C66.364,251.86,63.007,248.503,58.867,248.503z M163.919,358.682
	c23.486,21.113,53.048,33.358,84.585,35.035v103.174c-59.07-1.793-114.503-24.755-157.539-65.255L163.919,358.682z M431.638,421.036
	l-38.147-38.147c-2.929-2.928-7.675-2.928-10.602,0c-2.928,2.928-2.928,7.675,0,10.601l38.148,38.148
	c-43.038,40.5-98.47,63.461-157.539,65.254V393.718c31.536-1.677,61.099-13.923,84.583-35.035l15.175,15.175
	c2.929,2.928,7.675,2.928,10.602,0c2.928-2.928,2.928-7.675,0-10.601l-15.175-15.175c21.113-23.486,33.359-53.048,35.035-84.583
	h103.175C495.098,322.566,472.138,377.999,431.638,421.036z"/>
<g>
</g>
<g>
</g>
<g>
</g>
<g>
</g>
<g>
</g>
<g>
</g>
<g>
</g>
<g>
</g>
<g>
</g>
<g>
</g>
<g>
</g>
<g>
</g>
<g>
</g>
<g>
</g>
<g>
</g>
</svg>
