<?xml version="1.0" encoding="iso-8859-1"?>
<!-- Generator: Adobe Illustrator 19.0.0, SVG Export Plug-In . SVG Version: 6.00 Build 0)  -->
<svg version="1.1" id="Capa_1" xmlns="http://www.w3.org/2000/svg" xmlns:xlink="http://www.w3.org/1999/xlink" x="0px" y="0px"
	 viewBox="0 0 512 512" style="enable-background:new 0 0 512 512;" xml:space="preserve">
<path style="fill:#00B76C;" d="M160.996,160.996L74.98,74.98C28.654,121.308,0,185.307,0,256h121.645
	C121.645,218.899,136.683,185.31,160.996,160.996z"/>
<path style="fill:#00A05B;" d="M97.169,256h24.476c0-37.101,15.038-70.69,39.352-95.004l-11.091-11.091
	C117.867,174.209,97.169,212.685,97.169,256z"/>
<path style="fill:#546F7A;" d="M121.645,256H0c0,70.693,28.654,134.693,74.98,181.019l86.016-86.016
	C136.683,326.69,121.645,293.101,121.645,256z"/>
<path style="fill:#475D63;" d="M97.169,256L97.169,256c0,43.315,20.698,81.791,52.736,106.094l11.091-11.091
	c-24.314-24.314-39.352-57.902-39.352-95.004L97.169,256L97.169,256z"/>
<path style="fill:#3D4FF9;" d="M160.996,351.003L74.98,437.019c46.326,46.327,110.327,74.98,181.019,74.98V390.354
	C218.899,390.355,185.31,375.317,160.996,351.003z"/>
<path style="fill:#3046C1;" d="M230.257,389.087c2.086,0,4.159-0.054,6.222-0.15c-29.288-4.264-55.515-17.967-75.483-37.935
	l-11.091,11.091C172.235,379.031,200.07,389.087,230.257,389.087z"/>
<path style="fill:#39A4FA;" d="M256,390.355V512c70.693,0,134.693-28.654,181.019-74.98l-86.016-86.016
	C326.69,375.317,293.101,390.355,256,390.355z"/>
<path style="fill:#0091E2;" d="M256,510.716V512c70.693,0,134.693-28.654,181.019-74.98l-13.329-13.329
	C382.033,471.702,322.798,504.046,256,510.716z"/>
<path style="fill:#8B41F7;" d="M390.355,256c0,37.101-15.038,70.69-39.352,95.004l86.016,86.016
	c46.327-46.326,74.98-110.327,74.98-181.019L390.355,256L390.355,256z"/>
<path style="fill:#7539D3;" d="M486.257,256L486.257,256c0,64.141-23.59,122.771-62.566,167.69l13.329,13.329
	C483.346,390.692,512,326.692,512,256L486.257,256L486.257,256z"/>
<path style="fill:#FF434D;" d="M390.355,256H512c0-70.693-28.654-134.693-74.98-181.019l-86.016,86.016
	C375.317,185.31,390.355,218.899,390.355,256z"/>
<path style="fill:#DD3646;" d="M486.257,256H512c0-70.693-28.654-134.693-74.98-181.019l-13.329,13.329
	C462.667,133.229,486.257,191.859,486.257,256z"/>
<path style="fill:#FF6137;" d="M351.003,160.996l86.016-86.016C390.692,28.654,326.692,0,256,0v121.645
	C293.101,121.645,326.69,136.683,351.003,160.996z"/>
<path style="fill:#E04F32;" d="M423.691,88.309L437.02,74.98C390.692,28.654,326.692,0,256,0v1.284
	C322.798,7.954,382.033,40.298,423.691,88.309z"/>
<path style="fill:#FFD039;" d="M256,121.645V0C185.307,0,121.307,28.654,74.98,74.98l86.016,86.016
	C185.31,136.683,218.899,121.645,256,121.645z"/>
<path style="fill:#FFAE47;" d="M230.257,122.912c-30.187,0-58.022,10.057-80.351,26.994l11.091,11.091
	c19.968-19.968,46.194-33.671,75.482-37.935C234.416,122.967,232.343,122.912,230.257,122.912z"/>
<g>
</g>
<g>
</g>
<g>
</g>
<g>
</g>
<g>
</g>
<g>
</g>
<g>
</g>
<g>
</g>
<g>
</g>
<g>
</g>
<g>
</g>
<g>
</g>
<g>
</g>
<g>
</g>
<g>
</g>
</svg>
