<?xml version="1.0" encoding="utf-8"?><svg xmlns="http://www.w3.org/2000/svg" xmlns:xlink="http://www.w3.org/1999/xlink"><symbol viewBox="0 0 512 512" id="badge" xmlns="http://www.w3.org/2000/svg"><path d="M500.406 223.531l-4.469-5.211c-9.875-11.531-16.094-34.734-13.312-49.664l1.266-6.742c2.125-11.289-.078-23.336-6.188-33.914s-15.438-18.508-26.266-22.32l-6.484-2.281c-14.328-5.047-31.312-22.031-36.359-36.359l-2.281-6.469c-6.781-19.266-26.859-33.25-47.766-33.25-2.844 0-5.688.266-8.453.781l-6.75 1.266c-2.391.445-5.062.672-7.922.672-14.734 0-32.297-5.883-41.75-13.984l-5.203-4.461C279.75 4.117 268.219 0 256 0s-23.75 4.117-32.469 11.594l-5.203 4.461c-9.453 8.102-27.016 13.984-41.75 13.984-2.875 0-5.531-.227-7.922-.672l-6.75-1.266a46.115 46.115 0 0 0-8.469-.773c-20.891 0-40.969 13.977-47.766 33.242l-2.266 6.469c-5.047 14.328-22.047 31.312-36.359 36.359l-6.484 2.281c-10.828 3.812-20.156 11.742-26.266 22.32-6.11 10.578-8.312 22.625-6.188 33.914l1.25 6.742c2.797 14.93-3.422 38.133-13.297 49.664l-4.469 5.211C4.109 232.258 0 243.789 0 256s4.125 23.75 11.594 32.469l4.469 5.203c9.875 11.531 16.094 34.734 13.297 49.672l-1.25 6.75c-2.125 11.281.078 23.328 6.188 33.906 6.11 10.578 15.438 18.5 26.281 22.312l6.469 2.281c14.312 5.047 31.312 22.031 36.359 36.359l2.281 6.484c6.781 19.25 26.859 33.234 47.75 33.234 2.875 0 5.719-.266 8.469-.781l6.75-1.266c2.391-.438 5.047-.656 7.922-.656 14.734 0 32.297 5.875 41.734 13.969l5.219 4.469C232.25 507.875 243.781 512 256 512s23.75-4.125 32.469-11.594l5.203-4.469c9.453-8.094 27.016-13.969 41.75-13.969 2.875 0 5.531.219 7.922.656l6.734 1.281c2.766.5 5.609.766 8.469.766 20.906 0 40.984-13.984 47.766-33.234l2.281-6.484c5.047-14.328 22.031-31.312 36.359-36.359l6.484-2.281c10.828-3.812 20.156-11.734 26.266-22.312s8.297-22.625 6.188-33.906l-1.266-6.75c-2.781-14.938 3.438-38.141 13.312-49.656l4.469-5.219C507.875 279.75 512 268.219 512 256c0-12.211-4.125-23.742-11.594-32.469zm-16.203 51.063l-4.453 5.188c-14.141 16.5-22.078 46.141-18.094 67.484l1.266 6.734c2.438 13.062-6.062 27.781-18.578 32.188l-6.469 2.281c-20.484 7.219-42.188 28.922-49.406 49.406l-2.266 6.469c-3.828 10.828-15.703 19-27.656 19-1.531 0-3.062-.141-4.531-.406l-6.75-1.281c-3.672-.688-7.656-1.031-11.844-1.031-19.938 0-42.297 7.688-55.625 19.125l-5.219 4.469c-4.859 4.156-11.453 6.438-18.578 6.438s-13.719-2.281-18.578-6.438l-5.219-4.469c-13.344-11.438-35.688-19.125-55.625-19.125-4.188 0-8.172.344-11.844 1.031l-6.75 1.266a24.146 24.146 0 0 1-4.547.422c-11.938 0-23.828-8.172-27.641-19l-2.281-6.469c-7.203-20.5-28.906-42.188-49.391-49.406l-6.469-2.281c-12.514-4.408-21.03-19.127-18.577-32.189l1.266-6.734c3.984-21.359-3.953-50.984-18.094-67.484l-4.453-5.188c-8.641-10.086-8.641-27.102 0-37.18l4.453-5.211c14.141-16.484 22.078-46.125 18.078-67.469l-1.25-6.75c-2.453-13.039 6.062-27.773 18.578-32.18l6.469-2.281c20.484-7.219 42.188-28.914 49.391-49.398l2.281-6.469c3.812-10.828 15.703-19 27.641-19 1.547 0 3.078.141 4.547.414l6.75 1.266c3.672.688 7.656 1.039 11.844 1.039 19.938 0 42.281-7.688 55.625-19.117l5.219-4.469c4.859-4.164 11.453-6.453 18.578-6.453s13.719 2.289 18.578 6.453l5.219 4.469c13.328 11.43 35.688 19.117 55.625 19.117 4.188 0 8.172-.352 11.844-1.039l6.75-1.266c1.469-.273 3-.414 4.531-.414 11.953 0 23.844 8.164 27.656 19l2.266 6.469c7.219 20.484 28.922 42.18 49.406 49.398l6.469 2.281c12.516 4.406 21.031 19.141 18.578 32.18l-1.266 6.75c-3.984 21.344 3.953 50.984 18.094 67.477l4.453 5.203c8.64 10.078 8.64 27.094-.001 37.18z"/><path d="M362.672 138.664a10.646 10.646 0 0 0-7.547 3.125L141.797 355.125a10.603 10.603 0 0 0-3.125 7.531c0 5.906 4.766 10.688 10.656 10.688 2.953 0 5.609-1.203 7.547-3.125l213.328-213.344a10.594 10.594 0 0 0 3.125-7.539c0-5.891-4.766-10.672-10.656-10.672zm-170.672 0c-29.453 0-53.328 23.883-53.328 53.336s23.875 53.336 53.328 53.336 53.328-23.883 53.328-53.336-23.875-53.336-53.328-53.336zM192 224c-17.641 0-32-14.352-32-32s14.359-32 32-32 32 14.352 32 32-14.359 32-32 32zm128 42.664c-29.453 0-53.328 23.883-53.328 53.336s23.875 53.344 53.328 53.344 53.328-23.891 53.328-53.344-23.875-53.336-53.328-53.336zM320 352c-17.641 0-32-14.344-32-32s14.359-32 32-32 32 14.344 32 32-14.359 32-32 32z"/></symbol><symbol viewBox="0 0 320 512" id="caret-up" xmlns="http://www.w3.org/2000/svg"><path d="M288.662 352H31.338c-17.818 0-26.741-21.543-14.142-34.142l128.662-128.662c7.81-7.81 20.474-7.81 28.284 0l128.662 128.662c12.6 12.599 3.676 34.142-14.142 34.142z"/></symbol><symbol viewBox="0 0 512 512" id="cashbox" xmlns="http://www.w3.org/2000/svg"><path d="M296 40c-5.52 0-10 4.48-10 10s4.48 10 10 10 10-4.48 10-10-4.48-10-10-10zm0 0"/><path d="M492 387.719V176c0-16.543-13.457-30-30-30h-66v-46h40c16.543 0 30-13.457 30-30V30c0-16.543-13.457-30-30-30H276c-16.543 0-30 13.457-30 30v40c0 16.543 13.457 30 30 30h40v46H216V90c0-5.523-4.477-10-10-10H106c-5.523 0-10 4.477-10 10v56H50c-16.543 0-30 13.457-30 30v211.719C8.36 391.848 0 402.965 0 416v66c0 16.543 13.457 30 30 30h452c16.543 0 30-13.457 30-30v-66c0-13.035-8.36-24.152-20-28.281zM336 100h40v46h-40zm-70-30V30c0-5.516 4.484-10 10-10h160c5.516 0 10 4.484 10 10v40c0 5.516-4.484 10-10 10H276c-5.516 0-10-4.484-10-10zm-150 30h80v186h-80zm-76 76c0-5.516 4.484-10 10-10h46v120c-5.523 0-10 4.477-10 10s4.477 10 10 10h120c5.523 0 10-4.477 10-10s-4.477-10-10-10V166h246c5.516 0 10 4.484 10 10v210H40zm146 230h140v26c0 5.516-4.484 10-10 10H196c-5.516 0-10-4.484-10-10zm306 76c0 5.516-4.484 10-10 10H30c-5.516 0-10-4.484-10-10v-66c0-5.516 4.484-10 10-10h136v26c0 16.543 13.457 30 30 30h120c16.543 0 30-13.457 30-30v-26h136c5.516 0 10 4.484 10 10zm0 0"/><path d="M276 286h140c5.523 0 10-4.477 10-10v-80c0-5.523-4.477-10-10-10H276c-5.523 0-10 4.477-10 10v80c0 5.523 4.477 10 10 10zm10-80h120v60H286zm130 100h-20c-5.523 0-10 4.477-10 10s4.477 10 10 10h20c5.523 0 10-4.477 10-10s-4.477-10-10-10zm-60 0h-20c-5.523 0-10 4.477-10 10s4.477 10 10 10h20c5.523 0 10-4.477 10-10s-4.477-10-10-10zm-80 20h20c5.523 0 10-4.477 10-10s-4.477-10-10-10h-20c-5.523 0-10 4.477-10 10s4.477 10 10 10zm140 20h-20c-5.523 0-10 4.477-10 10s4.477 10 10 10h20c5.523 0 10-4.477 10-10s-4.477-10-10-10zm-60 0h-20c-5.523 0-10 4.477-10 10s4.477 10 10 10h20c5.523 0 10-4.477 10-10s-4.477-10-10-10zm-80 20h20c5.523 0 10-4.477 10-10s-4.477-10-10-10h-20c-5.523 0-10 4.477-10 10s4.477 10 10 10zm-50-30c0-5.523-4.477-10-10-10H96c-5.523 0-10 4.477-10 10s4.477 10 10 10h120c5.523 0 10-4.477 10-10zM336 60h80c5.523 0 10-4.477 10-10s-4.477-10-10-10h-80c-5.523 0-10 4.477-10 10s4.477 10 10 10zm0 0"/></symbol><symbol viewBox="-49 141 512 512" id="certificate" xmlns="http://www.w3.org/2000/svg"><path d="M249.184 477.582l-35.467-62.308c3.592-1.679 5.752-5.511 5.511-9.826l-2.635-22.049 15.098-15.815c3.352-3.355 3.592-9.107.237-13.182l-15.095-16.295 3.112-22.289c.48-4.791-2.876-9.587-7.667-10.546l-21.809-4.312-10.543-19.413c-2.156-4.552-7.431-6.468-12.222-4.552h-.24l-20.13 9.347-19.653-9.587c-2.156-1.2-4.792-1.439-7.188-.72-2.399.72-4.314 2.396-5.511 4.555L104.196 300l-21.809 3.835c-5.032.959-8.388 5.512-7.908 10.783l2.636 22.049-15.099 15.818c-3.355 3.356-3.595 9.107-.24 13.179l15.098 16.297-3.115 22.286c-.48 4.315 2.159 8.39 6.231 10.067l-35.707 63.268c-.96 1.436-.72 3.356 0 4.792.959 1.439 2.396 2.399 4.075 2.399h38.343l17.494 30.433c.959 1.439 2.396 2.399 4.075 2.399 1.676 0 3.356-.96 4.073-2.399l34.271-58.473 34.271 59.193c.956 1.439 2.396 2.397 4.073 2.397 1.679 0 3.355-.957 4.075-2.397l17.494-31.152h38.344c1.679 0 3.355-.96 4.075-2.399 1.196-1.437 1.196-3.356.238-4.793zM108.51 503.223l-14.858-25.641c-.96-1.439-2.399-2.396-4.076-2.396H56.505l33.072-58.476 13.659 2.396 10.547 19.413c2.155 4.552 7.427 6.471 12.222 4.552h.24l9.823-4.552 4.795 8.387-32.353 56.317zm13.899-68.778h-.24l-10.543-19.89c-1.439-2.396-3.835-4.315-6.711-4.552l-22.049-4.076 3.115-22.049c.48-2.876-.479-5.991-2.396-7.908l-14.858-16.297 15.099-15.815c2.155-2.159 3.115-5.035 2.635-7.911l-2.635-21.806s0-.24.24-.48l21.809-3.835c2.635-.479 5.272-2.156 6.708-4.792l10.786-19.413 19.651 9.587c2.635 1.436 5.991 1.436 8.627 0l19.893-9.107h.24l10.543 19.89c1.439 2.396 3.835 4.315 6.471 4.555l21.809 4.312-3.115 22.049c-.48 2.876.476 5.991 2.396 7.908l15.098 16.298-15.338 15.818c-2.156 2.156-3.116 5.031-2.636 7.907l2.636 22.049-21.569 3.592c-2.636.479-5.272 2.158-6.711 4.794l-10.784 19.41-19.65-9.587c-2.638-1.436-5.991-1.436-8.63 0l-19.891 9.349zm81.482 40.741c-1.679 0-3.356.956-4.076 2.396l-14.858 26.361-33.792-58.473c-.237-.72-.476-1.199-.956-1.679l-5.272-9.346 1.676-.717 19.651 9.583c1.439.72 2.875.96 4.314.96 3.356 0 6.711-1.677 8.388-4.792l10.786-19.413 14.378-2.635 32.832 57.756h-33.071zm0 0"/><path d="M194.544 360.153c0-26.361-21.568-47.93-47.93-47.93-26.361 0-47.93 21.569-47.93 47.93s21.569 47.93 47.93 47.93 47.93-21.568 47.93-47.93zm-47.93 38.344c-21.089 0-38.343-17.254-38.343-38.344 0-21.089 17.254-38.343 38.343-38.343 21.09 0 38.344 17.254 38.344 38.343 0 21.09-17.255 38.344-38.344 38.344zm0 0"/></symbol><symbol viewBox="0 0 512 512" id="close" xmlns="http://www.w3.org/2000/svg"><path d="M505.943 6.058c-8.077-8.077-21.172-8.077-29.249 0L6.058 476.693c-8.077 8.077-8.077 21.172 0 29.249A20.612 20.612 0 0 0 20.683 512a20.614 20.614 0 0 0 14.625-6.059L505.943 35.306c8.076-8.076 8.076-21.171 0-29.248z"/><path d="M505.942 476.694L35.306 6.059c-8.076-8.077-21.172-8.077-29.248 0-8.077 8.076-8.077 21.171 0 29.248l470.636 470.636a20.616 20.616 0 0 0 14.625 6.058 20.615 20.615 0 0 0 14.624-6.057c8.075-8.078 8.075-21.173-.001-29.25z"/></symbol><symbol viewBox="0 0 512 512" id="coding" xmlns="http://www.w3.org/2000/svg"><circle cx="53.333" cy="53.333" r="10.667"/><circle cx="96" cy="53.333" r="10.667"/><circle cx="138.667" cy="53.333" r="10.667"/><path d="M188.167 301.146L134 256l54.167-45.146c4.521-3.771 5.135-10.5 1.365-15.021-3.781-4.5-10.479-5.146-15.031-1.354l-64 53.333c-2.427 2.021-3.833 5.021-3.833 8.188s1.406 6.167 3.833 8.188l64 53.333c2 1.667 4.417 2.479 6.823 2.479a10.69 10.69 0 0 0 8.208-3.833c3.77-4.521 3.156-11.25-1.365-15.021zm91.635 15.021A10.689 10.689 0 0 0 288.01 320c2.406 0 4.823-.813 6.823-2.479l64-53.333c2.427-2.021 3.833-5.021 3.833-8.188s-1.406-6.167-3.833-8.188l-64-53.333c-4.531-3.792-11.24-3.146-15.031 1.354-3.771 4.521-3.156 11.25 1.365 15.021L335.333 256l-54.167 45.146c-4.52 3.771-5.135 10.5-1.364 15.021zm-8.937-144.646c-5.385-2.292-11.688.188-14 5.604l-64 149.333c-2.323 5.417.188 11.688 5.604 14.021 1.365.583 2.792.854 4.198.854 4.135 0 8.073-2.417 9.802-6.458l64-149.333c2.323-5.417-.188-11.688-5.604-14.021z"/><path d="M503.927 362.979l-20.438-5.104 10.833-18.042a10.681 10.681 0 0 0-1.604-13.042l-23.385-23.385V42.667C469.333 19.146 450.198 0 426.667 0h-384C19.135 0 0 19.146 0 42.667v384c0 23.521 19.135 42.667 42.667 42.667h260.74l23.375 23.375c3.448 3.458 8.813 4.104 13.031 1.604l18.063-10.833 5.115 20.438a10.663 10.663 0 0 0 10.344 8.083H416c4.896 0 9.156-3.333 10.344-8.083l5.115-20.438 18.063 10.833a10.667 10.667 0 0 0 13.031-1.604l30.167-30.167a10.681 10.681 0 0 0 1.604-13.042l-10.833-18.042 20.438-5.104A10.676 10.676 0 0 0 512.002 416v-42.667a10.681 10.681 0 0 0-8.075-10.354zM21.333 42.667c0-11.771 9.573-21.333 21.333-21.333h384c11.76 0 21.333 9.563 21.333 21.333v42.667H21.333V42.667zM295.911 448H42.667c-11.76 0-21.333-9.563-21.333-21.333v-320H448v189.267l-16.542 9.921-5.115-20.438a10.663 10.663 0 0 0-10.344-8.083h-42.667a10.663 10.663 0 0 0-10.344 8.083l-5.115 20.438-18.063-10.833c-4.208-2.521-9.583-1.875-13.031 1.604l-30.167 30.167a10.681 10.681 0 0 0-1.604 13.042l10.833 18.042-20.438 5.104a10.676 10.676 0 0 0-8.073 10.354V416c0 4.896 3.333 9.167 8.073 10.354l20.438 5.104-9.93 16.542zm194.756-40.333l-18.323 4.583a10.681 10.681 0 0 0-7.479 6.833c-.948 2.729-1.99 5.396-3.25 7.979a10.708 10.708 0 0 0 .448 10.167l9.677 16.125-18.385 18.375-16.135-9.667a10.602 10.602 0 0 0-10.156-.458c-2.594 1.271-5.271 2.313-8.01 3.271a10.649 10.649 0 0 0-6.792 7.479l-4.583 18.313h-26.021l-4.583-18.313a10.647 10.647 0 0 0-6.792-7.479c-2.74-.958-5.417-2-8.01-3.271-3.24-1.563-7.063-1.417-10.156.458l-16.135 9.667-18.385-18.375 9.677-16.125a10.708 10.708 0 0 0 .448-10.167c-1.26-2.583-2.302-5.25-3.25-7.979a10.68 10.68 0 0 0-7.479-6.833l-18.323-4.583v-26l18.323-4.583a10.681 10.681 0 0 0 7.479-6.833c.948-2.729 1.99-5.396 3.25-7.979a10.708 10.708 0 0 0-.448-10.167l-9.677-16.125 18.385-18.375 16.135 9.667c3.094 1.854 6.896 2 10.156.458 2.594-1.271 5.271-2.313 8.01-3.271 3.375-1.188 5.927-4 6.792-7.479l4.583-18.313h26.021l4.583 18.313a10.647 10.647 0 0 0 6.792 7.479c2.74.958 5.417 2 8.01 3.271 3.24 1.542 7.063 1.417 10.156-.458l16.135-9.667 18.385 18.375-9.677 16.125a10.708 10.708 0 0 0-.448 10.167c1.26 2.583 2.302 5.25 3.25 7.979a10.68 10.68 0 0 0 7.479 6.833l18.323 4.583v26z"/><path d="M394.667 341.333c-29.406 0-53.333 23.917-53.333 53.333S365.26 448 394.667 448 448 424.083 448 394.667s-23.927-53.334-53.333-53.334zm0 85.334c-17.646 0-32-14.354-32-32s14.354-32 32-32 32 14.354 32 32-14.354 32-32 32z"/></symbol><symbol viewBox="0 0 512 512" id="contract" xmlns="http://www.w3.org/2000/svg"><path d="M70 60c-5.52 0-10 4.48-10 10s4.48 10 10 10 10-4.48 10-10-4.48-10-10-10zm0 60c-5.52 0-10 4.48-10 10s4.48 10 10 10 10-4.48 10-10-4.48-10-10-10z"/><path d="M383.211 97.069l-88.279-88.28C289.398 3.256 281.735 0 273.72 0H30C13.458 0 0 13.458 0 30v452c0 16.542 13.458 30 30 30h332c16.542 0 30-13.458 30-30V118.28a30.108 30.108 0 0 0-8.789-21.211zM292 34.142L357.857 100H292V34.142zM372 482c0 5.514-4.486 10-10 10H30c-5.514 0-10-4.486-10-10V30c0-5.514 4.486-10 10-10h242v90c0 5.523 4.478 10 10 10h90v362zM502 53.562V30c0-16.542-13.458-30-30-30s-30 13.458-30 30v23.572A39.98 39.98 0 0 0 432 80v322c0 27.948 9.233 55.649 26 78l4 5.333V502c0 5.523 4.478 10 10 10s10-4.477 10-10v-16.667l4-5.333c16.767-22.352 26-50.053 26-78V80c0-9.834-3.537-19.124-10-26.438zM462 30c0-5.514 4.486-10 10-10s10 4.486 10 10v11.28c-3.24-.837-6.596-1.28-10-1.28s-6.76.442-10 1.279V30zm10 435.244c-11.002-15.676-17.77-34.191-19.536-53.244h39.072c-1.767 19.053-8.534 37.567-19.536 53.244zM492 392h-40V186h40v206zm0-226h-40V80c0-10.98 8.944-20 20-20 10.794 0 20 8.734 20 20v86z"/><path d="M296 312c-16.542 0-30 13.458-30 30 0 4.552 1.01 8.948 2.921 12.937l-39.984 39.983c-3.989-1.909-8.385-2.92-12.937-2.92s-8.948 1.011-12.937 2.921l-19.984-19.984A29.864 29.864 0 0 0 186 362c0-16.542-13.458-30-30-30s-30 13.458-30 30c0 4.552 1.01 8.948 2.921 12.937l-19.984 19.984A29.878 29.878 0 0 0 96 392c-16.542 0-30 13.458-30 30s13.458 30 30 30 30-13.458 30-30c0-4.552-1.01-8.948-2.921-12.937l19.984-19.984c3.989 1.91 8.385 2.921 12.937 2.921s8.948-1.011 12.937-2.921l19.984 19.984A29.864 29.864 0 0 0 186 422c0 16.542 13.458 30 30 30s30-13.458 30-30c0-4.552-1.01-8.948-2.921-12.937l39.984-39.984A29.878 29.878 0 0 0 296 372c16.542 0 30-13.458 30-30s-13.458-30-30-30zM96 432c-5.514 0-10-4.486-10-10s4.486-10 10-10c5.521 0 10 4.479 10 10 0 5.514-4.486 10-10 10zm60-60c-5.521 0-10-4.479-10-10 0-5.514 4.486-10 10-10s10 4.486 10 10c0 5.522-4.479 10-10 10zm60 60c-5.514 0-10-4.486-10-10 0-5.522 4.479-10 10-10s10 4.479 10 10c0 5.514-4.486 10-10 10zm80-80a9.914 9.914 0 0 1-6.057-2.058 9.045 9.045 0 0 0-1.886-1.887A9.913 9.913 0 0 1 286 342c0-5.514 4.486-10 10-10s10 4.486 10 10-4.486 10-10 10zM216 60H110c-5.522 0-10 4.477-10 10s4.478 10 10 10h106c5.522 0 10-4.477 10-10s-4.478-10-10-10zm0 60H110c-5.522 0-10 4.477-10 10s4.478 10 10 10h106c5.522 0 10-4.477 10-10s-4.478-10-10-10zm106 66H70c-5.522 0-10 4.477-10 10s4.478 10 10 10h252c5.522 0 10-4.477 10-10s-4.478-10-10-10zm0 60H70c-5.522 0-10 4.477-10 10s4.478 10 10 10h252c5.522 0 10-4.477 10-10s-4.478-10-10-10z"/></symbol><symbol viewBox="0 0 511 512" id="credit-card" xmlns="http://www.w3.org/2000/svg"><path d="M296.418 151.957c-5.52 0-9.996 4.48-9.996 10 0 5.516 4.476 9.996 9.996 9.996s9.996-4.48 9.996-9.996c0-5.52-4.477-10-9.996-10zm-60.625 195.309a10.013 10.013 0 0 0 0-14.149c-3.906-3.898-10.234-3.898-14.145 0-3.898 3.91-3.898 10.238 0 14.149 3.91 3.898 10.239 3.898 14.145 0zm0 0"/><path d="M115.652 509.043c3.875 3.906 10.184 3.95 14.11.082l48.468-47.75c8.235-8.234 10.739-20.426 7.118-31.023l10.425-10.055a29.814 29.814 0 0 1 20.817-8.41h132.902c23.578 0 45.863-9.055 62.758-25.496.695-.676-5.277 6.359 90.668-108.313 14.23-16.836 12.102-42.117-4.75-56.363-16.746-14.113-41.832-12.086-56.102 4.46l-58.992 60.634c-7.449-9.168-18.808-14.883-31.082-14.883h-111.48c-15.864-6.637-32.696-9.996-50.063-9.996-48.125 0-90.168 22.218-112.734 63.922-9.504-1.801-19.528 1.074-26.738 8.285L3.418 381.836c-3.883 3.894-3.89 10.195-.016 14.098zm74.793-227.121c15.313 0 30.118 3.082 44.012 9.16a9.979 9.979 0 0 0 4.008.84h113.527c10.84 0 19.996 8.84 19.996 19.992 0 11.027-8.968 19.996-19.996 19.996h-81.566c-5.52 0-9.996 4.477-9.996 9.996 0 5.524 4.476 9.996 9.996 9.996h81.566c22.051 0 39.988-17.937 39.988-39.988 0-1.758-.125-3.5-.351-5.227 57.066-58.66 65.113-66.902 65.457-67.312 7.125-8.41 19.773-9.477 28.187-2.383 8.422 7.121 9.489 19.762 2.344 28.219L397.95 372.406c-13.094 12.57-30.285 19.489-48.457 19.489H216.59c-13.024 0-25.352 4.98-34.703 14.015l-8.496 8.2-78.32-78.317c18.304-34.34 52.652-53.871 95.374-53.871zm-125.32 66.344c3.297-3.297 8.36-3.891 12.379-1.407 1.527.93 87.035 86.649 87.562 87.356 2.926 3.941 2.508 9.539-.918 12.969l-41.32 40.707-98.23-98.98zm91.332-136.325h239.934c16.539 0 29.992-13.453 29.992-29.992V29.992C426.383 13.453 412.93 0 396.39 0H156.457c-16.539 0-29.992 13.453-29.992 29.992V181.95c0 16.54 13.453 29.992 29.992 29.992zm249.93-131.964H146.46V59.984h259.926zm-9.996 111.972H156.457c-5.512 0-9.996-4.488-9.996-10V99.973h259.926v81.976c0 5.512-4.485 10-9.996 10zM156.457 19.996h239.934c5.511 0 9.996 4.484 9.996 9.996v9.996H146.46v-9.996c0-5.512 4.484-9.996 9.996-9.996zm0 0"/><path d="M376.395 151.957h-39.989c-5.52 0-9.996 4.477-9.996 10 0 5.52 4.477 9.996 9.996 9.996h39.989c5.523 0 10-4.476 10-9.996 0-5.523-4.477-10-10-10zm0 0"/></symbol><symbol viewBox="0 0 512 512" id="deposit" xmlns="http://www.w3.org/2000/svg"><path d="M483.382 265.344h-.376v-151.37c0-6.298-5.107-11.405-11.405-11.405h-60.055l-44.878-88.732a11.406 11.406 0 0 0-15.326-5.03l-185.378 93.761H46.19c-24.94 0-45.184 19.484-46.146 44.383v.112c-.001.027-.006.055-.007.083A45.63 45.63 0 0 0 0 148.759v309.47c0 25.469 20.721 46.19 46.19 46.19H471.6c6.298 0 11.405-5.107 11.405-11.405V405.16h.376c15.78 0 28.618-12.839 28.618-28.618v-82.579c.001-15.78-12.838-28.619-28.617-28.619zm-23.187-139.965v44.231h-14.742l-22.371-44.231h37.113zm-286.363-1.226a.027.027 0 0 0 .01-.006L351.458 34.31l42.892 84.804.003.008 25.537 50.489h-22.106a11.43 11.43 0 0 0-.501-1.166l-29.355-58.04a11.406 11.406 0 0 0-12.324-6.054l-3.493.669c-13.373 2.571-27.127-3.507-34.234-15.108l-2.272-3.708a11.405 11.405 0 0 0-14.872-4.219l-173.245 87.624H83.955l89.877-45.456zm198.479 45.458H178.028l123.933-62.684c11.671 14.96 30.449 23.057 49.381 21.225l20.969 41.459zM46.19 125.379h74.675l-83.783 42.376c-6.443-2.745-11.37-8.318-13.331-15.031-.018-.066-.039-.131-.057-.196a22.967 22.967 0 0 1-.334-1.339 24.056 24.056 0 0 1-.218-1.18 24.111 24.111 0 0 1-.138-.939 23.941 23.941 0 0 1-.141-1.663 23.275 23.275 0 0 1 23.327-22.028zm414.005 356.23H46.19c-12.892 0-23.38-10.488-23.38-23.38v-5.308h348.495c6.298 0 11.405-5.107 11.405-11.405 0-6.298-5.107-11.405-11.405-11.405H22.81V186.134c4.544 2.655 9.593 4.532 14.964 5.51l.089.017c.013.002.025.002.038.005l.318.057.013.002c.087.015.174.025.261.04a44.99 44.99 0 0 0 2.028.299c.135.017.268.034.404.049l.005.001c.316.036.636.057.953.087.468.043.932.095 1.404.123l.351.022c.89.05 1.727.075 2.552.075h414.005v25.163H108.669c-6.298 0-11.405 5.107-11.405 11.405 0 6.298 5.107 11.405 11.405 11.405h351.527v24.951h-164.98c-6.298 0-11.405 5.107-11.405 11.405v117.006c0 6.298 5.107 11.405 11.405 11.405h164.979v76.448zm23.187-99.259H306.621v-94.196h176.76a5.814 5.814 0 0 1 5.808 5.809v82.579a5.812 5.812 0 0 1-5.807 5.808z"/><path d="M363.277 292.194c-23.743 0-43.059 19.317-43.059 43.058 0 23.743 19.317 43.059 43.059 43.059 23.742 0 43.058-19.317 43.058-43.059s-19.315-43.058-43.058-43.058zm0 63.308c-11.165 0-20.25-9.084-20.25-20.25 0-11.164 9.084-20.248 20.25-20.248 11.164 0 20.248 9.084 20.248 20.248.001 11.166-9.083 20.25-20.248 20.25zm53.884 83.788a11.451 11.451 0 0 0-.649-2.133 11.283 11.283 0 0 0-1.05-1.973 10.833 10.833 0 0 0-1.413-1.734c-2.657-2.646-6.592-3.866-10.299-3.114-.73.137-1.448.365-2.133.65a12.19 12.19 0 0 0-1.972 1.049c-.616.411-1.199.89-1.735 1.414a10.85 10.85 0 0 0-1.414 1.734 11.346 11.346 0 0 0-1.049 1.973 11.474 11.474 0 0 0-.649 2.133c-.149.73-.217 1.483-.217 2.224 0 .74.068 1.494.217 2.235.148.719.364 1.436.649 2.133.285.684.64 1.346 1.049 1.962.411.627.89 1.209 1.414 1.734a12.858 12.858 0 0 0 1.735 1.426 11.523 11.523 0 0 0 4.105 1.699c.741.148 1.483.217 2.235.217.741 0 1.483-.07 2.224-.217a11.523 11.523 0 0 0 4.105-1.699c.616-.422 1.21-.901 1.735-1.426a10.79 10.79 0 0 0 1.413-1.734c.411-.616.765-1.277 1.05-1.962.285-.696.501-1.414.649-2.133.148-.741.228-1.495.228-2.235 0-.74-.08-1.494-.228-2.223zM85.176 226.758a11.415 11.415 0 0 0-.65-2.132 12.08 12.08 0 0 0-1.049-1.973 12.257 12.257 0 0 0-1.426-1.734 10.795 10.795 0 0 0-1.734-1.414 11.513 11.513 0 0 0-1.962-1.049 12.057 12.057 0 0 0-2.133-.65 11.269 11.269 0 0 0-4.459 0c-.731.148-1.45.365-2.133.65-.696.285-1.357.639-1.973 1.049-.627.409-1.209.89-1.734 1.414a11.359 11.359 0 0 0-1.414 1.734 11.567 11.567 0 0 0-1.926 6.329 11.53 11.53 0 0 0 1.926 6.341c.411.616.89 1.198 1.414 1.722a10.976 10.976 0 0 0 1.734 1.426c.616.411 1.277.764 1.973 1.049a11.477 11.477 0 0 0 4.357.877 11.46 11.46 0 0 0 4.368-.877 11.622 11.622 0 0 0 1.962-1.049c.627-.422 1.209-.89 1.734-1.426a12.155 12.155 0 0 0 1.426-1.722c.411-.628.764-1.289 1.049-1.973.285-.684.502-1.402.65-2.133.148-.74.217-1.483.217-2.235-.001-.74-.07-1.483-.217-2.224z"/></symbol><symbol class="jsvg-inline--fa jfa-angle-double-right jfa-w-14" viewBox="0 0 448 512" id="double-right" xmlns="http://www.w3.org/2000/svg"><path d="M224.3 273l-136 136c-9.4 9.4-24.6 9.4-33.9 0l-22.6-22.6c-9.4-9.4-9.4-24.6 0-33.9l96.4-96.4-96.4-96.4c-9.4-9.4-9.4-24.6 0-33.9L54.3 103c9.4-9.4 24.6-9.4 33.9 0l136 136c9.5 9.4 9.5 24.6.1 34zm192-34l-136-136c-9.4-9.4-24.6-9.4-33.9 0l-22.6 22.6c-9.4 9.4-9.4 24.6 0 33.9l96.4 96.4-96.4 96.4c-9.4 9.4-9.4 24.6 0 33.9l22.6 22.6c9.4 9.4 24.6 9.4 33.9 0l136-136c9.4-9.2 9.4-24.4 0-33.8z"/></symbol><symbol viewBox="0 0 264 512" id="facebook" xmlns="http://www.w3.org/2000/svg"><path d="M76.7 512V283H0v-91h76.7v-71.7C76.7 42.4 124.3 0 193.8 0c33.3 0 61.9 2.5 70.2 3.6V85h-48.2c-37.8 0-45.1 18-45.1 44.3V192H256l-11.7 91h-73.6v229"/></symbol><symbol viewBox="0 0 512 512" id="file" xmlns="http://www.w3.org/2000/svg"><path d="M176 146c-5.52 0-10 4.48-10 10s4.48 10 10 10 10-4.48 10-10-4.48-10-10-10zm160 120H176c-5.522 0-10 4.477-10 10s4.478 10 10 10h160c5.522 0 10-4.477 10-10s-4.478-10-10-10zm0-60H176c-5.522 0-10 4.477-10 10s4.478 10 10 10h160c5.522 0 10-4.477 10-10s-4.478-10-10-10zm0 120H176c-5.522 0-10 4.477-10 10s4.478 10 10 10h160c5.522 0 10-4.477 10-10s-4.478-10-10-10zm0-180H216c-5.522 0-10 4.477-10 10s4.478 10 10 10h120c5.522 0 10-4.477 10-10s-4.478-10-10-10z"/><path d="M502 462H294.734c-3.626-14.036-14.699-25.108-28.734-28.734V412h110c16.542 0 30-13.458 30-30V98.28a30.106 30.106 0 0 0-8.789-21.21L328.932 8.789C323.421 3.279 315.764 0 307.72 0H136c-16.542 0-30 13.458-30 30v352c0 16.542 13.458 30 30 30h110v21.266c-14.035 3.626-25.108 14.699-28.734 28.734H10c-5.522 0-10 4.477-10 10s4.478 10 10 10h207.266c4.452 17.233 20.13 30 38.734 30s34.282-12.767 38.734-30H502c5.522 0 10-4.477 10-10s-4.478-10-10-10zM326 34.142L371.857 80H326V34.142zM136 392c-5.514 0-10-4.486-10-10V30c0-5.514 4.486-10 10-10h170v70c0 5.523 4.478 10 10 10h70v282c0 5.514-4.486 10-10 10H136zm120 100c-11.028 0-20-8.972-20-20s8.972-20 20-20 20 8.972 20 20-8.972 20-20 20z"/></symbol><symbol class="msvg-inline--fa mfa-chevron-left mfa-w-10" viewBox="0 0 320 512" id="left" xmlns="http://www.w3.org/2000/svg"><path d="M34.52 239.03L228.87 44.69c9.37-9.37 24.57-9.37 33.94 0l22.67 22.67c9.36 9.36 9.37 24.52.04 33.9L131.49 256l154.02 154.75c9.34 9.38 9.32 24.54-.04 33.9l-22.67 22.67c-9.37 9.37-24.57 9.37-33.94 0L34.52 272.97c-9.37-9.37-9.37-24.57 0-33.94z"/></symbol><symbol viewBox="0 0 448 512" id="linkedin" xmlns="http://www.w3.org/2000/svg"><path d="M100.3 480H7.4V180.9h92.9V480zM53.8 140.1C24.1 140.1 0 115.5 0 85.8 0 56.1 24.1 32 53.8 32c29.7 0 53.8 24.1 53.8 53.8 0 29.7-24.1 54.3-53.8 54.3zM448 480h-92.7V334.4c0-34.7-.7-79.2-48.3-79.2-48.3 0-55.7 37.7-55.7 76.7V480h-92.8V180.9h89.1v40.8h1.3c12.4-23.5 42.7-48.3 87.9-48.3 94 0 111.3 61.9 111.3 142.3V480z"/></symbol><symbol viewBox="0 0 373.333 503.782" id="logo" xmlns="http://www.w3.org/2000/svg"><path d="M78.656 98.683l9.758-15.654-15.354-6.792 2.324-7.206L91.6 73.382l1.235-17.84h7.751l1.235 17.84 16.215-4.351 2.324 7.206-15.353 6.792 9.757 15.654-6.472 4.449L96.71 88.873l-11.581 14.259-6.473-4.449zm77.97 0l9.758-15.654-15.354-6.792 2.324-7.206 16.215 4.351 1.235-17.84h7.751l1.235 17.84 16.215-4.351 2.324 7.206-15.353 6.792 9.757 15.654-6.472 4.449-11.582-14.259-11.581 14.259-6.472-4.449zm78.007 0l9.758-15.654-15.354-6.792 2.324-7.206 16.215 4.351 1.235-17.84h7.751l1.235 17.84 16.215-4.351 2.324 7.206-15.353 6.792 9.757 15.654-6.472 4.449-11.582-14.259-11.581 14.259-6.472-4.449zM167.975 338.95c-.771-12.025-8.943-18.037-24.513-18.037h-34.686c-23.588 0-35.534-11.792-35.844-35.38H87.5c.156 6.707 2.083 11.464 5.782 14.279 3.699 2.813 9.788 4.222 18.268 4.222h33.415c16.262 0 26.13 5.741 29.598 17.228h.464c3.699-11.487 13.644-17.228 29.831-17.228h33.876c14.953 0 22.584-6.169 22.894-18.501h14.799c-.31 23.588-12.412 35.38-36.305 35.38H206.36c-15.88 0-24.203 6.012-24.974 18.037h-13.411zM88.605 381.059V368.66l-4.063 8.067h-2.809l-4.093-8.067v12.399h-4.153v-21.272h4.094l5.557 11.503 5.527-11.503h4.093v21.272h-4.153zm19.574-1.734c-.986 1.017-2.539 1.912-4.84 1.912s-3.824-.896-4.811-1.912c-1.404-1.493-1.763-3.256-1.763-6.064s.358-4.541 1.763-6.035c.986-1.016 2.51-1.912 4.811-1.912s3.854.866 4.84 1.912c1.404 1.494 1.763 3.227 1.763 6.035s-.329 4.6-1.763 6.064zm-3.018-9.829c-.448-.448-1.046-.688-1.822-.688-.747 0-1.345.239-1.793.688-.807.776-.896 2.181-.896 3.765 0 1.613.09 3.018.896 3.794.448.448 1.046.688 1.793.688.776 0 1.374-.239 1.822-.688.807-.776.896-2.181.896-3.794 0-1.584-.089-2.989-.896-3.765zm13.598 11.741c-2.45 0-4.631-.269-6.633-2.24l2.54-2.54c1.254 1.285 2.957 1.464 4.152 1.464 1.345 0 2.749-.447 2.749-1.613 0-.776-.389-1.314-1.644-1.434l-2.51-.239c-2.748-.269-4.481-1.494-4.481-4.362 0-3.256 2.838-4.959 6.005-4.959 2.45 0 4.452.448 5.946 1.822l-2.391 2.42c-.896-.807-2.24-1.046-3.615-1.046-1.554 0-2.211.718-2.211 1.494 0 .777.448 1.225 1.613 1.345l2.45.239c3.077.298 4.631 1.912 4.631 4.57.001 3.437-2.927 5.079-6.601 5.079zm16.046 0c-3.106 0-6.961-1.673-6.961-7.977s3.854-7.947 6.961-7.947c2.151 0 3.765.657 5.139 2.091l-2.629 2.63c-.807-.867-1.494-1.226-2.51-1.226-.926 0-1.643.329-2.211 1.017-.598.746-.866 1.792-.866 3.436 0 1.643.269 2.719.866 3.466.568.687 1.285 1.016 2.211 1.016 1.016 0 1.703-.358 2.51-1.225l2.629 2.599c-1.375 1.434-2.988 2.12-5.139 2.12zm18.466-1.912c-.985 1.017-2.539 1.912-4.84 1.912s-3.824-.896-4.811-1.912c-1.404-1.493-1.763-3.256-1.763-6.064s.358-4.541 1.763-6.035c.986-1.016 2.51-1.912 4.811-1.912s3.854.866 4.84 1.912c1.404 1.494 1.763 3.227 1.763 6.035s-.328 4.6-1.763 6.064zm-3.017-9.829c-.448-.448-1.046-.688-1.822-.688-.747 0-1.345.239-1.793.688-.807.776-.896 2.181-.896 3.765 0 1.613.09 3.018.896 3.794.448.448 1.046.688 1.793.688.776 0 1.374-.239 1.822-.688.807-.776.896-2.181.896-3.794 0-1.584-.09-2.989-.896-3.765zm23.965 11.563h-3.197l-3.256-9.77-3.257 9.77h-3.197l-4.78-15.566h4.123l2.51 9.621 3.167-9.621h2.839l3.196 9.621 2.51-9.621h4.093l-4.751 15.566zm20.142.178c-3.227 0-5.677-.687-7.769-2.808l2.689-2.689c1.344 1.345 3.167 1.793 5.108 1.793 2.48 0 3.795-.956 3.795-2.659 0-.717-.21-1.314-.657-1.763-.419-.389-.837-.567-1.912-.717l-2.54-.389c-1.882-.269-3.167-.837-4.123-1.763-1.016-.986-1.523-2.391-1.523-4.183 0-3.795 2.809-6.454 7.409-6.454 2.928 0 5.049.718 6.872 2.48l-2.63 2.599c-1.314-1.284-2.957-1.464-4.361-1.464-2.211 0-3.257 1.226-3.257 2.689 0 .567.149 1.105.598 1.523.418.389 1.046.688 1.942.807l2.539.389c1.942.269 3.137.776 4.063 1.673 1.135 1.046 1.643 2.569 1.643 4.481.001 4.125-3.404 6.455-7.886 6.455zm17.69 0c-3.106 0-6.961-1.673-6.961-7.977s3.854-7.947 6.961-7.947c2.151 0 3.765.657 5.139 2.091l-2.629 2.63c-.807-.867-1.494-1.226-2.51-1.226-.926 0-1.643.329-2.211 1.017-.598.746-.866 1.792-.866 3.436 0 1.643.269 2.719.866 3.466.568.687 1.285 1.016 2.211 1.016 1.016 0 1.703-.358 2.51-1.225l2.629 2.599c-1.375 1.434-2.988 2.12-5.139 2.12zm17.212-.178v-9.411c0-2.121-1.344-2.839-2.569-2.839-1.225 0-2.599.718-2.599 2.839v9.411h-3.885v-21.272h3.885v7.141c.985-1.075 2.3-1.613 3.794-1.613 1.554 0 2.809.508 3.675 1.374 1.255 1.255 1.583 2.719 1.583 4.422v9.949h-3.884zm18.826-1.734c-.986 1.017-2.539 1.912-4.84 1.912-2.301 0-3.824-.896-4.811-1.912-1.404-1.493-1.763-3.256-1.763-6.064s.358-4.541 1.763-6.035c.986-1.016 2.51-1.912 4.811-1.912s3.854.866 4.84 1.912c1.404 1.494 1.762 3.227 1.762 6.035s-.328 4.6-1.762 6.064zm-3.018-9.829c-.448-.448-1.046-.688-1.822-.688-.747 0-1.345.239-1.793.688-.807.776-.896 2.181-.896 3.765 0 1.613.09 3.018.896 3.794.448.448 1.046.688 1.793.688.776 0 1.374-.239 1.822-.688.807-.776.897-2.181.897-3.794 0-1.584-.09-2.989-.897-3.765zm19.245 9.829c-.986 1.017-2.539 1.912-4.84 1.912s-3.824-.896-4.811-1.912c-1.404-1.493-1.764-3.256-1.764-6.064s.359-4.541 1.764-6.035c.986-1.016 2.51-1.912 4.811-1.912s3.854.866 4.84 1.912c1.404 1.494 1.762 3.227 1.762 6.035s-.329 4.6-1.762 6.064zm-3.018-9.829c-.449-.448-1.047-.688-1.822-.688-.748 0-1.346.239-1.793.688-.807.776-.896 2.181-.896 3.765 0 1.613.09 3.018.896 3.794.447.448 1.045.688 1.793.688.775 0 1.373-.239 1.822-.688.807-.776.896-2.181.896-3.794.001-1.584-.089-2.989-.896-3.765zm12.881 11.563c-3.197 0-4.543-2.241-4.543-4.452v-16.82h3.885v16.582c0 .926.389 1.403 1.375 1.403h1.494v3.287h-2.211zM51.911 409.208c-.986 1.016-2.539 1.912-4.84 1.912s-3.824-.896-4.811-1.912c-1.404-1.494-1.763-3.257-1.763-6.065s.358-4.541 1.763-6.035c.986-1.016 2.51-1.912 4.811-1.912s3.854.867 4.84 1.912c1.404 1.494 1.763 3.227 1.763 6.035s-.328 4.601-1.763 6.065zm-3.018-9.83c-.448-.447-1.046-.687-1.822-.687-.747 0-1.345.239-1.793.687-.807.777-.896 2.182-.896 3.765 0 1.613.09 3.018.896 3.795.448.448 1.046.687 1.793.687.776 0 1.374-.238 1.822-.687.807-.777.896-2.182.896-3.795.001-1.583-.089-2.988-.896-3.765zm12.851-.597v12.159H57.86v-12.159h-1.613v-2.958h1.613v-1.942c0-2.211 1.374-4.451 4.541-4.451h2.211v3.286h-1.523c-.927 0-1.345.508-1.345 1.404v1.703h2.868v2.958h-2.868zm21.992 12.159h-8.903v-21.271h8.545c4.153 0 6.573 2.33 6.573 5.975 0 2.36-1.554 3.884-2.63 4.393 1.285.597 2.929 1.941 2.929 4.78 0 3.973-2.719 6.123-6.514 6.123zm-.686-17.567h-4.063v4.9h4.063c1.763 0 2.748-.986 2.748-2.45s-.986-2.45-2.748-2.45zm.268 8.635h-4.332v5.229h4.332c1.882 0 2.778-1.195 2.778-2.63.001-1.434-.896-2.599-2.778-2.599zm19.841 8.932v-1.434c-1.016 1.075-2.449 1.613-3.884 1.613-1.554 0-2.809-.508-3.675-1.374-1.255-1.255-1.583-2.72-1.583-4.422v-9.949h3.884v9.411c0 2.121 1.345 2.838 2.569 2.838s2.6-.717 2.6-2.838v-9.411h3.884v15.565h-3.795zm13.27.18c-2.45 0-4.631-.27-6.633-2.241l2.54-2.539c1.254 1.284 2.957 1.464 4.152 1.464 1.345 0 2.749-.448 2.749-1.613 0-.777-.389-1.314-1.644-1.435l-2.51-.238c-2.748-.27-4.481-1.494-4.481-4.362 0-3.257 2.838-4.96 6.005-4.96 2.45 0 4.452.448 5.946 1.823l-2.391 2.42c-.896-.807-2.24-1.046-3.615-1.046-1.554 0-2.211.717-2.211 1.494 0 .776.448 1.225 1.613 1.344l2.45.239c3.077.299 4.631 1.912 4.631 4.571.001 3.436-2.927 5.079-6.601 5.079zm9.801-18.404v-3.167h3.974v3.167h-3.974zm.06 18.224v-15.117h3.885v15.117h-3.885zm17.27 0v-9.411c0-2.121-1.344-2.838-2.569-2.838-1.225 0-2.599.717-2.599 2.838v9.411h-3.885v-15.565h3.795v1.434c1.016-1.075 2.449-1.613 3.884-1.613 1.554 0 2.809.508 3.675 1.375 1.255 1.255 1.583 2.719 1.583 4.422v9.948h-3.884zm11.119-6.572c0 2.031 1.195 3.466 3.406 3.466 1.702 0 2.539-.509 3.525-1.465l2.36 2.301c-1.584 1.613-3.107 2.45-5.916 2.45-3.675 0-7.2-1.673-7.2-7.978 0-5.079 2.749-7.947 6.782-7.947 4.332 0 6.781 3.107 6.781 7.529v1.644h-9.738zm5.556-4.332c-.418-.927-1.284-1.614-2.599-1.614s-2.182.688-2.6 1.614c-.269.567-.329.985-.358 1.673h5.915c-.029-.688-.088-1.105-.358-1.673zm12.88 11.084c-2.45 0-4.631-.27-6.633-2.241l2.54-2.539c1.254 1.284 2.957 1.464 4.152 1.464 1.345 0 2.749-.448 2.749-1.613 0-.777-.389-1.314-1.644-1.435l-2.51-.238c-2.748-.27-4.481-1.494-4.481-4.362 0-3.257 2.839-4.96 6.005-4.96 2.45 0 4.452.448 5.946 1.823l-2.391 2.42c-.896-.807-2.24-1.046-3.615-1.046-1.554 0-2.211.717-2.211 1.494 0 .776.448 1.225 1.613 1.344l2.45.239c3.077.299 4.631 1.912 4.631 4.571.002 3.436-2.926 5.079-6.601 5.079zm14.821 0c-2.45 0-4.631-.27-6.633-2.241l2.54-2.539c1.254 1.284 2.957 1.464 4.152 1.464 1.345 0 2.749-.448 2.749-1.613 0-.777-.389-1.314-1.644-1.435l-2.51-.238c-2.748-.27-4.481-1.494-4.481-4.362 0-3.257 2.838-4.96 6.005-4.96 2.45 0 4.452.448 5.946 1.823l-2.391 2.42c-.896-.807-2.24-1.046-3.615-1.046-1.554 0-2.211.717-2.211 1.494 0 .776.448 1.225 1.613 1.344l2.45.239c3.077.299 4.631 1.912 4.631 4.571.002 3.436-2.926 5.079-6.601 5.079zm29.194-.18l-1.255-3.765h-7.559l-1.285 3.765h-4.332l7.738-21.271h3.256l7.769 21.271h-4.332zm-4.96-14.998l-2.688 7.738h5.288l-2.6-7.738zm20.677 14.998v-9.411c0-2.121-1.344-2.838-2.569-2.838-1.225 0-2.599.717-2.599 2.838v9.411h-3.885v-15.565h3.795v1.434c1.016-1.075 2.449-1.613 3.884-1.613 1.554 0 2.809.508 3.675 1.375 1.255 1.255 1.583 2.719 1.583 4.422v9.948h-3.884zm16.049 0v-1.344c-1.047 1.045-2.031 1.493-3.825 1.493-1.763 0-3.077-.478-3.974-1.374-.837-.866-1.285-2.121-1.285-3.496 0-2.479 1.703-4.511 5.378-4.511h3.616v-.777c0-1.702-.838-2.449-2.898-2.449-1.404 0-2.151.388-2.988 1.344l-2.45-2.42c1.524-1.673 2.988-2.211 5.586-2.211 4.393 0 6.633 1.853 6.633 5.498v10.247h-3.793zm-.09-6.572h-2.959c-1.553 0-2.299.627-2.299 1.792 0 1.076.746 1.763 2.36 1.763.957 0 1.643-.119 2.301-.747.447-.388.598-.985.598-1.972v-.836zm12.461 6.572c-3.197 0-4.541-2.24-4.541-4.451v-16.82h3.885v16.581c0 .926.387 1.404 1.373 1.404h1.494v3.286h-2.211zm10.221 2.51c-.33.866-.688 1.523-1.166 2.002-.896.896-2.063 1.195-3.346 1.195h-1.523v-3.496h.895c1.105 0 1.555-.269 1.943-1.404l.656-1.912-5.318-14.46h4.094l3.227 9.62 3.107-9.62h4.094l-6.663 18.075zm13.925-2.33c-2.451 0-4.631-.27-6.633-2.241l2.539-2.539c1.254 1.284 2.957 1.464 4.152 1.464 1.346 0 2.75-.448 2.75-1.613 0-.777-.389-1.314-1.645-1.435l-2.51-.238c-2.748-.27-4.48-1.494-4.48-4.362 0-3.257 2.838-4.96 6.004-4.96 2.451 0 4.453.448 5.947 1.823l-2.391 2.42c-.896-.807-2.24-1.046-3.615-1.046-1.555 0-2.211.717-2.211 1.494 0 .776.447 1.225 1.613 1.344l2.449.239c3.078.299 4.631 1.912 4.631 4.571.002 3.436-2.926 5.079-6.6 5.079zm9.801-18.404v-3.167h3.975v3.167h-3.975zm.061 18.224v-15.117h3.885v15.117h-3.885zm13.326.18c-2.449 0-4.631-.27-6.633-2.241l2.541-2.539c1.254 1.284 2.957 1.464 4.152 1.464 1.344 0 2.748-.448 2.748-1.613 0-.777-.389-1.314-1.643-1.435l-2.51-.238c-2.748-.27-4.482-1.494-4.482-4.362 0-3.257 2.84-4.96 6.006-4.96 2.449 0 4.451.448 5.945 1.823l-2.391 2.42c-.896-.807-2.24-1.046-3.615-1.046-1.553 0-2.211.717-2.211 1.494 0 .776.449 1.225 1.613 1.344l2.451.239c3.076.299 4.631 1.912 4.631 4.571.001 3.436-2.926 5.079-6.602 5.079zM155.89 188.623v-27.489l-9.009 17.885h-6.227l-9.074-17.885v27.489h-9.207v-47.162h9.074l12.32 25.502 12.254-25.502h9.075v47.162h-9.206zM211.514 189.391c-7.153 0-12.585-1.523-17.222-6.227l5.961-5.962c2.981 2.981 7.021 3.975 11.327 3.975 5.498 0 8.412-2.119 8.412-5.896 0-1.59-.464-2.914-1.457-3.908-.928-.86-1.854-1.258-4.239-1.589l-5.631-.861c-4.173-.597-7.021-1.854-9.141-3.908-2.252-2.186-3.378-5.299-3.378-9.273 0-8.412 6.227-14.308 16.427-14.308 6.491 0 11.194 1.59 15.235 5.498l-5.829 5.763c-2.915-2.849-6.558-3.246-9.671-3.246-4.901 0-7.22 2.716-7.22 5.962 0 1.259.331 2.451 1.324 3.378.928.861 2.318 1.523 4.306 1.788l5.63.861c4.306.597 6.955 1.723 9.009 3.71 2.518 2.318 3.644 5.696 3.644 9.936 0 9.14-7.552 14.307-17.487 14.307zm-68.153 62.755h-19.739v-47.162h18.944c9.207 0 14.572 5.167 14.572 13.248 0 5.232-3.444 8.61-5.829 9.736 2.848 1.325 6.491 4.306 6.491 10.599.001 8.809-6.027 13.579-14.439 13.579zm-1.524-38.949h-9.008v10.863h9.008c3.908 0 6.095-2.187 6.095-5.432-.001-3.245-2.187-5.431-6.095-5.431zm.596 19.143h-9.604v11.592h9.604c4.173 0 6.16-2.649 6.16-5.829s-1.987-5.763-6.16-5.763zm78.311 19.171l-2.782-8.347h-16.758l-2.849 8.347h-9.604l17.156-47.162h7.22l17.222 47.162h-9.605zm-10.995-33.252l-5.962 17.156h11.725l-5.763-17.156zm66.679-101.909h-38.266v12.407h23.043v135.142h-16.689l6.02 12.408h25.892zM88.284 128.757h16.646l-6.02-12.407H73.061v159.957h38.37v-12.408H88.284z"/></symbol><symbol viewBox="0 0 373.333 403.782" id="logo_sm" xmlns="http://www.w3.org/2000/svg"><path d="M155.89 188.623v-27.489l-9.009 17.885h-6.227l-9.074-17.885v27.489h-9.207v-47.162h9.074l12.32 25.502 12.254-25.502h9.075v47.162h-9.206zM211.514 189.391c-7.153 0-12.585-1.523-17.222-6.227l5.961-5.962c2.981 2.981 7.021 3.975 11.327 3.975 5.498 0 8.412-2.119 8.412-5.896 0-1.59-.464-2.914-1.457-3.908-.928-.86-1.854-1.258-4.239-1.589l-5.631-.861c-4.173-.597-7.021-1.854-9.141-3.908-2.252-2.186-3.378-5.299-3.378-9.273 0-8.412 6.227-14.308 16.427-14.308 6.491 0 11.194 1.59 15.235 5.498l-5.829 5.763c-2.915-2.849-6.558-3.246-9.671-3.246-4.901 0-7.22 2.716-7.22 5.962 0 1.259.331 2.451 1.324 3.378.928.861 2.318 1.523 4.306 1.788l5.63.861c4.306.597 6.955 1.723 9.009 3.71 2.518 2.318 3.644 5.696 3.644 9.936 0 9.14-7.552 14.307-17.487 14.307zm-68.153 62.755h-19.739v-47.162h18.944c9.207 0 14.572 5.167 14.572 13.248 0 5.232-3.444 8.61-5.829 9.736 2.848 1.325 6.491 4.306 6.491 10.599.001 8.809-6.027 13.579-14.439 13.579zm-1.524-38.949h-9.008v10.863h9.008c3.908 0 6.095-2.187 6.095-5.432-.001-3.245-2.187-5.431-6.095-5.431zm.596 19.143h-9.604v11.592h9.604c4.173 0 6.16-2.649 6.16-5.829s-1.987-5.763-6.16-5.763zm78.311 19.171l-2.782-8.347h-16.758l-2.849 8.347h-9.604l17.156-47.162h7.22l17.222 47.162h-9.605zm-10.995-33.252l-5.962 17.156h11.725l-5.763-17.156zm66.679-101.909h-38.266v12.407h23.043v135.142h-16.689l6.02 12.408h25.892zM88.284 128.757h16.646l-6.02-12.407H73.061v159.957h38.37v-12.408H88.284z"/></symbol><symbol viewBox="0 0 512 512" id="pay" xmlns="http://www.w3.org/2000/svg"><path d="M150 372c-5.52 0-10 4.48-10 10s4.48 10 10 10 10-4.48 10-10-4.48-10-10-10zm0 40c-5.522 0-10 4.477-10 10 0 16.542-13.458 30-30 30-5.522 0-10 4.477-10 10s4.478 10 10 10c27.57 0 50-22.43 50-50 0-5.523-4.478-10-10-10zm252-312c-5.514 0-10-4.486-10-10s4.486-10 10-10c3.542 0 7.282 1.807 10.815 5.227 3.971 3.841 10.3 3.736 14.141-.232 3.84-3.969 3.736-10.3-.232-14.141-5.075-4.911-10.153-7.689-14.724-9.205V50c0-5.523-4.478-10-10-10s-10 4.477-10 10v11.72c-11.639 4.128-20 15.243-20 28.28 0 16.542 13.458 30 30 30 5.514 0 10 4.486 10 10s-4.486 10-10 10c-4.272 0-8.884-2.687-12.985-7.565-3.554-4.228-9.862-4.773-14.089-1.219-4.228 3.554-4.773 9.862-1.22 14.089 5.346 6.359 11.632 10.79 18.294 13.024V170c0 5.523 4.478 10 10 10s10-4.477 10-10v-11.72c11.639-4.128 20-15.243 20-28.28 0-16.542-13.458-30-30-30z"/><path d="M402 0c-60.654 0-110 49.346-110 110 0 57.283 44.015 104.471 100 109.541V326c0 32.523-28.851 60-63 60s-63-27.477-63-60V211c0-46.075-40.299-85-88-85-45.965 0-85.05 36.144-87.835 80H90c-49.626 0-90 40.374-90 90v126c0 49.626 40.374 90 90 90h20c49.626 0 90-40.374 90-90V296c0-49.549-40.249-89.871-89.768-89.997C113.006 172.999 142.899 146 178 146c36.859 0 68 29.767 68 65v115c0 43.364 38.01 80 83 80s83-36.636 83-80V219.541c55.985-5.07 100-52.258 100-109.541C512 49.346 462.654 0 402 0zM100 276c5.521 0 10 4.479 10 10v30c0 5.514-4.486 10-10 10s-10-4.486-10-10v-30c0-5.514 4.486-10 10-10zm80 20v126c0 38.598-31.402 70-70 70H90c-38.598 0-70-31.402-70-70V296c0-38.598 31.402-70 70-70v31.72c-11.639 4.128-20 15.243-20 28.28v30c0 13.036 8.361 24.152 20 28.28V372c0 5.523 4.478 10 10 10s10-4.477 10-10v-27.72c11.639-4.128 20-15.243 20-28.28v-30c0-13.324-8.604-24.276-20-28.296V226c38.598 0 70 31.402 70 70zm222-96c-49.626 0-90-40.374-90-90s40.374-90 90-90 90 40.374 90 90-40.374 90-90 90z"/></symbol><symbol viewBox="0 0 512 512" id="rating" xmlns="http://www.w3.org/2000/svg"><path d="M256 0C162.243 0 80 82.243 80 176c0 93.518 81.798 176 176 176 95.079 0 176-83.418 176-176C432 82.243 349.757 0 256 0zm0 332c-31.385 0-63.112-10.788-89.885-30.459C168.424 253.907 207.718 216 256 216c48.261 0 87.576 37.889 89.885 85.541C319.113 321.212 287.385 332 256 332zm-50-186c0-27.57 22.43-50 50-50s50 22.43 50 50-22.43 50-50 50-50-22.43-50-50zm158.18 139.946c-7.006-38.245-33.793-69.101-68.245-82.504C314.089 190.782 326 169.761 326 146c0-38.598-31.402-70-70-70s-70 31.402-70 70c0 23.761 11.911 44.782 30.065 57.442-34.398 13.382-61.227 44.193-68.245 82.504C117.603 256.192 100 216.277 100 176c0-83.103 72.897-156 156-156s156 72.897 156 156c0 40.277-17.603 80.193-47.82 109.946zM322.57 431.83a10.003 10.003 0 0 0-8.072-6.806l-34.227-4.974-15.304-31.015a10 10 0 0 0-17.936 0l-15.304 31.015-34.227 4.974a9.998 9.998 0 0 0-5.542 17.057l24.765 24.14-5.85 34.088a10.001 10.001 0 0 0 14.509 10.543L256 494.757l30.616 16.094a10.002 10.002 0 0 0 14.509-10.543l-5.85-34.088 24.765-24.14a9.998 9.998 0 0 0 2.53-10.25zm-45.02 23.739a9.998 9.998 0 0 0-2.875 8.852l3.312 19.298-17.333-9.111a10.005 10.005 0 0 0-9.306 0l-17.333 9.111 3.312-19.298a9.998 9.998 0 0 0-2.875-8.852l-14.021-13.667 19.379-2.816a10 10 0 0 0 7.529-5.471L256 416.06l8.662 17.555a9.997 9.997 0 0 0 7.529 5.471l19.379 2.816-14.02 13.667zM162.57 431.83a10.003 10.003 0 0 0-8.072-6.806l-34.227-4.974-15.304-31.015a10 10 0 0 0-17.936 0L71.729 420.05l-34.227 4.974a9.998 9.998 0 0 0-5.542 17.057l24.765 24.14-5.85 34.088a10.001 10.001 0 0 0 14.509 10.543L96 494.757l30.616 16.094a10.002 10.002 0 0 0 14.509-10.543l-5.85-34.088 24.765-24.14a9.998 9.998 0 0 0 2.53-10.25zm-45.02 23.739a9.998 9.998 0 0 0-2.875 8.852l3.312 19.298-17.333-9.111a10.005 10.005 0 0 0-9.306 0l-17.333 9.111 3.312-19.298a9.998 9.998 0 0 0-2.875-8.852L60.43 441.902l19.379-2.816a10 10 0 0 0 7.529-5.471L96 416.06l8.662 17.555a9.997 9.997 0 0 0 7.529 5.471l19.379 2.816-14.02 13.667zm365.02-23.739a10.003 10.003 0 0 0-8.072-6.806l-34.227-4.974-15.304-31.015a10 10 0 0 0-17.936 0l-15.304 31.015-34.227 4.974a9.998 9.998 0 0 0-5.542 17.057l24.765 24.14-5.85 34.088a10.001 10.001 0 0 0 14.509 10.543L416 494.757l30.616 16.094a10.002 10.002 0 0 0 14.509-10.543l-5.85-34.088 24.765-24.14a9.998 9.998 0 0 0 2.53-10.25zm-45.02 23.739a9.998 9.998 0 0 0-2.875 8.852l3.312 19.298-17.333-9.111a10.005 10.005 0 0 0-9.306 0l-17.333 9.111 3.312-19.298a9.998 9.998 0 0 0-2.875-8.852l-14.021-13.667 19.379-2.816a10 10 0 0 0 7.529-5.471L416 416.06l8.662 17.555a9.997 9.997 0 0 0 7.529 5.471l19.379 2.816-14.02 13.667z"/></symbol><symbol class="ssvg-inline--fa sfa-chevron-right sfa-w-10" viewBox="0 0 320 512" id="right" xmlns="http://www.w3.org/2000/svg"><path d="M285.476 272.971L91.132 467.314c-9.373 9.373-24.569 9.373-33.941 0l-22.667-22.667c-9.357-9.357-9.375-24.522-.04-33.901L188.505 256 34.484 101.255c-9.335-9.379-9.317-24.544.04-33.901l22.667-22.667c9.373-9.373 24.569-9.373 33.941 0L285.475 239.03c9.373 9.372 9.373 24.568.001 33.941z"/></symbol><symbol viewBox="0 0 512.003 512.003" id="time" xmlns="http://www.w3.org/2000/svg"><path d="M504.148 216.233l-43.076-9.457c-5.104-21.685-13.593-42.233-25.303-61.241l19.729-32.879a10.002 10.002 0 0 0-1.504-12.216l-42.43-42.43a10 10 0 0 0-12.217-1.503l-32.879 19.729c-19.008-11.71-39.557-20.2-61.241-25.303L295.77 7.857A10.006 10.006 0 0 0 286 .001h-60a10.002 10.002 0 0 0-9.768 7.855l-9.457 43.076c-21.685 5.103-42.233 13.592-61.241 25.303l-32.879-19.729a10 10 0 0 0-12.217 1.503l-42.43 42.43a10.002 10.002 0 0 0-1.504 12.216l19.729 32.879a206.872 206.872 0 0 0-25.31 61.241l-43.069 9.458A10.003 10.003 0 0 0 0 226.001v60c0 4.695 3.267 8.758 7.853 9.767l43.51 9.567c5.224 21.514 13.708 41.792 25.288 60.436l-20.146 33.576a10.002 10.002 0 0 0 1.504 12.216l42.43 42.43a10 10 0 0 0 12.216 1.504l34.11-20.464c18.601 11.289 38.605 19.509 59.634 24.504l9.836 44.618a10 10 0 0 0 9.766 7.847h60c4.693 0 8.755-3.264 9.766-7.847l9.836-44.618c21.028-4.996 41.033-13.216 59.634-24.504l34.11 20.464a10 10 0 0 0 12.216-1.504l42.43-42.43a10.002 10.002 0 0 0 1.504-12.216l-20.146-33.577c11.583-18.659 20.068-38.937 25.289-60.435l43.51-9.567a10 10 0 0 0 7.853-9.767v-60c0-4.697-3.269-8.76-7.855-9.768zM492 277.96l-41.857 9.204a10 10 0 0 0-7.638 7.704c-4.946 23.468-14.116 45.401-27.256 65.191a9.999 9.999 0 0 0-.244 10.676l19.323 32.205-31.389 31.388-32.675-19.604a10.002 10.002 0 0 0-10.583.183c-19.831 12.851-41.523 21.749-64.477 26.445a10.002 10.002 0 0 0-7.761 7.644l-9.478 43.005h-43.93l-9.479-43.003a10 10 0 0 0-7.761-7.644c-22.953-4.697-44.646-13.594-64.477-26.445a10.002 10.002 0 0 0-10.583-.183L109.06 434.33l-31.388-31.389 19.323-32.205a10 10 0 0 0-.246-10.679c-13.134-19.767-22.304-41.699-27.254-65.188a10 10 0 0 0-7.638-7.704L20 277.961v-43.918l41.465-9.105a9.998 9.998 0 0 0 7.655-7.778c4.793-23.611 13.952-45.807 27.224-65.972a10.005 10.005 0 0 0 .222-10.643l-18.894-31.484 31.388-31.387 31.485 18.893a10 10 0 0 0 10.644-.222c20.17-13.275 42.364-22.431 65.967-27.212a10 10 0 0 0 7.782-7.656l9.105-41.476h43.914l9.105 41.475a10 10 0 0 0 7.782 7.656c23.603 4.781 45.797 13.937 65.967 27.212a10.002 10.002 0 0 0 10.644.222l31.485-18.893 31.388 31.387-18.894 31.485a10 10 0 0 0 .222 10.643c13.275 20.17 22.431 42.365 27.213 65.968a10 10 0 0 0 7.656 7.782L492 234.043v43.917z"/><path d="M315 247.001h-31.72a30.144 30.144 0 0 0-18.28-18.28v-51.72c0-5.523-4.478-10-10-10s-10 4.477-10 10v51.72c-11.639 4.128-20 15.243-20 28.28 0 16.542 13.458 30 30 30 13.036 0 24.152-8.361 28.28-20H315c5.522 0 10-4.477 10-10s-4.478-10-10-10zm-60 20c-5.514 0-10-4.486-10-10s4.486-10 10-10 10 4.486 10 10-4.486 10-10 10z"/><path d="M255 107.001c-82.75 0-150 67.065-150 150 0 82.664 67.274 150 150 150 82.663 0 150-67.273 150-150 0-82.75-67.065-150-150-150zm98.678 234.535l-6.757-6.757c-3.906-3.905-10.236-3.905-14.143 0-3.905 3.905-3.905 10.237 0 14.142l6.757 6.757c-20.373 17.478-46.196 28.775-74.535 30.941v-9.618c0-5.523-4.478-10-10-10s-10 4.477-10 10v9.619c-28.339-2.166-54.162-13.463-74.535-30.941l6.757-6.757c3.905-3.905 3.905-10.237 0-14.142-3.904-3.905-10.234-3.905-14.143 0l-6.757 6.757c-17.478-20.373-28.775-46.196-30.941-74.535H135c5.522 0 10-4.477 10-10s-4.478-10.001-10-10.001h-9.621c2.089-27.652 12.823-53.567 30.895-74.588l6.803 6.807c3.902 3.904 10.234 3.911 14.142.004 3.907-3.904 3.909-10.235.005-14.142l-6.805-6.809c21.03-18.069 46.942-28.802 74.581-30.892v9.62c0 5.523 4.478 10 10 10s10-4.477 10-10v-9.62c27.639 2.089 53.551 12.823 74.581 30.892l-6.805 6.809c-3.904 3.907-3.902 10.238.005 14.142 3.904 3.902 10.237 3.904 14.142-.004l6.803-6.807c18.072 21.021 28.806 46.936 30.895 74.588H375c-5.522 0-10 4.477-10 10s4.478 9.9 10 9.9h9.619c-2.166 28.34-13.463 54.263-30.941 74.635z"/></symbol></svg>