<?xml version="1.0" standalone="no"?>
<!DOCTYPE svg PUBLIC "-//W3C//DTD SVG 20010904//EN"
 "http://www.w3.org/TR/2001/REC-SVG-20010904/DTD/svg10.dtd">
<svg version="1.0" xmlns="http://www.w3.org/2000/svg"
 width="200.000000pt" height="200.000000pt" viewBox="0 0 200.000000 200.000000"
 preserveAspectRatio="xMidYMid meet">
<metadata>
Created by potrace 1.11, written by Peter Selinger 2001-2013
</metadata>
<g transform="translate(0.000000,200.000000) scale(0.100000,-0.100000)"
fill="#000000" stroke="none">
<path d="M791 1966 c-5 -6 -22 -13 -37 -14 -15 -1 -39 -9 -52 -18 -13 -9 -21
-11 -18 -5 5 7 1 9 -8 5 -9 -3 -16 -10 -16 -16 0 -5 -5 -6 -11 -3 -5 4 -19 -1
-29 -10 -10 -9 -24 -14 -29 -10 -6 3 -11 1 -11 -4 0 -6 -6 -10 -12 -8 -7 1
-12 -4 -10 -12 3 -12 0 -12 -12 -2 -13 11 -17 10 -22 -3 -3 -9 -10 -13 -15
-10 -5 3 -12 -2 -15 -10 -3 -9 -12 -16 -19 -16 -7 0 -24 -9 -38 -20 -15 -12
-29 -20 -32 -20 -4 1 -10 -2 -13 -6 -4 -4 -1 -4 5 0 9 5 11 2 7 -8 -3 -8 -12
-12 -20 -9 -10 4 -17 -2 -21 -17 -4 -16 -8 -18 -14 -8 -7 10 -9 9 -9 -5 0 -10
-4 -16 -9 -13 -5 3 -15 -2 -22 -11 -12 -14 -12 -16 1 -8 8 5 -11 -15 -42 -44
-32 -29 -58 -59 -58 -67 0 -7 -9 -18 -20 -24 -11 -6 -18 -15 -15 -20 3 -4 -2
-15 -11 -24 -8 -9 -12 -21 -8 -27 4 -8 3 -9 -4 -5 -7 4 -12 1 -12 -8 0 -9 -5
-16 -12 -16 -6 0 -8 -3 -5 -6 4 -4 -2 -19 -13 -34 -11 -16 -20 -34 -20 -42 0
-8 -5 -19 -12 -26 -9 -9 -9 -12 1 -12 9 0 8 -5 -3 -16 -9 -8 -17 -20 -17 -25
-1 -5 -2 -14 -3 -19 0 -6 -8 -15 -16 -21 -13 -10 -13 -10 1 -6 9 3 16 -1 16
-9 0 -7 -4 -11 -9 -8 -4 3 -9 2 -9 -3 -1 -4 -3 -23 -5 -42 -2 -19 -6 -37 -9
-39 -3 -3 1 -12 8 -20 8 -11 8 -13 0 -9 -8 5 -10 -6 -8 -38 1 -25 -1 -48 -5
-50 -4 -3 -6 9 -5 25 1 17 0 32 -4 34 -11 7 -6 -184 5 -192 5 -4 11 -27 12
-52 4 -84 6 -90 22 -90 12 -1 11 -4 -5 -17 -17 -13 -18 -15 -2 -9 13 4 18 1
16 -12 -1 -9 0 -19 1 -22 1 -3 3 -14 5 -25 2 -11 9 -21 14 -23 6 -2 11 -8 11
-13 0 -6 -6 -7 -12 -4 -7 4 -4 -1 6 -9 13 -10 15 -16 6 -16 -8 0 -4 -7 9 -19
12 -11 22 -23 22 -28 -1 -22 12 -52 20 -47 5 3 9 -4 9 -14 0 -11 7 -23 16 -26
9 -4 14 -9 11 -12 -3 -4 1 -13 9 -21 8 -8 11 -19 8 -25 -4 -7 -2 -8 4 -4 7 4
12 2 12 -5 0 -6 11 -22 25 -35 14 -13 25 -29 25 -35 0 -7 3 -10 6 -6 6 6 70
-54 67 -64 -1 -3 16 -16 38 -29 21 -14 39 -28 39 -32 0 -5 7 -8 15 -8 8 0 15
-4 15 -10 0 -5 7 -10 15 -10 8 0 15 -4 15 -10 0 -5 7 -10 15 -10 9 0 18 -7 21
-15 4 -8 11 -12 16 -9 6 4 13 2 17 -4 4 -7 17 -13 29 -15 12 -2 25 -7 29 -12
5 -4 2 -5 -6 0 -9 5 -12 4 -7 -3 3 -6 15 -9 26 -7 11 2 20 0 20 -6 0 -5 12 -9
26 -9 14 0 23 -4 20 -8 -2 -4 7 -9 21 -10 14 -1 31 -6 37 -11 7 -6 17 -6 26
-1 23 15 34 12 20 -5 -10 -12 -8 -13 11 -10 12 3 29 -1 38 -8 12 -9 13 -9 7 1
-9 14 -9 14 31 3 20 -6 35 -6 39 0 3 5 11 6 17 2 23 -14 48 -16 102 -9 11 1
29 -2 40 -8 17 -8 18 -7 8 6 -10 12 -10 14 5 13 9 0 23 -4 30 -9 7 -4 20 -2
29 6 17 14 20 13 41 -4 9 -8 11 -7 6 7 -5 13 -4 16 5 11 6 -4 19 -2 28 6 12 9
15 9 9 1 -5 -9 -2 -11 8 -7 9 3 16 11 16 18 0 6 5 4 10 -4 7 -11 10 -12 10 -2
0 8 8 12 18 10 9 -2 23 3 30 12 8 8 11 9 7 3 -4 -9 -1 -11 9 -7 9 3 16 9 16
13 0 4 10 8 22 8 13 1 24 7 26 13 2 5 8 8 13 4 5 -3 9 -1 9 5 0 6 6 8 14 5 7
-3 16 2 20 11 3 9 10 13 16 10 6 -3 13 1 16 9 3 9 10 13 15 11 5 -3 16 3 26
15 10 11 23 20 30 20 6 0 16 7 21 16 5 9 13 17 18 17 5 1 8 5 6 10 -1 4 1 6 6
5 11 -4 62 38 55 46 -3 3 -1 6 6 6 16 0 42 26 34 34 -4 3 2 6 12 6 10 0 16 3
12 6 -3 3 8 19 24 35 16 16 26 29 22 29 -4 0 0 5 10 11 9 6 15 14 12 20 -4 5
1 12 10 15 9 4 14 13 11 20 -3 7 0 16 6 20 7 5 8 2 3 -6 -5 -9 -4 -11 3 -6 7
4 12 14 12 22 0 8 5 14 11 14 5 0 7 5 4 10 -3 6 1 17 9 26 9 9 14 20 10 25 -3
5 2 12 11 15 12 5 13 9 4 21 -10 11 -10 13 0 11 13 -3 21 17 23 52 0 8 7 23
16 32 8 10 12 28 10 43 -3 14 -1 25 3 25 5 0 9 15 9 33 0 18 6 39 12 45 10 10
10 15 -2 22 -8 5 -10 10 -4 10 7 0 11 35 12 100 1 76 -2 99 -11 93 -7 -4 -6 0
2 10 11 14 11 17 0 18 -8 0 -5 4 6 9 11 5 14 9 8 9 -7 1 -13 8 -13 16 0 8 -6
15 -12 16 -7 0 -4 4 7 9 16 7 17 9 3 9 -11 1 -15 8 -13 26 1 14 -1 25 -5 25
-4 0 -6 11 -5 24 2 14 -3 27 -10 30 -8 3 -13 13 -13 23 1 24 -5 47 -15 54 -5
3 -10 12 -12 20 -9 39 -18 59 -27 59 -6 0 -8 9 -5 20 3 12 0 20 -8 20 -16 0
-28 28 -18 43 3 7 3 9 -2 5 -11 -10 -38 20 -29 33 4 7 3 10 -2 7 -5 -3 -15 0
-22 8 -7 8 -10 14 -6 14 4 0 -3 8 -14 19 -12 10 -22 22 -22 26 0 11 -61 65
-72 65 -5 0 -6 5 -3 10 3 6 3 10 -2 10 -10 0 -57 37 -88 68 -12 12 -28 22 -34
22 -7 0 -9 4 -6 10 3 5 0 7 -7 5 -8 -3 -24 4 -36 16 -13 11 -30 18 -38 15 -8
-3 -14 1 -14 9 0 8 -9 15 -19 15 -27 0 -52 11 -46 20 3 5 -4 6 -15 3 -11 -3
-20 0 -20 6 0 6 -3 10 -7 10 -24 -4 -53 2 -53 12 0 5 5 7 12 3 7 -4 8 -3 4 5
-4 6 -13 8 -19 4 -17 -11 -37 -13 -37 -3 0 4 -13 6 -30 4 -16 -2 -32 2 -36 8
-4 6 -3 8 4 4 6 -3 13 -2 16 2 9 14 -381 12 -393 -2z m19 -6 c0 -5 -5 -10 -11
-10 -5 0 -7 5 -4 10 3 6 8 10 11 10 2 0 4 -4 4 -10z m40 -2 c0 -4 -4 -8 -9 -8
-6 0 -12 4 -15 8 -3 5 1 9 9 9 8 0 15 -4 15 -9z m131 -342 c-8 -10 -9 -16 -1
-21 5 -3 10 -2 10 3 0 17 40 21 55 5 13 -13 15 -12 15 4 0 14 2 15 9 4 7 -11
10 -10 18 4 9 16 11 16 16 1 5 -11 3 -15 -5 -10 -6 4 -8 3 -4 -4 4 -7 14 -7
32 3 18 9 34 11 49 5 13 -5 26 -6 29 -3 3 4 6 1 6 -5 0 -6 8 -10 18 -10 27 1
46 -6 60 -22 8 -9 11 -10 7 -2 -6 11 -3 11 14 0 12 -7 21 -16 21 -21 0 -4 4
-6 8 -3 5 3 15 -4 22 -15 8 -10 20 -19 28 -19 7 0 11 -4 8 -8 -3 -5 4 -15 15
-22 10 -8 19 -18 19 -23 0 -5 7 -15 15 -24 8 -8 13 -19 10 -24 -4 -5 -1 -9 6
-9 6 0 9 -8 6 -19 -2 -11 3 -25 14 -35 20 -17 27 -42 8 -30 -8 5 -8 1 0 -14 6
-11 8 -28 5 -36 -3 -9 -2 -16 3 -16 5 0 10 -7 10 -15 0 -8 -4 -12 -9 -8 -6 3
-8 -3 -7 -13 2 -11 0 -25 -4 -31 -5 -7 -4 -13 1 -13 5 0 9 -7 9 -15 0 -8 -4
-12 -9 -9 -4 3 -8 0 -8 -6 0 -6 -4 -8 -10 -5 -6 3 -7 -1 -4 -10 4 -8 1 -21 -5
-29 -6 -7 -8 -16 -4 -19 3 -4 -1 -7 -9 -7 -9 0 -15 -8 -14 -17 0 -10 -4 -17
-9 -16 -6 1 -12 -9 -13 -23 -1 -13 3 -24 8 -24 6 0 10 -8 10 -18 0 -10 9 -24
20 -32 15 -11 17 -17 7 -29 -10 -12 -9 -13 2 -7 9 6 12 5 9 -5 -3 -8 1 -22 10
-31 8 -10 15 -36 15 -58 0 -22 3 -40 7 -40 4 0 7 -7 7 -15 0 -8 -3 -12 -7 -10
-4 2 -7 -14 -8 -37 -1 -22 -8 -48 -14 -56 -11 -13 -10 -15 2 -8 8 4 6 0 -5 -9
-11 -9 -19 -19 -18 -23 5 -13 -8 -42 -19 -42 -5 0 -8 -7 -4 -15 3 -8 2 -14 -2
-14 -18 3 -32 -2 -32 -11 0 -13 -37 -50 -51 -50 -5 0 -7 -4 -4 -10 6 -9 -8
-14 -27 -11 -5 0 -8 -4 -8 -10 0 -6 -7 -8 -16 -5 -8 3 -13 2 -10 -3 6 -9 -44
-35 -52 -26 -3 2 -12 -1 -20 -8 -9 -6 -13 -7 -9 -1 3 6 0 11 -8 11 -8 0 -12
-4 -10 -8 3 -4 -2 -9 -10 -13 -8 -3 -17 -1 -20 4 -4 6 -11 10 -16 10 -6 0 -8
-4 -5 -9 8 -12 -55 11 -71 26 -7 6 -13 16 -13 22 0 6 -3 11 -7 11 -14 0 -32
49 -21 56 6 4 5 10 -3 15 -11 7 -11 9 1 9 13 0 13 1 0 10 -13 8 -12 10 3 10
10 0 15 5 12 10 -7 12 12 33 38 43 10 4 16 11 13 16 -3 5 8 7 24 6 17 -1 32 1
35 5 2 4 17 5 31 2 19 -3 25 -1 20 7 -6 10 6 15 27 12 4 0 7 6 7 14 0 8 3 15
8 15 4 0 12 11 19 25 6 14 7 23 2 19 -12 -7 -11 3 1 27 8 14 7 19 -2 19 -9 0
-9 3 0 12 10 10 7 18 -15 38 -16 14 -22 21 -13 15 13 -9 13 -8 1 8 -7 9 -22
17 -32 17 -11 0 -19 5 -19 12 0 6 -3 8 -7 5 -3 -4 -12 -2 -20 4 -10 9 -13 7
-14 -7 0 -18 -1 -18 -9 1 -6 14 -9 15 -10 5 -1 -10 -4 -9 -10 5 l-9 20 0 -20
c-1 -15 -3 -17 -10 -7 -6 11 -10 10 -15 -5 -7 -17 -8 -17 -22 1 -10 15 -14 16
-15 5 0 -8 -4 -6 -9 6 l-9 20 0 -20 c-1 -15 -3 -17 -10 -7 -6 11 -10 10 -15
-5 -7 -17 -8 -17 -22 1 -10 14 -14 16 -14 5 -1 -10 -5 -9 -15 5 -15 20 -15 20
-15 0 -1 -19 -1 -19 -15 0 -9 12 -15 15 -15 7 0 -9 -11 -12 -35 -9 -19 2 -36
-1 -39 -7 -2 -6 -9 -5 -17 4 -12 12 -12 13 0 6 10 -5 12 -4 7 4 -10 15 -26 4
-26 -17 0 -11 -3 -13 -8 -6 -4 6 -17 13 -29 16 -17 5 -23 2 -23 -10 0 -12 -2
-14 -8 -5 -5 7 -20 14 -35 15 -15 1 -27 6 -27 10 0 4 -5 8 -11 8 -16 0 -37 25
-45 54 -3 14 -9 24 -13 21 -4 -2 -8 2 -8 10 0 8 5 15 11 15 6 0 4 5 -4 10 -8
5 -10 10 -5 10 14 0 13 53 0 62 -6 5 -5 8 3 8 10 0 10 5 2 20 -6 11 -7 20 -3
20 12 0 10 184 -2 192 -6 5 -5 8 3 8 10 0 10 5 2 20 -6 11 -7 20 -3 20 7 0 8
18 4 88 -1 7 -6 10 -13 6 -7 -5 -8 -3 -4 5 5 7 15 10 23 6 12 -4 13 -2 6 7
-12 16 -13 48 -1 48 4 0 8 5 8 10 0 16 35 47 48 42 7 -2 12 2 12 8 0 6 6 10
13 7 6 -2 24 -1 39 4 18 5 33 2 49 -9 12 -8 19 -11 16 -5 -11 18 41 21 64 5
12 -9 19 -11 16 -5 -11 18 41 21 65 5 13 -9 20 -12 16 -7 -5 4 2 14 15 21 30
16 31 16 18 0z m-954 -616 c0 -16 -3 -30 -7 -30 -3 0 -6 14 -6 30 0 17 3 30 6
30 4 0 7 -13 7 -30z m-1 -66 c1 -9 0 -13 -4 -10 -3 4 -7 14 -8 22 -1 9 0 13 4
10 3 -4 7 -14 8 -22z m1464 -54 c0 -5 -2 -10 -4 -10 -3 0 -8 5 -11 10 -3 6 -1
10 4 10 6 0 11 -4 11 -10z m-705 -275 c14 -13 25 -31 25 -40 0 -8 5 -15 10
-15 6 0 10 -12 10 -26 0 -17 -4 -23 -12 -18 -8 5 -7 0 2 -11 12 -15 12 -17 1
-10 -11 6 -13 3 -9 -13 4 -15 2 -19 -8 -15 -10 4 -12 0 -7 -13 4 -12 3 -15 -5
-10 -7 4 -15 0 -18 -9 -4 -9 -12 -14 -19 -11 -8 3 -16 -1 -18 -8 -8 -21 -62
-8 -99 23 -9 8 -15 19 -11 23 3 5 -3 8 -13 6 -15 -3 -18 5 -19 50 -1 29 2 55
7 58 4 3 5 10 2 16 -5 8 -1 9 10 5 9 -4 15 -3 12 2 -3 5 8 18 25 29 42 26 101
21 134 -13z"/>
<path d="M844 1382 c3 -6 -1 -18 -10 -26 -11 -11 -12 -16 -3 -16 7 0 5 -7 -7
-16 -10 -8 -14 -13 -8 -10 7 3 14 -3 17 -14 3 -11 1 -20 -4 -20 -5 0 -4 -11 1
-25 6 -16 6 -25 0 -25 -6 0 -5 -9 2 -20 9 -14 10 -23 3 -28 -12 -8 -15 -53 -3
-46 4 3 11 -2 14 -11 5 -13 9 -13 22 -3 13 11 14 11 7 -2 -7 -13 -6 -13 7 -2
13 10 17 10 21 0 4 -11 6 -10 6 0 1 8 6 10 14 5 18 -11 38 -13 31 -2 -3 5 0 9
5 9 6 0 11 -6 11 -12 0 -9 4 -8 10 2 9 13 10 13 10 0 0 -13 1 -13 10 0 9 13
10 13 10 0 0 -9 3 -11 8 -5 10 14 32 17 32 4 0 -8 4 -9 13 0 8 6 17 8 20 5 9
-10 77 -12 71 -2 -3 4 2 8 10 8 25 0 66 22 66 36 0 7 9 18 21 25 15 8 18 14
10 22 -7 7 -7 15 2 26 10 12 9 13 -3 6 -12 -6 -13 -5 -3 5 10 11 9 16 -5 27
-9 8 -11 12 -4 8 24 -12 11 15 -25 50 -20 19 -45 35 -55 35 -13 0 -17 4 -12
13 5 8 2 8 -9 -2 -9 -7 -17 -10 -17 -6 0 4 -7 2 -15 -5 -13 -11 -14 -10 -10 1
4 11 -2 14 -20 14 -14 -1 -28 -5 -32 -8 -11 -12 -25 -8 -17 5 5 7 3 8 -7 2
-19 -12 -41 -11 -58 1 -12 8 -13 7 -6 -4 6 -11 4 -13 -7 -8 -9 3 -20 1 -26 -5
-6 -6 -12 -6 -17 3 -5 8 -4 10 3 5 7 -4 12 -2 12 3 0 13 -17 15 -24 3 -6 -11
-36 -9 -55 3 -9 5 -12 4 -7 -3z"/>
<path d="M981 894 c0 -11 3 -14 6 -6 3 7 2 16 -1 19 -3 4 -6 -2 -5 -13z"/>
<path d="M1061 894 c0 -11 3 -14 6 -6 3 7 2 16 -1 19 -3 4 -6 -2 -5 -13z"/>
</g>
</svg>
