<?xml version="1.0" encoding="utf-8"?><svg xmlns="http://www.w3.org/2000/svg" xmlns:xlink="http://www.w3.org/1999/xlink"><symbol viewBox="0 0 512 512" id="appartment" xmlns="http://www.w3.org/2000/svg"><path d="M503.467 494.933h-34.661a66.43 66.43 0 0 0 .528-8.533c0-24.086-13.861-44.588-34.133-54.082V145.067c0-5.12-3.413-8.533-8.533-8.533h-128v-128c0-5.12-3.413-8.533-8.533-8.533h-230.4C54.613 0 51.2 3.413 51.2 8.533v486.4H8.533c-5.12 0-8.533 3.413-8.533 8.533S3.413 512 8.533 512h494.934c5.12 0 8.533-3.413 8.533-8.533s-3.413-8.534-8.533-8.534zm-85.334-67.664a61.623 61.623 0 0 0-8.533-.603 57.633 57.633 0 0 0-18.731 3.148c-1.487-1.982-3.884-3.148-6.869-3.148-5.12 0-8.533 3.413-8.533 8.533v2.615a59.762 59.762 0 0 0-8.97 7.943c-.431.456-.855.918-1.27 1.388-7.071-8.839-16.179-15.233-26.477-18.346-1.479-1.357-3.518-2.134-5.95-2.134-.951 0-1.843.119-2.666.344a50.562 50.562 0 0 0-5.867-.344c-5.348 0-11.37.694-16.249 2.675-.604.204-1.204.414-1.798.639-5.897-4.794-12.794-8.245-20.062-10.144-.077-.021-.156-.036-.232-.057a52.418 52.418 0 0 0-1.909-.457 50.919 50.919 0 0 0-1.565-.311c-.227-.042-.454-.087-.682-.126a49.98 49.98 0 0 0-2.4-.353 48.26 48.26 0 0 0-1.534-.169c-.375-.035-.751-.061-1.127-.088-.402-.028-.803-.061-1.208-.08a50.66 50.66 0 0 0-2.434-.063c-.628 0-1.251.013-1.871.036-.406.014-.811.039-1.216.062-.162.01-.326.017-.488.028-7.774.516-15.412 2.71-22.026 6.596V153.6h170.667v273.669zM68.267 17.067H281.6v119.467h-42.667c-5.12 0-8.533 3.413-8.533 8.533v265.387a61.815 61.815 0 0 0-14.861-10.937 57.506 57.506 0 0 0-1.461-.752c-.193-.095-.384-.194-.578-.287a59.076 59.076 0 0 0-19.642-5.617l-.293-.028a58.788 58.788 0 0 0-2.424-.19c-.215-.013-.43-.026-.646-.037a58.92 58.92 0 0 0-2.762-.072c-12.7 0-24.466 4.177-34.133 11.197v-2.663c0-5.12-3.413-8.533-8.533-8.533-5.12 0-8.533 3.413-8.533 8.533v17.067c0 1.28.213 2.453.613 3.493a61.518 61.518 0 0 0-8.293 22.961 57.96 57.96 0 0 0-26.453 9.943v-2.263c0-5.12-3.413-8.533-8.533-8.533-5.12 0-8.533 3.413-8.533 8.533v17.067c0 .996.133 1.925.379 2.779a59.514 59.514 0 0 0-8.296 22.82h-9.149V17.067zm64.383 443.91c.169-.015.34-.025.51-.038.45-.035.9-.069 1.354-.09a45.05 45.05 0 0 1 2.02-.05c5.12 0 8.533-3.413 8.533-8.533 0-23.893 18.773-42.667 42.667-42.667 21.333 0 39.253 15.36 41.813 36.693a9.253 9.253 0 0 0 3.821 5.474c.118.083.239.161.362.238.132.081.263.163.4.237a8.827 8.827 0 0 0 1.023.486 9.491 9.491 0 0 0 1.222.393c.508.169 1.085.234 1.695.215 2.805.041 5.414-1.493 6.837-3.626l.002-.002.853-.853c6.827-8.533 16.213-13.653 27.307-13.653 5.762 0 11.521 1.614 16.69 4.632-10.179 9.571-15.951 22.048-16.622 35.398a51.246 51.246 0 0 0-.068 2.637c0 5.934.987 11.621 2.94 17.067H94.72c3.994-18.373 19.204-32.257 37.93-33.958zm163.504 33.956c-3.26-5.514-5.167-12.033-5.167-17.92 0-9.436 3.72-17.937 10.114-24.151a34.545 34.545 0 0 1 3.901-3.126 8.57 8.57 0 0 0 3.905-.883c18.773-10.24 40.96-.853 47.787 17.92.853 2.56 3.413 5.12 7.68 5.12.81 0 1.706-.258 2.606-.716 2.141-.351 3.834-1.923 5.074-4.404 3.307-7.027 8.427-12.637 14.659-16.57 1.345-.375 2.5-1.039 3.419-1.94 5.861-2.946 12.505-4.53 19.469-4.53 23.893 0 42.667 18.773 42.667 42.667 0 2.56 0 5.973-.853 8.533H296.154z"/><path d="M281.6 221.867c-5.12 0-8.533 3.413-8.533 8.533v17.067c0 5.12 3.413 8.533 8.533 8.533s8.533-3.413 8.533-8.533V230.4c0-5.12-3.413-8.533-8.533-8.533zm0 153.6c-5.12 0-8.533 3.413-8.533 8.533v17.067c0 5.12 3.413 8.533 8.533 8.533s8.533-3.413 8.533-8.533V384c0-5.12-3.413-8.533-8.533-8.533zm0-102.4c-5.12 0-8.533 3.413-8.533 8.533v17.067c0 5.12 3.413 8.533 8.533 8.533s8.533-3.413 8.533-8.533V281.6c0-5.12-3.413-8.533-8.533-8.533zm0 51.2c-5.12 0-8.533 3.413-8.533 8.533v17.067c0 5.12 3.413 8.533 8.533 8.533s8.533-3.413 8.533-8.533V332.8c0-5.12-3.413-8.533-8.533-8.533zm0-153.6c-5.12 0-8.533 3.413-8.533 8.533v17.067c0 5.12 3.413 8.533 8.533 8.533s8.533-3.413 8.533-8.533V179.2c0-5.12-3.413-8.533-8.533-8.533zM332.8 256c5.12 0 8.533-3.413 8.533-8.533V230.4c0-5.12-3.413-8.533-8.533-8.533-5.12 0-8.533 3.413-8.533 8.533v17.067c0 5.12 3.413 8.533 8.533 8.533zm0-51.2c5.12 0 8.533-3.413 8.533-8.533V179.2c0-5.12-3.413-8.533-8.533-8.533-5.12 0-8.533 3.413-8.533 8.533v17.067c0 5.12 3.413 8.533 8.533 8.533zm0 102.4c5.12 0 8.533-3.413 8.533-8.533V281.6c0-5.12-3.413-8.533-8.533-8.533-5.12 0-8.533 3.413-8.533 8.533v17.067c0 5.12 3.413 8.533 8.533 8.533zm0 51.2c5.12 0 8.533-3.413 8.533-8.533V332.8c0-5.12-3.413-8.533-8.533-8.533-5.12 0-8.533 3.413-8.533 8.533v17.067c0 5.12 3.413 8.533 8.533 8.533zm0 51.2c5.12 0 8.533-3.413 8.533-8.533V384c0-5.12-3.413-8.533-8.533-8.533-5.12 0-8.533 3.413-8.533 8.533v17.067c0 5.12 3.413 8.533 8.533 8.533zM384 307.2c5.12 0 8.533-3.413 8.533-8.533V281.6c0-5.12-3.413-8.533-8.533-8.533s-8.533 3.413-8.533 8.533v17.067c0 5.12 3.413 8.533 8.533 8.533zm0-51.2c5.12 0 8.533-3.413 8.533-8.533V230.4c0-5.12-3.413-8.533-8.533-8.533s-8.533 3.413-8.533 8.533v17.067c0 5.12 3.413 8.533 8.533 8.533zm0 153.6c5.12 0 8.533-3.413 8.533-8.533V384c0-5.12-3.413-8.533-8.533-8.533s-8.533 3.413-8.533 8.533v17.067c0 5.12 3.413 8.533 8.533 8.533zm0-51.2c5.12 0 8.533-3.413 8.533-8.533V332.8c0-5.12-3.413-8.533-8.533-8.533s-8.533 3.413-8.533 8.533v17.067c0 5.12 3.413 8.533 8.533 8.533zm0-153.6c5.12 0 8.533-3.413 8.533-8.533V179.2c0-5.12-3.413-8.533-8.533-8.533s-8.533 3.413-8.533 8.533v17.067c0 5.12 3.413 8.533 8.533 8.533zM93.867 324.267c5.12 0 8.533-3.413 8.533-8.533v-17.067c0-5.12-3.413-8.533-8.533-8.533-5.12 0-8.533 3.413-8.533 8.533v17.067c-.001 5.119 3.413 8.533 8.533 8.533zm0 51.2c5.12 0 8.533-3.413 8.533-8.533v-17.067c0-5.12-3.413-8.533-8.533-8.533-5.12 0-8.533 3.413-8.533 8.533v17.067c-.001 5.119 3.413 8.533 8.533 8.533zm0 51.2c5.12 0 8.533-3.413 8.533-8.533v-17.067c0-5.12-3.413-8.533-8.533-8.533-5.12 0-8.533 3.413-8.533 8.533v17.067c-.001 5.119 3.413 8.533 8.533 8.533zm0-358.4c5.12 0 8.533-3.413 8.533-8.533V42.667c0-5.12-3.413-8.533-8.533-8.533-5.12 0-8.533 3.413-8.533 8.533v17.067c-.001 5.119 3.413 8.533 8.533 8.533zm0 51.2c5.12 0 8.533-3.413 8.533-8.533V93.867c0-5.12-3.413-8.533-8.533-8.533-5.12 0-8.533 3.413-8.533 8.533v17.067c-.001 5.119 3.413 8.533 8.533 8.533zm0 51.2c5.12 0 8.533-3.413 8.533-8.533v-17.067c0-5.12-3.413-8.533-8.533-8.533-5.12 0-8.533 3.413-8.533 8.533v17.067c-.001 5.119 3.413 8.533 8.533 8.533zm0 51.2c5.12 0 8.533-3.413 8.533-8.533v-17.067c0-5.12-3.413-8.533-8.533-8.533-5.12 0-8.533 3.413-8.533 8.533v17.067c-.001 5.119 3.413 8.533 8.533 8.533zm0 51.2c5.12 0 8.533-3.413 8.533-8.533v-17.067c0-5.12-3.413-8.533-8.533-8.533-5.12 0-8.533 3.413-8.533 8.533v17.067c-.001 5.119 3.413 8.533 8.533 8.533zm51.2-153.6c5.12 0 8.533-3.413 8.533-8.533V93.867c0-5.12-3.413-8.533-8.533-8.533-5.12 0-8.533 3.413-8.533 8.533v17.067c-.001 5.119 3.413 8.533 8.533 8.533zm0-51.2c5.12 0 8.533-3.413 8.533-8.533V42.667c0-5.12-3.413-8.533-8.533-8.533-5.12 0-8.533 3.413-8.533 8.533v17.067c-.001 5.119 3.413 8.533 8.533 8.533zm0 153.6c5.12 0 8.533-3.413 8.533-8.533v-17.067c0-5.12-3.413-8.533-8.533-8.533-5.12 0-8.533 3.413-8.533 8.533v17.067c-.001 5.119 3.413 8.533 8.533 8.533zm0-51.2c5.12 0 8.533-3.413 8.533-8.533v-17.067c0-5.12-3.413-8.533-8.533-8.533-5.12 0-8.533 3.413-8.533 8.533v17.067c-.001 5.119 3.413 8.533 8.533 8.533zm0 102.4c5.12 0 8.533-3.413 8.533-8.533v-17.067c0-5.12-3.413-8.533-8.533-8.533-5.12 0-8.533 3.413-8.533 8.533v17.067c-.001 5.119 3.413 8.533 8.533 8.533zm0 51.2c5.12 0 8.533-3.413 8.533-8.533v-17.067c0-5.12-3.413-8.533-8.533-8.533-5.12 0-8.533 3.413-8.533 8.533v17.067c-.001 5.119 3.413 8.533 8.533 8.533zm0 51.2c5.12 0 8.533-3.413 8.533-8.533v-17.067c0-5.12-3.413-8.533-8.533-8.533-5.12 0-8.533 3.413-8.533 8.533v17.067c-.001 5.119 3.413 8.533 8.533 8.533zm51.2-204.8c5.12 0 8.533-3.413 8.533-8.533v-17.067c0-5.12-3.413-8.533-8.533-8.533s-8.533 3.413-8.533 8.533v17.067c-.001 5.119 3.413 8.533 8.533 8.533zm0-51.2c5.12 0 8.533-3.413 8.533-8.533V93.867c0-5.12-3.413-8.533-8.533-8.533s-8.533 3.413-8.533 8.533v17.067c-.001 5.119 3.413 8.533 8.533 8.533zm0-51.2c5.12 0 8.533-3.413 8.533-8.533V42.667c0-5.12-3.413-8.533-8.533-8.533s-8.533 3.413-8.533 8.533v17.067c-.001 5.119 3.413 8.533 8.533 8.533zm0 307.2c5.12 0 8.533-3.413 8.533-8.533v-17.067c0-5.12-3.413-8.533-8.533-8.533s-8.533 3.413-8.533 8.533v17.067c-.001 5.119 3.413 8.533 8.533 8.533zm0-51.2c5.12 0 8.533-3.413 8.533-8.533v-17.067c0-5.12-3.413-8.533-8.533-8.533s-8.533 3.413-8.533 8.533v17.067c-.001 5.119 3.413 8.533 8.533 8.533zm0-51.2c5.12 0 8.533-3.413 8.533-8.533v-17.067c0-5.12-3.413-8.533-8.533-8.533s-8.533 3.413-8.533 8.533v17.067c-.001 5.119 3.413 8.533 8.533 8.533zm0-51.2c5.12 0 8.533-3.413 8.533-8.533v-17.067c0-5.12-3.413-8.533-8.533-8.533s-8.533 3.413-8.533 8.533v17.067c-.001 5.119 3.413 8.533 8.533 8.533zm51.2-102.4c5.12 0 8.533-3.413 8.533-8.533V93.867c0-5.12-3.413-8.533-8.533-8.533s-8.533 3.413-8.533 8.533v17.067c-.001 5.119 3.413 8.533 8.533 8.533zm0-51.2c5.12 0 8.533-3.413 8.533-8.533V42.667c0-5.12-3.413-8.533-8.533-8.533s-8.533 3.413-8.533 8.533v17.067c-.001 5.119 3.413 8.533 8.533 8.533z"/></symbol><symbol viewBox="0 0 33 33" id="diamond" xmlns="http://www.w3.org/2000/svg"><path d="M16.5 30.5a.498.498 0 0 1-.382-.178l-16-19A.5.5 0 0 1 .1 10.7l6-8a.5.5 0 0 1 .4-.2h20a.5.5 0 0 1 .4.2l6 8a.5.5 0 0 1-.018.622l-16 19a.498.498 0 0 1-.382.178zM1.139 10.982L16.5 29.224l15.361-18.242L26.25 3.5H6.75l-5.611 7.482z"/><path d="M32.5 11.5H.5a.5.5 0 1 1 0-1h32a.5.5 0 0 1 0 1z"/><path d="M16.5 30.5a.498.498 0 0 1-.476-.65l6-19a.5.5 0 1 1 .953.301l-6 19a.5.5 0 0 1-.477.349z"/><path d="M16.5 30.5a.5.5 0 0 1-.477-.35l-6-19a.5.5 0 0 1 .953-.301l6 19a.5.5 0 0 1-.476.651z"/><path d="M10.5 11.5a.5.5 0 0 1-.448-.276l-4-8a.5.5 0 0 1 .895-.447l4 8a.5.5 0 0 1-.447.723z"/><path d="M10.5 11.5a.5.5 0 0 1-.399-.8l6-8a.5.5 0 0 1 .8.6l-6 8a.501.501 0 0 1-.401.2z"/><path d="M22.5 11.5a.498.498 0 0 1-.4-.2l-6-8a.5.5 0 1 1 .8-.6l6 8a.5.5 0 0 1-.4.8z"/><path d="M22.5 11.5a.5.5 0 0 1-.447-.724l4-8a.5.5 0 0 1 .895.447l-4 8a.502.502 0 0 1-.448.277z"/></symbol><symbol viewBox="0 0 502.2 502.2" id="euro" xmlns="http://www.w3.org/2000/svg"><path d="M501.5 268.15c-1.8-13-15.2-23.4-40.3-31-20.3-6.1-46-9.8-74-10.4v-106.7c0-2.2-.7-4.3-2.1-6-3.3-11.6-16.7-21-39.9-28-22.5-6.8-51.9-10.5-82.8-10.5-30.8 0-59.9 3.7-81.9 10.5-18.1 5.6-39.8 16-39.8 33.9 0 1.1.1 2.2.3 3.3l1.1 45.6c-64.9-12.5-127.6 30.2-140 95.2-1.4 7.3-2.1 14.8-2.1 22.3 0 66 53.7 119.7 119.7 119.7 27.5 0 54.1-9.5 75.5-26.8 18.8 4.4 40.8 6.8 64.1 7 5.1 27.7 65.1 40.4 121.1 40.4 30.8 0 59.8-3.8 82-10.7 18.2-5.6 39.8-16.1 39.8-34v-109.9c0-1.3-.2-2.7-.7-3.9zm-315-163c20.2-6.2 47.2-9.7 76-9.7 28.6 0 56.6 3.5 77 9.7 21.7 6.6 26.4 13.4 26.4 14.8 0 1.4-4.7 8.3-26.5 14.8-20.3 6.1-48.3 9.7-76.9 9.7-27.6 0-53.8-3.2-73.7-9-21.5-6.2-27.5-13.1-28-15.3 0-.2 0-.3-.1-.3.1-1.4 4.7-8.2 25.8-14.7zm180.7 39.8v25.6c-.9 1.4-1.4 3.1-1.3 4.8 0 1.3-4.7 8.2-26.5 14.8-20.3 6.1-48.4 9.7-77 9.7-24.7 0-48.9-2.6-68.1-7.5-.3-.1-.5-.1-.8-.2-9.5-7.5-20-13.4-31.3-17.7l-.7-28.2c6.9 3.5 14.1 6.3 21.6 8.3 21.7 6.3 49.8 9.7 79.3 9.7 30.9 0 60.3-3.7 82.7-10.5 7.7-2.1 15.1-5.1 22.1-8.8zm-180.4 215.1c-40.7 37.1-103.8 34.1-140.8-6.6s-34.1-103.8 6.6-140.8c18.4-16.7 42.3-26 67.1-26 10 0 20 1.5 29.6 4.4 34.6 10.9 60.7 39.6 68.2 75.1 1.3 6.6 2 13.4 2 20.1 0 28.2-11.9 55-32.7 73.8zm25.4 2.2c8.1-9.9 14.6-21 19.2-32.9 8.5.7 17.5 1.2 26.7 1.3v1.8l.5 33.9c-15.5-.2-31-1.6-46.4-4.1zm26.6-87.8c5.9.4 12 .6 18.2.7 0 .2.1.5.1.7l.6 34.7c-7.1-.1-14-.4-20.7-.9 1.5-7.7 2.3-15.6 2.3-23.4.1-3.9-.1-7.8-.5-11.8zm24.6-19.2h-.9c-9.6 0-18.9-.4-27.5-1-3.8-13.4-9.8-26-17.9-37.2 15 1.9 30.1 2.9 45.3 2.9 30.9 0 60.3-3.7 82.8-10.5 7.7-2.4 15-5.3 22-9v26.5c-43 1.2-87.4 10.2-103.8 28.3zm13.4 15.4c1-2.8 8.3-9.3 28.8-15.1 19.5-5.5 44.9-8.5 71.6-8.5h1.3c28.6 0 56.6 3.3 77 9.5 21.1 6.4 26.1 12.8 26.4 14.5v.1c-.1 1.5-5.1 8.4-27.3 15-20.5 6.1-47.5 9.4-76.1 9.4-27 0-52.8-3.1-72.6-8.6-19.1-5.4-26.8-11.5-28.7-14.6-.1-.6-.2-1.2-.4-1.7zm205.4 111.3c0 1.4-4.5 8.3-25.7 14.9-20.3 6.3-47.3 9.8-76.1 9.8-28.9 0-55.9-3.4-75.9-9.5-21.2-6.5-25.5-13.2-25.5-14.7v-.2l-.5-28.9c23.8 12.1 63.5 17.6 99.9 17.6 30.9 0 60.1-3.7 82.5-10.5 7.4-2.2 14.5-5.2 21.3-8.8v30.3zm-.9-55.4c0 1.4-4.6 8.2-26.2 14.8-20.5 6.2-47.7 9.6-76.7 9.6-54.9 0-92.1-12.3-100.3-22l-.2-8.6-.4-22.9c7.3 3.7 14.9 6.6 22.8 8.7 21.5 6 49.2 9.4 78 9.4 30.4 0 59.4-3.6 81.7-10.2 7.7-2.2 15.1-5.1 22.1-8.8v25.7h.1c0 1.3-.9 2.8-.9 4.3z"/><path d="M169.6 339.75c-2-5.2-7.7-7.7-12.9-5.8v-.1c-18.9 7.2-40.2 2.6-54.4-11.7-2.9-2.6-5.3-5.7-7.1-9.1h51.4c5.5 0 10-4.5 10-10s-4.5-10-10-10H87.9c-.6-3.6-.7-7.3-.3-11h64.2c5.5 0 10-4.5 10-10s-4.5-10-10-10H93.5c2.4-4.3 5.3-8.2 8.7-11.8 14.3-14.2 35.6-18.8 54.4-11.5 5.2 2 10.9-.6 12.9-5.7 2-5.2-.6-10.9-5.7-12.9-26.2-10.1-55.9-3.8-75.8 16.1-7.4 7.3-13 16.1-16.5 25.9H57.3c-5.5 0-10 4.5-10 10s4.5 10 10 10h10c-.2 3.7-.2 7.3.2 11H57.3c-5.5 0-10 4.5-10 10s4.5 10 10 10h15.3c3.4 8.7 8.7 16.7 15.4 23.3 19.8 19.9 49.5 26.3 75.8 16.2 5.2-2 7.7-7.7 5.8-12.9z"/></symbol><symbol viewBox="0 0 320.468 320.468" id="gold" xmlns="http://www.w3.org/2000/svg"><path d="M119.566 218.645l15.553 67.405H14.34l15.553-67.405h89.673m1.119-12.854H28.781c-5.013 0-10.032 3.991-11.157 8.875L.226 290.027c-1.125 4.884 2.05 8.875 7.063 8.875h134.88c5.013 0 8.188-3.991 7.063-8.875l-17.391-75.367c-1.124-4.878-6.15-8.869-11.156-8.869zm169.893 12.854l15.553 67.405H185.339l15.566-67.405h89.673m1.125-12.854H199.78c-5.007 0-10.032 3.991-11.151 8.875l-17.397 75.367c-1.125 4.884 2.05 8.875 7.063 8.875h134.886c5.007 0 8.181-3.991 7.063-8.875l-17.385-75.367c-1.124-4.884-6.15-8.875-11.156-8.875zm-86.268-99.635l15.566 67.405H100.215l15.553-67.405h89.667m1.125-12.854h-91.904c-5.013 0-10.032 3.997-11.157 8.875l-17.391 75.367c-1.125 4.884 2.05 8.875 7.063 8.875h134.88c5.007 0 8.181-3.991 7.063-8.875l-17.397-75.367c-1.125-4.884-6.15-8.875-11.157-8.875zM96.809 64.838l27.224-7.738-27.038-8.33-7.731-27.211-8.336 27.031-27.224 7.738 27.051 8.342 7.731 27.211 8.323-27.043zm167.188 42.86l18.927-6.189-19.242-5.116-6.202-18.908-5.096 19.236-18.927 6.202 19.242 5.109 6.189 18.914 5.109-19.248z"/></symbol><symbol viewBox="0 0 60 60" id="house" xmlns="http://www.w3.org/2000/svg"><path d="M14 36.182h14v-10H14v10zm2-2v-3h10v3H16zm10-6v1H16v-1h10zm-12 12v12h14v-12H14zm6 2v3h-4v-3h4zm-4 5h4v3h-4v-3zm6 3v-3h4v3h-4zm4-5h-4v-3h4v3zm6-9h14v-10H32v10zm2-2v-1h10v1H34zm10-6v3H34v-3h10z"/><path d="M59 48.182a1 1 0 0 0-1 1v1h-1v-1a1 1 0 1 0-2 0v1h-1V29.978a3.975 3.975 0 0 0 1.626.363 4.01 4.01 0 0 0 3.984-4.322 4.017 4.017 0 0 0-1.522-2.833L32.722 3.345 30 .818 27.343 3.29 1.913 23.186a4.01 4.01 0 0 0-1.522 2.833 4.01 4.01 0 0 0 1.057 3.038 3.968 3.968 0 0 0 4.553.922v20.204H5v-1a1 1 0 1 0-2 0v1H2v-1a1 1 0 1 0-2 0v9a1 1 0 1 0 2 0v-1h1v1a1 1 0 1 0 2 0v-1h1v2h48v-2h1v1a1 1 0 1 0 2 0v-1h1v1a1 1 0 1 0 2 0v-9a1 1 0 0 0-1-1.001zM2.912 27.695a1.977 1.977 0 0 1-.527-1.518 1.975 1.975 0 0 1 .761-1.416L28.64 4.811l1.361-1.265 1.424 1.319 25.43 19.896c.446.349.716.852.761 1.416a1.979 1.979 0 0 1-.527 1.518 1.99 1.99 0 0 1-2.686.223l-.403-.31-24-18.5-23.61 18.2-.001.001-.791.609a1.99 1.99 0 0 1-2.686-.223zM2 55.182v-3h1v3H2zm3 0v-3h1v3H5zm29 2v-15h10v15H34zm18 0h-6v-17H32v17H8V28.591l22-16.959 22 16.959v28.591zm2-2v-3h1v3h-1zm3 0v-3h1v3h-1z"/></symbol><symbol viewBox="0 0 129 129" id="left" xmlns="http://www.w3.org/2000/svg"><path d="M88.6 121.3c.8.8 1.8 1.2 2.9 1.2s2.1-.4 2.9-1.2c1.6-1.6 1.6-4.2 0-5.8l-51-51 51-51c1.6-1.6 1.6-4.2 0-5.8s-4.2-1.6-5.8 0l-54 53.9c-1.6 1.6-1.6 4.2 0 5.8l54 53.9z"/></symbol><symbol viewBox="0 0 9480 2760" id="logo" xmlns="http://www.w3.org/2000/svg"><path d="M2590 2110v-241h193c54 0 99 22 131 64 30 41 30 173 0 213-41 56-69 69-150 69h-74v135h-100v-240zm186 30c30 0 64-47 64-89 0-72-33-111-95-111-52 0-55 6-55 101 0 84 2 90 23 99 12 5 28 7 35 4 8-2 20-4 28-4zM950 2315l-45-24 58-1c54 0 57 1 57 25 0 31-12 31-70 0zm100 0c0-24 2-25 70-25s70 1 70 25-2 25-70 25-70-1-70-25zm180 0c0-24 3-25 60-25s60 1 60 25-3 25-60 25-60-1-60-25zm170 0c0-24 3-25 55-25s55 1 55 25-3 25-55 25-55-1-55-25zm170 0c0-23 4-25 45-25s45 2 45 25-4 25-45 25-45-2-45-25zm170-5c0-17 7-20 40-20 22 0 40 2 40 5 0 4-67 35-76 35-2 0-4-9-4-20zm5690-40v-60h-440v-340h90v270h100v-270h90v270h100v-270h90v270h25c25 0 25 0 25 95v95h-80v-60z"/><path d="M3065 2206c-128-56-126-259 2-322 44-21 136-24 173-4 67 34 109 107 94 165l-6 25h-129c-71 0-129 3-129 8 0 21 35 53 68 63 31 9 45 8 77-6 39-16 40-15 57 6 10 11 18 28 18 36 0 37-159 58-225 29zm165-226c-23-43-91-54-128-20-12 12-22 25-22 30 0 6 36 10 80 10 77 0 80-1 70-20zm334 193c-76-133-74-130-74-102 0 14-5 51-11 82l-12 57h-94l35-175c46-223 49-225 141-59 72 132 58 134 140-18 38-72 57-98 72-98 10 0 19 1 19 3 0 1 16 78 35 170s35 169 35 172-22 5-49 5h-49l-13-70c-7-38-16-70-20-70s-26 34-48 75c-51 91-68 96-107 28zm411 33c-62-28-95-85-95-162 0-117 96-197 214-179 100 16 154 92 143 202-6 60-25 93-70 127-35 26-147 33-192 12zm136-85c24-25 29-37 29-81 0-61-30-100-78-100-46 0-73 28-79 83-12 106 62 163 128 98zm1644 85c-62-28-95-85-95-162 0-117 96-197 214-179 100 16 154 92 143 202-6 60-25 93-70 127-35 26-147 33-192 12zm136-85c24-25 29-37 29-81 0-61-30-100-78-100-46 0-73 28-79 83-12 106 62 163 128 98zm353 52c-76-133-74-130-74-102 0 14-5 51-11 82l-12 57h-94l35-175c46-223 49-225 141-59 72 132 58 134 140-18 38-72 57-98 72-98 10 0 19 1 19 3 0 1 16 78 35 170s35 169 35 172-22 5-49 5h-49l-13-70c-7-38-16-70-20-70s-26 34-48 75c-51 91-68 96-107 28zm411 33c-128-56-126-259 2-322 44-21 136-24 173-4 67 34 109 107 94 165l-6 25h-129c-71 0-129 3-129 8 0 21 35 53 68 63 31 9 45 8 77-6 39-16 40-15 57 6 10 11 18 28 18 36 0 37-159 58-225 29zm165-226c-23-43-91-54-128-20-12 12-22 25-22 30 0 6 36 10 80 10 77 0 80-1 70-20zm815 226c-128-56-126-259 2-322 44-21 136-24 173-4 67 34 109 107 94 165l-6 25h-129c-71 0-129 3-129 8 0 21 35 53 68 63 31 9 45 8 77-6 39-16 40-15 57 6 10 11 18 28 18 36 0 37-159 58-225 29zm165-226c-23-43-91-54-128-20-12 12-22 25-22 30 0 6 36 10 80 10 77 0 80-1 70-20zm580 66v-176h100v195l103-103c56-56 110-102 120-102 15 0 17 16 17 175v175h-100v-182l-101 94c-55 51-109 94-120 96-18 3-19-4-19-172zm420 0v-176h100v195l103-103c56-56 110-102 120-102 15 0 17 16 17 175v175h-100v-182l-101 94c-55 51-109 94-120 96-18 3-19-4-19-172zm-4500-6v-170h100v130h140v-130h90v340h-90v-140h-140v140h-100v-170zm500 40v-130h-100v-80h300v80h-100v260h-100v-130zm470-40v-170h330v340h-100v-260h-130v260h-100v-170zm2700 0v-170h100v130h140v-130h90v340h-90v-140h-140v140h-100v-170zM727 2173c-4-3-7-17-7-30 0-22 3-23 75-23h75v60h-68c-38 0-72-3-75-7zm163-23v-30h130v60H890v-30zm160 0v-30h140v60h-140v-30zm180 0v-30h120v60h-120v-30zm170 0c0-30 1-30 55-30s55 0 55 30-1 30-55 30-55 0-55-30zm170 0c0-29 2-30 45-30s45 1 45 30-2 30-45 30-45-1-45-30zm170 0c0-28 2-30 40-30s40 2 40 30-2 30-40 30-40-2-40-30zm170 0c0-28 3-30 35-30s35 2 35 30-3 30-35 30-35-2-35-30zm-1230-15c-10-13-9-15 9-15 12 0 21 6 21 15 0 8-4 15-9 15s-14-7-21-15zm-113-133c-10-10-17-26-17-35 0-15 12-17 80-17h80v70h-63c-49 0-68-4-80-18zm153-17v-35h150v70H720v-35zm170 0v-35h130v70H890v-35zm160 0v-35h140v70h-140v-35zm180 0v-35h120v70h-120v-35zm170 0v-35h110v70h-110v-35zm170 0c0-35 0-35 45-35s45 0 45 35 0 35-45 35-45 0-45-35zm170 0c0-34 1-35 40-35s40 1 40 35-1 35-40 35-40-1-40-35zm170 0c0-33 2-35 35-35s35 2 35 35-2 35-35 35-35-2-35-35zm170 0c0-32 2-35 30-35s30 3 30 35-2 35-30 35-30-3-30-35zM465 1830c-8-16-15-34-15-40s46-10 130-10h130v80H481l-16-30zm255-10v-40h150v80H720v-40zm170 0v-40h130v80H890v-40zm160 0v-40h140v80h-140v-40zm180 0v-40h120v80h-120v-40zm170 0v-40h110v80h-110v-40zm170 0v-40h90v80h-90v-40zm170 0v-40h80v80h-80v-40zm170 0c0-39 1-40 35-40s35 1 35 40-1 40-35 40-35-1-35-40zm170 0c0-38 2-40 30-40s30 2 30 40-2 40-30 40-30-2-30-40zm170-4c0-29 4-36 19-36 18 0 19 3 9 30-15 44-28 46-28 6zm6649-20c-34-20-58-74-38-87 26-16 67-10 74 10 3 11 15 23 26 26 27 9 57-3 64-26 7-20 48-26 73-11 16 11 3 49-27 77-29 25-134 32-172 11zM403 1655l-10-45h317v90H413l-10-45zm317 0v-45h150v90H720v-45zm170 0v-45h130v90H890v-45zm160 0v-45h140v90h-140v-45zm180 0v-45h120v90h-120v-45zm170 0v-45h110v90h-110v-45zm170 0v-45h90v90h-90v-45zm170 0v-45h80v90h-80v-45zm170 0c0-45 0-45 35-45s35 0 35 45 0 45-35 45-35 0-35-45zm170 0c0-43 1-45 30-45s30 2 30 45-1 45-30 45-30-2-30-45zm170 0c0-41 2-45 25-45s25 4 25 45-2 45-25 45-25-4-25-45zM380 1490v-60h330v120H380v-60zm340 0v-60h150v120H720v-60zm170 0v-60h130v120H890v-60zm160 0v-60h140v120h-140v-60zm180 0v-60h120v120h-120v-60zm170 0v-60h110v120h-110v-60zm170 0v-60h90v120h-90v-60zm170 0v-60h80v120h-80v-60zm170 0v-60h70v120h-70v-60zm170 0v-60h60v120h-60v-60zm170 0c0-57 1-60 25-60s25 3 25 60-1 60-25 60-25-3-25-60zm727-440c259-432 281-460 349-460 67 0 87 26 332 443 127 218 235 403 238 412 6 14-6 15-97 13l-103-3-70-117-71-118h-202c-112 0-203-3-203-7 0-5 20-39 44-78l43-70 111-3 111-3-66-109c-36-61-68-110-72-110-3 0-91 140-194 310l-189 310h-207l246-410zm953-25V590h160v720h590v150h-750v-435zm820 361v-75l353-3c246-3 360-7 380-16 94-41 104-146 17-193-19-11-95-15-305-19-309-6-327-9-394-73-48-46-71-101-71-172s23-126 71-172c71-67 74-68 487-71l372-3v161h-335c-369 0-391 3-414 57-16 39-1 77 38 98 25 12 73 15 274 15 269 0 311 7 383 59 22 17 53 54 70 83 25 46 29 63 29 133 0 58-5 89-19 115-25 49-74 98-121 123-39 21-52 22-427 25l-388 3v-75zm1090-361V590h750v160h-590v560h590v150h-750v-435zm890 0V590h333c182 0 360 5 394 10 183 30 286 141 286 310 0 125-59 217-172 270l-52 24 128 128 128 128h-240l-120-120-120-120h-325v-160h238c227 0 240-1 282-22 63-33 85-68 84-134 0-64-22-100-80-129-36-18-62-20-321-23l-283-3v711h-160v-435zm1443 421c-110-35-197-114-252-226-36-74-36-77-36-200 0-115 2-130 27-183 53-113 124-178 236-219 80-29 409-38 521-14 175 37 296 166 321 345 29 204-66 393-237 474l-68 32-235 2c-175 2-246-1-277-11zm503-165c101-45 157-134 158-251 0-109-53-198-148-248-48-25-61-26-212-30-188-5-254 6-321 51-72 49-105 110-111 206-3 46 0 93 7 114 31 93 118 164 219 178 31 4 125 6 208 5 128-3 157-7 200-25zm-8296 44v-65h330v130H380v-65zm340 0v-65h150v130H720v-65zm170 0v-65h130v130H890v-65zm160 0v-65h140v130h-140v-65zm180 0v-65h120v130h-120v-65zm170 0v-65h110v130h-110v-65zm170 0v-65h90v130h-90v-65zm170 0v-65h80v130h-80v-65zm170 0v-65h70v130h-70v-65zm170 0v-65h60v130h-60v-65zm170 0c0-63 1-65 25-65s25 2 25 65-1 65-25 65-25-2-25-65zM394 1213c3-10 10-39 17-65l11-48h288v130H549c-148 0-160-1-155-17zm326-48v-65h150v130H720v-65zm170 0v-65h130v130H890v-65zm160 0v-65h140v130h-140v-65zm180 0v-65h120v130h-120v-65zm170 0v-65h110v130h-110v-65zm170 0v-65h90v130h-90v-65zm170 0v-65h80v130h-80v-65zm170 0v-65h70v130h-70v-65zm170 0v-65h60v130h-60v-65zm170 0c0-63 1-65 25-65s25 2 25 65-1 65-25 65-25-2-25-65z"/><path d="M6050 1020v-80h500v160h-500v-80zm-5609 38c0-7 12-38 27-68l27-55 108-3 107-3v141H575c-102 0-135-3-134-12zm279-58v-70h150v140H720v-70zm170 0v-70h130v140H890v-70zm160 0v-70h140v140h-140v-70zm180 0v-70h120v140h-120v-70zm170 0v-70h110v140h-110v-70zm170 0v-70h90v140h-90v-70zm170 0v-70h80v140h-80v-70zm170 0v-70h70v140h-70v-70zm170 0v-70h60v140h-60v-70zm170 18c1-57 6-54 36 17 14 35 14 35-11 35-24 0-25-3-25-52zM520 890c6-11 15-20 20-20 6 0 10-5 10-11s14-31 32-55c30-42 34-44 80-44h48v150H610c-98 0-100-1-90-20zm200-55v-75h150v150H720v-75zm170 0v-75h130v150H890v-75zm160 0v-75h140v150h-140v-75zm180 0v-75h120v150h-120v-75zm170 0v-75h110v150h-110v-75zm170 0v-75h90v150h-90v-75zm170 0v-75h80v150h-80v-75zm170 0v-75h70v150h-70v-75zm170 0c0-66 2-75 18-75 31 0 42 22 42 87v63h-60v-75zM640 743c0-10 52-63 62-63 4 0 8 16 8 35 0 33-2 35-35 35-19 0-35-3-35-7zm80-40c1-45 4-50 44-80 24-18 46-33 50-33s14-7 22-15c29-28 34-15 34 80v95H720v-47zm172-60l3-106 63-28 62-28v269H889l3-107zm158-32V472l33-11c17-5 49-13 70-17l37-6v312h-140V611zm180-20V433l38-7c89-14 82-27 82 159v165h-120V591zm170-6V420h33c80 0 77-6 77 171v159h-110V585zm170 9c0-143 1-155 18-150 9 3 29 8 45 12l27 6v288h-90V594zm170 31c0-81 4-125 10-125s24 7 40 15l30 16v219h-80V625zm170 45c0-44 4-80 9-80 4 0 20 9 35 21 23 18 26 28 26 80v59h-70v-80z"/></symbol><symbol viewBox="0 0 512 512" id="menu" xmlns="http://www.w3.org/2000/svg"><path d="M501.333 96H10.667C4.779 96 0 100.779 0 106.667s4.779 10.667 10.667 10.667h490.667c5.888 0 10.667-4.779 10.667-10.667S507.221 96 501.333 96zm0 149.333H10.667C4.779 245.333 0 250.112 0 256s4.779 10.667 10.667 10.667h490.667c5.888 0 10.667-4.779 10.667-10.667s-4.78-10.667-10.668-10.667zm0 149.334H10.667C4.779 394.667 0 399.445 0 405.333 0 411.221 4.779 416 10.667 416h490.667c5.888 0 10.667-4.779 10.667-10.667-.001-5.888-4.78-10.666-10.668-10.666z"/></symbol><symbol viewBox="0 0 480 480" id="office" xmlns="http://www.w3.org/2000/svg"><path d="M472 76h-88V12a8 8 0 0 0-8-8H104a8 8 0 0 0-8 8v112H8a8 8 0 0 0-8 8v328a8 8 0 0 0 16 0V140h80v328a8 8 0 0 0 8 8h272a8 8 0 0 0 8-8V92h80v368a8 8 0 0 0 16 0V84a8 8 0 0 0-8-8zM232 460h-32v-72h32v72zm48 0h-32v-72h32v72zm88 0h-72v-80a8 8 0 0 0-8-8h-96a8 8 0 0 0-8 8v80h-72V20h256v440z"/><path d="M184 36h-48a8 8 0 0 0-8 8v48a8 8 0 0 0 8 8h48a8 8 0 0 0 8-8V44a8 8 0 0 0-8-8zm-8 48h-32V52h32v32zm88-48h-48a8 8 0 0 0-8 8v48a8 8 0 0 0 8 8h48a8 8 0 0 0 8-8V44a8 8 0 0 0-8-8zm-8 48h-32V52h32v32zm88-48h-48a8 8 0 0 0-8 8v48a8 8 0 0 0 8 8h48a8 8 0 0 0 8-8V44a8 8 0 0 0-8-8zm-8 48h-32V52h32v32zm-152 32h-48a8 8 0 0 0-8 8v48a8 8 0 0 0 8 8h48a8 8 0 0 0 8-8v-48a8 8 0 0 0-8-8zm-8 48h-32v-32h32v32zm88-48h-48a8 8 0 0 0-8 8v48a8 8 0 0 0 8 8h48a8 8 0 0 0 8-8v-48a8 8 0 0 0-8-8zm-8 48h-32v-32h32v32zm88-48h-48a8 8 0 0 0-8 8v48a8 8 0 0 0 8 8h48a8 8 0 0 0 8-8v-48a8 8 0 0 0-8-8zm-8 48h-32v-32h32v32zm-152 32h-48a8 8 0 0 0-8 8v48a8 8 0 0 0 8 8h48a8 8 0 0 0 8-8v-48a8 8 0 0 0-8-8zm-8 48h-32v-32h32v32zm88-48h-48a8 8 0 0 0-8 8v48a8 8 0 0 0 8 8h48a8 8 0 0 0 8-8v-48a8 8 0 0 0-8-8zm-8 48h-32v-32h32v32zm88-48h-48a8 8 0 0 0-8 8v48a8 8 0 0 0 8 8h48a8 8 0 0 0 8-8v-48a8 8 0 0 0-8-8zm-8 48h-32v-32h32v32zm-152 32h-48a8 8 0 0 0-8 8v48a8 8 0 0 0 8 8h48a8 8 0 0 0 8-8v-48a8 8 0 0 0-8-8zm-8 48h-32v-32h32v32zm88-48h-48a8 8 0 0 0-8 8v48a8 8 0 0 0 8 8h48a8 8 0 0 0 8-8v-48a8 8 0 0 0-8-8zm-8 48h-32v-32h32v32zm88-48h-48a8 8 0 0 0-8 8v48a8 8 0 0 0 8 8h48a8 8 0 0 0 8-8v-48a8 8 0 0 0-8-8zm-8 48h-32v-32h32v32zM48 156h-8a8 8 0 0 0-8 8v8a8 8 0 0 0 8 8h8a8 8 0 0 0 8-8v-8a8 8 0 0 0-8-8zm32 0h-8a8 8 0 0 0-8 8v8a8 8 0 0 0 8 8h8a8 8 0 0 0 8-8v-8a8 8 0 0 0-8-8zm-32 32h-8a8 8 0 0 0-8 8v8a8 8 0 0 0 8 8h8a8 8 0 0 0 8-8v-8a8 8 0 0 0-8-8zm32 0h-8a8 8 0 0 0-8 8v8a8 8 0 0 0 8 8h8a8 8 0 0 0 8-8v-8a8 8 0 0 0-8-8zm-32 32h-8a8 8 0 0 0-8 8v8a8 8 0 0 0 8 8h8a8 8 0 0 0 8-8v-8a8 8 0 0 0-8-8zm32 0h-8a8 8 0 0 0-8 8v8a8 8 0 0 0 8 8h8a8 8 0 0 0 8-8v-8a8 8 0 0 0-8-8zm-32 32h-8a8 8 0 0 0-8 8v8a8 8 0 0 0 8 8h8a8 8 0 0 0 8-8v-8a8 8 0 0 0-8-8zm32 0h-8a8 8 0 0 0-8 8v8a8 8 0 0 0 8 8h8a8 8 0 0 0 8-8v-8a8 8 0 0 0-8-8zm-32 32h-8a8 8 0 0 0-8 8v8a8 8 0 0 0 8 8h8a8 8 0 0 0 8-8v-8a8 8 0 0 0-8-8zm32 0h-8a8 8 0 0 0-8 8v8a8 8 0 0 0 8 8h8a8 8 0 0 0 8-8v-8a8 8 0 0 0-8-8zm-32 32h-8a8 8 0 0 0-8 8v8a8 8 0 0 0 8 8h8a8 8 0 0 0 8-8v-8a8 8 0 0 0-8-8zm32 0h-8a8 8 0 0 0-8 8v8a8 8 0 0 0 8 8h8a8 8 0 0 0 8-8v-8a8 8 0 0 0-8-8zm-32 32h-8a8 8 0 0 0-8 8v8a8 8 0 0 0 8 8h8a8 8 0 0 0 8-8v-8a8 8 0 0 0-8-8zm32 0h-8a8 8 0 0 0-8 8v8a8 8 0 0 0 8 8h8a8 8 0 0 0 8-8v-8a8 8 0 0 0-8-8zm-32 32h-8a8 8 0 0 0-8 8v8a8 8 0 0 0 8 8h8a8 8 0 0 0 8-8v-8a8 8 0 0 0-8-8zm32 0h-8a8 8 0 0 0-8 8v8a8 8 0 0 0 8 8h8a8 8 0 0 0 8-8v-8a8 8 0 0 0-8-8zm-32 32h-8a8 8 0 0 0-8 8v8a8 8 0 0 0 8 8h8a8 8 0 0 0 8-8v-8a8 8 0 0 0-8-8zm32 0h-8a8 8 0 0 0-8 8v8a8 8 0 0 0 8 8h8a8 8 0 0 0 8-8v-8a8 8 0 0 0-8-8zm360-304h-32a8 8 0 0 0-8 8v32a8 8 0 0 0 8 8h32a8 8 0 0 0 8-8v-32a8 8 0 0 0-8-8zm-8 32h-16v-16h16v16zm8 32h-32a8 8 0 0 0-8 8v32a8 8 0 0 0 8 8h32a8 8 0 0 0 8-8v-32a8 8 0 0 0-8-8zm-8 32h-16v-16h16v16zm8 32h-32a8 8 0 0 0-8 8v32a8 8 0 0 0 8 8h32a8 8 0 0 0 8-8v-32a8 8 0 0 0-8-8zm-8 32h-16v-16h16v16zm8 32h-32a8 8 0 0 0-8 8v32a8 8 0 0 0 8 8h32a8 8 0 0 0 8-8v-32a8 8 0 0 0-8-8zm-8 32h-16v-16h16v16zm8 32h-32a8 8 0 0 0-8 8v32a8 8 0 0 0 8 8h32a8 8 0 0 0 8-8v-32a8 8 0 0 0-8-8zm-8 32h-16v-16h16v16z"/></symbol><symbol viewBox="0 0 129 129" id="right" xmlns="http://www.w3.org/2000/svg"><path d="M40.4 121.3c-.8.8-1.8 1.2-2.9 1.2s-2.1-.4-2.9-1.2c-1.6-1.6-1.6-4.2 0-5.8l51-51-51-51c-1.6-1.6-1.6-4.2 0-5.8 1.6-1.6 4.2-1.6 5.8 0l53.9 53.9c1.6 1.6 1.6 4.2 0 5.8l-53.9 53.9z"/></symbol><symbol viewBox="0 0 512 512" id="room" xmlns="http://www.w3.org/2000/svg"><path d="M472 280H40c-13.234 0-24 10.767-24 24a8 8 0 0 0 16 0c0-4.411 3.589-8 8-8h6.556L27.983 407.443a72.072 72.072 0 0 0 9.282 48.884L48 474.216V503c0 4.963 4.038 9 9 9h398c4.962 0 9-4.037 9-9v-28.784l10.735-17.889a72.072 72.072 0 0 0 9.282-48.884L465.444 296H472c4.411 0 8 3.589 8 8a8 8 0 0 0 16 0c0-13.233-10.766-24-24-24zm-50.985 168.095L411.471 464h-23.654l5.652-14.13a72.249 72.249 0 0 0 4.71-34.694L384.938 296h24.285l19.012 114.074a56.063 56.063 0 0 1-7.22 38.021zM346.603 464l5.335-18.69a71.74 71.74 0 0 0 2.541-25.456L344.659 296h24.18l13.438 120.943a56.173 56.173 0 0 1-3.664 26.983L370.584 464h-23.981zm-42.14 0l1.646-29.252c.096-1.711.131-3.449.104-5.168L304.126 296h24.483l9.92 125.119a55.797 55.797 0 0 1-1.976 19.798L329.964 464h-25.501zM264 464V296h24.124l2.091 133.83a56.122 56.122 0 0 1-.081 4.021L288.438 464H264zm-40.485 0l-1.872-29.944a56.464 56.464 0 0 1-.1-4.467L223.863 296H248v168h-24.485zm-122.986 0l-9.544-15.905a56.06 56.06 0 0 1-7.22-38.021L102.777 296h24.285L113.82 415.176a72.249 72.249 0 0 0 4.71 34.694l5.652 14.13h-23.653zm40.887 0l-8.03-20.073a56.185 56.185 0 0 1-3.664-26.983L143.161 296h24.175l-9.884 123.77a71.761 71.761 0 0 0 2.575 25.627L165.376 464h-23.96zm40.608 0l-6.62-23.025a55.789 55.789 0 0 1-2.003-19.932L183.387 296h24.473l-2.314 133.311c-.034 1.902.01 3.834.129 5.742l1.81 28.947h-25.461zM43.765 410.074L62.777 296h23.78L67.983 407.443a72.072 72.072 0 0 0 9.282 48.884L81.869 464h-21.34l-9.544-15.905a56.063 56.063 0 0 1-7.22-38.021zM448 496H64v-16h31.992l.015.001.015-.001h39.954l.026.002.042-.002h39.928l.024.002.028-.002h159.952l.028.002.024-.002h39.928l.042.002.026-.002h39.954l.015.001.015-.001H448v16zm13.015-47.905L451.471 464h-21.34l4.604-7.673a72.072 72.072 0 0 0 9.282-48.884L425.444 296h23.779l19.012 114.074a56.063 56.063 0 0 1-7.22 38.021zM104 264a8 8 0 0 0 8-8V16h288v240a8 8 0 0 0 16 0V16c0-8.822-7.178-16-16-16H112c-8.822 0-16 7.178-16 16v240a8 8 0 0 0 8 8z"/><path d="M376 264a8 8 0 0 0 8-8V40a8 8 0 0 0-8-8H136a8 8 0 0 0-8 8v216a8 8 0 0 0 16 0V136h79.999a8 8 0 0 0 0-16H144V48h104v208a8 8 0 0 0 16 0V136h104v120a8 8 0 0 0 8 8zM264 120V48h104v72H264z"/></symbol></svg>