<?xml version="1.0" encoding="utf-8"?><svg xmlns="http://www.w3.org/2000/svg" xmlns:xlink="http://www.w3.org/1999/xlink"><symbol viewBox="0 0 29 24" id="Burger" xmlns="http://www.w3.org/2000/svg"><style>.acls-b1{fill:#431e36}</style><path class="acls-b1" d="M0 0h29v2H0zm0 11h29v2H0zm0 11h29v2H0z"/></symbol><symbol viewBox="0 0 320 512" id="chevron-right" xmlns="http://www.w3.org/2000/svg"><path d="M285.476 272.971L91.132 467.314c-9.373 9.373-24.569 9.373-33.941 0l-22.667-22.667c-9.357-9.357-9.375-24.522-.04-33.901L188.505 256 34.484 101.255c-9.335-9.379-9.317-24.544.04-33.901l22.667-22.667c9.373-9.373 24.569-9.373 33.941 0L285.475 239.03c9.373 9.372 9.373 24.568.001 33.941z"/></symbol><symbol viewBox="0 0 12.98 12.95" id="close" xmlns="http://www.w3.org/2000/svg"><path d="M12.71 10.58c-.3-.6-3.9-4.2-3.9-4.2s3.6-3.6 3.9-4a1.35 1.35 0 0 0-.4-2 1.52 1.52 0 0 0-2 0 1.75 1.75 0 0 0-.5.4c-1.2 1.2-2.3 2.3-3.3 3.4-1.1-1.1-2.2-2.18-3.3-3.4a1 1 0 0 0-.5-.4 1.52 1.52 0 0 0-2 0 1.53 1.53 0 0 0-.4 2c.4.4 3.9 4 3.9 4S.51 10 .31 10.58a1.29 1.29 0 0 0 .4 2 1.52 1.52 0 0 0 2 0 2 2 0 0 1 .5-.41c1.1-1.2 2.2-2.29 3.3-3.4 1.1 1.1 2.3 2.3 3.3 3.4a1.81 1.81 0 0 0 .5.41 1.52 1.52 0 0 0 2 0 1.35 1.35 0 0 0 .4-2z"/></symbol><symbol viewBox="0 0 28 21" id="dan" xmlns="http://www.w3.org/2000/svg"><path d="M19.5 5.4a3.82 3.82 0 0 0 2.2-1.5 1 1 0 0 1 1-.4c.5.2.6.7.6 1.2v3.5a1.28 1.28 0 0 1-1.1 1.2 1.54 1.54 0 0 1-1.4-.6 16.61 16.61 0 0 0-1.4-1.3c-.4-.4-1-.7-1-1.2s.6-.8 1.1-.9zM5.8 9.5a1.54 1.54 0 0 0 1.4-.6 16.61 16.61 0 0 1 1.4-1.3c.4-.4 1-.7 1-1.2 0-.7-.6-.9-1.1-1a3.82 3.82 0 0 1-2.2-1.5 1 1 0 0 0-1-.4c-.5.2-.6.7-.6 1.2v3.5a1.36 1.36 0 0 0 1.1 1.3zM9 4.6a1.36 1.36 0 0 0 1.5 0A8.34 8.34 0 0 1 14 4a7 7 0 0 1 3.5.6 2 2 0 0 0 1.5 0 4.77 4.77 0 0 0 2.2-1.8c.3-.7-.6-1.5-1.4-1.8S18.2 0 14 0 8.9.7 8.2 1 6.5 2.1 6.8 2.8A4.77 4.77 0 0 0 9 4.6zm9.1 3.2l-1.2-1.2a3.57 3.57 0 0 0-2.7-1.2h-.6a3.73 3.73 0 0 0-2.7 1.2L9.7 7.8a1.67 1.67 0 0 0 0 2.5l1.3 1.3a3.39 3.39 0 0 0 2.8 1.1 3.74 3.74 0 0 0 2.8-1.1l1.3-1.3a1.5 1.5 0 0 0 .2-2.5zm9.6 9.4l-6.6-6.4a1.21 1.21 0 0 0-1.6 0l-2 2a1.09 1.09 0 0 0 0 1.5l6.6 6.4a1.21 1.21 0 0 0 1.6 0l2-2a1.09 1.09 0 0 0 0-1.5zM8.5 10.8a1.21 1.21 0 0 0-1.6 0L.3 17.2a1.09 1.09 0 0 0 0 1.5l2 2a1.21 1.21 0 0 0 1.6 0l6.6-6.4a1.09 1.09 0 0 0 0-1.5z"/></symbol><symbol viewBox="0 0 15.1 8.75" id="drep_down" xmlns="http://www.w3.org/2000/svg"><path d="M7.45 4.65S3.25.75 2.75.35a1.7 1.7 0 0 0-2.3.4A1.57 1.57 0 0 0 .45 3a1.21 1.21 0 0 0 .5.5c1.7 1.6 3.3 3.1 5 4.6a2.29 2.29 0 0 0 1.6.7 2.13 2.13 0 0 0 1.6-.7c1.7-1.5 3.3-3.1 5-4.6l.5-.5a1.57 1.57 0 0 0 0-2.2 1.54 1.54 0 0 0-2.3-.4c-.7.35-4.9 4.25-4.9 4.25z"/></symbol><symbol viewBox="0 0 264 512" id="facebook" xmlns="http://www.w3.org/2000/svg"><path d="M76.7 512V283H0v-91h76.7v-71.7C76.7 42.4 124.3 0 193.8 0c33.3 0 61.9 2.5 70.2 3.6V85h-48.2c-37.8 0-45.1 18-45.1 44.3V192H256l-11.7 91h-73.6v229"/></symbol><symbol viewBox="0 0 58 16.71" id="head_icon" xmlns="http://www.w3.org/2000/svg"><path d="M42.6 13.93a1.21 1.21 0 0 1 0 2 2.13 2.13 0 0 1-2.7.4c-.5-.3-8.6-6.4-12.9-9.5l-.1-.1-.1.1c-4.3 3.2-12.5 9.3-13.1 9.6A2.27 2.27 0 0 1 11 16a1.21 1.21 0 0 1 0-2c.1-.2.3-.3.6-.5C13.7 11.93 23 5 25 3.63A2.47 2.47 0 0 1 26.8 3a3.53 3.53 0 0 1 1.9.6c2.1 1.6 11.3 8.5 13.2 9.9.4.13.5.33.7.43zM44 .23c-.4.2-2.8 2-3.9 2.9-.9-.7-3.5-2.7-3.9-2.9a2.12 2.12 0 0 0-2.5.4 1.34 1.34 0 0 0 0 2 2.18 2.18 0 0 0 .5.4 10.63 10.63 0 0 1 1.1.9c1 .8 2.1 1.6 3.2 2.4a2.35 2.35 0 0 0 1.6.5 3 3 0 0 0 1.6-.5c1.1-.8 2.2-1.6 3.2-2.4h.1l1.1-.8c.2-.1.3-.3.5-.4a1.34 1.34 0 0 0 0-2 2.17 2.17 0 0 0-2.6-.5zM9.3 7.43H1.8a1.8 1.8 0 0 0 0 3.6h7.5a1.79 1.79 0 0 0 1.8-1.8 1.86 1.86 0 0 0-1.8-1.8zm46.9 0h-7.5a1.8 1.8 0 0 0 0 3.6h7.5a1.8 1.8 0 0 0 0-3.6z"/></symbol><symbol viewBox="0 0 12.7 12.5" id="insta" xmlns="http://www.w3.org/2000/svg"><style>.hcls-1{fill:#010101}</style><path class="hcls-1" d="M12.7 1.3A1.43 1.43 0 0 0 11.2 0h-10A1.43 1.43 0 0 0 0 1.5v9.8a1.4 1.4 0 0 0 1.4 1.2h9.9a1.49 1.49 0 0 0 1.3-1.4V1.4c.1 0 .1 0 .1-.1zM6.4 3.9a2.43 2.43 0 0 1 2.4 2.4 2.43 2.43 0 0 1-2.4 2.4A2.43 2.43 0 0 1 4 6.3a2.43 2.43 0 0 1 2.4-2.4zm4.8 1.5v5.2a.47.47 0 0 1-.5.5H2a.47.47 0 0 1-.5-.5V5.3h1.1A3.9 3.9 0 0 0 3 8.1a3.61 3.61 0 0 0 1.5 1.5 3.8 3.8 0 0 0 4.1-.2A3.44 3.44 0 0 0 10 7.6a3.63 3.63 0 0 0 .1-2.3 3.75 3.75 0 0 1 1.1.1zm0-2a.47.47 0 0 1-.5.5H9.3a.47.47 0 0 1-.5-.5V1.9a.47.47 0 0 1 .5-.5h1.4a.47.47 0 0 1 .5.5z"/></symbol><symbol viewBox="0 0 76 33.5" id="logo_menu" xmlns="http://www.w3.org/2000/svg"><path d="M76 31.6l-.6 1.1C52.1 22 38.7 13.2 36.2 11.5c-9.6 8.1-23.8 16.6-35.6 22L0 32.4s5.1-2.9 12.1-7.3a219.47 219.47 0 0 0 23.5-17 107.66 107.66 0 0 0 10.7 7.4A221.93 221.93 0 0 0 76 31.6zM49.1 5.8a42.15 42.15 0 0 1 4.8-3.5L56.2.9l-.5-.9a25 25 0 0 0-7.1 3.6c-.8-.5-3.1-1.7-7-3.5l-.5.9a46.27 46.27 0 0 1 5.7 3c1.3 1 2.3 1.8 2.3 1.8z"/></symbol><symbol viewBox="0 0 82 15.3" id="logotype" xmlns="http://www.w3.org/2000/svg"><path d="M77.7 8.8L82 5.6c-2.8.9-5 1.6-7.3 2.2A71.77 71.77 0 0 1 69.6.5l-3.4 3c-.1 1.9-2.3 5.9-5.4 8.1a16.25 16.25 0 0 1-3.7-2.9l1.8-.3 4.3-3.2c-2.8.9-5 1.6-7.3 2.2A62.11 62.11 0 0 1 50.8.1l-3.4 3c-.1 2-2.6 6.4-6 8.5a35.53 35.53 0 0 0-11-6c1.7-1.6 6.8-4.1 7.7-4L37 .1c-1.6-.2-4.5 2.1-6.8 4.2l-.8.8a34.85 34.85 0 0 0-.3-5.1L25 3.1a15.27 15.27 0 0 1 .3 9.4c-.4 1-1.3 1.8-1.7 2.8 0 0 4.6-2.2 5.3-4.6a6.87 6.87 0 0 0 .3-2.2 34.88 34.88 0 0 1 10.3 6.2l.1-.1c3 0 5.4-2.6 7-5 1.7 0 3.3-.1 4.8-.2 2 2.6 4.3 4.7 6.9 5.6l.1-.1c3 0 5.4-2.6 7-5 1.7 0 3.3-.1 4.8-.2 2 2.6 4.3 4.7 6.9 5.6l3.4-3a12.28 12.28 0 0 1-4.8-3.2c.8-.1 1.4-.2 2-.3zm-30.2-.2c.9-1.5 1.4-2.7 1.6-3 .6 1 1.1 1.9 1.7 2.8-1 0-2.1.1-3.3.2zm18.8.3c.9-1.5 1.4-2.7 1.6-3 .6 1 1.1 1.9 1.7 2.8a32.51 32.51 0 0 1-3.3.2zm-45.8-.5l4.3-3.2c-2.8.9-5 1.6-7.3 2.2A62.11 62.11 0 0 1 12.4.1L9 3.1c-.1 2.6-4.1 9-9 9.6l1.4 1.9c3 0 5.4-2.6 7-5 1.7 0 3.3-.1 4.8-.2 2 2.6 4.3 4.7 6.9 5.6l3.4-3a12.28 12.28 0 0 1-4.8-3.2 11.63 11.63 0 0 1 1.8-.4zm-11.4.2c.9-1.5 1.4-2.7 1.6-3 .6 1 1.1 1.9 1.7 2.8-1 0-2.1.1-3.3.2z"/></symbol><symbol viewBox="0 0 18.05 12.52" id="mailAsset" xmlns="http://www.w3.org/2000/svg"><style>.kcls-1{fill:#40322f}</style><path class="kcls-1" d="M1.6.72l6.5 5.1a2.17 2.17 0 0 0 2.2 0l6.5-5.1c.5-.4.4-.7-.3-.7H1.9c-.7-.1-.8.3-.3.7z"/><path class="kcls-1" d="M17.2 2l-7.1 5.4a1.69 1.69 0 0 1-1 .3 1.93 1.93 0 0 1-1-.3L1 2c-.5-.4-1-.2-1 .5v8.8a1.16 1.16 0 0 0 1.2 1.2h15.6a1.16 1.16 0 0 0 1.2-1.2V2.52c.2-.7-.2-.9-.8-.52z"/></symbol><symbol viewBox="0 0 384 512" id="map-marker-alt" xmlns="http://www.w3.org/2000/svg"><path d="M172.268 501.67C26.97 291.031 0 269.413 0 192 0 85.961 85.961 0 192 0s192 85.961 192 192c0 77.413-26.97 99.031-172.268 309.67-9.535 13.774-29.93 13.773-39.464 0zM192 272c44.183 0 80-35.817 80-80s-35.817-80-80-80-80 35.817-80 80 35.817 80 80 80z"/></symbol><symbol viewBox="0 0 396.667 396.667" id="menu-options" xmlns="http://www.w3.org/2000/svg"><path d="M17 87.833h362.667c9.35 0 17-7.65 17-17s-7.65-17-17-17H17c-9.35 0-17 7.65-17 17s7.65 17 17 17zm0 127.5h362.667c9.35 0 17-7.65 17-17s-7.65-17-17-17H17c-9.35 0-17 7.65-17 17s7.65 17 17 17zm0 127.5h362.667c9.35 0 17-7.65 17-17s-7.65-17-17-17H17c-9.35 0-17 7.65-17 17s7.65 17 17 17z"/></symbol><symbol viewBox="0 0 512 512" id="phone" xmlns="http://www.w3.org/2000/svg"><path d="M493.4 24.6l-104-24c-11.3-2.6-22.9 3.3-27.5 13.9l-48 112c-4.2 9.8-1.4 21.3 6.9 28l60.6 49.6c-36 76.7-98.9 140.5-177.2 177.2l-49.6-60.6c-6.8-8.3-18.2-11.1-28-6.9l-112 48C3.9 366.5-2 378.1.6 389.4l24 104C27.1 504.2 36.7 512 48 512c256.1 0 464-207.5 464-464 0-11.2-7.7-20.9-18.6-23.4z"/></symbol><symbol viewBox="0 0 320 512" id="sort-up" xmlns="http://www.w3.org/2000/svg"><path d="M279 224H41c-21.4 0-32.1-25.9-17-41L143 64c9.4-9.4 24.6-9.4 33.9 0l119 119c15.2 15.1 4.5 41-16.9 41z"/></symbol><symbol viewBox="0 0 63.1 62.9" id="tour360" xmlns="http://www.w3.org/2000/svg"><path d="M36.4 57.3a1.09 1.09 0 0 1 0 1.5 1.38 1.38 0 0 0-.3.4c-1.1 1.1-2.3 2.1-3.4 3.2a1.82 1.82 0 0 1-1.1.5 1.39 1.39 0 0 1-1.1-.5c-1.2-1-2.3-2.1-3.4-3.2a1.38 1.38 0 0 1-.3-.4 1.09 1.09 0 0 1 0-1.5 1.13 1.13 0 0 1 1.6-.3c.4.2 3.3 2.9 3.3 2.9s2.9-2.7 3.3-2.9a1 1 0 0 1 1.4.3zM5.6 26.8a1.09 1.09 0 0 0-1.5 0 1.38 1.38 0 0 1-.4.3c-1.1 1.1-2.1 2.3-3.2 3.4a1.82 1.82 0 0 0-.5 1.1 1.39 1.39 0 0 0 .5 1.1c1 1.2 2.1 2.3 3.2 3.4a1.38 1.38 0 0 0 .4.3 1.09 1.09 0 0 0 1.5 0 1.13 1.13 0 0 0 .3-1.6c-.2-.4-2.9-3.3-2.9-3.3s2.7-2.9 2.9-3.3c.4-.4.3-1-.3-1.4zM28.3 5.9c.4-.2 3.3-2.9 3.3-2.9s2.9 2.7 3.3 2.9a1.13 1.13 0 0 0 1.6-.3 1.09 1.09 0 0 0 0-1.5 1.38 1.38 0 0 1-.3-.4c-1.1-1.1-2.3-2.1-3.4-3.2a1.82 1.82 0 0 0-1.1-.5 1.39 1.39 0 0 0-1.1.5c-1.2 1-2.3 2.1-3.4 3.2a1.38 1.38 0 0 0-.3.4 1.09 1.09 0 0 0 0 1.5c.2.5.8.6 1.4.3zm13.4 29.2c-1.4-1.1-8.4-6.4-10-7.6a2 2 0 0 0-1.4-.5 2 2 0 0 0-1.4.5c-1.5 1.1-8.6 6.4-10.2 7.6-.2.1-.3.3-.4.4a.94.94 0 0 0 0 1.5 1.55 1.55 0 0 0 2 .3c.4-.2 6.7-4.8 9.9-7.3l.1-.1.1.1c3.2 2.4 9.4 7.1 9.8 7.3a1.51 1.51 0 0 0 2-.3.94.94 0 0 0 0-1.5c-.2-.1-.3-.3-.5-.4zm20.9-4.6c-1-1.2-2.1-2.3-3.2-3.4a1.38 1.38 0 0 0-.4-.3 1.09 1.09 0 0 0-1.5 0 1.13 1.13 0 0 0-.3 1.6c.2.4 2.9 3.3 2.9 3.3s-2.7 2.9-2.9 3.3a1.13 1.13 0 0 0 .3 1.6 1.09 1.09 0 0 0 1.5 0 1.38 1.38 0 0 1 .4-.3c1.1-1.1 2.1-2.3 3.2-3.4a1.82 1.82 0 0 0 .5-1.1 1.54 1.54 0 0 0-.5-1.3zM53 16.7a68.06 68.06 0 0 0-1.6 14.9A61.6 61.6 0 0 0 53 46.4a1.2 1.2 0 0 1-1.5 1.5 85 85 0 0 0-20.1-2.1 85 85 0 0 0-20.1 2.1H11a1.22 1.22 0 0 1-.9-.4 1.31 1.31 0 0 1-.3-1.2 68.06 68.06 0 0 0 1.6-14.9 61.6 61.6 0 0 0-1.6-14.8 1.2 1.2 0 0 1 1.5-1.5 85 85 0 0 0 20.1 2.1 85 85 0 0 0 20.1-2.1 1.31 1.31 0 0 1 1.2.3 1.59 1.59 0 0 1 .3 1.3zm-4.1 14.9a71.37 71.37 0 0 1 1.2-13.5 94.65 94.65 0 0 1-18.7 1.7 95.39 95.39 0 0 1-18.7-1.7 71.05 71.05 0 0 1 1.2 13.4A71.37 71.37 0 0 1 12.7 45a95.71 95.71 0 0 1 18.8-1.7A95.39 95.39 0 0 1 50.2 45a70.83 70.83 0 0 1-1.3-13.4zM43.2 25c-.3.2-2.1 1.5-3 2.2-.7-.5-2.7-2-3-2.2a1.68 1.68 0 0 0-1.9.3.94.94 0 0 0 0 1.5l.3.3a5.5 5.5 0 0 1 .9.7l2.4 1.8a1.75 1.75 0 0 0 1.2.4 1.75 1.75 0 0 0 1.2-.4c.8-.6 1.7-1.2 2.4-1.8.3-.2.5-.4.8-.6.1-.1.3-.2.3-.3a.94.94 0 0 0 0-1.5c-.3-.6-.9-.7-1.6-.4z"/></symbol><symbol viewBox="0 0 20.27 11.32" id="vkAsset" xmlns="http://www.w3.org/2000/svg"><style>.qcls-vk1{fill:#40322f}</style><path class="qcls-vk1" d="M17.19 7.2a18.88 18.88 0 0 1 2 2 3.59 3.59 0 0 1 .7 1c.3.5 0 1.1-.4 1.1h-2.9a2 2 0 0 1-1.9-.8 15.38 15.38 0 0 1-1.2-1.3L13 8.7c-.4-.3-.7-.2-1 .2a3.19 3.19 0 0 0-.3 1.4c0 .7-.2.9-.9.9a7.62 7.62 0 0 1-4.2-.9 11.56 11.56 0 0 1-2.8-2.6A32.85 32.85 0 0 1 .09 1.1C-.11.6 0 .3.59.3h2.9c.4 0 .6.2.8.6a15.47 15.47 0 0 0 1.9 3.6 2.7 2.7 0 0 0 .7.8.49.49 0 0 0 .8-.2c.1-.2.1-.5.2-.8a11.29 11.29 0 0 0 0-2.6A1.17 1.17 0 0 0 7 .7C6.7.6 6.8.5 6.9.4a1 1 0 0 1 .9-.4h3.3c.5.1.6.3.7.9v3.7c0 .2.1.8.5.9s.5-.1.7-.3a10.65 10.65 0 0 0 1.9-2.8c.2-.5.4-.9.6-1.4a.75.75 0 0 1 .7-.5h3.5c.5.1.7.3.5.8a9.8 9.8 0 0 1-1.3 2.2c-.5.7-1.1 1.4-1.6 2.2-.7.6-.7.9-.1 1.5z"/></symbol><symbol viewBox="0 0 576 512" id="youtube" xmlns="http://www.w3.org/2000/svg"><path d="M549.655 124.083c-6.281-23.65-24.787-42.276-48.284-48.597C458.781 64 288 64 288 64S117.22 64 74.629 75.486c-23.497 6.322-42.003 24.947-48.284 48.597-11.412 42.867-11.412 132.305-11.412 132.305s0 89.438 11.412 132.305c6.281 23.65 24.787 41.5 48.284 47.821C117.22 448 288 448 288 448s170.78 0 213.371-11.486c23.497-6.321 42.003-24.171 48.284-47.821 11.412-42.867 11.412-132.305 11.412-132.305s0-89.438-11.412-132.305zm-317.51 213.508V175.185l142.739 81.205-142.739 81.201z"/></symbol></svg>