<svg xmlns="http://www.w3.org/2000/svg" viewBox="0 0 124.11 145.99"><defs><style>.cls-1{fill:#1f1a17}.cls-1,.cls-12,.cls-13,.cls-18,.cls-19,.cls-2,.cls-20,.cls-3,.cls-4,.cls-5,.cls-6,.cls-7,.cls-8{fill-rule:evenodd}.cls-2{fill:#7bb326}.cls-3{fill:#89bb3c}.cls-4{fill:#faf0e3}.cls-5{fill:#f2dece}.cls-6{fill:#dbc2af}.cls-7{fill:#f6f8fa}.cls-8,.cls-9{fill:#fefefe}.cls-10,.cls-18{fill:#423435}.cls-12{fill:#3bb3c2}.cls-13{fill:#71c9d4}.cls-19{fill:#dd137b}.cls-20{fill:#eb64a9}</style></defs><g id="Слой_2" data-name="Слой 2"><g id="Layer_1" data-name="Layer 1"><path class="cls-1" d="M93.53 80.91a6 6 0 0 1 5.74 6.2l.13 52.66a6 6 0 0 1-5.7 6.23 6 6 0 0 1-5.74-6.2l-.13-52.66a6 6 0 0 1 5.7-6.23zm11.98-1.14c3.1.05 5.71 2.94 5.8 6.41l1.43 53.51c.09 3.47-2.37 6.27-5.47 6.21-3.1-.06-5.71-2.94-5.8-6.41L100 86c-.05-3.49 2.41-6.28 5.51-6.23z"/><path class="cls-2" d="M88.76 48.37h22c1.71 0 3.11.49 3.11 1.09v11.78H85.65V49.46c0-.6 1.35-1.09 3.11-1.09z"/><path class="cls-2" d="M89.32 48.37h20.85a3.28 3.28 0 0 1 3 3.51v38h-26.8v-38a3.28 3.28 0 0 1 2.95-3.51z"/><path class="cls-3" d="M89.32 48.37h10.59v41.49H86.37v-38a3.28 3.28 0 0 1 2.95-3.49z"/><path class="cls-1" d="M97.08 22.18h5.84c4.16 0 7.56 3.69 7.56 8.21v2.75c0 4.51-3.4 8.21-7.56 8.21h-5.84c-4.16 0-7.56-3.69-7.56-8.21v-2.76c0-4.51 3.4-8.2 7.56-8.2z"/><path class="cls-4" d="M90.57 33.74c.87 0 1.69 1 1.82 2.18s-.47 2.18-1.35 2.18-1.69-1-1.82-2.18.48-2.18 1.35-2.18z"/><path class="cls-5" d="M109.43 33.74c-.87 0-1.69 1-1.82 2.18s.47 2.18 1.35 2.18 1.69-1 1.82-2.18-.48-2.18-1.35-2.18zM100 37c2.87 0 5.22 1.56 5.22 3.47v8.71c0 1.91-2.35 3.47-5.22 3.47-2.87 0-5.22-1.56-5.22-3.47v-8.74c0-1.91 2.35-3.44 5.22-3.44z"/><path class="cls-4" d="M100 52.61c-2.86 0-5.2-1.56-5.2-3.46v-8.71c0-1.9 2.34-3.46 5.2-3.47z"/><path class="cls-5" d="M104.77 26.7c5 3.4 4.77 3 4.77 9.81s.19 6.41-4.77 9.81-4.59 3.4-9.55 0-4.77-3-4.77-9.81-.19-6.41 4.77-9.81 4.59-3.4 9.55 0z"/><path class="cls-4" d="M100 48.86c-1.14 0-2.29-.86-4.76-2.55-5-3.4-4.77-3-4.77-9.81s-.19-6.41 4.77-9.81c2.47-1.69 3.62-2.54 4.76-2.55z"/><path class="cls-6" d="M105.22 46v.84l-.44.3c-5 3.4-4.59 3.4-9.55 0l-.44-.3V46l.44.3c5 3.4 4.59 3.4 9.55 0z"/><path class="cls-5" d="M120.77 93.89a3.06 3.06 0 0 1-3.91-2.16l-7.39-38.3a3.54 3.54 0 0 1 2.83-3.83 3.06 3.06 0 0 1 3.91 2.16l7.39 38.3a3.54 3.54 0 0 1-2.83 3.83z"/><path class="cls-2" d="M116 89.78l-7.22-37a3.89 3.89 0 0 1 3.06-4.16 4.14 4.14 0 0 1 4.55 2.93l7.75 36.5z"/><path class="cls-4" d="M99.96 35.9l.94 3.02.95 3.02h-3.79l.95-3.02.95-3.02z"/><path class="cls-7" d="M102.55 43.92c0 .62-1.19 1.11-2.59 1.11s-2.55-.49-2.59-1.11z"/><path class="cls-8" d="M100 45c-1.41 0-2.55-.49-2.59-1.11H100z"/><ellipse class="cls-9" cx="95.68" cy="36.34" rx="1.77" ry="1.07"/><ellipse class="cls-9" cx="103.86" cy="36.34" rx="1.77" ry="1.07"/><circle class="cls-10" cx="95.7" cy="36.32" r=".92"/><circle class="cls-10" cx="103.88" cy="36.32" r=".92"/><circle class="cls-9" cx="96.07" cy="36.25" r=".33"/><circle class="cls-9" cx="104.24" cy="36.27" r=".33"/><path class="cls-3" d="M80.14 49.99l6.4 14.51 5.42-14.37-4.79-5.31-7.03 5.17z"/><path class="cls-5" d="M82.74 5.88h1.28A3.13 3.13 0 0 1 87.2 8.9l.07 2.86a3.13 3.13 0 0 1-3 3.21h-1.28a3.13 3.13 0 0 1-3.18-3.06l-.11-2.83a3.13 3.13 0 0 1 3.04-3.2z"/><path class="cls-5" d="M80.57 10.92a.75.75 0 0 0 .73-.77l-.16-7.05a.75.75 0 0 0-.77-.73.75.75 0 0 0-.73.77l.17 7.05a.75.75 0 0 0 .76.73zm1.67-1.3a.75.75 0 0 0 .76-.77l-.19-7.05a.75.75 0 0 0-.81-.73.75.75 0 0 0-.73.77l.17 7.05a.75.75 0 0 0 .8.73zM84 8.55a.75.75 0 0 0 .73-.77L84.6.73a.75.75 0 0 0-.77-.73.75.75 0 0 0-.73.77l.17 7.05a.75.75 0 0 0 .73.73zm1.91.73a.75.75 0 0 0 .73-.77l-.17-7.05a.75.75 0 0 0-.77-.73.75.75 0 0 0-.7.77l.17 7.05a.75.75 0 0 0 .74.73z"/><path class="cls-5" d="M88.13 9.57l-1.72 3-.13-2.08.66-2.38c0-1.19-.23-3.24 1.59-3.25a9.2 9.2 0 0 0-.05 2.76 2 2 0 0 1-.35 1.95z"/><path class="cls-3" d="M87.71 10.91l.61 39.53a3.87 3.87 0 0 1-3.81 3.49c-2.05.06-4.26-2.06-4.29-3.78L79.39 11z"/><path class="cls-1" d="M100.19 32.43c4.57 0 8.3-1.59 8.3-3.53s-3.73-3.53-8.3-3.53-8.3 1.59-8.3 3.53 3.73 3.53 8.3 3.53z"/><ellipse cx="99.93" cy="25.4" rx="5.09" ry="1.8" fill="#1f1a17"/><path class="cls-1" d="M93.32 34.08a6.18 6.18 0 0 1 3.57-.3v.61a13.66 13.66 0 0 0-3.57-.31zM106 34a6.18 6.18 0 0 0-3.57-.3v.61A13.66 13.66 0 0 1 106 34zM18.39 80.7a6 6 0 0 1 5.45 6.45l-2.26 52.61a6 6 0 0 1-6 6 6 6 0 0 1-5.45-6.45l2.27-52.65a6 6 0 0 1 5.99-5.96zM30 79.78c3.1 0 5.79 2.78 6 6.24l2.94 53.44c.19 3.47-2.19 6.33-5.29 6.36-3.1 0-5.79-2.78-6-6.24l-2.96-53.44c-.19-3.46 2.19-6.33 5.31-6.36z"/><path class="cls-12" d="M13.33 48.37h22c1.71 0 3.11.49 3.11 1.09v11.78H10.22V49.46c0-.6 1.4-1.09 3.11-1.09z"/><path class="cls-12" d="M13.9 48.37h20.85a3.28 3.28 0 0 1 3 3.51v38H10.94v-38a3.28 3.28 0 0 1 2.96-3.51z"/><path class="cls-13" d="M13.9 48.37h10.58v41.49H10.94v-38a3.28 3.28 0 0 1 2.96-3.49z"/><path d="M21.65 22.18h5.84c4.16 0 7.56 3.69 7.56 8.21v2.75c0 4.51-3.4 8.21-7.56 8.21h-5.84c-4.16 0-7.56-3.69-7.56-8.21v-2.76c0-4.51 3.4-8.2 7.56-8.2z" fill="#8f5b0e" fill-rule="evenodd"/><path class="cls-4" d="M15.14 33.74c.87 0 1.69 1 1.82 2.18s-.47 2.18-1.35 2.18-1.69-1-1.82-2.18.48-2.18 1.35-2.18z"/><path class="cls-5" d="M34 33.74c-.87 0-1.69 1-1.82 2.18s.47 2.18 1.35 2.18 1.69-1 1.82-2.18-.47-2.18-1.35-2.18zM24.57 37c2.87 0 5.22 1.56 5.22 3.47v8.71c0 1.91-2.35 3.47-5.22 3.47-2.87 0-5.22-1.56-5.22-3.47v-8.74c0-1.91 2.35-3.44 5.22-3.44z"/><path class="cls-4" d="M24.55 52.61c-2.86 0-5.2-1.56-5.2-3.46v-8.71c0-1.9 2.34-3.46 5.2-3.47z"/><path class="cls-5" d="M29.34 26.7c5 3.4 4.77 3 4.77 9.81s.19 6.41-4.77 9.81-4.59 3.4-9.55 0S15 43.3 15 36.51s-.19-6.41 4.77-9.81 4.61-3.4 9.57 0z"/><path class="cls-4" d="M24.56 48.86c-1.14 0-2.29-.86-4.76-2.55-5-3.4-4.77-3-4.77-9.81s-.19-6.41 4.77-9.81c2.47-1.69 3.62-2.54 4.76-2.55z"/><path class="cls-6" d="M29.79 46v.84l-.44.3c-5 3.4-4.59 3.4-9.55 0l-.44-.3V46l.44.3c5 3.4 4.59 3.4 9.55 0z"/><path class="cls-5" d="M50.41 92.61a3.06 3.06 0 0 1-4.14-1.69L34.43 53.75a3.54 3.54 0 0 1 2.36-4.13 3.06 3.06 0 0 1 4.14 1.69l11.84 37.17a3.54 3.54 0 0 1-2.36 4.13z"/><path class="cls-12" d="M45.15 89.08L33.64 53.21a3.89 3.89 0 0 1 2.56-4.49 4.14 4.14 0 0 1 4.87 2.38L53 86.45z"/><path class="cls-4" d="M24.53 35.9l.95 3.02.94 3.02h-3.78l.95-3.02.94-3.02z"/><path class="cls-7" d="M27.13 43.92c0 .62-1.19 1.11-2.59 1.11s-2.55-.49-2.59-1.11z"/><path class="cls-8" d="M24.56 45c-1.41 0-2.55-.49-2.59-1.11h2.61z"/><ellipse class="cls-9" cx="20.26" cy="36.34" rx="1.77" ry="1.07"/><ellipse class="cls-9" cx="28.43" cy="36.34" rx="1.77" ry="1.07"/><circle class="cls-10" cx="20.28" cy="36.32" r=".92"/><circle class="cls-10" cx="28.45" cy="36.32" r=".92"/><circle class="cls-9" cx="20.65" cy="36.25" r=".33"/><circle class="cls-9" cx="28.82" cy="36.27" r=".33"/><path d="M18.63 33.73l2.77.06a.3.3 0 0 1 .29.3.3.3 0 0 1-.3.29l-2.77-.06a.3.3 0 0 1-.29-.3.3.3 0 0 1 .3-.29z" fill="#6e4912" fill-rule="evenodd"/><rect x="26.98" y="33.89" width="3.37" height=".59" rx=".24" ry=".24" transform="rotate(-.42 28.523 34.21)" fill="#6e4912"/><path class="cls-5" d="M8.25 53a3.24 3.24 0 0 1-3.9-2.69L.58 9.16A3.75 3.75 0 0 1 4 5.42a3.24 3.24 0 0 1 3.9 2.69l3.77 41.15A3.75 3.75 0 0 1 8.25 53z"/><path class="cls-13" d="M4.15 50.55l7.53 13.98 4.27-14.76-5.18-4.92-6.62 5.7z"/><ellipse cx="24.47" cy="25.44" rx="4.16" ry="1.8" fill="#8f5b0e"/><path class="cls-5" d="M3.31 6.37l1.27-.13A3.13 3.13 0 0 1 8 9l.29 2.84a3.13 3.13 0 0 1-2.79 3.48l-1.27.13a3.13 3.13 0 0 1-3.41-2.8L.53 9.8a3.13 3.13 0 0 1 2.78-3.43z"/><path class="cls-5" d="M1.54 11.57a.75.75 0 0 0 .67-.82l-.71-7a.75.75 0 0 0-.82-.67.75.75 0 0 0-.68.8l.71 7a.75.75 0 0 0 .83.69zm1.57-1.43a.75.75 0 0 0 .67-.82l-.71-7a.75.75 0 0 0-.82-.67.75.75 0 0 0-.67.82l.71 7a.75.75 0 0 0 .82.67zm1.7-1.2a.75.75 0 0 0 .67-.82l-.71-7a.75.75 0 0 0-.82-.69.75.75 0 0 0-.67.82l.71 7a.75.75 0 0 0 .82.69zm1.93.58a.75.75 0 0 0 .67-.82l-.71-7a.75.75 0 0 0-.82-.7.75.75 0 0 0-.67.82l.71 7a.75.75 0 0 0 .82.7z"/><path class="cls-5" d="M9 9.64l-1.51 3.14-.29-2.06.48-2.42C7.56 7.11 7.21 5.08 9 4.93a9.21 9.21 0 0 0 .16 2.75A2 2 0 0 1 9 9.64z"/><path class="cls-13" d="M8.66 11l3.69 39.36a3.87 3.87 0 0 1-3.52 3.78c-2 .22-4.4-1.72-4.58-3.43l-3.88-39z"/><path class="cls-18" d="M66 87.41c2.66 0 4.83 2.51 4.83 5.57v47.25c0 3.07-2.17 5.57-4.83 5.57s-4.83-2.51-4.83-5.57V93c.01-3.09 2.19-5.59 4.83-5.59zm-12 0c2.66 0 4.83 2.51 4.83 5.57v47.25c0 3.07-2.17 5.57-4.83 5.57s-4.83-2.51-4.83-5.57V93c.03-3.09 2.2-5.59 4.83-5.59z"/><path class="cls-5" d="M69.26 55a2.71 2.71 0 0 1 3.51 1.87L82.71 90A3.09 3.09 0 0 1 81 93.77a2.71 2.71 0 0 1-3.51-1.87l-9.95-33.12A3.09 3.09 0 0 1 69.26 55z"/><path class="cls-18" d="M44.9 56.17c9.49 5.42 22.54 4.85 30 0V35.39c0-19.45-30-20.58-30 0v20.78z"/><path class="cls-19" d="M69.4 68.73c3.9-1.9 5.38-2.67 6.31-3.69l-2.88-10.93c-1.81-3.28-4-3-12.81-3-9 0-10.82-.19-12.71 3.35l2.09 6-.11 7.16 2.19 1.06c9.17 4.51 8.76 4.51 17.92.05z"/><path class="cls-20" d="M59.95 51.13c-9 0-11-.3-12.87 3.23l2 6.71.16 7.1C53.8 70.38 58 72 59.95 72.08z"/><path class="cls-5" d="M59.85 37.94a3.71 3.71 0 0 1 3.54 3.84v9.65a3.71 3.71 0 0 1-3.54 3.84 3.71 3.71 0 0 1-3.54-3.84v-9.66a3.71 3.71 0 0 1 3.54-3.83z"/><path class="cls-4" d="M59.84 55.26a3.71 3.71 0 0 1-3.53-3.84v-9.65a3.71 3.71 0 0 1 3.53-3.84z"/><path class="cls-5" d="M63.82 29.54c4.12 3.15 4 2.79 4 9.08s.16 5.93-4 9.08-3.81 3.15-7.93 0-4-2.79-4-9.08-.16-5.93 4-9.08 3.8-3.14 7.93 0z"/><path class="cls-4" d="M59.84 50.05c-.95 0-1.9-.79-4-2.36-4.12-3.15-4-2.79-4-9.08s-.16-5.93 4-9.08c2.05-1.57 3-2.35 4-2.36z"/><path class="cls-6" d="M63.39 48.52c-3.27 3.41-3.9 3.35-7.07-.08V48c3.54 2.71 3.53 2.71 7.07 0z"/><path class="cls-10" d="M49.22 83.92h21.59v9.5H49.22z"/><path class="cls-19" d="M48.58 63.16h22.03l1.19 24.92H48.23l.35-24.92z"/><path class="cls-20" d="M48.32 61.06l11.62 2.1v24.92H48.23l.09-27.02z"/><path class="cls-19" d="M72.62 54.05l9.85 33.68-6.45 2.66-7.85-28.04 4.45-8.3z"/><path class="cls-4" d="M59.83 37.18l.96 2.85.96 2.86h-3.84l.96-2.86.96-2.85z"/><path class="cls-7" d="M62.79 44.73c0 .82-1.28 1.48-2.81 1.48s-2.76-.66-2.81-1.48z"/><path class="cls-8" d="M60 46.21c-1.52 0-2.76-.66-2.81-1.48H60z"/><ellipse class="cls-9" cx="64.02" cy="37.95" rx="1.78" ry="1.07"/><circle class="cls-10" cx="64.04" cy="37.93" r=".93"/><circle class="cls-9" cx="64.4" cy="37.88" r=".33"/><ellipse class="cls-9" cx="55.79" cy="37.95" rx="1.78" ry="1.07"/><circle class="cls-10" cx="55.81" cy="37.93" r=".93"/><circle class="cls-9" cx="56.18" cy="37.85" r=".33"/><path class="cls-1" d="M57.36 37.31c.5-.24.65-.38.75-.87a1.21 1.21 0 0 1-1.3.51 1.23 1.23 0 0 0 .41-1.24 2 2 0 0 1-.43.83 1.3 1.3 0 0 1-1.1.23.87.87 0 0 0 0-1.09 1.31 1.31 0 0 1-.64 1.32 9.13 9.13 0 0 1-1.12.54c.79-.11 1.42-.6 2.25-.55a1.48 1.48 0 0 1 1.21.5zm8.15 0c.5-.24.65-.38.75-.87a1.21 1.21 0 0 1-1.3.51 1.23 1.23 0 0 0 .41-1.24 2 2 0 0 1-.43.83 1.3 1.3 0 0 1-1.1.23.87.87 0 0 0 0-1.09 1.31 1.31 0 0 1-.65 1.32 9.13 9.13 0 0 1-1.12.54c.79-.11 1.42-.6 2.25-.55a1.48 1.48 0 0 1 1.21.5z"/><path class="cls-5" d="M42.3 5.74l1.09-.07a2.77 2.77 0 0 1 2.8 2.75l.15 2.66a2.83 2.83 0 0 1-2.47 3.09l-1.09.07A2.77 2.77 0 0 1 40 11.5l-.15-2.66a2.83 2.83 0 0 1 2.45-3.1z"/><path class="cls-5" d="M40.63 10.52a.68.68 0 0 0 .6-.74l-.38-6.58a.67.67 0 0 0-.68-.66.68.68 0 0 0-.6.74l.37 6.58a.67.67 0 0 0 .69.66zM42 9.25a.68.68 0 0 0 .6-.74l-.37-6.58a.67.67 0 0 0-.68-.66A.68.68 0 0 0 41 2l.37 6.58a.67.67 0 0 0 .63.67zm1.49-1.05a.68.68 0 0 0 .6-.74L43.71.88A.67.67 0 0 0 43 .22a.68.68 0 0 0-.6.74l.37 6.58a.67.67 0 0 0 .72.66zm1.62.62a.68.68 0 0 0 .6-.74l-.37-6.58a.67.67 0 0 0-.68-.66.68.68 0 0 0-.6.74l.37 6.58a.67.67 0 0 0 .68.66z"/><path class="cls-5" d="M47 9l-1.36 2.87-.18-1.94.48-2.24c-.06-1.11-.3-3 1.25-3.09a9.46 9.46 0 0 0 0 2.58A2 2 0 0 1 47 9z"/><path class="cls-20" d="M51.73 51.71c-2.16-2-2.19-2.25-2.35-5.22L47.09 10h-7.91l2.8 42c.44 4.39 3.66 9.8 7.66 12.75z"/><ellipse class="cls-10" cx="60.69" cy="28.93" rx="4.34" ry="4.18"/><ellipse class="cls-10" cx="56.7" cy="30.2" rx="3.24" ry="2.81"/><ellipse class="cls-10" cx="65.41" cy="31.14" rx="1.64" ry="1.78"/><ellipse class="cls-10" cx="67.65" cy="32.64" rx="1.32" ry="1.18"/><circle class="cls-10" cx="52.6" cy="31.22" r="1.86"/></g></g></svg>