<?xml version="1.0" encoding="utf-8"?><svg xmlns="http://www.w3.org/2000/svg" xmlns:xlink="http://www.w3.org/1999/xlink"><symbol viewBox="0 0 357 357" id="arrow-up" xmlns="http://www.w3.org/2000/svg"><path d="M38.25 0v357l280.5-178.5z"/></symbol><symbol viewBox="0 0 482.9 482.9" id="avatar" xmlns="http://www.w3.org/2000/svg"><path d="M239.7 260.2h3.2c29.3-.5 53-10.8 70.5-30.5 38.5-43.4 32.1-117.8 31.4-124.9-2.5-53.3-27.7-78.8-48.5-90.7C280.8 5.2 262.7.4 242.5 0h-1.7c-11.1 0-32.9 1.8-53.8 13.7-21 11.9-46.6 37.4-49.1 91.1-.7 7.1-7.1 81.5 31.4 124.9 17.4 19.7 41.1 30 70.4 30.5zm-75.1-152.9c0-.3.1-.6.1-.8 3.3-71.7 54.2-79.4 76-79.4h1.2c27 .6 72.9 11.6 76 79.4 0 .3 0 .6.1.8.1.7 7.1 68.7-24.7 104.5-12.6 14.2-29.4 21.2-51.5 21.4h-1c-22-.2-38.9-7.2-51.4-21.4-31.7-35.6-24.9-103.9-24.8-104.5z"/><path d="M446.8 383.6v-.3c0-.8-.1-1.6-.1-2.5-.6-19.8-1.9-66.1-45.3-80.9-.3-.1-.7-.2-1-.3-45.1-11.5-82.6-37.5-83-37.8-6.1-4.3-14.5-2.8-18.8 3.3-4.3 6.1-2.8 14.5 3.3 18.8 1.7 1.2 41.5 28.9 91.3 41.7 23.3 8.3 25.9 33.2 26.6 56 0 .9 0 1.7.1 2.5.1 9-.5 22.9-2.1 30.9-16.2 9.2-79.7 41-176.3 41-96.2 0-160.1-31.9-176.4-41.1-1.6-8-2.3-21.9-2.1-30.9 0-.8.1-1.6.1-2.5.7-22.8 3.3-47.7 26.6-56 49.8-12.8 89.6-40.6 91.3-41.7 6.1-4.3 7.6-12.7 3.3-18.8-4.3-6.1-12.7-7.6-18.8-3.3-.4.3-37.7 26.3-83 37.8-.4.1-.7.2-1 .3-43.4 14.9-44.7 61.2-45.3 80.9 0 .9 0 1.7-.1 2.5v.3c-.1 5.2-.2 31.9 5.1 45.3 1 2.6 2.8 4.8 5.2 6.3 3 2 74.9 47.8 195.2 47.8s192.2-45.9 195.2-47.8c2.3-1.5 4.2-3.7 5.2-6.3 5-13.3 4.9-40 4.8-45.2z"/></symbol><symbol viewBox="0 0 321.2 321.2" id="bag" xmlns="http://www.w3.org/2000/svg"><path d="M306.4 313.2l-24-223.6c-.4-3.6-3.6-6.4-7.2-6.4h-44.4V69.6c0-38.4-31.2-69.6-69.6-69.6-38.4 0-69.6 31.2-69.6 69.6v13.6H46c-3.6 0-6.8 2.8-7.2 6.4l-24 223.6c-.4 2 .4 4 1.6 5.6 1.2 1.6 3.2 2.4 5.2 2.4h278c2 0 4-.8 5.2-2.4 1.2-1.6 2-3.6 1.6-5.6zm-82.8-189.6c3.6 0 6.4 2.8 6.4 6.4 0 3.6-2.8 6.4-6.4 6.4-3.6 0-6.4-2.8-6.4-6.4 0-3.6 2.8-6.4 6.4-6.4zM106 69.6c0-30.4 24.8-55.2 55.2-55.2 30.4 0 55.2 24.8 55.2 55.2v13.6H106V69.6zm-7.2 54c3.6 0 6.4 2.8 6.4 6.4 0 3.6-2.8 6.4-6.4 6.4-3.6 0-6.4-2.8-6.4-6.4 0-3.6 2.8-6.4 6.4-6.4zM30 306.4L52.4 97.2h39.2v13.2c-8 2.8-13.6 10.4-13.6 19.2 0 11.2 9.2 20.4 20.4 20.4s20.4-9.2 20.4-20.4c0-8.8-5.6-16.4-13.6-19.2V97.2h110.4v13.2c-8 2.8-13.6 10.4-13.6 19.2 0 11.2 9.2 20.4 20.4 20.4s20.4-9.2 20.4-20.4c0-8.8-5.6-16.4-13.6-19.2V97.2H270l22.4 209.2H30z"/></symbol><symbol viewBox="0 0 488.152 488.152" id="calendar" xmlns="http://www.w3.org/2000/svg"><path d="M177.854 269.311c0-6.115-4.96-11.069-11.08-11.069h-38.665c-6.113 0-11.074 4.954-11.074 11.069v38.66c0 6.123 4.961 11.079 11.074 11.079h38.665c6.12 0 11.08-4.956 11.08-11.079v-38.66zm96.629 0c0-6.115-4.961-11.069-11.069-11.069h-38.67c-6.113 0-11.074 4.954-11.074 11.069v38.66c0 6.123 4.961 11.079 11.074 11.079h38.67c6.108 0 11.069-4.956 11.069-11.079v-38.66zm96.634 0c0-6.115-4.961-11.069-11.074-11.069h-38.665c-6.12 0-11.08 4.954-11.08 11.069v38.66c0 6.123 4.96 11.079 11.08 11.079h38.665c6.113 0 11.074-4.956 11.074-11.079v-38.66zM177.854 365.95c0-6.125-4.96-11.075-11.08-11.075h-38.665c-6.113 0-11.074 4.95-11.074 11.075v38.653c0 6.119 4.961 11.074 11.074 11.074h38.665c6.12 0 11.08-4.956 11.08-11.074V365.95zm96.629 0c0-6.125-4.961-11.075-11.069-11.075h-38.67c-6.113 0-11.074 4.95-11.074 11.075v38.653c0 6.119 4.961 11.074 11.074 11.074h38.67c6.108 0 11.069-4.956 11.069-11.074V365.95zm96.634 0c0-6.125-4.961-11.075-11.069-11.075h-38.67c-6.12 0-11.08 4.95-11.08 11.075v38.653c0 6.119 4.96 11.074 11.08 11.074h38.67c6.108 0 11.069-4.956 11.069-11.074V365.95z"/><path d="M440.254 54.354v59.05c0 26.69-21.652 48.198-48.338 48.198h-30.493c-26.688 0-48.627-21.508-48.627-48.198V54.142h-137.44v59.262c0 26.69-21.938 48.198-48.622 48.198H96.235c-26.685 0-48.336-21.508-48.336-48.198v-59.05c-23.323.703-42.488 20.002-42.488 43.723v346.061c0 24.167 19.588 44.015 43.755 44.015h389.82c24.131 0 43.755-19.889 43.755-44.015V98.077c0-23.721-19.164-43.02-42.487-43.723zm-14.163 368.234c0 10.444-8.468 18.917-18.916 18.917H80.144c-10.448 0-18.916-8.473-18.916-18.917V243.835c0-10.448 8.467-18.921 18.916-18.921h327.03c10.448 0 18.916 8.473 18.916 18.921l.001 178.753z"/><path d="M96.128 129.945h30.162c9.155 0 16.578-7.412 16.578-16.567V16.573C142.868 7.417 135.445 0 126.29 0H96.128C86.972 0 79.55 7.417 79.55 16.573v96.805c0 9.155 7.422 16.567 16.578 16.567zm264.907 0h30.162c9.149 0 16.572-7.412 16.572-16.567V16.573C407.77 7.417 400.347 0 391.197 0h-30.162c-9.154 0-16.577 7.417-16.577 16.573v96.805c0 9.155 7.423 16.567 16.577 16.567z"/></symbol><symbol viewBox="0 0 212.982 212.982" id="cancel" xmlns="http://www.w3.org/2000/svg"><path d="M131.804 106.491l75.936-75.936c6.99-6.99 6.99-18.323 0-25.312-6.99-6.99-18.322-6.99-25.312 0L106.491 81.18 30.554 5.242c-6.99-6.99-18.322-6.99-25.312 0-6.989 6.99-6.989 18.323 0 25.312l75.937 75.936-75.937 75.937c-6.989 6.99-6.989 18.323 0 25.312 6.99 6.99 18.322 6.99 25.312 0l75.937-75.937 75.937 75.937c6.989 6.99 18.322 6.99 25.312 0 6.99-6.99 6.99-18.322 0-25.312l-75.936-75.936z" fill-rule="evenodd" clip-rule="evenodd"/></symbol><symbol viewBox="0 -31 512 512" id="chat" xmlns="http://www.w3.org/2000/svg"><path d="M256 0C114.84 0 0 100.934 0 225c0 59.324 27.379 116.387 75.688 158.879L8.293 450H256c141.16 0 256-100.934 256-225S397.16 0 256 0zm0 420H81.707l39.242-38.504-13.715-10.512C58.148 333.371 30 280.16 30 225 30 117.477 131.383 30 256 30s226 87.477 226 195-101.383 195-226 195zm0 0"/></symbol><symbol viewBox="0 0 512 512" id="email" xmlns="http://www.w3.org/2000/svg"><path d="M499.161 170.733L341.257 12.828c-17.091-17.091-44.901-17.091-61.992 0L32.839 259.255c-8.545 8.546-12.818 19.771-12.818 30.996 0 11.225 4.273 22.45 12.818 30.996l39.619 39.619-43.503 43.503c-1.953 1.953-2.929 4.512-2.929 7.071s.976 5.118 2.929 7.071c3.905 3.905 10.237 3.906 14.142 0L86.6 375.008l18.119 18.12L2.929 494.919A9.966 9.966 0 0 0 0 501.99c0 2.559.976 5.119 2.929 7.071 3.905 3.905 10.237 3.905 14.143 0L118.863 407.27l71.88 71.881c17.092 17.09 44.901 17.09 61.992 0l246.426-246.427C507.44 224.446 512 213.437 512 201.729c0-11.709-4.56-22.717-12.839-30.996zm-284.688 300.1a23.658 23.658 0 0 1-9.589-5.824L46.981 307.105c-6.231-6.232-8.263-15.079-6.138-23.036h173.63v186.764zm-36.147-206.764l29.653-29.653c3.905-3.905 3.906-10.237 0-14.142-3.906-3.905-10.237-3.906-14.142 0l-43.796 43.795h-29.135l90.406-90.406c3.904-3.905 3.905-10.237 0-14.143-3.905-3.905-10.237-3.905-14.143 0L92.622 264.069H56.31l227.769-227.77v203.935c0 13.143-10.692 23.835-23.835 23.835h-81.918zm306.694-45.486L238.593 465.009a23.792 23.792 0 0 1-4.119 3.276V284.069h25.771c24.17 0 43.835-19.664 43.835-43.835v-25.771h114.624l-57.867 57.868a9.97 9.97 0 0 0-2.929 7.071c0 2.56.976 5.118 2.929 7.071 3.905 3.905 10.237 3.905 14.143 0l72.002-72.002.006-.007h41.328a23.975 23.975 0 0 1-3.296 4.119zm-180.941-24.12V20.833c7.958-2.125 16.805-.093 23.036 6.138l157.904 157.904a23.703 23.703 0 0 1 5.853 9.588H304.079z"/><path d="M235.79 135.05a10.033 10.033 0 0 0-7.07-2.93c-2.64 0-5.21 1.06-7.07 2.93a10.058 10.058 0 0 0-2.93 7.07c0 2.63 1.07 5.21 2.93 7.07 1.86 1.86 4.43 2.93 7.07 2.93 2.63 0 5.21-1.07 7.07-2.93s2.93-4.44 2.93-7.07c0-2.64-1.07-5.21-2.93-7.07zM17.11 430.35c-1.86-1.86-4.44-2.93-7.07-2.93s-5.21 1.07-7.07 2.93c-1.86 1.86-2.93 4.44-2.93 7.07s1.07 5.21 2.93 7.07c1.86 1.86 4.44 2.93 7.07 2.93 2.64 0 5.21-1.07 7.07-2.93 1.87-1.86 2.93-4.44 2.93-7.07s-1.06-5.21-2.93-7.07zm109.908 19.147c-3.906-3.905-10.238-3.905-14.143 0l-45.416 45.416a9.97 9.97 0 0 0-2.929 7.071 9.97 9.97 0 0 0 2.929 7.072c3.906 3.905 10.238 3.905 14.143 0l45.416-45.416c3.904-3.906 3.904-10.238 0-14.143z"/></symbol><symbol viewBox="0 0 512 512" id="eye" xmlns="http://www.w3.org/2000/svg"><path d="M508.177 245.995C503.607 240.897 393.682 121 256 121S8.394 240.897 3.823 245.995a15.002 15.002 0 0 0 0 20.01C8.394 271.103 118.32 391 256 391s247.606-119.897 252.177-124.995a15.004 15.004 0 0 0 0-20.01zM256 361c-57.891 0-105-47.109-105-105s47.109-105 105-105 105 47.109 105 105-47.109 105-105 105z"/><path d="M271 226c0-15.09 7.491-28.365 18.887-36.53C279.661 184.235 268.255 181 256 181c-41.353 0-75 33.647-75 75s33.647 75 75 75c37.024 0 67.668-27.034 73.722-62.358C299.516 278.367 271 255.522 271 226z"/></symbol><symbol viewBox="0 0 430.113 430.114" id="facebook" xmlns="http://www.w3.org/2000/svg"><path d="M158.081 83.3v59.218h-43.385v72.412h43.385v215.183h89.122V214.936h59.805s5.601-34.721 8.316-72.685H247.54V92.74c0-7.4 9.717-17.354 19.321-17.354h48.557V.001h-66.021C155.878-.004 158.081 72.48 158.081 83.3z"/></symbol><symbol viewBox="0 0 96.828 96.827" id="google" xmlns="http://www.w3.org/2000/svg"><path d="M62.617 0H39.525c-10.29 0-17.413 2.256-23.824 7.552-5.042 4.35-8.051 10.672-8.051 16.912 0 9.614 7.33 19.831 20.913 19.831 1.306 0 2.752-.134 4.028-.253l-.188.457c-.546 1.308-1.063 2.542-1.063 4.468 0 3.75 1.809 6.063 3.558 8.298l.22.283-.391.027c-5.609.384-16.049 1.1-23.675 5.787-9.007 5.355-9.707 13.145-9.707 15.404 0 8.988 8.376 18.06 27.09 18.06 21.76 0 33.146-12.005 33.146-23.863.002-8.771-5.141-13.101-10.6-17.698l-4.605-3.582c-1.423-1.179-3.195-2.646-3.195-5.364 0-2.672 1.772-4.436 3.336-5.992l.163-.165c4.973-3.917 10.609-8.358 10.609-17.964 0-9.658-6.035-14.649-8.937-17.048h7.663a.488.488 0 0 0 .266-.077l6.601-4.15A.5.5 0 0 0 62.617 0zM34.614 91.535c-13.264 0-22.176-6.195-22.176-15.416 0-6.021 3.645-10.396 10.824-12.997 5.749-1.935 13.17-2.031 13.244-2.031 1.257 0 1.889 0 2.893.126 9.281 6.605 13.743 10.073 13.743 16.678-.001 8.414-7.101 13.64-18.528 13.64zm-.125-50.779c-11.132 0-15.752-14.633-15.752-22.468 0-3.984.906-7.042 2.77-9.351 2.023-2.531 5.487-4.166 8.825-4.166 10.221 0 15.873 13.738 15.873 23.233 0 1.498 0 6.055-3.148 9.22-2.117 2.113-5.56 3.532-8.568 3.532zm60.493 4.467H82.814V33.098a.5.5 0 0 0-.5-.5H77.08a.5.5 0 0 0-.5.5v12.125H64.473a.5.5 0 0 0-.5.5v5.304a.5.5 0 0 0 .5.5H76.58V63.73a.5.5 0 0 0 .5.5h5.234c.275 0 .5-.225.5-.5V51.525h12.168a.5.5 0 0 0 .5-.5v-5.302c0-.277-.223-.5-.5-.5z"/></symbol><symbol viewBox="0 0 512 512" id="google-plus" xmlns="http://www.w3.org/2000/svg"><path d="M448 224v-64h-32v64h-64v32h64v64h32v-64h64v-32zm-288 0v64h90.528c-13.216 37.248-48.8 64-90.528 64-52.928 0-96-43.072-96-96s43.072-96 96-96c22.944 0 45.024 8.224 62.176 23.168l42.048-48.256C235.424 109.824 198.432 96 160 96 71.776 96 0 167.776 0 256s71.776 160 160 160 160-71.776 160-160v-32H160z"/></symbol><symbol viewBox="0 0 512 512" id="heart" xmlns="http://www.w3.org/2000/svg"><path d="M472.08 81.12c-26.96-27.572-63.022-42.757-101.546-42.757-37.93 0-73.593 14.773-100.421 41.602L256.267 93.82l-13.859-13.859c-26.826-26.826-62.482-41.599-100.401-41.599-37.931 0-73.593 14.773-100.417 41.599C14.77 106.78 0 142.439 0 180.37s14.77 73.59 41.59 100.409L219.072 458.26c10.253 10.251 23.717 15.377 37.184 15.377 13.464-.001 26.931-5.126 37.181-15.376l176.339-176.323c55.385-55.387 56.419-145.472 2.304-200.818zm-20.897 182.226L274.845 439.671c-10.251 10.25-26.931 10.25-37.181-.001L60.181 262.186c-21.854-21.853-33.889-50.909-33.889-81.817s12.035-59.964 33.889-81.818c21.858-21.859 50.918-33.897 81.826-33.897 30.896 0 59.95 12.038 81.809 33.897l13.866 13.866-21.233 21.249c-5.132 5.136-5.128 13.459.007 18.591a13.104 13.104 0 0 0 9.292 3.847c3.367 0 6.732-1.286 9.299-3.854l53.658-53.7c21.859-21.859 50.918-33.897 81.826-33.897 31.389 0 60.775 12.376 82.747 34.847 44.096 45.097 43.155 118.597-2.095 163.846z"/><path d="M466.29 174.403a95.846 95.846 0 0 0-27.891-61.909c-11.712-11.712-26.245-20.222-42.026-24.615-6.995-1.946-14.242 2.147-16.188 9.142-1.946 6.994 2.147 14.242 9.142 16.188 11.427 3.179 21.967 9.36 30.482 17.875a69.563 69.563 0 0 1 20.241 44.938c.431 6.971 6.218 12.336 13.109 12.336.272 0 .547-.008.823-.026 7.246-.445 12.756-6.682 12.308-13.929z"/></symbol><symbol viewBox="0 0 306.773 306.773" id="house" xmlns="http://www.w3.org/2000/svg"><path d="M302.93 149.794a14.627 14.627 0 0 0-1.199-20.932L164.63 8.898c-6.223-5.442-16.2-5.328-22.292.257L4.771 135.258c-6.092 5.585-6.391 14.947-.662 20.902l3.449 3.592c5.722 5.955 14.971 6.665 20.645 1.581l10.281-9.207v134.792c0 8.27 6.701 14.965 14.965 14.965h53.624c8.264 0 14.965-6.695 14.965-14.965v-94.3h68.398v94.3c-.119 8.264 5.794 14.959 14.058 14.959h56.828c8.264 0 14.965-6.695 14.965-14.965V154.024s2.84 2.488 6.343 5.567c3.497 3.073 10.842.609 16.403-5.513l3.897-4.284z"/></symbol><symbol viewBox="0 0 169.063 169.063" id="instagram" xmlns="http://www.w3.org/2000/svg"><path d="M122.406 0H46.654C20.929 0 0 20.93 0 46.655v75.752c0 25.726 20.929 46.655 46.654 46.655h75.752c25.727 0 46.656-20.93 46.656-46.655V46.655C169.063 20.93 148.133 0 122.406 0zm31.657 122.407c0 17.455-14.201 31.655-31.656 31.655H46.654C29.2 154.063 15 139.862 15 122.407V46.655C15 29.201 29.2 15 46.654 15h75.752c17.455 0 31.656 14.201 31.656 31.655v75.752z"/><path d="M84.531 40.97c-24.021 0-43.563 19.542-43.563 43.563 0 24.02 19.542 43.561 43.563 43.561s43.563-19.541 43.563-43.561c0-24.021-19.542-43.563-43.563-43.563zm0 72.123c-15.749 0-28.563-12.812-28.563-28.561 0-15.75 12.813-28.563 28.563-28.563s28.563 12.813 28.563 28.563c0 15.749-12.814 28.561-28.563 28.561zm45.39-84.842c-2.89 0-5.729 1.17-7.77 3.22a11.053 11.053 0 0 0-3.23 7.78c0 2.891 1.18 5.73 3.23 7.78 2.04 2.04 4.88 3.22 7.77 3.22 2.9 0 5.73-1.18 7.78-3.22 2.05-2.05 3.22-4.89 3.22-7.78 0-2.9-1.17-5.74-3.22-7.78-2.04-2.05-4.88-3.22-7.78-3.22z"/></symbol><symbol viewBox="0 0 456.814 456.814" id="like" xmlns="http://www.w3.org/2000/svg"><path d="M441.11 252.677c10.468-11.99 15.704-26.169 15.704-42.54 0-14.846-5.432-27.692-16.259-38.547-10.849-10.854-23.695-16.278-38.541-16.278h-79.082c.76-2.664 1.522-4.948 2.282-6.851.753-1.903 1.811-3.999 3.138-6.283 1.328-2.285 2.283-3.999 2.852-5.139 3.425-6.468 6.047-11.801 7.857-15.985 1.807-4.192 3.606-9.9 5.42-17.133 1.811-7.229 2.711-14.465 2.711-21.698 0-4.566-.055-8.281-.145-11.134-.089-2.855-.574-7.139-1.423-12.85-.862-5.708-2.006-10.467-3.43-14.272-1.43-3.806-3.716-8.092-6.851-12.847-3.142-4.764-6.947-8.613-11.424-11.565-4.476-2.95-10.184-5.424-17.131-7.421-6.954-1.999-14.801-2.998-23.562-2.998-4.948 0-9.227 1.809-12.847 5.426-3.806 3.806-7.047 8.564-9.709 14.272-2.666 5.711-4.523 10.66-5.571 14.849-1.047 4.187-2.238 9.994-3.565 17.415-1.719 7.998-2.998 13.752-3.86 17.273-.855 3.521-2.525 8.136-4.997 13.845-2.477 5.713-5.424 10.278-8.851 13.706-6.28 6.28-15.891 17.701-28.837 34.259-9.329 12.18-18.94 23.695-28.837 34.545-9.899 10.852-17.131 16.466-21.698 16.847-4.755.38-8.848 2.331-12.275 5.854-3.427 3.521-5.14 7.662-5.14 12.419v183.01c0 4.949 1.807 9.182 5.424 12.703 3.615 3.525 7.898 5.38 12.847 5.571 6.661.191 21.698 4.374 45.111 12.566 14.654 4.941 26.12 8.706 34.4 11.272 8.278 2.566 19.849 5.328 34.684 8.282 14.849 2.949 28.551 4.428 41.11 4.428h36.831c25.321-.38 44.061-7.806 56.247-22.268 11.036-13.135 15.697-30.361 13.99-51.679 7.422-7.042 12.565-15.984 15.416-26.836 3.231-11.604 3.231-22.74 0-33.397 8.754-11.611 12.847-24.649 12.272-39.115.024-6.097-1.4-13.328-4.261-21.706zM100.5 191.864H18.276c-4.952 0-9.235 1.809-12.851 5.426C1.809 200.905 0 205.188 0 210.137v182.732c0 4.942 1.809 9.227 5.426 12.847 3.619 3.611 7.902 5.421 12.851 5.421H100.5c4.948 0 9.229-1.81 12.847-5.421 3.616-3.62 5.424-7.904 5.424-12.847V210.137c0-4.949-1.809-9.231-5.424-12.847-3.617-3.618-7.898-5.426-12.847-5.426zM67.665 369.308c-3.616 3.521-7.898 5.281-12.847 5.281-5.14 0-9.471-1.76-12.99-5.281-3.521-3.521-5.281-7.85-5.281-12.99 0-4.948 1.759-9.232 5.281-12.847 3.52-3.617 7.85-5.428 12.99-5.428 4.949 0 9.231 1.811 12.847 5.428 3.617 3.614 5.426 7.898 5.426 12.847 0 5.14-1.805 9.468-5.426 12.99z"/></symbol><symbol viewBox="0 0 41 38" id="like-btn" xmlns="http://www.w3.org/2000/svg"><path d="M37.547-.063H3.583C1.651-.063.069 1.529.069 3.476v30.922c0 1.948 1.582 3.539 3.514 3.539h33.964c1.933 0 3.514-1.591 3.514-3.539V3.475c0-1.946-1.582-3.538-3.514-3.538zM28.89 20.631a101.52 101.52 0 0 1-8.325 7.671s-4.183-3.371-8.324-7.671c-4.141-4.295.083-11.121 5.103-9.469 2.277.75 3.221 2.477 3.221 2.477s.943-1.728 3.22-2.477c5.02-1.652 9.244 5.174 5.105 9.469z"/></symbol><symbol viewBox="0 0 430.117 430.117" id="linkedin" xmlns="http://www.w3.org/2000/svg"><path d="M430.117 261.543V420.56h-92.188V272.193c0-37.271-13.334-62.707-46.703-62.707-25.473 0-40.632 17.142-47.301 33.724-2.432 5.928-3.058 14.179-3.058 22.477V420.56h-92.219s1.242-251.285 0-277.32h92.21v39.309c-.187.294-.43.611-.606.896h.606v-.896c12.251-18.869 34.13-45.824 83.102-45.824 60.673-.001 106.157 39.636 106.157 124.818zM52.183 9.558C20.635 9.558 0 30.251 0 57.463c0 26.619 20.038 47.94 50.959 47.94h.616c32.159 0 52.159-21.317 52.159-47.94-.606-27.212-20-47.905-51.551-47.905zM5.477 420.56h92.184V143.24H5.477v277.32z"/></symbol><symbol viewBox="0 0 459 459" id="list" xmlns="http://www.w3.org/2000/svg"><path d="M408 0H51C22.95 0 0 22.95 0 51v357c0 28.05 22.95 51 51 51h357c28.05 0 51-22.95 51-51V51c0-28.05-22.95-51-51-51zM153 357h-51v-51h51v51zm0-102h-51v-51h51v51zm0-102h-51v-51h51v51zm204 204H178.5v-51H357v51zm0-102H178.5v-51H357v51zm0-102H178.5v-51H357v51z"/></symbol><symbol viewBox="0 0 733 349.569" id="logo" xmlns="http://www.w3.org/2000/svg"><path d="M87.891 171.585v46.875H29.297C9.766 218.46 0 208.695 0 189.163v-29.297c0-19.531 9.766-29.297 29.297-29.297h58.594l.109 18H32c-9.414 0-14 4.625-14 14v24c0 9.415 4.547 14 14 14h38v-29l17.891.016zM222 168.569v50h-18v-88h18l35.23 68.379 34.748-68.379h17.987l.035 88h-18v-50l-25 50h-20zm387-38h18v59c0 19.532-9.875 28.891-29.406 28.891h-29.297c-19.533 0-29.297-9.358-29.297-28.891v-59h18v56c0 9.415 4.516 14 13.891 14h24c9.412 0 14.109-4.546 14.109-14v-56zm114.993 43.945c5.859-1.952 8.789-7.812 8.789-17.578 0-17.578-9.766-26.367-29.297-26.367H645v88h58.484c19.531 0 29.297-8.844 29.297-26.422.001-9.764-2.929-15.678-8.788-17.633m-23.438 26.055H663v-17h40.484c7.812 0 11.719 2.641 11.719 8.5s-4.884 8.5-14.648 8.5m2.93-35H663v-17h37.555c9.764 0 14.648 2.641 14.648 8.5s-3.907 8.5-11.718 8.5m-200.485 0v-35h18v87.891l-18 .109v-35h-52v35h-18v-88h18v35z"/><path fill-rule="evenodd" clip-rule="evenodd" d="M174.555 218.569h19.101l-38.144-88H136.41l-38.144 88h19.16l10.36-24h36.387l10.382 24zm-38.963-42l10.369-23.91 10.39 23.91h-20.759zm210.408 24v-18h69v-17h-69v-17h69v-18h-87v88h88v-18z"/><path d="M134 112.569h132.113c20.896-33.869 58.336-56.445 101.054-56.445s80.157 22.577 101.054 56.445H733L501.578 88.024l4.483-20.51a176.514 176.514 0 0 0-31.749-31.72l-39.122 8.564a145.997 145.997 0 0 0-24.056-9.965L389.537.699c-7.325-.932-37.414-.932-44.738 0L323.2 34.393a146.129 146.129 0 0 0-24.19 10.035l-39.095-8.552a176.488 176.488 0 0 0-31.656 31.656l4.453 20.355L0 112.569h134zm466 124H468.49c-20.844 34.109-58.424 56.876-101.323 56.876-12.981 0-25.477-2.084-37.167-5.938-26.942-8.878-49.605-27.154-64.142-50.938H0l232.818 24.693-4.545 20.793a176.514 176.514 0 0 0 31.749 31.72l39.121-8.564a146.119 146.119 0 0 0 24.057 9.966l21.598 33.693c7.325.932 37.413.932 44.738 0l21.598-33.693a146.168 146.168 0 0 0 24.189-10.035l39.096 8.552a176.45 176.45 0 0 0 31.655-31.656l-4.575-20.915L733 236.569H600z"/></symbol><symbol viewBox="0 0 27.857 27.857" id="mail" xmlns="http://www.w3.org/2000/svg"><path d="M2.203 5.331l10.034 7.948c.455.36 1.082.52 1.691.49.608.03 1.235-.129 1.69-.49l10.034-7.948c.804-.633.622-1.152-.398-1.152H2.604c-1.021 0-1.203.519-.401 1.152z"/><path d="M26.377 7.428l-10.965 8.325c-.41.308-.947.458-1.482.451-.536.007-1.073-.144-1.483-.451L1.48 7.428C.666 6.811 0 7.142 0 8.163v13.659c0 1.021.836 1.857 1.857 1.857H26a1.863 1.863 0 0 0 1.857-1.857V8.163c0-1.021-.666-1.352-1.48-.735z"/></symbol><symbol viewBox="0 0 430.114 430.114" id="map" xmlns="http://www.w3.org/2000/svg"><path d="M356.208 107.051c-1.531-5.738-4.64-11.852-6.94-17.205C321.746 23.704 261.611 0 213.055 0 148.054 0 76.463 43.586 66.905 133.427v18.355c0 .766.264 7.647.639 11.089 5.358 42.816 39.143 88.32 64.375 131.136 27.146 45.873 55.314 90.999 83.221 136.106 17.208-29.436 34.354-59.259 51.17-87.933 4.583-8.415 9.903-16.825 14.491-24.857 3.058-5.348 8.9-10.696 11.569-15.672 27.145-49.699 70.838-99.782 70.838-149.104v-20.262c.001-5.347-6.627-24.081-7-25.234zm-141.963 92.142c-19.107 0-40.021-9.554-50.344-35.939-1.538-4.2-1.414-12.617-1.414-13.388v-11.852c0-33.636 28.56-48.932 53.406-48.932 30.588 0 54.245 24.472 54.245 55.06 0 30.587-25.305 55.051-55.893 55.051z"/></symbol><symbol viewBox="0 0 512 512" id="menu" xmlns="http://www.w3.org/2000/svg"><path d="M491.318 235.318H20.682C9.26 235.318 0 244.577 0 256s9.26 20.682 20.682 20.682h470.636c11.423 0 20.682-9.259 20.682-20.682 0-11.422-9.259-20.682-20.682-20.682zm0-156.879H20.682C9.26 78.439 0 87.699 0 99.121c0 11.422 9.26 20.682 20.682 20.682h470.636c11.423 0 20.682-9.26 20.682-20.682 0-11.422-9.259-20.682-20.682-20.682zm0 313.758H20.682C9.26 392.197 0 401.456 0 412.879s9.26 20.682 20.682 20.682h470.636c11.423 0 20.682-9.259 20.682-20.682s-9.259-20.682-20.682-20.682z"/></symbol><symbol viewBox="0 0 477.867 477.867" id="newspaper" xmlns="http://www.w3.org/2000/svg"><path d="M460.8 119.467h-85.333v-102.4C375.467 7.641 367.826 0 358.4 0H17.067C7.641 0 0 7.641 0 17.067V409.6c0 37.703 30.564 68.267 68.267 68.267H409.6c37.703 0 68.267-30.564 68.267-68.267V136.533c0-9.425-7.641-17.066-17.067-17.066zM136.533 85.333h102.4c9.426 0 17.067 7.641 17.067 17.067s-7.641 17.067-17.067 17.067h-102.4c-9.426 0-17.067-7.641-17.067-17.067s7.642-17.067 17.067-17.067zm153.6 324.267h-204.8c-9.426 0-17.067-7.641-17.067-17.067s7.641-17.067 17.067-17.067h204.8c9.426 0 17.067 7.641 17.067 17.067s-7.641 17.067-17.067 17.067zm0-68.267h-204.8c-9.426 0-17.067-7.641-17.067-17.067s7.641-17.067 17.067-17.067h204.8c9.426 0 17.067 7.641 17.067 17.067s-7.641 17.067-17.067 17.067zm0-68.266h-204.8c-9.426 0-17.067-7.641-17.067-17.067s7.641-17.067 17.067-17.067h204.8c9.426 0 17.067 7.641 17.067 17.067s-7.641 17.067-17.067 17.067zm0-68.267h-204.8c-9.426 0-17.067-7.641-17.067-17.067s7.641-17.067 17.067-17.067h204.8c9.426 0 17.067 7.641 17.067 17.067s-7.641 17.067-17.067 17.067zm153.6 204.8c0 18.851-15.282 34.133-34.133 34.133s-34.133-15.282-34.133-34.133v-256h68.267v256z"/></symbol><symbol viewBox="0 0 480.56 480.56" id="phone" xmlns="http://www.w3.org/2000/svg"><path d="M365.354 317.9c-15.7-15.5-35.3-15.5-50.9 0-11.9 11.8-23.8 23.6-35.5 35.6-3.2 3.3-5.9 4-9.8 1.8-7.7-4.2-15.9-7.6-23.3-12.2-34.5-21.7-63.4-49.6-89-81-12.7-15.6-24-32.3-31.9-51.1-1.6-3.8-1.3-6.3 1.8-9.4 11.9-11.5 23.5-23.3 35.2-35.1 16.3-16.4 16.3-35.6-.1-52.1-9.3-9.4-18.6-18.6-27.9-28-9.6-9.6-19.1-19.3-28.8-28.8-15.7-15.3-35.3-15.3-50.9.1-12 11.8-23.5 23.9-35.7 35.5-11.3 10.7-17 23.8-18.2 39.1-1.9 24.9 4.2 48.4 12.8 71.3 17.6 47.4 44.4 89.5 76.9 128.1 43.9 52.2 96.3 93.5 157.6 123.3 27.6 13.4 56.2 23.7 87.3 25.4 21.4 1.2 40-4.2 54.9-20.9 10.2-11.4 21.7-21.8 32.5-32.7 16-16.2 16.1-35.8.2-51.8-19-19.1-38.1-38.1-57.2-57.1zm-19.1-79.7l36.9-6.3c-5.8-33.9-21.8-64.6-46.1-89-25.7-25.7-58.2-41.9-94-46.9l-5.2 37.1c27.7 3.9 52.9 16.4 72.8 36.3 18.8 18.8 31.1 42.6 35.6 68.8zm57.7-160.4c-42.6-42.6-96.5-69.5-156-77.8l-5.2 37.1c51.4 7.2 98 30.5 134.8 67.2 34.9 34.9 57.8 79 66.1 127.5l36.9-6.3c-9.7-56.2-36.2-107.2-76.6-147.7z"/></symbol><symbol viewBox="0 0 373.008 373.008" id="play" xmlns="http://www.w3.org/2000/svg"><path d="M61.792 2.588A19.258 19.258 0 0 1 71.444 0c3.33 0 6.663.864 9.655 2.588l230.116 167.2a19.327 19.327 0 0 1 9.656 16.719 19.293 19.293 0 0 1-9.656 16.713L81.099 370.427a19.336 19.336 0 0 1-19.302 0 19.333 19.333 0 0 1-9.66-16.724V19.305a19.308 19.308 0 0 1 9.655-16.717z"/></symbol><symbol viewBox="0 0 512 512" id="play-button" xmlns="http://www.w3.org/2000/svg"><path d="M256 0C114.617 0 0 114.615 0 256s114.617 256 256 256 256-114.615 256-256S397.383 0 256 0zm88.48 269.57l-128 80a16.008 16.008 0 0 1-16.238.422A15.994 15.994 0 0 1 192 336V176c0-5.82 3.156-11.172 8.242-13.992a15.957 15.957 0 0 1 16.238.422l128 80c4.676 2.93 7.52 8.055 7.52 13.57s-2.844 10.641-7.52 13.57z"/></symbol><symbol viewBox="0 0 284.935 284.936" id="right" xmlns="http://www.w3.org/2000/svg"><path d="M222.701 135.9L89.652 2.857C87.748.955 85.557 0 83.084 0c-2.474 0-4.664.955-6.567 2.857L62.244 17.133c-1.906 1.903-2.855 4.089-2.855 6.567 0 2.478.949 4.664 2.855 6.567l112.204 112.204L62.244 254.677c-1.906 1.903-2.855 4.093-2.855 6.564 0 2.477.949 4.667 2.855 6.57l14.274 14.271c1.903 1.905 4.093 2.854 6.567 2.854 2.473 0 4.663-.951 6.567-2.854l133.042-133.044c1.902-1.902 2.854-4.093 2.854-6.567s-.945-4.664-2.847-6.571z"/></symbol><symbol viewBox="0 0 512 512" id="search" xmlns="http://www.w3.org/2000/svg"><path d="M495 466.2L377.2 348.4c29.2-35.6 46.8-81.2 46.8-130.9C424 103.5 331.5 11 217.5 11 103.4 11 11 103.5 11 217.5S103.4 424 217.5 424c49.7 0 95.2-17.5 130.8-46.7L466.1 495c8 8 20.9 8 28.9 0 8-7.9 8-20.9 0-28.8zm-277.5-83.3C126.2 382.9 52 308.7 52 217.5S126.2 52 217.5 52C308.7 52 383 126.3 383 217.5s-74.3 165.4-165.5 165.4z"/></symbol><symbol viewBox="0 0 300 300" id="skype" xmlns="http://www.w3.org/2000/svg"><path d="M289.391 181.848a141.574 141.574 0 0 0 3.268-30.273c0-77.917-63.166-141.084-141.086-141.084-8.226 0-16.286.711-24.128 2.064C114.836 4.611 99.918 0 83.916 0 38.728 0 2.097 36.635 2.097 81.816a81.415 81.415 0 0 0 11.246 41.385 141.74 141.74 0 0 0-2.854 28.373c0 77.917 63.165 141.084 141.084 141.084 8.826 0 17.459-.817 25.834-2.367 11.518 6.19 24.688 9.709 38.678 9.709 45.189 0 81.818-36.631 81.818-81.816a81.432 81.432 0 0 0-8.512-36.336zm-65.459 37.15c-6.527 9.236-16.17 16.555-28.664 21.749-12.373 5.143-27.205 7.751-44.088 7.751-20.264 0-37.253-3.564-50.513-10.598-9.479-5.121-17.296-12.056-23.229-20.613-5.993-8.645-9.033-17.223-9.033-25.494 0-5.17 1.98-9.652 5.886-13.32 3.865-3.636 8.818-5.478 14.724-5.478 4.848 0 9.029 1.456 12.429 4.328 3.247 2.752 6.034 6.824 8.273 12.083 2.5 5.726 5.226 10.561 8.105 14.369 2.767 3.663 6.748 6.742 11.832 9.145 5.115 2.422 12.01 3.649 20.491 3.649 11.663 0 21.226-2.49 28.419-7.402 7.025-4.797 10.441-10.555 10.441-17.604 0-5.57-1.783-9.947-5.449-13.382-3.84-3.591-8.904-6.386-15.055-8.303-6.412-1.999-15.117-4.155-25.884-6.409-14.586-3.124-26.985-6.83-36.86-11.019a2.805 2.805 0 0 1-.115-.048c-10.117-4.303-18.271-10.27-24.236-17.736-6.059-7.582-9.129-17.094-9.129-28.275 0-10.658 3.223-20.265 9.58-28.552 6.309-8.229 15.523-14.624 27.385-19.012 11.709-4.33 25.637-6.524 41.396-6.524 12.6 0 23.678 1.455 32.924 4.33 9.299 2.896 17.139 6.807 23.299 11.619 6.205 4.848 10.82 10.035 13.719 15.422 2.928 5.441 4.412 10.856 4.412 16.094 0 5.041-1.947 9.622-5.787 13.615-3.863 4.016-8.738 6.055-14.49 6.055-5.225 0-9.314-1.275-12.152-3.789-2.641-2.334-5.379-5.973-8.42-11.209-3.518-6.684-7.775-11.953-12.66-15.666-4.74-3.606-12.666-5.437-23.555-5.437-10.113 0-18.338 2.03-24.445 6.034-5.885 3.858-8.744 8.282-8.744 13.523 0 3.215.92 5.901 2.813 8.213 2.005 2.449 4.833 4.6 8.408 6.388 3.708 1.864 7.529 3.345 11.357 4.402 3.921 1.088 10.5 2.7 19.522 4.784 9.506 2.041 18.359 4.289 26.418 6.695a258.5 258.5 0 0 1 4.771 1.468c9.395 3.007 17.514 6.716 24.135 11.022 6.758 4.401 12.109 10.053 15.906 16.8 3.807 6.771 5.736 15.132 5.736 24.844-.002 11.625-3.324 22.217-9.873 31.488z"/></symbol><symbol viewBox="0 0 356.484 356.484" id="speech" xmlns="http://www.w3.org/2000/svg"><path d="M293.984 7.23H62.5C28.037 7.23 0 35.268 0 69.731v142.78c0 34.463 28.037 62.5 62.5 62.5l147.443.001 70.581 70.58a12.492 12.492 0 0 0 13.622 2.709 12.496 12.496 0 0 0 7.717-11.547v-62.237c30.759-3.885 54.621-30.211 54.621-62.006V69.731c0-34.463-28.037-62.501-62.5-62.501zm37.5 205.282c0 20.678-16.822 37.5-37.5 37.5h-4.621c-6.903 0-12.5 5.598-12.5 12.5v44.064l-52.903-52.903a12.493 12.493 0 0 0-8.839-3.661H62.5c-20.678 0-37.5-16.822-37.5-37.5V69.732c0-20.678 16.822-37.5 37.5-37.5h231.484c20.678 0 37.5 16.822 37.5 37.5v142.78z"/><path d="M270.242 95.743h-184c-6.903 0-12.5 5.596-12.5 12.5 0 6.903 5.597 12.5 12.5 12.5h184c6.903 0 12.5-5.597 12.5-12.5 0-6.904-5.596-12.5-12.5-12.5zm0 70h-184c-6.903 0-12.5 5.596-12.5 12.5s5.597 12.5 12.5 12.5h184c6.903 0 12.5-5.597 12.5-12.5s-5.596-12.5-12.5-12.5z"/></symbol><symbol viewBox="0 0 612 612" id="twitter" xmlns="http://www.w3.org/2000/svg"><path d="M612 116.258a250.714 250.714 0 0 1-72.088 19.772c25.929-15.527 45.777-40.155 55.184-69.411-24.322 14.379-51.169 24.82-79.775 30.48-22.907-24.437-55.49-39.658-91.63-39.658-69.334 0-125.551 56.217-125.551 125.513 0 9.828 1.109 19.427 3.251 28.606-104.326-5.24-196.835-55.223-258.75-131.174-10.823 18.51-16.98 40.078-16.98 63.101 0 43.559 22.181 81.993 55.835 104.479a125.556 125.556 0 0 1-56.867-15.756v1.568c0 60.806 43.291 111.554 100.693 123.104-10.517 2.83-21.607 4.398-33.08 4.398-8.107 0-15.947-.803-23.634-2.333 15.985 49.907 62.336 86.199 117.253 87.194-42.947 33.654-97.099 53.655-155.916 53.655-10.134 0-20.116-.612-29.944-1.721 55.567 35.681 121.536 56.485 192.438 56.485 230.948 0 357.188-191.291 357.188-357.188l-.421-16.253c24.666-17.593 46.005-39.697 62.794-64.861z"/></symbol><symbol viewBox="0 0 33 33" id="user" xmlns="http://www.w3.org/2000/svg"><path d="M16.5 33C7.402 33 0 25.598 0 16.5S7.402 0 16.5 0 33 7.402 33 16.5 25.598 33 16.5 33zm0-32C7.953 1 1 7.953 1 16.5S7.953 32 16.5 32 32 25.047 32 16.5 25.047 1 16.5 1z"/><path d="M16.5 33a16.38 16.38 0 0 1-9.549-3.06.5.5 0 1 1 .116-.876c4.146-1.535 4.815-2.781 4.815-5.169 0-.631-.142-.838-.398-1.214-.339-.494-.803-1.171-1.129-2.939-.048-.254-.089-.274-.316-.384-.606-.292-1.163-.712-1.309-2.628 0-.928.32-1.441.585-1.708-.058-.33-.153-.899-.242-1.519-.453-2.777-.473-6.178 3.433-7.759 3.404-1.38 6.121-.626 6.974.273.604.019 2.162.177 3.246 1.438 1.668 1.94 1.137 6.363.955 7.562.266.261.589.767.589 1.675-.146 1.954-.703 2.375-1.31 2.666-.228.11-.269.129-.316.384-.326 1.768-.789 2.445-1.128 2.939-.257.375-.398.583-.398 1.214 0 2.388.669 3.634 4.815 5.169a.498.498 0 0 1 .116.876A16.38 16.38 0 0 1 16.5 33zm-8.183-3.349C10.779 31.191 13.589 32 16.5 32s5.721-.809 8.183-2.349c-3.474-1.426-4.565-2.864-4.565-5.755 0-.941.278-1.348.573-1.779.304-.444.682-.996.971-2.556.139-.754.576-.964.865-1.103.311-.149.631-.303.744-1.803-.001-.764-.344-.972-.358-.98a.533.533 0 0 1-.264-.537c.248-1.329.656-5.474-.681-7.031-.913-1.062-2.352-1.091-2.626-1.08-.046-.004-.091-.005-.134-.016-.13-.033-.35-.146-.417-.262-.272-.466-2.641-1.403-5.91-.08-3.231 1.308-3.238 4.112-2.819 6.682.138.957.289 1.784.29 1.788a.5.5 0 0 1-.283.544c.003 0-.339.209-.339 1.008.112 1.461.433 1.616.743 1.765.289.139.727.349.866 1.103.288 1.56.666 2.112.97 2.556.296.431.574.838.574 1.779 0 2.894-1.091 4.332-4.566 5.757z"/></symbol><symbol viewBox="0 0 512 512" id="wallet" xmlns="http://www.w3.org/2000/svg"><path d="M487.59 299.894h-7.662v-69.015c0-10.926-5.438-20.6-13.743-26.478v-9.397c0-13.631-11.089-24.72-24.72-24.72h-5.721l21.889-32.12c7.337-10.766 4.547-25.495-6.219-32.833L302.883 4.111C297.668.556 291.382-.756 285.178.421a23.474 23.474 0 0 0-15.128 9.91L141.849 198.454h-35.675l8.607-87.13c.097-.982.735-1.833 1.625-2.168 11.089-4.181 20.699-11.989 27.059-21.985.501-.787 1.446-1.237 2.424-1.138l55.955 5.528a7.295 7.295 0 1 0 1.434-14.52l-55.955-5.528c-6.495-.636-12.689 2.357-16.169 7.825-4.676 7.35-11.742 13.09-19.895 16.164-6.137 2.314-10.351 7.826-10.999 14.387l-8.748 88.564h-9.303L95.821 60.649c.49-4.96 4.917-8.604 9.883-8.107l113.074 11.17a7.295 7.295 0 1 0 1.434-14.52l-113.074-11.17C94.174 36.743 82.581 46.248 81.3 59.214l-10.972 111.07H51.643c-13.63 0-24.72 11.089-24.72 24.72v6.41c-11.151 5.134-18.915 16.406-18.915 29.465v248.695c0 17.88 14.546 32.426 32.427 32.426h407.067c17.88 0 32.426-14.546 32.426-32.426V410.56h7.662c9.044 0 16.401-7.357 16.401-16.4v-77.865c.001-9.044-7.357-16.401-16.401-16.401zm-46.125-115.018c5.586-.001 10.129 4.543 10.129 10.129v3.717a32.512 32.512 0 0 0-4.092-.267h-30.955l9.253-13.579h15.665zM282.107 18.547a8.984 8.984 0 0 1 5.787-3.791 8.98 8.98 0 0 1 6.772 1.411l148.531 101.22c4.118 2.807 5.186 8.441 2.38 12.559l-46.686 68.506h-11.204l22.889-33.587c3.712-5.447 4.018-12.379.796-18.092-4.282-7.59-6.018-16.527-4.888-25.166.84-6.427-1.988-12.701-7.38-16.375L322.106 52.76c-5.393-3.675-12.267-4.012-17.941-.879-7.625 4.21-16.578 5.863-25.208 4.655-6.4-.898-12.891 1.992-16.548 7.357l-91.699 134.56h-11.204L282.107 18.547zm3.213 123.891c-31.771 0-57.851 24.773-59.976 56.015h-36.979L274.464 72.11h.001a2.605 2.605 0 0 1 2.133-1.147c.111 0 .222.008.333.023 11.738 1.642 23.913-.604 34.285-6.331.816-.452 1.864-.387 2.672.163l76.999 52.473c.806.55 1.249 1.502 1.129 2.426-1.537 11.749.825 23.903 6.648 34.225.467.829.41 1.891-.144 2.706l-28.488 41.804h-24.733c-2.127-31.241-28.206-56.014-59.979-56.014zm45.348 56.016h-90.695c2.09-23.189 21.624-41.424 45.347-41.424 23.724-.001 43.259 18.235 45.348 41.424zm-289.154-3.45c0-5.586 4.543-10.13 10.129-10.13h17.244l-1.341 13.579H41.514v-3.449zm-18.915 35.875c0-9.834 8.001-17.835 17.836-17.835h407.067c9.835 0 17.835 8.001 17.835 17.835v20.244H22.599v-20.244zm442.738 248.695c0 9.834-8 17.835-17.835 17.835H40.435c-9.835 0-17.836-8.001-17.836-17.835V459.33h39.342a7.295 7.295 0 1 0 0-14.59H22.599V265.714h442.738v34.18H395.97c-21.856 0-40.788 12.74-49.773 31.181-.03.062-.064.122-.095.184-.076.157-.142.32-.216.478-1.07 2.273-2 4.626-2.757 7.054l-.006.02a55.151 55.151 0 0 0-2.486 16.416c0 30.511 24.822 55.333 55.332 55.333h69.367v34.18H108.655a7.295 7.295 0 1 0 0 14.59h356.682v20.244zm24.064-85.415c0 .998-.812 1.81-1.811 1.81h-91.618c-15.445 0-28.911-8.639-35.818-21.338a40.21 40.21 0 0 1-2.448-5.41 40.546 40.546 0 0 1-2.476-13.994 40.57 40.57 0 0 1 4.023-17.648c.287-.593.587-1.179.901-1.756 6.907-12.699 20.373-21.338 35.818-21.338h91.618c.998 0 1.811.812 1.811 1.81v77.864z"/><path d="M397.681 325.627c-16.322 0-29.6 13.279-29.6 29.6s13.278 29.599 29.6 29.599c16.322 0 29.6-13.278 29.6-29.599 0-16.321-13.278-29.6-29.6-29.6zm0 44.608c-8.276 0-15.009-6.733-15.009-15.008 0-8.275 6.733-15.009 15.009-15.009s15.009 6.733 15.009 15.009-6.733 15.008-15.009 15.008z"/></symbol><symbol viewBox="0 0 890.5 890.5" id="wallet-menu" xmlns="http://www.w3.org/2000/svg"><path d="M208.1 180.56l355-96.9-18.8-38c-12.3-24.7-42.3-34.9-67-22.6l-317.8 157.5h48.6zm465.2-94.1c-4.399 0-8.8.6-13.2 1.8l-83.399 22.8L322 180.56h415.1l-15.6-57.2c-6-22.3-26.2-36.9-48.2-36.9zm115.9 129.1H50.1c-15.8 0-29.9 7.3-39.1 18.8-4.2 5.3-7.4 11.4-9.2 18.1-1.1 4.2-1.8 8.6-1.8 13.1v557.1c0 27.601 22.4 50 50 50h739.1c27.601 0 50-22.399 50-50v-139.5H542.4c-46.9 0-85-38.1-85-85v-111.2c0-23 9.199-43.899 24.1-59.199 13.2-13.601 30.9-22.801 50.7-25.101 3.3-.399 6.7-.6 10.1-.6h296.8v-136.5c.1-27.6-22.3-50-49.9-50z"/><path d="M874.2 449.86c-5-4.6-10.9-8.1-17.5-10.4-5.101-1.699-10.5-2.699-16.2-2.699H542.4c-27.601 0-50 22.399-50 50V598.06c0 27.6 22.399 50 50 50h298.1c5.7 0 11.1-1 16.2-2.7 6.6-2.2 12.5-5.8 17.5-10.4 10-9.1 16.3-22.3 16.3-36.899v-111.3c0-14.601-6.3-27.802-16.3-36.901zm-227.4 102.5c0 13.8-11.2 25-25 25h-16.6c-13.8 0-25-11.2-25-25v-16.6c0-8 3.7-15.101 9.6-19.601 4.3-3.3 9.601-5.399 15.4-5.399h16.6c13.8 0 25 11.199 25 25v16.6z"/></symbol><symbol viewBox="0 0 64 64" id="youtube" xmlns="http://www.w3.org/2000/svg"><path d="M37.635 41.44c-.542 0-1.088.257-1.635.79v10.999c.547.544 1.093.806 1.635.806.941 0 1.423-.806 1.423-2.434v-7.698c.001-1.632-.482-2.463-1.423-2.463zm11.966 0c-1.093 0-1.642.831-1.642 2.502v1.671h3.274v-1.671c.001-1.671-.546-2.502-1.632-2.502z"/><path d="M56.396 29.049c-2.055-2.139-4.357-2.148-5.414-2.271-7.556-.54-18.889-.54-18.889-.54h-.025s-11.333 0-18.896.54c-1.054.123-3.352.133-5.409 2.271-1.618 1.632-2.147 5.327-2.147 5.327s-.536 4.343-.536 8.685v4.073c0 4.341.536 8.686.536 8.686s.529 3.695 2.147 5.321c2.057 2.139 4.753 2.072 5.952 2.295 4.324.413 18.365.538 18.365.538s11.347-.016 18.903-.562c1.057-.121 3.359-.133 5.414-2.271 1.619-1.626 2.147-5.321 2.147-5.321s.536-4.345.536-8.686v-4.073c0-4.342-.536-8.685-.536-8.685s-.529-3.695-2.148-5.327zM16.979 56.755h-3.642V35.953H9.486v-3.406H20.9v3.406h-3.92v20.802zm12.912 0h-3.278v-1.969c-1.299 1.489-2.54 2.221-3.742 2.221-1.054 0-1.781-.432-2.112-1.346-.178-.546-.286-1.409-.286-2.683V38.717h3.275v13.28c0 .765 0 1.164.024 1.27.083.507.336.769.771.769.658 0 1.341-.507 2.069-1.533V38.717h3.278v18.038zm12.44-5.409c0 1.663-.11 2.866-.331 3.631-.438 1.344-1.313 2.03-2.613 2.03-1.168 0-2.294-.647-3.387-1.999v1.747h-3.277V32.547H36v7.905c1.056-1.299 2.179-1.956 3.387-1.956 1.299 0 2.174.688 2.613 2.036.221.729.331 1.918.331 3.628v7.186zM54.51 48.33h-6.55v3.199c0 1.671.549 2.506 1.673 2.506.806 0 1.275-.44 1.463-1.311.029-.178.073-.908.073-2.219h3.341v.479c0 1.051-.043 1.776-.071 2.106a4.606 4.606 0 0 1-.766 1.955c-.906 1.312-2.25 1.96-3.963 1.96-1.711 0-3.014-.618-3.96-1.853-.696-.902-1.051-2.326-1.051-4.241v-6.319c0-1.927.318-3.333 1.012-4.249.946-1.234 2.249-1.849 3.922-1.849 1.643 0 2.947.614 3.863 1.849.685.916 1.015 2.322 1.015 4.249v3.738zM23.436 24.434v-9.908L27.848-.026h-3.71l-2.503 9.605L19.03-.026h-3.863c.777 2.268 1.581 4.544 2.356 6.816 1.174 3.411 1.91 5.982 2.244 7.735v9.908h3.669zm8.611.251c1.656 0 2.942-.624 3.858-1.864.692-.91 1.029-2.346 1.029-4.287v-6.387c0-1.945-.337-3.367-1.029-4.289-.917-1.25-2.202-1.87-3.858-1.87-1.654 0-2.943.62-3.854 1.87-.707.922-1.034 2.344-1.034 4.289v6.387c0 1.941.327 3.377 1.034 4.287.911 1.24 2.2 1.864 3.854 1.864zm-1.581-13.199c0-1.686.514-2.529 1.581-2.529 1.062 0 1.573.844 1.573 2.529v7.669c0 1.687-.511 2.53-1.573 2.53-1.067 0-1.581-.844-1.581-2.53v-7.669zm18.522 12.948V6.203H45.68v13.935c-.733 1.034-1.427 1.548-2.088 1.548-.445 0-.708-.265-.777-.773-.042-.109-.042-.51-.042-1.285V6.203h-3.299v14.418c0 1.289.108 2.161.293 2.711.332.92 1.068 1.353 2.133 1.353 1.204 0 2.46-.732 3.781-2.24v1.989h3.307z"/></symbol></svg>