<?xml version="1.0" encoding="utf-8"?><svg xmlns="http://www.w3.org/2000/svg" xmlns:xlink="http://www.w3.org/1999/xlink"><symbol viewBox="0 0 59.013 59.013" id="cart" xmlns="http://www.w3.org/2000/svg"><path d="M15 39.006l-5.167-26H58v22.012a3.988 3.988 0 0 1-3.988 3.988H15"/><path d="M57.306 28.923l-9.366 9.365a.999.999 0 1 0 1.414 1.414l9.366-9.365a.999.999 0 1 0-1.414-1.414zm1.414-11.314a.999.999 0 0 0-1.414 0L36.623 38.292A.999.999 0 0 0 37.33 40a.997.997 0 0 0 .707-.293L58.72 19.023a1 1 0 0 0 0-1.414zm-5.993-5.32a.999.999 0 0 0-1.414 0L25.305 38.295a.999.999 0 1 0 1.414 1.414l26.008-26.007a1 1 0 0 0 0-1.413zm-22.633.005a.999.999 0 0 0-1.414 0L12.367 28.607a.999.999 0 1 0 1.414 1.414l16.313-16.313a1 1 0 0 0 0-1.414zm11.316-.002a.999.999 0 0 0-1.414 0l-24.381 24.38a.999.999 0 1 0 1.414 1.414l24.381-24.38a.999.999 0 0 0 0-1.414zm-22.634.005a.999.999 0 0 0-1.414 0l-6.871 6.871a.999.999 0 1 0 1.414 1.414l6.871-6.871a.999.999 0 0 0 0-1.414z"/><path d="M54.013 40.006H14.179l-5.564-28H59v23.013a4.992 4.992 0 0 1-4.987 4.987zm-38.192-2h38.191a2.99 2.99 0 0 0 2.987-2.987V14.006H11.052l4.769 24z"/><circle cx="22" cy="48.006" r="5"/><path d="M22 54.006c-3.309 0-6-2.691-6-6s2.691-6 6-6 6 2.691 6 6-2.691 6-6 6zm0-10c-2.206 0-4 1.794-4 4s1.794 4 4 4 4-1.794 4-4-1.794-4-4-4z"/><circle cx="45" cy="48.006" r="5"/><path d="M45 54.006c-3.309 0-6-2.691-6-6s2.691-6 6-6 6 2.691 6 6-2.691 6-6 6zm0-10c-2.206 0-4 1.794-4 4s1.794 4 4 4 4-1.794 4-4-1.794-4-4-4z"/><path d="M55 48.006h-5.101a1 1 0 1 1 0-2H55a1 1 0 1 1 0 2zm-14.899 0H26.899a1 1 0 1 1 0-2H40.1a1 1 0 1 1 .001 2zm-30.269-34a1 1 0 0 1-.985-.836l-.695-4.164H6a1 1 0 1 1 0-2h3.848l.972 5.836a.998.998 0 0 1-.988 1.164zm7.269 34H14a5.013 5.013 0 0 1-4.975-5.51c.255-2.518 2.522-4.489 5.163-4.489a1 1 0 1 1 0 2c-1.627 0-3.021 1.182-3.173 2.69a2.967 2.967 0 0 0 .761 2.316 3.008 3.008 0 0 0 2.224.993h3.101a1 1 0 1 1 0 2z"/><circle cx="3" cy="8.006" r="3"/></symbol><symbol viewBox="0 0 480 480" id="colorpicker" xmlns="http://www.w3.org/2000/svg"><path d="M70.298 70.291l84.853 84.853c14.673-14.672 33.132-25.554 53.78-31.074L177.867 8.138C136.565 19.179 99.646 40.944 70.298 70.291zM271.068 124.07c20.65 5.52 39.107 16.402 53.781 31.074l84.854-84.853c-29.348-29.347-66.268-51.113-107.57-62.153L271.068 124.07zM119.999 240c0-10.742 1.42-21.151 4.068-31.059L8.136 177.877C2.839 197.694-.001 218.514-.001 240s2.84 42.307 8.137 62.123l115.932-31.063a120.103 120.103 0 0 1-4.069-31.06zM360 240c0 10.742-1.42 21.151-4.066 31.059l115.932 31.064C477.16 282.307 480 261.486 480 240s-2.84-42.306-8.135-62.123L355.933 208.94A120.189 120.189 0 0 1 360 240zM124.069 208.931c5.52-20.649 16.402-39.107 31.074-53.78L70.29 70.298c-29.346 29.348-51.111 66.268-62.152 107.57l115.931 31.063zM409.709 70.297l-84.852 84.853c14.672 14.673 25.553 33.132 31.072 53.781l115.932-31.063c-11.039-41.303-32.804-78.222-62.152-107.571zM155.144 324.849c-14.672-14.673-25.555-33.131-31.074-53.78L8.138 302.133c11.041 41.302 32.807 78.221 62.152 107.569l84.854-84.853zM208.94 124.067A120.126 120.126 0 0 1 239.999 120c10.743 0 21.153 1.419 31.06 4.067L302.123 8.136C282.307 2.839 261.486 0 239.999 0c-21.486 0-42.306 2.84-62.122 8.136l31.063 115.931zM271.059 355.933a120.16 120.16 0 0 1-31.06 4.067c-10.742 0-21.15-1.42-31.059-4.067l-31.063 115.932c19.816 5.296 40.636 8.136 62.122 8.136 21.487 0 42.308-2.84 62.124-8.136l-31.064-115.932zM355.93 271.068c-5.52 20.649-16.4 39.107-31.072 53.781l84.852 84.853c29.348-29.349 51.113-66.268 62.152-107.569L355.93 271.068zM208.931 355.93c-20.648-5.52-39.107-16.401-53.78-31.073L70.298 409.71c29.348 29.347 66.268 51.112 107.569 62.152l31.064-115.932zM409.703 409.709l-84.854-84.853c-14.674 14.672-33.131 25.554-53.781 31.073l31.064 115.932c41.304-11.04 78.223-32.805 107.571-62.152z"/><g stroke-width="12" stroke-miterlimit="10"><circle cx="240" cy="417.967" r="18"/><circle cx="240" cy="62.034" r="18"/><path d="M240 80.034v319.933"/></g></symbol><symbol viewBox="0 0 53.304 53.304" id="fb" xmlns="http://www.w3.org/2000/svg"><path d="M4.486 49.771c.126.201.254.354.381.494.249.268.494.479.738.672.972.748 1.973 1.24 2.938 1.522.327-.047-.466-.461.057-.442 2.087 1.555 5.834 1.518 6.02.846-1.413-.152-2.84-.498-4.254-.969-1.137-.39-2.277-.843-3.366-1.419.083.036.165.076.249.111.852.352 1.731.617 2.622.838 1.782.438 3.612.691 5.459.846 3.698.303 7.468.191 11.212-.027 3.747-.225 7.469-.559 11.124-.82l5.444-.365c.905-.061 1.808-.121 2.729-.221.463-.053.928-.111 1.422-.221.248-.055.504-.121.787-.232.279-.126.604-.234.992-.709.104-.346.069-.67-.025-.822-.092-.156-.201-.16-.307-.101-.195.151-.529.437-.89.446-.699.068-1.674-.01-2.95-.008-2.529-.016-6.08.096-9.314.803-.418-.262.277-.57-1.084-.797-5.307-.116-11.133 1.229-16.777 1.328-1.147-.965-5.274-1.441-7.021-.971-.182.477 2.69.508 2.579.842-1.055.412-2.822.069-4.45-.367l-2.155-.619c-.015-.006-.032-.01-.046-.018-.423-.175-.925-.449-1.042-.662-.005 0-.004-.009-.004-.015.023.001.028-.026.081-.067.105-.098.3-.207.504-.297.415-.182.893-.318 1.373-.438 1.944-.458 4.011-.688 6.077-.895a130.6 130.6 0 0 1 5.537-.396c.095.225.208.441.354.633a2.931 2.931 0 0 0 1.935 1.139c.421.053.675.01.961.006l.853-.035 1.7-.06c.48.146 1.268.261 2.222.343l.744.055c.202.021.669.031 1.038-.061a3.13 3.13 0 0 0 1.962-1.406c.159-.264.265-.541.345-.84.428.006.855.008 1.283.019 3.65.114 7.305.299 10.801.891.521.091 1.044.179 1.557.294.758.172 2.16.356 2.838.711.361.159.41.486.461.377.035-.012.029-.267-.147-.461-.127-.154-.346-.299-.61-.437a5.431 5.431 0 0 0-.192-.101c-.031-.014-.05-.029-.083-.043-.04-.017-.082-.025-.123-.041-.086-.037-.157-.072-.258-.107-.176-.062-.355-.114-.535-.168l-.169-.053a18.634 18.634 0 0 0-.97-.248 6.791 6.791 0 0 0-.485-.09c-1.097-.222-2.207-.371-3.322-.515a87.764 87.764 0 0 0-6.032-.466 140.232 140.232 0 0 0-3.897-.115c.014-.139.009-.17.012-.384l-.005-.427c-.007-.399-.023-.779-.038-1.161V26.208c0-.711.347-1.336.874-1.734.332-.044.77-.013 1.172-.019l1.553.01c.502.017 1.133-.015 1.678-.208.266-.102.561-.216.822-.407.662-.213 1.146-.594 1.215-1.032.062-.389.123-.794.185-1.213l.319-2.583c.054-.496.104-1.002.152-1.515.073-.798-.764-1.445-1.883-1.504-.309-.254-.685-.453-1.133-.464l-3.171.006c-.356.004-.642.007-.899-.039a2.16 2.16 0 0 1-.822-1.691v-3.144c0-.371.242-.771.718-1.192.103-.091.21-.168.317-.24l3.262-.022c.314-.01.643.02 1.035-.053.303-.057.586-.188.845-.352a2.17 2.17 0 0 0 1.86-2.145V2.469a2.169 2.169 0 0 0-2-2.159A2.446 2.446 0 0 0 36.273 0l-3.842.021c-1.268.016-2.545-.022-3.825.097-1.084.099-2.167.291-3.204.65l-.076.027c-.156.056-.314.104-.468.168-.058.026-.112.059-.169.085-.064.027-.121.05-.188.08-.1.051-.195.109-.293.162a9.152 9.152 0 0 0-.364.202c-.121.071-.238.148-.356.223-.063.041-.129.078-.192.12l-.003.002a10.008 10.008 0 0 0-.833.618c-.015.012-.03.022-.045.035-.059.049-.117.1-.175.151-.019.016-.04.029-.059.045a6.414 6.414 0 0 0-.327.31c-.048.046-.1.088-.147.135-.454.465-1.03 1.225-1.313 2.094a10.98 10.98 0 0 0-.526 2.366c-.068.631-.042 1.008.004.88.054-.124.113-.726.448-1.98l.06-.205c.074-.249.156-.496.246-.739.012-.035.026-.07.039-.104.028-.072.061-.14.091-.211a5.432 5.432 0 0 1 .485-.905c.113-.167.233-.326.359-.479.078-.095.153-.193.236-.281.197-.215.401-.425.625-.623 1.045-.895 2.248-1.648 3.594-2.007.818-.231 1.654-.36 2.5-.44-1.356.205-2.483.559-3.371 1.068-1.482.853-2.547 1.814-3.205 2.888-.664 1.075-1.033 2.1-1.123 3.079-.082.978-.122 1.616-.122 1.913v4.366a2.177 2.177 0 0 1-2.177 2.177h-.065a3.44 3.44 0 0 0 .955-.638c.292-.282.543-.642.661-1.077.114-.482.087-.787.127-1.147.104-1.404.225-2.796.366-4.174-.251-.76-.532-.534-.802.399-.135.466-.269 1.109-.395 1.894l-.183 1.279-.086.71-.042.372c-.011.134-.03.259-.047.312-.082.288-.316.579-.661.804-.339.22-.795.363-1.158.35H17a3.36 3.36 0 0 0-.929.134 3.909 3.909 0 0 0-1.131.523 3.471 3.471 0 0 0-.954.943 2.777 2.777 0 0 0-.444 1.117c-.026.16-.02.186-.032.285l-.024 2.077.003 1.014c.021.367-.039.576.073 1.23.265 1.112 1.045 1.782 1.825 2.176.413.199.806.326 1.315.38.149.017.23.015.309.014l.229-.002c.102-.003.212.009.324.026.185.155.069.212.079.309-.025.107.197.22.488.647a.575.575 0 0 1 .104.206v-.002c.001.004 0 .006-.005-.02a.102.102 0 0 1 .001-.039l.004.059c0-.002.004.012.001.006l-.001-.004.002.031.003.047.001-.011v-.006l.004.099-.002-.027-.003-.055v.053l-.003.205-.012 1.649c-.001 1.104.013 2.22.037 3.343.048 2.244.141 4.521.249 6.809l.352 6.881.024.445c.008.142.037.281.064.42-2.669.123-5.32.299-7.927.584-.985.113-1.963.242-2.933.423-.135.028-.27.058-.404.084-.11-.136.48-.353.315-.481-.693-.1-1.362.039-1.807.266-.45.228-.652.525-.477.629a2.436 2.436 0 0 0-.767.203 1.285 1.285 0 0 0-.459.348c-.077.091-.153.21-.206.355-.03.068-.045.151-.062.231l-.005.03-.001.004.003.08-.001.002-.001.005-.006.021-.013.045c0 .086.019.226.044.324.019.074.042.153.069.225.047.139.109.255.173.359zm28.687-33.853h1.356l1.354.001c.224.005.453-.02.691.048.02.005.036.017.055.023h-3.072c-.184 0-.358-.029-.528-.072h.144zm-16.374 7.974a2.77 2.77 0 0 1-1.777-1.039 1.684 1.684 0 0 1-.348-.948l.006-1.089.034-2.178c-.171-1.192.787-2.062 1.846-2.298-.601.387-1 1.059-1 1.827v3.687c0 .958.622 1.762 1.482 2.053-.081-.004-.164-.015-.243-.015zm3.859 22.652l.312-.013c.089.174.192.338.321.48a1.61 1.61 0 0 1-.633-.467zm-.395-.966l-.024-1.112-.05-2.237-.105-4.479-.189-8.941-.032-2.226c.003-.349.003-.786-.191-1.141a2.523 2.523 0 0 0-.743-.888 2.918 2.918 0 0 0-1.071-.524h.693c1.202 0 2.177.975 2.177 2.177v19.354c0 .135.014.269.038.397-.145.005-.291.009-.436.015a1.813 1.813 0 0 1-.067-.395zM5.533 48.73c-.033.045-.035-.021-.047-.045.07.055.028.018.055.03l-.008.015z"/></symbol><symbol viewBox="0 0 511.999 511.999" id="logo" xmlns="http://www.w3.org/2000/svg"><path d="M399.59 13.256C361.124 4.708 310.129 0 255.999 0S150.874 4.708 112.408 13.256c-44.686 9.93-66.409 23.403-66.409 41.188v80a9.999 9.999 0 0 0 6.975 9.531l140 44.444a10 10 0 0 0 11.025-3.531l13.152-17.536 5.531 12.86-39.57 260.284a10 10 0 0 0 2.815 8.574l60 60a9.973 9.973 0 0 0 7.072 2.929 9.97 9.97 0 0 0 6.896-2.759l63-60a10.004 10.004 0 0 0 2.99-8.744l-39.57-260.284 6.625-15.403 15.059 20.08a10.002 10.002 0 0 0 11.025 3.531l140-44.444a10 10 0 0 0 6.975-9.531v-80c0-17.786-21.722-31.259-66.409-41.189zM116.747 32.779C153.832 24.538 203.285 20 255.999 20s102.168 4.538 139.252 12.779c35.667 7.926 47.432 16.624 50.098 20.27-4.658 3.27-23.753 12.561-98.468 24.137-42.688 6.614-84.022 10.948-90.882 11.65-6.853-.701-48.125-5.027-90.808-11.639C90.414 65.616 71.309 56.32 66.65 53.049c2.665-3.646 14.43-12.344 50.097-20.27zm152.668 136.11h-29.83l-8.596-19.985L256 115.556l23.104 30.806-9.689 22.527zm6.904 78.635l-51.464 51.474 16.74-110.109h25.81l8.914 58.635zm-84.06-80.315l-126.26-40.082V75.129c5.621 2.363 11.987 4.382 18.521 6.235 16.962 4.811 40.477 9.648 69.891 14.38 31.837 5.121 63.941 9.032 83.049 11.197l-45.201 60.268zm27.524 165.15l60.269-60.281 3.788 24.924-69.205 69.217 5.148-33.86zm67.791-10.804l17.756 116.797-52.16 49.676-49.523-49.524 5.918-38.927 78.009-78.022zm158.425-194.428l-126.26 40.082-45.201-60.268c19.108-2.164 51.211-6.076 83.049-11.197 29.414-4.731 52.929-9.569 69.891-14.38 6.535-1.853 12.901-3.872 18.521-6.236v51.999z"/><path d="M348.733 44.991c-16.271-1.87-33.601-3.23-51.511-4.061-5.52-.24-10.199 4.03-10.449 9.54-.25 5.5 4.02 10.19 9.53 10.44 17.431.8 34.311 2.13 50.15 3.949.39.04.78.061 1.16.061 5.069 0 9.34-3.8 9.92-8.86.63-5.47-3.32-10.439-8.8-11.069zm-131.939-4.142c-.15 0-.3.01-.45.01-17.87.79-35.2 2.12-51.52 3.95-2.65.3-5.03 1.61-6.7 3.7a9.951 9.951 0 0 0-2.12 7.35 9.992 9.992 0 0 0 11.049 8.83c15.84-1.779 32.721-3.069 50.181-3.85a9.91 9.91 0 0 0 6.93-3.24 9.888 9.888 0 0 0 2.61-7.189 9.972 9.972 0 0 0-9.98-9.561zM256.773 40c-5.511 0-9.99 4.479-10 9.99 0 5.52 4.48 10 10 10.01 5.51 0 10-4.48 10-9.99.01-5.52-4.471-10.01-10-10.01z"/></symbol><symbol viewBox="0 0 890.955 890.954" id="logo1" xmlns="http://www.w3.org/2000/svg"><path d="M486.399 180.712c24.521 0 40.811-17.122 44.409-41.096l12.34-98.526c0-22.689-19.889-41.09-44.411-41.09H392.23c-24.531 0-44.418 18.401-44.418 41.09l12.338 98.526c3.086 26.825 19.888 41.096 44.412 41.096 18.837 0 22.951-5.714 43.514-5.714 22.096 0 25.754 5.714 38.323 5.714m53.998 270.765L332.307 561.57l-5.814 34.893 218.776-115.746zM519.69 327.246L357.017 413.31l-21.549 129.297L537.749 435.59zm-159.511 67.093l156.861-82.987-4.41-26.447-147.191 77.876zm-47.5 346.391l23.695 28.174 236.11-124.914-21.918-131.504-230.395 121.899-7.492 44.951c-1.862 9.162-15.627 44.434 0 61.394m70.642 83.989l45.026 53.535c15.627 16.934 18.734 16.934 34.367 0L578.375 740.73c5.718-6.205 7.439-14.475 7.266-23.057l-202.32 107.046zm124.013-571.585l-8.154-48.92c-15.627-16.955-91.673-16.955-107.312 0l-20.109 120.647 135.575-71.727zm71.041 426.202l-.597-3.576-221.277 117.074 16.749 19.912L583.558 701.48c-1.933-9.121-4.586-17.283-5.183-22.144"/></symbol><symbol viewBox="0 0 493.95 493.95" id="logo2" xmlns="http://www.w3.org/2000/svg"><path d="M275.986 79.252L416.378 0H77.572l140.392 79.252zM217.964 181.664l-41.338 265.943 70.349 46.343V181.664z"/><path d="M246.975 493.95l70.349-46.343-41.338-265.943h-29.011zM217.964 79.252l-26.52 40.954 26.52 61.458h58.022l26.52-61.458-26.52-40.954z"/><path d="M77.572 0v68.78l91.128 86.551 22.744-35.125 26.52-40.954zM275.986 79.252l26.52 40.954 22.744 35.125 91.128-86.551V0z"/></symbol><symbol viewBox="0 0 90 90" id="tw" xmlns="http://www.w3.org/2000/svg"><path d="M67.261 67.496H45.054c-3.087 0-5.712-1.08-7.869-3.25-2.167-2.172-3.238-4.797-3.238-7.898v-7.904H65.59c2.854 0 5.312-1.025 7.354-3.062 2.041-2.054 3.066-4.509 3.066-7.366 0-2.867-1.025-5.319-3.072-7.366-2.049-2.042-4.515-3.066-7.381-3.066H33.946v-16.33c0-3.09-1.102-5.735-3.29-7.939C28.478 1.107 25.842 0 22.782 0c-3.146 0-5.825 1.091-8.004 3.25-2.187 2.166-3.278 4.834-3.278 8.014v45.089c0 9.274 3.278 17.197 9.837 23.773C27.901 86.715 35.814 90 45.066 90h22.203c3.082 0 5.729-1.107 7.93-3.314 2.203-2.197 3.302-4.849 3.302-7.936 0-3.088-1.099-5.734-3.302-7.941-2.202-2.202-4.852-3.313-7.938-3.313z"/></symbol></svg>