<?xml version="1.0" encoding="utf-8"?><svg xmlns="http://www.w3.org/2000/svg" xmlns:xlink="http://www.w3.org/1999/xlink"><symbol viewBox="0 0 53.304 53.304" id="fb" xmlns="http://www.w3.org/2000/svg"><path d="M4.486 49.771c.126.201.254.354.381.494.249.268.494.479.738.672.972.748 1.973 1.24 2.938 1.522.327-.047-.466-.461.057-.442 2.087 1.555 5.834 1.518 6.02.846-1.413-.152-2.84-.498-4.254-.969-1.137-.39-2.277-.843-3.366-1.419.083.036.165.076.249.111.852.352 1.731.617 2.622.838 1.782.438 3.612.691 5.459.846 3.698.303 7.468.191 11.212-.027 3.747-.225 7.469-.559 11.124-.82l5.444-.365c.905-.061 1.808-.121 2.729-.221.463-.053.928-.111 1.422-.221.248-.055.504-.121.787-.232.279-.126.604-.234.992-.709.104-.346.069-.67-.025-.822-.092-.156-.201-.16-.307-.101-.195.151-.529.437-.89.446-.699.068-1.674-.01-2.95-.008-2.529-.016-6.08.096-9.314.803-.418-.262.277-.57-1.084-.797-5.307-.116-11.133 1.229-16.777 1.328-1.147-.965-5.274-1.441-7.021-.971-.182.477 2.69.508 2.579.842-1.055.412-2.822.069-4.45-.367l-2.155-.619c-.015-.006-.032-.01-.046-.018-.423-.175-.925-.449-1.042-.662-.005 0-.004-.009-.004-.015.023.001.028-.026.081-.067.105-.098.3-.207.504-.297.415-.182.893-.318 1.373-.438 1.944-.458 4.011-.688 6.077-.895a130.6 130.6 0 0 1 5.537-.396c.095.225.208.441.354.633a2.931 2.931 0 0 0 1.935 1.139c.421.053.675.01.961.006l.853-.035 1.7-.06c.48.146 1.268.261 2.222.343l.744.055c.202.021.669.031 1.038-.061a3.13 3.13 0 0 0 1.962-1.406c.159-.264.265-.541.345-.84.428.006.855.008 1.283.019 3.65.114 7.305.299 10.801.891.521.091 1.044.179 1.557.294.758.172 2.16.356 2.838.711.361.159.41.486.461.377.035-.012.029-.267-.147-.461-.127-.154-.346-.299-.61-.437a5.431 5.431 0 0 0-.192-.101c-.031-.014-.05-.029-.083-.043-.04-.017-.082-.025-.123-.041-.086-.037-.157-.072-.258-.107-.176-.062-.355-.114-.535-.168l-.169-.053a18.634 18.634 0 0 0-.97-.248 6.791 6.791 0 0 0-.485-.09c-1.097-.222-2.207-.371-3.322-.515a87.764 87.764 0 0 0-6.032-.466 140.232 140.232 0 0 0-3.897-.115c.014-.139.009-.17.012-.384l-.005-.427c-.007-.399-.023-.779-.038-1.161V26.208c0-.711.347-1.336.874-1.734.332-.044.77-.013 1.172-.019l1.553.01c.502.017 1.133-.015 1.678-.208.266-.102.561-.216.822-.407.662-.213 1.146-.594 1.215-1.032.062-.389.123-.794.185-1.213l.319-2.583c.054-.496.104-1.002.152-1.515.073-.798-.764-1.445-1.883-1.504-.309-.254-.685-.453-1.133-.464l-3.171.006c-.356.004-.642.007-.899-.039a2.16 2.16 0 0 1-.822-1.691v-3.144c0-.371.242-.771.718-1.192.103-.091.21-.168.317-.24l3.262-.022c.314-.01.643.02 1.035-.053.303-.057.586-.188.845-.352a2.17 2.17 0 0 0 1.86-2.145V2.469a2.169 2.169 0 0 0-2-2.159A2.446 2.446 0 0 0 36.273 0l-3.842.021c-1.268.016-2.545-.022-3.825.097-1.084.099-2.167.291-3.204.65l-.076.027c-.156.056-.314.104-.468.168-.058.026-.112.059-.169.085-.064.027-.121.05-.188.08-.1.051-.195.109-.293.162a9.152 9.152 0 0 0-.364.202c-.121.071-.238.148-.356.223-.063.041-.129.078-.192.12l-.003.002a10.008 10.008 0 0 0-.833.618c-.015.012-.03.022-.045.035-.059.049-.117.1-.175.151-.019.016-.04.029-.059.045a6.414 6.414 0 0 0-.327.31c-.048.046-.1.088-.147.135-.454.465-1.03 1.225-1.313 2.094a10.98 10.98 0 0 0-.526 2.366c-.068.631-.042 1.008.004.88.054-.124.113-.726.448-1.98l.06-.205c.074-.249.156-.496.246-.739.012-.035.026-.07.039-.104.028-.072.061-.14.091-.211a5.432 5.432 0 0 1 .485-.905c.113-.167.233-.326.359-.479.078-.095.153-.193.236-.281.197-.215.401-.425.625-.623 1.045-.895 2.248-1.648 3.594-2.007.818-.231 1.654-.36 2.5-.44-1.356.205-2.483.559-3.371 1.068-1.482.853-2.547 1.814-3.205 2.888-.664 1.075-1.033 2.1-1.123 3.079-.082.978-.122 1.616-.122 1.913v4.366a2.177 2.177 0 0 1-2.177 2.177h-.065a3.44 3.44 0 0 0 .955-.638c.292-.282.543-.642.661-1.077.114-.482.087-.787.127-1.147.104-1.404.225-2.796.366-4.174-.251-.76-.532-.534-.802.399-.135.466-.269 1.109-.395 1.894l-.183 1.279-.086.71-.042.372c-.011.134-.03.259-.047.312-.082.288-.316.579-.661.804-.339.22-.795.363-1.158.35H17a3.36 3.36 0 0 0-.929.134 3.909 3.909 0 0 0-1.131.523 3.471 3.471 0 0 0-.954.943 2.777 2.777 0 0 0-.444 1.117c-.026.16-.02.186-.032.285l-.024 2.077.003 1.014c.021.367-.039.576.073 1.23.265 1.112 1.045 1.782 1.825 2.176.413.199.806.326 1.315.38.149.017.23.015.309.014l.229-.002c.102-.003.212.009.324.026.185.155.069.212.079.309-.025.107.197.22.488.647a.575.575 0 0 1 .104.206v-.002c.001.004 0 .006-.005-.02a.102.102 0 0 1 .001-.039l.004.059c0-.002.004.012.001.006l-.001-.004.002.031.003.047.001-.011v-.006l.004.099-.002-.027-.003-.055v.053l-.003.205-.012 1.649c-.001 1.104.013 2.22.037 3.343.048 2.244.141 4.521.249 6.809l.352 6.881.024.445c.008.142.037.281.064.42-2.669.123-5.32.299-7.927.584-.985.113-1.963.242-2.933.423-.135.028-.27.058-.404.084-.11-.136.48-.353.315-.481-.693-.1-1.362.039-1.807.266-.45.228-.652.525-.477.629a2.436 2.436 0 0 0-.767.203 1.285 1.285 0 0 0-.459.348c-.077.091-.153.21-.206.355-.03.068-.045.151-.062.231l-.005.03-.001.004.003.08-.001.002-.001.005-.006.021-.013.045c0 .086.019.226.044.324.019.074.042.153.069.225.047.139.109.255.173.359zm28.687-33.853h1.356l1.354.001c.224.005.453-.02.691.048.02.005.036.017.055.023h-3.072c-.184 0-.358-.029-.528-.072h.144zm-16.374 7.974a2.77 2.77 0 0 1-1.777-1.039 1.684 1.684 0 0 1-.348-.948l.006-1.089.034-2.178c-.171-1.192.787-2.062 1.846-2.298-.601.387-1 1.059-1 1.827v3.687c0 .958.622 1.762 1.482 2.053-.081-.004-.164-.015-.243-.015zm3.859 22.652l.312-.013c.089.174.192.338.321.48a1.61 1.61 0 0 1-.633-.467zm-.395-.966l-.024-1.112-.05-2.237-.105-4.479-.189-8.941-.032-2.226c.003-.349.003-.786-.191-1.141a2.523 2.523 0 0 0-.743-.888 2.918 2.918 0 0 0-1.071-.524h.693c1.202 0 2.177.975 2.177 2.177v19.354c0 .135.014.269.038.397-.145.005-.291.009-.436.015a1.813 1.813 0 0 1-.067-.395zM5.533 48.73c-.033.045-.035-.021-.047-.045.07.055.028.018.055.03l-.008.015z"/></symbol><symbol viewBox="0 0 90 90" id="tw" xmlns="http://www.w3.org/2000/svg"><path d="M67.261 67.496H45.054c-3.087 0-5.712-1.08-7.869-3.25-2.167-2.172-3.238-4.797-3.238-7.898v-7.904H65.59c2.854 0 5.312-1.025 7.354-3.062 2.041-2.054 3.066-4.509 3.066-7.366 0-2.867-1.025-5.319-3.072-7.366-2.049-2.042-4.515-3.066-7.381-3.066H33.946v-16.33c0-3.09-1.102-5.735-3.29-7.939C28.478 1.107 25.842 0 22.782 0c-3.146 0-5.825 1.091-8.004 3.25-2.187 2.166-3.278 4.834-3.278 8.014v45.089c0 9.274 3.278 17.197 9.837 23.773C27.901 86.715 35.814 90 45.066 90h22.203c3.082 0 5.729-1.107 7.93-3.314 2.203-2.197 3.302-4.849 3.302-7.936 0-3.088-1.099-5.734-3.302-7.941-2.202-2.202-4.852-3.313-7.938-3.313z"/></symbol><symbol viewBox="0 0 49.963 49.963" id="vk" xmlns="http://www.w3.org/2000/svg"><path d="M40.593 26.138c-.1-.3.3-.3 1.2-1.3.9-.9 3.9-4.7 6.2-7.6 2.3-2.9 2-4.8 1.9-6.5-.1-1.8-1.1-2.6-2.1-3-1-.4-5.9-.2-6.7-.1-.8.1-1.2.5-1.7 1.2s-3.3 5.1-4.5 6.5c-1.1 1.4-3.5 3.6-3.7 3.5s-.2-5.8-.3-7.1c-.2-1.3-2.7-2.5-4.3-2.6s-8.4.2-9.2.4c-.8.2-1.3 1-1.2 1.3s1.5 1.7 1.9 2.2.8 5.4.8 7.5c0 2-.8 2.9-1.1 2.8-.3-.1-1.6-.6-3.1-2.4-1.6-1.8-5.6-10.2-5.8-10.4-.2-.3-.9-.4-3.2-.5-2.3-.1-4.6.2-5 .9-1.2 2-.6 6.1 0 7.9s1.7 4.9 3.9 8.3c2.2 3.5 5.6 7.1 8.9 10.3s5.7 4.2 7.1 4.7 4 .3 6.2.2c2.2-.1 3.1-1 3.5-2.1.5-1.1.4-3.9.3-4.2-.1-.3-.1-1.5.4-1.6.5 0 .9.6 1.7 1.5.8.9 2.1 4.5 2.6 4.9.6.4 1.7.7 3.6.7s5.9-.1 6.7-.4c.8-.3 2.5-2.3 2.8-3.6.3-1.3-.7-2.6-1.6-4.3-1.1-1.8-6.1-6.9-6.2-7.1zm6.4 11.4c-.1-.2-3.7-4.6-4.9-6.2-1.2-1.6-1.8-2.2-2.1-2-.4.2-.2.6 0 .8.2.2 6.4 7.6 6.3 7.7s-1.2.4-1.3.2c-.1-.2-2.4-3.6-4-5.3-1.5-1.8-2.5-2.6-2.8-2.5s-.4.6-.1.9 2.3 1.8 3.6 3.6c1.3 1.8 2.6 3.3 2.4 3.4-.2.2-1.4.1-1.4.1-.1-.1-2.7-3.5-4-4.9-1.3-1.4-1.5-1.5-1.9-1.4-.4.2.4.9 1 1.5s3.6 4.2 3.8 4.4c.2.2.3.6.1.6s-1.4 0-1.5-.1-4.2-6-4.6-6c-.4-.1-.6.2-.5.4s4.3 5.4 4 5.5-1 .1-1.2-.2c-.3-.2-2.8-4-4.4-5.3-1.6-1.3-2.6-1.7-3.4-1.7s-1.3.7-1.3.7-2.3-2.7-2.6-2.6c-.4.1-.4.4-.2.7.2.3 2.3 2.3 2.3 2.5 0 .1-.2 1.4-.2 1.5s-3-3.2-3.2-3.2c-.2.1-.4.7-.3.9s3.8 3.2 3.8 3.5c.1.3.2 2.2 0 2s-4-4.7-4.2-4.7-.6.6-.5.8c.2.2 4.6 4.5 4.5 4.7 0 .2-.4.5-.7.4s-4.2-4.7-4.6-4.6c-.4.2-.7.4-.4.7s4.1 3.9 4 4.1-1.2.1-1.4 0-3.3-4.2-3.9-4c-.5.1-.6.6-.4.8.2.3 3.5 3.2 3.3 3.3-.2.1-1.2.1-1.4 0-.3-.1-2.9-3.2-3.3-3.3-.3-.1-.6.4-.5.6s2.2 2.2 2.1 2.4c-.1.2-2.9-.7-4.3-1.8s-4.8-4.3-7-7.3-3.5-4.6-5.5-8.5-3.7-8.3-2.7-9.4c.3-.4 1-.6 1.9-.6s4.3-.1 4.5.2 3 6.6 4.6 8.9 3.1 3.8 4 4.2c1 .4 2.3 0 2.8-1.2s.5-3.2.3-4.8c-.2-1.6 0-4.3-.7-5.4s-1.3-1.9-1.3-2c.1-.2 3.6-.4 6-.5s4.2-.3 4.3 1 .1 3.1 0 5.9c-.1 2.7 0 3.4.9 3.8s2.1-.1 4.1-1.9 4-4.6 5.3-6.6 2.4-3.4 2.5-3.5c.2-.1 4.4-.4 4.8-.1s1.7 2 1.9 2.1c.2.2.2.4.2.5s-.3.9-.5.7-1.7-1.8-2-1.7c-.3.1-.4.3-.2.7.3.3 1.9 1.6 1.8 1.8 0 .2-.6 1.1-.7 1s-1.9-2.4-2.2-2.3c-.2.1-.6.6-.3.8.2.3 1.9 2 1.9 2.2s-.6 1.1-.7 1-2-2.1-2.2-2-.5.3-.3.6 2.2 1.9 2.1 2.2c-.1.3-.7 1.4-.8 1.3-.2-.1-2.3-2.7-2.5-2.5s-.5.4-.3.6 2.2 2.5 2.2 2.6-.5.8-.6.8-2-2.3-2.2-2.2-.6.4-.5.6 2.1 2.1 1.8 2.5c-.3.4-.5.7-.7.7s-2.2-2.5-2.4-2.4c-.2.1-.6.3-.5.6.1.3 2.4 2.4 2.3 2.6s-.7.7-.9.6c-.2-.1-2-2.2-2.3-2.1s-.5.1-.5.4 2 2.1 1.9 2.3c-.2.2-1.2.7-1.6 1.1s-.4.7-.1.9 4.4 3.5 6.7 6.5 2.9 4.2 3.2 5c.6.7.6 1.6.5 1.4zm-41.3-25.3c-.3-.2-2.9-.2-3 .1-.1.3.9 3.5 1.2 3.7.4.2.7-.1.8-.3s-.7-2.4-.6-2.6c0-.2 1.4-.1 1.6-.1.2-.1.3-.6 0-.8zm16.8-1c-.1.2 0 .7.3.8.3.1 2.4.2 2.6.3.2.1.2 1.2.2 1.6.1.4.7.2.9 0s.1-2.4 0-2.6-3.9-.2-4-.1z"/></symbol></svg>