<?xml version="1.0" encoding="utf-8"?><svg xmlns="http://www.w3.org/2000/svg" xmlns:xlink="http://www.w3.org/1999/xlink"><symbol viewBox="0 0 207.406 153" id="logo" xmlns="http://www.w3.org/2000/svg"><defs><linearGradient id="aa" y1="943.804" x2="1600" y2="561.196" gradientUnits="userSpaceOnUse"><stop offset=".47" stop-color="#bd159d"/><stop offset=".53" stop-color="#7516a3"/></linearGradient><linearGradient id="ab" x1="1600" y1="1302.5" x2="0" y2="202.5" gradientUnits="userSpaceOnUse"><stop offset=".485" stop-color="#164bc9"/><stop offset=".515" stop-color="#3a6ee8"/></linearGradient></defs><path data-name="Совмещенный контур" class="acls-1" fill="#fff" d="M99 136.609a10.967 10.967 0 0 0 .75 4.438 5.918 5.918 0 0 0 2.016 2.531 6.8 6.8 0 0 0 2.875 1.156 21.247 21.247 0 0 0 6.7 0 6.967 6.967 0 0 0 2.89-1.172 6.105 6.105 0 0 0 2-2.562 11.1 11.1 0 0 0 .766-4.469V132.8a10.953 10.953 0 0 0-.813-4.547 6.92 6.92 0 0 0-2.093-2.672 7.246 7.246 0 0 0-2.875-1.266 16.761 16.761 0 0 0-6.438 0 7.372 7.372 0 0 0-2.906 1.266 6.625 6.625 0 0 0-2.078 2.672 11.126 11.126 0 0 0-.8 4.594v3.765zm4-3.593a8.744 8.744 0 0 1 .469-3.141 4.817 4.817 0 0 1 1.187-1.828 3.786 3.786 0 0 1 1.625-.844A8.435 8.435 0 0 1 108 127a8.286 8.286 0 0 1 1.7.2 3.919 3.919 0 0 1 1.594.828 4.81 4.81 0 0 1 1.219 1.828 8.889 8.889 0 0 1 .484 3.157v3.156a8.4 8.4 0 0 1-.469 3.14 4.527 4.527 0 0 1-1.187 1.75 3.467 3.467 0 0 1-1.625.766 8.519 8.519 0 0 1-1.75.172 8.409 8.409 0 0 1-1.782-.172 3.277 3.277 0 0 1-1.578-.781 4.405 4.405 0 0 1-1.156-1.766 8.569 8.569 0 0 1-.453-3.14v-3.125zm-14.641-14.657a23.653 23.653 0 0 1-.218 3.641 8.588 8.588 0 0 1-.563 2h-2.656l-.3 3H88v11.359a9.919 9.919 0 0 0 1 4.86A3.392 3.392 0 0 0 92.2 145a11.763 11.763 0 0 0 2.328-.219c.766-.156 1.438-.281 2.031-.406l-.406-2.781c-.672.125-1.219.234-1.64.3A6.928 6.928 0 0 1 93.3 142c-.875 0-1.3-.672-1.3-2.016V127h4.406v-3H92v-6zM68 144.094a6.02 6.02 0 0 0 1.859.64 17.078 17.078 0 0 0 3.532.266 13.953 13.953 0 0 0 3.125-.344 6.91 6.91 0 0 0 2.75-1.312 6.675 6.675 0 0 0 1.968-2.641 11.013 11.013 0 0 0 .766-4.422v-3.094a12.385 12.385 0 0 0-.734-4.609 7.6 7.6 0 0 0-1.922-2.812 6.441 6.441 0 0 0-2.719-1.391 12.96 12.96 0 0 0-3.078-.375 13.886 13.886 0 0 0-3.985.469 11.083 11.083 0 0 0-2.578 1.109 3.1 3.1 0 0 0-1.234-1 4.388 4.388 0 0 0-1.75-.312 5.24 5.24 0 0 0-1.438.2l-1.453.468.344 2.329a4.413 4.413 0 0 1 1.516-.266.816.816 0 0 1 .843.453 4.788 4.788 0 0 1 .188 1.609V153c.656-.25 1.312-.469 2-.688a73.326 73.326 0 0 0 2-.687v-7.531zm0-15.688a9.652 9.652 0 0 1 2.047-.969A8.535 8.535 0 0 1 72.8 127a6.855 6.855 0 0 1 2 .3 3.827 3.827 0 0 1 1.656 1.047 5.406 5.406 0 0 1 1.125 2.093 11.758 11.758 0 0 1 .422 3.454v1.593a11.078 11.078 0 0 1-.438 3.422 4.81 4.81 0 0 1-1.171 1.953 3.718 3.718 0 0 1-1.7.922 8.756 8.756 0 0 1-2.046.219 11.147 11.147 0 0 1-2.86-.266 11.916 11.916 0 0 1-1.781-.609v-12.722zm-13-4.437v14.172a3.473 3.473 0 0 1-.469 1.875 3.7 3.7 0 0 1-1.156 1.2 4.368 4.368 0 0 1-1.531.609 7.3 7.3 0 0 1-1.594.172 5.987 5.987 0 0 1-1.969-.266 2.445 2.445 0 0 1-1.312-.953 4.7 4.7 0 0 1-.735-1.89 16.013 16.013 0 0 1-.234-3V124h-7v3h3v9.156a11.757 11.757 0 0 0 .687 4.406 7.023 7.023 0 0 0 1.813 2.688 6.2 6.2 0 0 0 2.562 1.375 11.415 11.415 0 0 0 2.907.375 18.712 18.712 0 0 0 3.078-.234 3.346 3.346 0 0 0 2.2-1.3L55 145a4.274 4.274 0 0 1-.609 2.328 6.133 6.133 0 0 1-1.469 1.563 6.53 6.53 0 0 1-1.75.859 6.224 6.224 0 0 1-1.5.25 16.706 16.706 0 0 1-3.094-.3 6.49 6.49 0 0 1-2.937-1.609l-1.485 2.687a8.477 8.477 0 0 0 3.5 1.735 20.755 20.755 0 0 0 4.594.484 11.867 11.867 0 0 0 3.078-.438 8.139 8.139 0 0 0 2.828-1.468 7.83 7.83 0 0 0 2.063-2.8 10.57 10.57 0 0 0 .812-4.375L59 124zm-16.875.453a18.529 18.529 0 0 0-2.094-.328 20.01 20.01 0 0 0-1.89-.094 9.543 9.543 0 0 0-3.5.547 7.958 7.958 0 0 0-2.36 1.437v-1.968c-.969.125-1.89.281-2.781.453a18.717 18.717 0 0 0-2.5.687l.125 2.985 2.875-.2V145h4v-15.313a1.865 1.865 0 0 1 .5-1.375 3.721 3.721 0 0 1 1.281-.828 6.684 6.684 0 0 1 1.625-.39 14.849 14.849 0 0 1 1.61-.094l.187 2.219 2.922-.219v-4.578zm-18.953-5.063a34.659 34.659 0 0 0-4.547-1.015A28.524 28.524 0 0 0 10.5 118a18.84 18.84 0 0 0-4.3.469 7.2 7.2 0 0 0-3.344 1.672 8.353 8.353 0 0 0-2.093 3.375 16.744 16.744 0 0 0-.766 5.546v4.766a17.479 17.479 0 0 0 .8 5.813 7.892 7.892 0 0 0 2.156 3.375 7.2 7.2 0 0 0 3.391 1.578 20.812 20.812 0 0 0 4.265.406 18.494 18.494 0 0 0 5.172-.641c1.5-.437 2.844-.875 4.031-1.343l-1.187-2.688-1.641.578a18.248 18.248 0 0 1-1.781.547 17.425 17.425 0 0 1-2.062.391 17.8 17.8 0 0 1-2.532.156 9.158 9.158 0 0 1-2.828-.391 4.463 4.463 0 0 1-2.078-1.375 6.469 6.469 0 0 1-1.266-2.672 17.032 17.032 0 0 1-.437-4.25v-3.468a16.618 16.618 0 0 1 .484-4.438 6.775 6.775 0 0 1 1.375-2.7 4.465 4.465 0 0 1 2.11-1.344 9.729 9.729 0 0 1 2.687-.359 10.046 10.046 0 0 1 2.735.375 15.221 15.221 0 0 1 2.39.891l.11 2.734h2.859z"/><path class="acls-2" fill="url(#aa)" d="M781 252a24 24 0 0 1 44.33-12.76l22.03-13.82A50.007 50.007 0 0 0 755 252h26z" transform="translate(-696 -202)"/><path data-name="Контур" class="acls-3" fill="url(#ab)" d="M755 252a50.007 50.007 0 0 0 92.36 26.58l-.115-.07a13 13 0 1 0-22.538-12.968c-.12.21-.235.419-.342.633A24 24 0 0 1 781 252h-26z" transform="translate(-696 -202)"/><path class="acls-4" fill="#3a6ee8" d="M59 51a13 13 0 1 1 13 13 13 13 0 0 1-13-13z"/><path data-name="Эллипс" class="acls-5" fill="#f9a965" d="M151.181 23.383a13 13 0 1 1-18.024-4.432 12.981 12.981 0 0 1 18.024 4.432z"/><path data-name="Совмещенный контур" class="acls-6" fill="#396de7" d="M205 137.828v-5.547c0-.75-.063-1.594-.156-2.547a7.619 7.619 0 0 0-.813-2.7 5.645 5.645 0 0 0-2.062-2.156 7.507 7.507 0 0 0-3.938-.875c-.844 0-1.656.047-2.453.125-.8.094-1.547.187-2.25.312-.719.125-1.375.25-1.969.391s-1.125.281-1.562.406l.562 3.763 3.375-.156V127h3.422a5.364 5.364 0 0 1 2 .312 2.572 2.572 0 0 1 1.156.907 3.6 3.6 0 0 1 .547 1.547A15.317 15.317 0 0 1 201 132h-3.844a19.515 19.515 0 0 0-3.734.328 8.76 8.76 0 0 0-2.891 1.063 5.391 5.391 0 0 0-1.875 1.875 5.293 5.293 0 0 0-.656 2.7v.547a5.976 5.976 0 0 0 1.812 4.828 7.906 7.906 0 0 0 5.047 1.659h.61c.906 0 1.672 0 2.281-.031a5.589 5.589 0 0 0 1.578-.282 6.152 6.152 0 0 0 1.25-.609c.375-.234.8-.516 1.266-.828h.109a3.183 3.183 0 0 0 .359.8 1.5 1.5 0 0 0 .547.531 2.415 2.415 0 0 0 .86.313A5.925 5.925 0 0 0 205 145a4.244 4.244 0 0 0 1.187-.141 9.485 9.485 0 0 0 1.235-.5l-.344-2.7c-.328.125-.562.219-.7.266a2.12 2.12 0 0 1-.734.078.64.64 0 0 1-.5-.156A2.458 2.458 0 0 1 205 140.7v-2.875zm-4 .938a3.554 3.554 0 0 1-.547 1.609 2.853 2.853 0 0 1-1.016.922 3.78 3.78 0 0 1-1.328.437 9.393 9.393 0 0 1-1.453.11 7.361 7.361 0 0 1-3.453-.657 2.542 2.542 0 0 1-1.2-2.468v-.5a2.52 2.52 0 0 1 1.484-2.516 11.834 11.834 0 0 1 4.735-.7H201v3.766zM176 124v3h3v15h-1.7v3h6.7v-3h-1v-18h-7zm1.844-3.563A3.811 3.811 0 0 0 180 121a3.654 3.654 0 0 0 2.125-.594 2.153 2.153 0 0 0 .875-1.922 2.108 2.108 0 0 0-.875-1.906A3.892 3.892 0 0 0 180 116a3.592 3.592 0 0 0-2.156.609 2.592 2.592 0 0 0 0 3.828zM167 119v20.484a18.634 18.634 0 0 0 .187 2.891 7.823 7.823 0 0 0 .532 1.906 3.109 3.109 0 0 0 1.547 1.719l2.5-.828a4.325 4.325 0 0 1-.5-1.531 15.585 15.585 0 0 1-.266-3.3V116h-7v3h3zm-23 17.609a10.967 10.967 0 0 0 .75 4.438 5.918 5.918 0 0 0 2.016 2.531 6.8 6.8 0 0 0 2.875 1.156 21.247 21.247 0 0 0 6.7 0 6.967 6.967 0 0 0 2.89-1.172 6.105 6.105 0 0 0 2-2.562 11.1 11.1 0 0 0 .766-4.469V132.8a10.953 10.953 0 0 0-.813-4.547 6.929 6.929 0 0 0-2.093-2.672 7.246 7.246 0 0 0-2.875-1.266 16.761 16.761 0 0 0-6.438 0 7.372 7.372 0 0 0-2.906 1.266 6.625 6.625 0 0 0-2.078 2.672 11.126 11.126 0 0 0-.8 4.594v3.765zm4-3.593a8.744 8.744 0 0 1 .469-3.141 4.817 4.817 0 0 1 1.187-1.828 3.786 3.786 0 0 1 1.625-.844A8.435 8.435 0 0 1 153 127a8.286 8.286 0 0 1 1.7.2 3.919 3.919 0 0 1 1.594.828 4.81 4.81 0 0 1 1.219 1.828 8.889 8.889 0 0 1 .484 3.157v3.156a8.4 8.4 0 0 1-.469 3.14 4.538 4.538 0 0 1-1.187 1.75 3.467 3.467 0 0 1-1.625.766 8.519 8.519 0 0 1-1.75.172 8.409 8.409 0 0 1-1.782-.172 3.277 3.277 0 0 1-1.578-.781 4.405 4.405 0 0 1-1.156-1.766 8.569 8.569 0 0 1-.453-3.14v-3.125zm-21 11.078a6.02 6.02 0 0 0 1.859.64 17.078 17.078 0 0 0 3.532.266 13.953 13.953 0 0 0 3.125-.344 6.91 6.91 0 0 0 2.75-1.312 6.675 6.675 0 0 0 1.968-2.641 11.013 11.013 0 0 0 .766-4.422v-3.094a12.385 12.385 0 0 0-.734-4.609 7.6 7.6 0 0 0-1.922-2.812 6.441 6.441 0 0 0-2.719-1.391 12.96 12.96 0 0 0-3.078-.375 13.886 13.886 0 0 0-3.985.469 11.083 11.083 0 0 0-2.578 1.109 3.1 3.1 0 0 0-1.234-1 4.388 4.388 0 0 0-1.75-.312 5.24 5.24 0 0 0-1.438.2l-1.453.468.344 2.329a4.413 4.413 0 0 1 1.516-.266.816.816 0 0 1 .843.453 4.788 4.788 0 0 1 .188 1.609V153c.656-.25 1.313-.469 2-.688s1.344-.453 2-.687v-7.531zm0-15.688a9.652 9.652 0 0 1 2.047-.969A8.535 8.535 0 0 1 131.8 127a6.855 6.855 0 0 1 2 .3 3.827 3.827 0 0 1 1.656 1.047 5.406 5.406 0 0 1 1.125 2.093 11.758 11.758 0 0 1 .422 3.454v1.593a11.078 11.078 0 0 1-.438 3.422 4.81 4.81 0 0 1-1.171 1.953 3.72 3.72 0 0 1-1.7.922 8.77 8.77 0 0 1-2.047.219 11.147 11.147 0 0 1-2.86-.266 11.916 11.916 0 0 1-1.781-.609v-12.722z"/></symbol><symbol viewBox="0 0 33.313 28.75" id="telega" xmlns="http://www.w3.org/2000/svg"><path fill="#fff" class="bcls-1" d="M33.323 1.001l-5.269 26.565a1.95 1.95 0 0 1-2.763.958l-12.159-9.322-4.422-2.137-7.442-2.5a1.95 1.95 0 0 1-1.253-1.29c-.111-.884 1.289-1.363 1.289-1.363L30.891.306s2.432-1.069 2.432.7z"/><path fill="#d2e5f1" data-name="Контур" class="bcls-2" d="M12.197 27.268s-.355-.034-.8-1.434-2.69-8.769-2.69-8.769l17.87-11.348s1.032-.627 1 0c0 0 .185.11-.368.626s-14.04 12.638-14.04 12.638"/><path fill="#b5cfe4" data-name="Контур" class="bcls-3" d="M17.794 22.776l-4.809 4.385a.846.846 0 0 1-.788.107l.921-8.145"/></symbol></svg>