<?xml version="1.0" standalone="no"?>
<!DOCTYPE svg PUBLIC "-//W3C//DTD SVG 20010904//EN"
 "http://www.w3.org/TR/2001/REC-SVG-20010904/DTD/svg10.dtd">
<svg version="1.0" xmlns="http://www.w3.org/2000/svg"
 width="521.000000pt" height="521.000000pt" viewBox="0 0 521.000000 521.000000"
 preserveAspectRatio="xMidYMid meet">
<metadata>
Created by potrace 1.11, written by Peter Selinger 2001-2013
</metadata>
<g transform="translate(0.000000,521.000000) scale(0.100000,-0.100000)"
fill="#000000" stroke="none">
<path d="M2306 5188 c-18 -25 -10 -357 9 -420 15 -46 22 -189 11 -218 -3 -8
-7 -27 -10 -42 -18 -108 -111 -210 -266 -293 -620 -331 -680 -370 -745 -477
-22 -36 -51 -78 -65 -93 -23 -25 -25 -35 -28 -140 -3 -99 -1 -119 18 -160 28
-61 29 -171 3 -212 -24 -36 -29 -202 -9 -254 8 -19 16 -64 17 -100 3 -83 13
-110 55 -148 19 -17 34 -42 35 -54 0 -12 2 -125 4 -252 2 -126 5 -341 7 -476
l3 -246 -29 -38 c-40 -52 -55 -99 -56 -173 0 -35 -5 -73 -11 -85 -17 -31 -14
-172 5 -247 24 -94 27 -175 8 -214 -21 -40 -23 -176 -5 -306 15 -112 51 -192
115 -261 46 -49 158 -129 180 -129 8 0 18 -4 24 -9 20 -20 183 -66 306 -86 18
-3 44 -7 58 -10 14 -2 48 -7 75 -10 28 -3 66 -7 85 -10 221 -27 753 -27 967 0
16 2 55 6 88 9 33 4 96 13 140 21 44 8 91 16 105 19 306 53 512 205 561 412
22 95 19 250 -6 353 -26 107 -26 138 4 204 27 63 28 170 1 275 -11 45 -17 95
-15 122 5 48 13 623 15 1090 1 195 6 303 15 342 17 76 13 232 -9 280 -22 52
-21 149 3 196 15 29 19 60 20 142 1 92 -2 109 -22 142 -12 20 -38 63 -57 95
-39 66 -100 130 -156 166 -22 13 -102 57 -179 97 -77 40 -153 81 -170 90 -28
17 -144 78 -299 159 -89 46 -170 124 -202 195 -44 96 -57 252 -29 334 11 31
16 89 17 200 0 86 5 162 10 169 6 8 5 22 -4 40 l-13 28 -284 0 c-257 0 -284
-2 -295 -17z m-602 -2657 c31 -2 94 -73 106 -122 11 -44 20 -698 10 -700 -3 0
-14 -2 -25 -5 -11 -2 -40 -6 -63 -9 -24 -3 -48 -7 -53 -11 -23 -14 -29 68 -32
429 -2 210 -1 392 1 403 2 14 10 21 20 19 10 -2 25 -4 36 -4z"/>
</g>
</svg>
