<svg xmlns="http://www.w3.org/2000/svg" width="17" height="20" viewBox="0 0 17 20">
  <metadata><?xpacket begin="﻿" id="W5M0MpCehiHzreSzNTczkc9d"?>
<x:xmpmeta xmlns:x="adobe:ns:meta/" x:xmptk="Adobe XMP Core 5.6-c138 79.159824, 2016/09/14-01:09:01        ">
   <rdf:RDF xmlns:rdf="http://www.w3.org/1999/02/22-rdf-syntax-ns#">
      <rdf:Description rdf:about=""/>
   </rdf:RDF>
</x:xmpmeta>
                                                                                                    
                                                                                                    
                                                                                                    
                                                                                                    
                                                                                                    
                                                                                                    
                                                                                                    
                                                                                                    
                                                                                                    
                                                                                                    
                                                                                                    
                                                                                                    
                                                                                                    
                                                                                                    
                                                                                                    
                                                                                                    
                                                                                                    
                                                                                                    
                                                                                                    
                                                                                                    
                           
<?xpacket end="w"?></metadata>
<defs>
    <style>
      .cls-1 {
        fill-rule: evenodd;
      }
    </style>
  </defs>
  <path class="cls-1" d="M413.428,150.777h0.132a3.82,3.82,0,0,0,2.918-1.264c1.593-1.8,1.328-4.879,1.3-5.173a4.225,4.225,0,0,0-2.007-3.756,4.6,4.6,0,0,0-2.227-.584h-0.07a4.617,4.617,0,0,0-2.227.567,4.23,4.23,0,0,0-2.032,3.773c-0.029.294-.293,3.376,1.3,5.173A3.8,3.8,0,0,0,413.428,150.777Zm-3.109-6.333c0-.012,0-0.025,0-0.033,0.136-2.97,2.243-3.289,3.145-3.289h0.05c1.117,0.025,3.017.481,3.145,3.289a0.083,0.083,0,0,0,0,.033c0,0.029.294,2.845-1.022,4.328a2.712,2.712,0,0,1-2.132.886h-0.041a2.7,2.7,0,0,1-2.127-.886C410.034,147.3,410.315,144.469,410.319,144.444ZM422,155.887v-0.012c0-.033,0-0.066,0-0.1-0.025-.82-0.079-2.737-1.875-3.35l-0.042-.013a11.963,11.963,0,0,1-3.435-1.565,0.559,0.559,0,1,0-.641.915,12.862,12.862,0,0,0,3.778,1.727c0.965,0.344,1.072,1.375,1.1,2.32a0.853,0.853,0,0,0,0,.1,7.364,7.364,0,0,1-.087,1.28,16.517,16.517,0,0,1-14.6,0,7.083,7.083,0,0,1-.086-1.28c0-.033,0-0.066,0-0.1,0.029-.944.136-1.975,1.1-2.319A13,13,0,0,0,411,151.754a0.559,0.559,0,1,0-.641-0.915,11.836,11.836,0,0,1-3.435,1.565,0.3,0.3,0,0,0-.042.013c-1.8.617-1.85,2.534-1.875,3.35a0.862,0.862,0,0,1,0,.1v0.012a6.369,6.369,0,0,0,.211,1.876,0.534,0.534,0,0,0,.215.261,17.472,17.472,0,0,0,16.158,0,0.551,0.551,0,0,0,.215-0.261A6.668,6.668,0,0,0,422,155.887Z" transform="translate(-405 -140)"/>
</svg>
