<svg xmlns="http://www.w3.org/2000/svg" width="20" height="20" viewBox="0 0 20 20">
  <metadata><?xpacket begin="﻿" id="W5M0MpCehiHzreSzNTczkc9d"?>
<x:xmpmeta xmlns:x="adobe:ns:meta/" x:xmptk="Adobe XMP Core 5.6-c138 79.159824, 2016/09/14-01:09:01        ">
   <rdf:RDF xmlns:rdf="http://www.w3.org/1999/02/22-rdf-syntax-ns#">
      <rdf:Description rdf:about=""/>
   </rdf:RDF>
</x:xmpmeta>
                                                                                                    
                                                                                                    
                                                                                                    
                                                                                                    
                                                                                                    
                                                                                                    
                                                                                                    
                                                                                                    
                                                                                                    
                                                                                                    
                                                                                                    
                                                                                                    
                                                                                                    
                                                                                                    
                                                                                                    
                                                                                                    
                                                                                                    
                                                                                                    
                                                                                                    
                                                                                                    
                           
<?xpacket end="w"?></metadata>
<defs>
    <style>
      .cls-1 {
        fill-rule: evenodd;
      }
    </style>
  </defs>
  <path class="cls-1" d="M425,179.317h-0.969V174.9a1.931,1.931,0,0,0-1.939-1.919h-1.313l-1.343-2.392a1.171,1.171,0,0,0-1.582-.447l-5.156,2.838h-5.759A1.932,1.932,0,0,0,405,174.9v13.178A1.931,1.931,0,0,0,406.939,190h15.153a1.931,1.931,0,0,0,1.939-1.919v-3.87H425v-4.894h0Zm-2.908-5.566a1.156,1.156,0,0,1,1.15,1.024h-1.457l-0.574-1.024h0.881Zm-3.861-2.935a0.4,0.4,0,0,1,.527.149l2.14,3.809H411.04Zm5.024,17.265a1.158,1.158,0,0,1-1.163,1.151H406.939a1.159,1.159,0,0,1-1.164-1.151V174.9a1.159,1.159,0,0,1,1.164-1.152H411.3l-1.86,1.024h-2.263a0.384,0.384,0,1,0,0,.768h16.074v3.774H420.42a2.38,2.38,0,0,0-2.389,2.365v0.165a2.38,2.38,0,0,0,2.389,2.364h2.835v3.87h0Zm0.969-4.638h-3.8a1.606,1.606,0,0,1-1.613-1.6v-0.165a1.607,1.607,0,0,1,1.613-1.6h3.8v3.359Zm-2.617-1.648a0.856,0.856,0,1,1-.856-0.847A0.851,0.851,0,0,1,421.607,181.8Z" transform="translate(-405 -170)"/>
</svg>
