<svg xmlns="http://www.w3.org/2000/svg" width="20" height="20" viewBox="0 0 20 20">
  <metadata><?xpacket begin="﻿" id="W5M0MpCehiHzreSzNTczkc9d"?>
<x:xmpmeta xmlns:x="adobe:ns:meta/" x:xmptk="Adobe XMP Core 5.6-c138 79.159824, 2016/09/14-01:09:01        ">
   <rdf:RDF xmlns:rdf="http://www.w3.org/1999/02/22-rdf-syntax-ns#">
      <rdf:Description rdf:about=""/>
   </rdf:RDF>
</x:xmpmeta>
                                                                                                    
                                                                                                    
                                                                                                    
                                                                                                    
                                                                                                    
                                                                                                    
                                                                                                    
                                                                                                    
                                                                                                    
                                                                                                    
                                                                                                    
                                                                                                    
                                                                                                    
                                                                                                    
                                                                                                    
                                                                                                    
                                                                                                    
                                                                                                    
                                                                                                    
                                                                                                    
                           
<?xpacket end="w"?></metadata>
<defs>
    <style>
      .cls-1 {
        fill-rule: evenodd;
      }
    </style>
  </defs>
  <path class="cls-1" d="M423.977,317.9l-1.4-.239a8.073,8.073,0,0,0-.564-1.362l0.827-1.157a1.231,1.231,0,0,0-.134-1.592l-1.245-1.245a1.226,1.226,0,0,0-.873-0.363,1.209,1.209,0,0,0-.714.23l-1.162.827a7.826,7.826,0,0,0-1.412-.581l-0.234-1.387a1.233,1.233,0,0,0-1.22-1.032h-1.759a1.233,1.233,0,0,0-1.22,1.032l-0.242,1.42a7.773,7.773,0,0,0-1.358.573l-1.149-.827a1.235,1.235,0,0,0-1.592.133l-1.249,1.245a1.237,1.237,0,0,0-.134,1.592l0.836,1.174a7.735,7.735,0,0,0-.556,1.366l-1.387.234a1.234,1.234,0,0,0-1.032,1.22v1.759a1.233,1.233,0,0,0,1.032,1.22l1.42,0.242a7.773,7.773,0,0,0,.573,1.358l-0.823,1.145a1.232,1.232,0,0,0,.133,1.592l1.246,1.245a1.23,1.23,0,0,0,1.587.134l1.174-.836a7.923,7.923,0,0,0,1.321.543l0.233,1.4a1.236,1.236,0,0,0,1.22,1.032h1.764a1.234,1.234,0,0,0,1.219-1.032l0.239-1.4A7.911,7.911,0,0,0,418.7,327l1.157,0.827a1.224,1.224,0,0,0,.719.23h0a1.226,1.226,0,0,0,.873-0.363l1.245-1.245a1.237,1.237,0,0,0,.134-1.592L422,323.7a7.825,7.825,0,0,0,.564-1.362l1.4-.234a1.233,1.233,0,0,0,1.032-1.22V319.12A1.218,1.218,0,0,0,423.977,317.9Zm-0.1,2.978a0.107,0.107,0,0,1-.091.109l-1.755.292a0.561,0.561,0,0,0-.451.414,6.741,6.741,0,0,1-.727,1.751,0.563,0.563,0,0,0,.025.614l1.032,1.454a0.114,0.114,0,0,1-.013.142l-1.245,1.245a0.105,0.105,0,0,1-.079.033,0.1,0.1,0,0,1-.063-0.021l-1.45-1.032a0.567,0.567,0,0,0-.614-0.025,6.645,6.645,0,0,1-1.751.727,0.554,0.554,0,0,0-.413.452l-0.3,1.754a0.107,0.107,0,0,1-.108.092h-1.759a0.107,0.107,0,0,1-.109-0.092l-0.293-1.754a0.561,0.561,0,0,0-.413-0.452,6.883,6.883,0,0,1-1.713-.7,0.58,0.58,0,0,0-.284-0.075,0.551,0.551,0,0,0-.326.105l-1.462,1.04a0.121,0.121,0,0,1-.063.021,0.108,0.108,0,0,1-.079-0.034l-1.245-1.245a0.113,0.113,0,0,1-.013-0.142l1.028-1.441a0.572,0.572,0,0,0,.025-0.618,6.635,6.635,0,0,1-.736-1.747,0.57,0.57,0,0,0-.451-0.413l-1.767-.3a0.109,0.109,0,0,1-.092-0.109v-1.759a0.108,0.108,0,0,1,.092-0.108l1.742-.293a0.564,0.564,0,0,0,.456-0.418,6.644,6.644,0,0,1,.714-1.754,0.558,0.558,0,0,0-.029-0.61l-1.041-1.463a0.114,0.114,0,0,1,.013-0.142l1.245-1.245a0.106,0.106,0,0,1,.079-0.033,0.1,0.1,0,0,1,.063.021l1.442,1.028a0.574,0.574,0,0,0,.618.025,6.629,6.629,0,0,1,1.746-.736,0.573,0.573,0,0,0,.414-0.451l0.3-1.767a0.107,0.107,0,0,1,.108-0.092h1.759a0.107,0.107,0,0,1,.109.092l0.292,1.742a0.566,0.566,0,0,0,.418.455,6.8,6.8,0,0,1,1.793.736,0.565,0.565,0,0,0,.614-0.025l1.441-1.037a0.129,0.129,0,0,1,.063-0.02,0.111,0.111,0,0,1,.079.033l1.245,1.245a0.113,0.113,0,0,1,.013.142l-1.032,1.45a0.563,0.563,0,0,0-.025.614,6.679,6.679,0,0,1,.727,1.751,0.553,0.553,0,0,0,.451.413l1.755,0.3a0.108,0.108,0,0,1,.092.108v1.759h0Zm-8.878-5.2A4.316,4.316,0,1,0,419.318,320,4.319,4.319,0,0,0,415,315.682Zm0,7.5A3.188,3.188,0,1,1,418.19,320,3.19,3.19,0,0,1,415,323.186Z" transform="translate(-405 -310)"/>
</svg>
