<svg xmlns="http://www.w3.org/2000/svg" width="14" height="16" viewBox="0 0 14 16">
  <metadata><?xpacket begin="﻿" id="W5M0MpCehiHzreSzNTczkc9d"?>
<x:xmpmeta xmlns:x="adobe:ns:meta/" x:xmptk="Adobe XMP Core 5.6-c138 79.159824, 2016/09/14-01:09:01        ">
   <rdf:RDF xmlns:rdf="http://www.w3.org/1999/02/22-rdf-syntax-ns#">
      <rdf:Description rdf:about=""/>
   </rdf:RDF>
</x:xmpmeta>
                                                                                                    
                                                                                                    
                                                                                                    
                                                                                                    
                                                                                                    
                                                                                                    
                                                                                                    
                                                                                                    
                                                                                                    
                                                                                                    
                                                                                                    
                                                                                                    
                                                                                                    
                                                                                                    
                                                                                                    
                                                                                                    
                                                                                                    
                                                                                                    
                                                                                                    
                                                                                                    
                           
<?xpacket end="w"?></metadata>
<defs>
    <style>
      .cls-1 {
        fill: #707070;
        fill-rule: evenodd;
      }
    </style>
  </defs>
  <path class="cls-1" d="M1368.73,215.947l-4.11-3.777a0.532,0.532,0,0,0-.32-0.17h-4.23c-1.3,0-2.19.671-2.19,1.642v1.224h-0.81a1.884,1.884,0,0,0-2.07,1.759v9.553a1.947,1.947,0,0,0,2.07,1.822h7.01a1.844,1.844,0,0,0,1.95-1.822v-1.044h1.05a1.839,1.839,0,0,0,1.83-1.939v-6.764c0-.007.06-0.014,0.06-0.02s0.03-.014.03-0.022A0.446,0.446,0,0,0,1368.73,215.947Zm-4.14-2.355,2.68,2.229h-2.68v-2.229Zm0.48,12.586a0.891,0.891,0,0,1-.99.867h-7.01a1.009,1.009,0,0,1-1.11-.867v-9.553a1,1,0,0,1,1.11-.8h3.69v3.673a0.528,0.528,0,0,0,.6.387h3.71v6.3h0Zm-0.55-7.253h-2.81v-2.359Zm2.56,5.254h-1.05v-4.765a0.428,0.428,0,0,0-.09-0.352l-4.18-3.835a0.465,0.465,0,0,0-.42-0.271c-0.01,0-.01-0.043-0.02-0.043s-0.01-.048-0.02-0.048h-2.46v-1.223c0-.493.72-0.687,1.23-0.687h3.56v3.434a0.534,0.534,0,0,0,.6.387h3.72V223.2A0.886,0.886,0,0,1,1367.08,224.179Z" transform="translate(-1355 -212)"/>
</svg>
