<svg xmlns="http://www.w3.org/2000/svg" width="17" height="16" viewBox="0 0 17 16">
  <metadata><?xpacket begin="﻿" id="W5M0MpCehiHzreSzNTczkc9d"?>
<x:xmpmeta xmlns:x="adobe:ns:meta/" x:xmptk="Adobe XMP Core 5.6-c138 79.159824, 2016/09/14-01:09:01        ">
   <rdf:RDF xmlns:rdf="http://www.w3.org/1999/02/22-rdf-syntax-ns#">
      <rdf:Description rdf:about=""/>
   </rdf:RDF>
</x:xmpmeta>
                                                                                                    
                                                                                                    
                                                                                                    
                                                                                                    
                                                                                                    
                                                                                                    
                                                                                                    
                                                                                                    
                                                                                                    
                                                                                                    
                                                                                                    
                                                                                                    
                                                                                                    
                                                                                                    
                                                                                                    
                                                                                                    
                                                                                                    
                                                                                                    
                                                                                                    
                                                                                                    
                           
<?xpacket end="w"?></metadata>
<defs>
    <style>
      .cls-1 {
        fill: #707070;
        fill-rule: evenodd;
      }
    </style>
  </defs>
  <path id="Forma_1" data-name="Forma 1" class="cls-1" d="M1405.81,176.2l-3.93-4a0.619,0.619,0,0,0-.46-0.2,0.679,0.679,0,0,0-.25.052,0.619,0.619,0,0,0-.4.615v2h-1.64a16.072,16.072,0,0,0-2,.115,10.6,10.6,0,0,0-1.63.317,6.345,6.345,0,0,0-1.27.506,5.585,5.585,0,0,0-.97.64,3.884,3.884,0,0,0-.7.771,4.9,4.9,0,0,0-.48.849,5.639,5.639,0,0,0-.29.917,6.93,6.93,0,0,0-.14.938c-0.02.291-.04,0.608-0.04,0.948a5.047,5.047,0,0,0,.18,1.271,7.683,7.683,0,0,0,.4,1.188c0.14,0.333.31,0.678,0.5,1.036s0.33,0.595.41,0.714,0.14,0.225.21,0.322a0.325,0.325,0,0,0,.27.136,0.671,0.671,0,0,0,.12-0.021,0.315,0.315,0,0,0,.2-0.354q-0.45-3.5.76-4.928,1.17-1.365,4.47-1.365h1.64v2a0.619,0.619,0,0,0,.4.615,0.679,0.679,0,0,0,.25.052,0.589,0.589,0,0,0,.46-0.2l3.93-4A0.674,0.674,0,0,0,1405.81,176.2Zm-2.64,5.8a0.3,0.3,0,0,0-.36.083,2.032,2.032,0,0,1-.55.386,0.33,0.33,0,0,0-.18.3V185a1.622,1.622,0,0,1-.48,1.177,1.571,1.571,0,0,1-1.16.489h-8.5a1.549,1.549,0,0,1-1.15-.489,1.622,1.622,0,0,1-.48-1.177v-8.668a1.623,1.623,0,0,1,.48-1.178,1.549,1.549,0,0,1,1.15-.489h1.15a0.46,0.46,0,0,0,.16-0.042,6.631,6.631,0,0,1,1.36-.625,0.3,0.3,0,0,0,.26-0.333,0.337,0.337,0,0,0-.09-0.235,0.318,0.318,0,0,0-.23-0.1h-2.61a2.817,2.817,0,0,0-2.08.881,2.937,2.937,0,0,0-.86,2.12V185a2.939,2.939,0,0,0,.86,2.12,2.816,2.816,0,0,0,2.08.88h8.5a2.8,2.8,0,0,0,2.08-.88,2.908,2.908,0,0,0,.87-2.12v-2.7A0.324,0.324,0,0,0,1403.17,182Z" transform="translate(-1389 -172)"/>
</svg>
