<svg xmlns="http://www.w3.org/2000/svg" width="20" height="20" viewBox="0 0 20 20">
  <metadata><?xpacket begin="﻿" id="W5M0MpCehiHzreSzNTczkc9d"?>
<x:xmpmeta xmlns:x="adobe:ns:meta/" x:xmptk="Adobe XMP Core 5.6-c138 79.159824, 2016/09/14-01:09:01        ">
   <rdf:RDF xmlns:rdf="http://www.w3.org/1999/02/22-rdf-syntax-ns#">
      <rdf:Description rdf:about=""/>
   </rdf:RDF>
</x:xmpmeta>
                                                                                                    
                                                                                                    
                                                                                                    
                                                                                                    
                                                                                                    
                                                                                                    
                                                                                                    
                                                                                                    
                                                                                                    
                                                                                                    
                                                                                                    
                                                                                                    
                                                                                                    
                                                                                                    
                                                                                                    
                                                                                                    
                                                                                                    
                                                                                                    
                                                                                                    
                                                                                                    
                           
<?xpacket end="w"?></metadata>
<defs>
    <style>
      .cls-1 {
        fill-rule: evenodd;
      }
    </style>
  </defs>
  <path id="Forma_1" data-name="Forma 1" class="cls-1" d="M423.437,271.562h-0.312v-0.625a0.938,0.938,0,0,0-1.875,0v0.625h-12.5v-0.625a0.938,0.938,0,0,0-1.875,0v0.625h-0.313A1.564,1.564,0,0,0,405,273.125v13.75a1.563,1.563,0,0,0,1.562,1.562H410a0.313,0.313,0,0,0,0-.625h-3.438a0.938,0.938,0,0,1-.937-0.937V275h15a0.313,0.313,0,1,0,0-.625h-15v-1.25a0.939,0.939,0,0,1,.937-0.938h0.313v0.625a0.938,0.938,0,1,0,1.875,0v-0.625h12.5v0.625a0.938,0.938,0,1,0,1.875,0v-0.625h0.312a0.939,0.939,0,0,1,.938.938v1.25H423.75a0.313,0.313,0,1,0,0,.625h0.625v11.875a0.938,0.938,0,0,1-.938.937H420a0.313,0.313,0,1,0,0,.625h3.437A1.564,1.564,0,0,0,425,286.875v-13.75A1.565,1.565,0,0,0,423.437,271.562Zm-15.312,1.25a0.313,0.313,0,1,1-.625,0v-0.937h0v-0.938a0.313,0.313,0,0,1,.625,0v1.875Zm14.062,0.313a0.313,0.313,0,0,1-.312-0.313v-1.875a0.313,0.313,0,0,1,.625,0v0.937h0v0.936A0.313,0.313,0,0,1,422.187,273.125ZM422.5,275a0.313,0.313,0,1,0,0-.625h-0.625a0.313,0.313,0,1,0,0,.625H422.5Zm-7.813,2.812h0.626a0.313,0.313,0,0,0,0-.625h-0.626A0.313,0.313,0,0,0,414.687,277.812Zm0,1.563h0.626a0.313,0.313,0,0,0,0-.625h-0.626A0.313,0.313,0,0,0,414.687,279.375Zm2.188-1.563H417.5a0.313,0.313,0,0,0,0-.625h-0.625A0.313,0.313,0,1,0,416.875,277.812Zm0,1.563H417.5a0.313,0.313,0,0,0,0-.625h-0.625A0.313,0.313,0,1,0,416.875,279.375Zm-4.375-1.563h0.625a0.313,0.313,0,1,0,0-.625H412.5A0.313,0.313,0,1,0,412.5,277.812Zm0,1.563h0.625a0.313,0.313,0,1,0,0-.625H412.5A0.313,0.313,0,1,0,412.5,279.375Zm-2.188-1.563h0.625a0.313,0.313,0,1,0,0-.625h-0.625A0.313,0.313,0,0,0,410.312,277.812Zm0,1.563h0.625a0.313,0.313,0,1,0,0-.625h-0.625A0.313,0.313,0,0,0,410.312,279.375Zm0,1.562h0.625a0.313,0.313,0,1,0,0-.625h-0.625A0.313,0.313,0,0,0,410.312,280.937Zm-0.221,1.472a0.315,0.315,0,0,0,.443,0,0.313,0.313,0,0,0-.222-0.534A0.313,0.313,0,0,0,410.091,282.409Zm8.972-4.6h0.624a0.313,0.313,0,1,0,0-.625h-0.624A0.313,0.313,0,1,0,419.063,277.812Zm0,1.563h0.624a0.313,0.313,0,1,0,0-.625h-0.624A0.313,0.313,0,1,0,419.063,279.375Zm0,1.562h0.624a0.313,0.313,0,1,0,0-.625h-0.624A0.313,0.313,0,1,0,419.063,280.937Zm0.4,1.029a0.315,0.315,0,1,0,.221-0.091A0.317,0.317,0,0,0,419.466,281.966Zm1.472-4.466a0.311,0.311,0,0,0,.312.312h0.625a0.313,0.313,0,0,0,0-.625H421.25A0.312,0.312,0,0,0,420.938,277.5Zm0.312,1.875h0.625a0.313,0.313,0,0,0,0-.625H421.25A0.313,0.313,0,0,0,421.25,279.375Zm0,1.562h0.625a0.313,0.313,0,0,0,0-.625H421.25A0.313,0.313,0,0,0,421.25,280.937Zm0,1.563h0.625a0.313,0.313,0,0,0,0-.625H421.25A0.313,0.313,0,0,0,421.25,282.5Zm0,1.562h0.625a0.313,0.313,0,0,0,0-.625H421.25A0.313,0.313,0,0,0,421.25,284.062Zm0,1.563h0.625a0.313,0.313,0,0,0,0-.625H421.25A0.313,0.313,0,0,0,421.25,285.625Zm-12.5-8.438h-0.625a0.313,0.313,0,0,0,0,.625h0.625A0.313,0.313,0,0,0,408.75,277.187Zm0,1.563h-0.625a0.313,0.313,0,0,0,0,.625h0.625A0.313,0.313,0,0,0,408.75,278.75Zm0,1.562h-0.625a0.313,0.313,0,0,0,0,.625h0.625A0.313,0.313,0,0,0,408.75,280.312Zm0,1.563h-0.625a0.313,0.313,0,0,0,0,.625h0.625A0.313,0.313,0,0,0,408.75,281.875Zm0,1.562h-0.625a0.313,0.313,0,0,0,0,.625h0.625A0.313,0.313,0,0,0,408.75,283.437Zm0,1.563h-0.625a0.313,0.313,0,0,0,0,.625h0.625A0.313,0.313,0,0,0,408.75,285Zm6.25-4.375a4.688,4.688,0,1,0,4.687,4.687A4.693,4.693,0,0,0,415,280.625Zm0.313,8.738v-0.3a0.313,0.313,0,0,0-.626,0v0.3a4.07,4.07,0,0,1-3.738-3.738h0.3a0.313,0.313,0,1,0,0-.625h-0.3a4.069,4.069,0,0,1,3.738-3.738v0.3a0.313,0.313,0,0,0,.626,0v-0.3A4.068,4.068,0,0,1,419.05,285h-0.3a0.313,0.313,0,1,0,0,.625h0.3A4.068,4.068,0,0,1,415.313,289.363ZM417.5,285h-1.616a0.944,0.944,0,0,0-.571-0.571v-1.617a0.313,0.313,0,0,0-.626,0v1.617a0.937,0.937,0,1,0,1.2,1.2H417.5A0.313,0.313,0,0,0,417.5,285Zm-2.5.625a0.313,0.313,0,1,1,.313-0.313A0.313,0.313,0,0,1,415,285.625Z" transform="translate(-405 -270)"/>
</svg>
