<svg xmlns="http://www.w3.org/2000/svg" width="15" height="20" viewBox="0 0 15 20">
  <metadata><?xpacket begin="﻿" id="W5M0MpCehiHzreSzNTczkc9d"?>
<x:xmpmeta xmlns:x="adobe:ns:meta/" x:xmptk="Adobe XMP Core 5.6-c138 79.159824, 2016/09/14-01:09:01        ">
   <rdf:RDF xmlns:rdf="http://www.w3.org/1999/02/22-rdf-syntax-ns#">
      <rdf:Description rdf:about=""/>
   </rdf:RDF>
</x:xmpmeta>
                                                                                                    
                                                                                                    
                                                                                                    
                                                                                                    
                                                                                                    
                                                                                                    
                                                                                                    
                                                                                                    
                                                                                                    
                                                                                                    
                                                                                                    
                                                                                                    
                                                                                                    
                                                                                                    
                                                                                                    
                                                                                                    
                                                                                                    
                                                                                                    
                                                                                                    
                                                                                                    
                           
<?xpacket end="w"?></metadata>
<defs>
    <style>
      .cls-1 {
        fill-rule: evenodd;
      }
    </style>
  </defs>
  <path id="Forma_1" data-name="Forma 1" class="cls-1" d="M421.589,231.382H419a1.051,1.051,0,0,0-1-.691h-1.093a1.792,1.792,0,0,0-2.828,0h-1.094a1.051,1.051,0,0,0-1,.691H409.41a1.388,1.388,0,0,0-1.41,1.361v15.9A1.388,1.388,0,0,0,409.41,250h12.179A1.388,1.388,0,0,0,423,248.639v-15.9A1.389,1.389,0,0,0,421.589,231.382ZM412,233.413a1.051,1.051,0,0,0,1,.691h5.015a1.051,1.051,0,0,0,1-.691H420.9V247.97H410.1V233.413H412Zm1-2.074h1.274a0.338,0.338,0,0,0,.29-0.161,1.106,1.106,0,0,1,1.888,0,0.336,0.336,0,0,0,.29.161h1.273a0.375,0.375,0,0,1,.381.367v1.382h0a0.375,0.375,0,0,1-.381.367h-5.015a0.375,0.375,0,0,1-.38-0.367h0v-1.383A0.375,0.375,0,0,1,412.992,231.339Zm9.336,17.3a0.727,0.727,0,0,1-.739.713H409.41a0.727,0.727,0,0,1-.738-0.713v-15.9a0.727,0.727,0,0,1,.738-0.713h2.53v0.735h-2.171a0.33,0.33,0,0,0-.336.324v15.205a0.33,0.33,0,0,0,.336.324h11.462a0.33,0.33,0,0,0,.336-0.324V233.089a0.33,0.33,0,0,0-.336-0.324H419.06V232.03h2.529a0.727,0.727,0,0,1,.739.713v15.9ZM415.5,232.721a0.33,0.33,0,0,0,.336-0.324v-0.691a0.336,0.336,0,0,0-.672,0V232.4A0.33,0.33,0,0,0,415.5,232.721Zm0.358,4.493h2.149a0.324,0.324,0,1,0,0-.648h-2.149A0.324,0.324,0,1,0,415.858,237.214Zm0,1.382h3.582a0.324,0.324,0,1,0,0-.648h-3.582A0.324,0.324,0,1,0,415.858,238.6ZM412.4,238.5a0.34,0.34,0,0,0,.237.095,0.344,0.344,0,0,0,.238-0.095l1.791-1.728a0.316,0.316,0,0,0,0-.458,0.346,0.346,0,0,0-.475,0l-1.554,1.5-0.837-.808a0.346,0.346,0,0,0-.475,0,0.317,0.317,0,0,0,0,.459Zm3.461,2.169h2.149a0.324,0.324,0,1,0,0-.648h-2.149A0.324,0.324,0,1,0,415.858,240.67Zm0,1.382h3.582a0.324,0.324,0,1,0,0-.648h-3.582A0.324,0.324,0,1,0,415.858,242.052Zm-3.461-.095a0.34,0.34,0,0,0,.237.095,0.344,0.344,0,0,0,.238-0.095l1.791-1.728a0.316,0.316,0,0,0,0-.458,0.344,0.344,0,0,0-.475,0l-1.554,1.5-0.837-.808a0.346,0.346,0,0,0-.475,0,0.316,0.316,0,0,0,0,.458Zm3.461,2.168h2.149a0.324,0.324,0,1,0,0-.648h-2.149A0.324,0.324,0,1,0,415.858,244.125Zm0,1.383h3.582a0.324,0.324,0,1,0,0-.648h-3.582A0.324,0.324,0,1,0,415.858,245.508Zm-3.461-.095a0.34,0.34,0,0,0,.237.095,0.344,0.344,0,0,0,.238-0.095l1.791-1.728a0.316,0.316,0,0,0,0-.458,0.344,0.344,0,0,0-.475,0l-1.554,1.5-0.837-.807a0.344,0.344,0,0,0-.475,0,0.316,0.316,0,0,0,0,.458Z" transform="translate(-408 -230)"/>
</svg>
