<svg xmlns="http://www.w3.org/2000/svg" width="30" height="20" viewBox="0 0 30 20">
  <metadata><?xpacket begin="﻿" id="W5M0MpCehiHzreSzNTczkc9d"?>
<x:xmpmeta xmlns:x="adobe:ns:meta/" x:xmptk="Adobe XMP Core 5.6-c138 79.159824, 2016/09/14-01:09:01        ">
   <rdf:RDF xmlns:rdf="http://www.w3.org/1999/02/22-rdf-syntax-ns#">
      <rdf:Description rdf:about=""/>
   </rdf:RDF>
</x:xmpmeta>
                                                                                                    
                                                                                                    
                                                                                                    
                                                                                                    
                                                                                                    
                                                                                                    
                                                                                                    
                                                                                                    
                                                                                                    
                                                                                                    
                                                                                                    
                                                                                                    
                                                                                                    
                                                                                                    
                                                                                                    
                                                                                                    
                                                                                                    
                                                                                                    
                                                                                                    
                                                                                                    
                           
<?xpacket end="w"?></metadata>
<defs>
    <style>
      .cls-1 {
        fill-rule: evenodd;
      }
    </style>
  </defs>
  <path id="lite" class="cls-1" d="M1264.86,389l-2.86,3.128-1.06-1.049-0.67.636,1.77,1.744,3.52-3.859Zm4.48,0.526h11.02v0.907h-11.02v-0.907Zm0,2.715H1290v0.907h-20.66v-0.907Zm0,4.871h11.02v0.907h-11.02v-0.907Zm0,2.715H1290v0.907h-20.66v-0.907Zm0,4.872h11.02v0.907h-11.02V404.7Zm0,2.715H1290v0.907h-20.66v-0.907Zm-6.81-10.982a2.49,2.49,0,1,0,2.54,2.49A2.517,2.517,0,0,0,1262.53,396.432Zm0,4.073a1.583,1.583,0,1,1,1.6-1.583A1.586,1.586,0,0,1,1262.53,400.505Zm0,3.514a2.491,2.491,0,1,0,2.54,2.49A2.516,2.516,0,0,0,1262.53,404.019Zm0,4.073a1.583,1.583,0,1,1,1.6-1.583A1.586,1.586,0,0,1,1262.53,408.092Z" transform="translate(-1260 -389)"/>
</svg>
