<?xml version="1.0" standalone="no"?>
<!DOCTYPE svg PUBLIC "-//W3C//DTD SVG 20010904//EN"
 "http://www.w3.org/TR/2001/REC-SVG-20010904/DTD/svg10.dtd">
<svg version="1.0" xmlns="http://www.w3.org/2000/svg"
 width="568.000000pt" height="568.000000pt" viewBox="0 0 568.000000 568.000000"
 preserveAspectRatio="xMidYMid meet">
<metadata>
Created by potrace 1.11, written by Peter Selinger 2001-2013
</metadata>
<g transform="translate(0.000000,568.000000) scale(0.100000,-0.100000)"
fill="#000000" stroke="none">
<path d="M4409 4306 c-2 -2 -29 -7 -59 -11 -408 -50 -738 -276 -829 -568 -26
-81 -32 -123 -31 -227 0 -435 227 -640 1000 -905 307 -105 437 -181 487 -284
24 -48 28 -68 28 -141 0 -75 -3 -91 -27 -132 -48 -81 -118 -128 -229 -154 -13
-3 -76 -7 -139 -9 -244 -6 -426 69 -490 201 -31 62 -50 140 -50 202 l0 52
-324 0 c-250 0 -325 -3 -328 -12 -3 -7 -4 -40 -2 -73 13 -285 138 -502 380
-657 114 -73 340 -165 448 -182 21 -3 41 -8 45 -10 31 -19 421 -29 546 -14
203 25 388 91 529 188 169 117 262 262 304 475 3 17 5 82 5 145 -4 388 -200
621 -693 825 -36 14 -139 51 -229 82 -481 162 -615 257 -597 425 14 134 105
226 266 269 81 21 251 19 326 -5 69 -21 152 -78 190 -129 25 -34 73 -139 74
-162 0 -3 0 -20 0 -39 l0 -33 324 0 c375 0 336 -15 324 120 -17 181 -88 328
-225 464 -143 144 -377 255 -603 288 -51 8 -415 17 -421 11z"/>
<path d="M3 2839 l0 -1429 335 0 334 0 -5 483 c-3 265 -8 505 -11 532 -2 28
-7 118 -11 200 -3 83 -8 184 -10 225 -2 41 -6 122 -9 180 -3 58 -8 168 -12
245 -3 77 -4 138 -2 135 5 -5 20 -47 133 -380 35 -102 127 -372 205 -600 78
-228 175 -512 215 -630 40 -118 86 -253 102 -300 l30 -85 226 -3 c125 -1 227
-1 227 1 0 2 19 57 41 123 49 142 229 667 339 989 43 127 95 277 115 335 20
58 37 110 38 115 2 6 5 15 8 20 2 6 36 103 74 217 66 195 88 246 80 181 -2
-16 -6 -98 -10 -183 -6 -148 -9 -221 -20 -425 -2 -49 -7 -146 -11 -215 -3 -69
-8 -161 -10 -205 -3 -44 -7 -277 -9 -518 l-4 -437 337 0 337 0 -2 1308 c-1
719 -2 1362 -2 1429 l-1 122 -438 0 -439 -1 -73 -226 c-40 -125 -88 -272 -106
-327 -51 -157 -250 -771 -314 -970 -32 -99 -80 -246 -107 -327 -26 -82 -50
-148 -53 -148 -3 0 -15 33 -28 73 -12 39 -52 164 -88 277 -36 113 -83 259
-104 325 -73 230 -262 821 -302 945 -22 69 -47 148 -55 175 -8 28 -18 59 -23
70 -5 11 -15 40 -21 65 -7 25 -16 50 -21 57 -7 8 -123 11 -442 11 l-433 0 0
-1429z"/>
</g>
</svg>
