<?xml version="1.0" encoding="utf-8"?><svg xmlns="http://www.w3.org/2000/svg" xmlns:xlink="http://www.w3.org/1999/xlink"><symbol viewBox="0 0 491.86 491.86" id="add" xmlns="http://www.w3.org/2000/svg"><path d="M465.167 211.614H280.245V26.691c0-8.424-11.439-26.69-34.316-26.69s-34.316 18.267-34.316 26.69v184.924H26.69C18.267 211.614 0 223.053 0 245.929s18.267 34.316 26.69 34.316h184.924v184.924c0 8.422 11.438 26.69 34.316 26.69s34.316-18.268 34.316-26.69V280.245H465.17c8.422 0 26.69-11.438 26.69-34.316s-18.27-34.315-26.693-34.315z"/></symbol><symbol viewBox="0 0 511.63 511.63" id="bell" xmlns="http://www.w3.org/2000/svg"><path d="M411.404 288.506c-18.455-45.014-27.685-92.455-27.685-142.325 0-31.405-9.131-56.337-27.398-74.802-18.28-18.464-43.406-29.602-75.383-33.407 1.52-3.424 2.279-6.945 2.279-10.562 0-7.614-2.663-14.091-7.991-19.416C269.898 2.663 263.427 0 255.812 0c-7.61 0-14.083 2.663-19.414 7.994-5.33 5.329-7.993 11.802-7.993 19.416 0 3.617.76 7.135 2.285 10.562-31.977 3.809-57.103 14.942-75.375 33.407-18.271 18.464-27.406 43.396-27.406 74.802 0 49.87-9.229 97.311-27.694 142.325-18.464 45.015-45.776 82.847-81.942 113.492 0 9.896 3.617 18.463 10.85 25.693 7.232 7.231 15.796 10.852 25.697 10.852h127.907c0 20.178 7.135 37.404 21.411 51.675 14.277 14.273 31.504 21.412 51.678 21.412 20.177 0 37.404-7.139 51.675-21.412 14.273-14.271 21.412-31.497 21.412-51.675H456.81c9.897 0 18.47-3.613 25.694-10.852 7.234-7.23 10.852-15.797 10.852-25.693-36.16-30.645-63.475-68.477-81.952-113.492zM255.816 488.787c-13.894 0-25.747-4.896-35.548-14.698-9.801-9.804-14.703-21.658-14.703-35.553 0-3.046 1.524-4.568 4.568-4.568 3.046 0 4.57 1.522 4.57 4.568 0 11.231 4.043 20.889 12.132 28.982 8.091 8.094 17.749 12.135 28.98 12.135 3.046 0 4.575 1.53 4.575 4.569.002 3.046-1.528 4.565-4.574 4.565z"/></symbol><symbol viewBox="0 0 511.626 511.626" id="chat" xmlns="http://www.w3.org/2000/svg"><path d="M301.927 327.605c30.926-13.038 55.34-30.785 73.23-53.248 17.888-22.458 26.833-46.915 26.833-73.372 0-26.458-8.945-50.917-26.84-73.376-17.888-22.459-42.298-40.208-73.228-53.249-30.93-13.039-64.571-19.556-100.928-19.556-36.354 0-69.995 6.521-100.927 19.556-30.929 13.04-55.34 30.789-73.229 53.249C8.947 150.072 0 174.527 0 200.986c0 22.648 6.767 43.975 20.28 63.96 13.512 19.981 32.071 36.829 55.671 50.531-1.902 4.572-3.853 8.754-5.852 12.566a72.375 72.375 0 0 1-7.139 10.991 984.53 984.53 0 0 0-6.423 8.275c-1.523 1.998-3.997 4.812-7.425 8.422-3.427 3.617-5.617 5.996-6.567 7.135 0-.191-.381.24-1.143 1.287-.763 1.047-1.191 1.52-1.285 1.431-.096-.103-.477.373-1.143 1.42l-1 1.571-.715 1.423a6.114 6.114 0 0 0-.57 1.712c-.096.567-.144 1.19-.144 1.854s.094 1.28.288 1.854c.381 2.471 1.475 4.466 3.283 5.996 1.807 1.52 3.756 2.279 5.852 2.279h.857c9.515-1.332 17.701-2.854 24.552-4.569 29.312-7.61 55.771-19.797 79.372-36.545 17.129 3.046 33.879 4.568 50.247 4.568 36.357.013 70.002-6.502 100.931-19.542z"/><path d="M491.354 338.166c13.518-19.889 20.272-41.247 20.272-64.09 0-23.414-7.146-45.316-21.416-65.68-14.277-20.362-33.694-37.305-58.245-50.819 4.374 14.274 6.563 28.739 6.563 43.398 0 25.503-6.368 49.676-19.129 72.519-12.752 22.836-31.025 43.01-54.816 60.524-22.08 15.988-47.205 28.261-75.377 36.829-28.164 8.562-57.573 12.848-88.218 12.848-5.708 0-14.084-.377-25.122-1.137 38.256 25.119 83.177 37.685 134.756 37.685 16.371 0 33.119-1.526 50.251-4.571 23.6 16.755 50.06 28.931 79.37 36.549 6.852 1.718 15.037 3.237 24.554 4.568 2.283.191 4.381-.476 6.283-1.999 1.903-1.522 3.142-3.61 3.71-6.272-.089-1.143 0-1.77.287-1.861.281-.09.233-.712-.144-1.852-.376-1.144-.568-1.715-.568-1.715l-.712-1.424a13.68 13.68 0 0 0-.999-1.567c-.476-.66-.855-1.143-1.143-1.427-.28-.284-.705-.763-1.28-1.424-.568-.66-.951-1.092-1.143-1.283-.951-1.143-3.139-3.521-6.564-7.139-3.429-3.613-5.899-6.42-7.422-8.418a867.888 867.888 0 0 0-6.424-8.282 72.209 72.209 0 0 1-7.139-10.991c-1.998-3.806-3.949-7.995-5.852-12.56 23.602-13.716 42.156-30.513 55.667-50.409z"/></symbol><symbol viewBox="0 0 212.982 212.982" id="close" xmlns="http://www.w3.org/2000/svg"><path d="M131.804 106.491l75.936-75.936c6.99-6.99 6.99-18.323 0-25.312-6.99-6.99-18.322-6.99-25.312 0L106.491 81.18 30.554 5.242c-6.99-6.99-18.322-6.99-25.312 0-6.989 6.99-6.989 18.323 0 25.312l75.937 75.936-75.937 75.937c-6.989 6.99-6.989 18.323 0 25.312 6.99 6.99 18.322 6.99 25.312 0l75.937-75.937 75.937 75.937c6.989 6.99 18.322 6.99 25.312 0 6.99-6.99 6.99-18.322 0-25.312l-75.936-75.936z" fill-rule="evenodd" clip-rule="evenodd"/></symbol><symbol viewBox="0 0 124.075 124.075" id="down" xmlns="http://www.w3.org/2000/svg"><path d="M54.628 120.7c3.5 4.5 10.2 4.5 13.601 0l44.1-54.9c4.4-5.7.4-13.8-6.8-13.8h-14.7c-4.7 0-8.2-4.2-8.2-9V8.6c0-4.8-4.2-8.6-9-8.6h-23.1c-4.8 0-8.9 3.8-8.9 8.6V43c0 4.7-3.6 9-8.3 9h-14.8c-7.1 0-11.2 8-6.8 13.7l42.899 55z"/></symbol><symbol viewBox="0 0 473.68 473.68" id="en" xmlns="http://www.w3.org/2000/svg"><path d="M41.712 102.641c-15.273 22.168-26.88 47.059-33.918 73.812h107.734l-73.816-73.812zM170.511 9.48a235.987 235.987 0 0 0-74.814 37.168l74.814 74.814V9.48zm-69.25 421.502a235.633 235.633 0 0 0 69.25 33.211v-102.45l-69.25 69.239zM10.512 306.771c7.831 25.366 19.831 48.899 35.167 69.833l69.833-69.833h-105z" fill="#29337a"/><path d="M45.619 97.144a241.902 241.902 0 0 0-3.908 5.501l73.816 73.812H7.793c-1.746 6.645-3.171 13.418-4.345 20.284h141.776L45.619 97.144zm50.148 329.93c1.802 1.343 3.654 2.621 5.493 3.908l69.25-69.242v102.45c6.653 1.945 13.41 3.624 20.284 4.974V332.05l-95.027 95.024zM5.25 286.487c1.47 6.873 3.205 13.642 5.258 20.284h105.001l-69.833 69.833a238.435 238.435 0 0 0 25.168 29.12L190.08 286.487H5.25zM170.511 9.48v111.982l-74.815-74.81c-10.314 7.67-19.955 16.185-28.888 25.403l123.983 123.983V4.506c-6.87 1.358-13.627 3.041-20.28 4.974z" fill="#fff"/><path d="M170.511 306.056l-.711.715h.711zm19.573-19.569h.71v-.714zm91.145-89.75h-.684v.688zm-110.019-20.28l-.699-.703v.703zm19.584 19.58v.7h.7z" fill="#d32030"/><path d="M300.825 411.764v53.091a235.482 235.482 0 0 0 70.211-32.897l-57.526-57.526c-4.597 16.151-6.279 24.501-12.685 37.332zm12.987-303.293l62.799-62.799a235.938 235.938 0 0 0-75.787-36.854v54.538c7.386 14.79 8.007 26.028 12.988 45.115zm113.217 269.513c15.815-21.275 28.141-45.29 36.147-71.213h-107.36l71.213 71.213zm38.858-201.527c-7.188-27.318-19.143-52.676-34.898-75.192l-75.2 75.192h110.098z" fill="#252f6c"/><path d="M327.638 290.5l16.275 16.275 77.903 77.903c1.769-2.214 3.526-4.42 5.217-6.69l-71.213-71.213h107.36c2.046-6.638 3.784-13.41 5.25-20.284H329.16c-.228 2.876-1.249 1.152-1.522 4.009zm-16.286-170.152l70.607-70.615a245.581 245.581 0 0 0-5.348-4.061l-62.799 62.799c.651 2.483-3.066 9.334-2.46 11.877zm-10.527-61.356V8.814a236.39 236.39 0 0 0-20.284-4.727v24.476c7.547 8.182 14.312 18.459 20.284 30.429zm25.216 137.745h144.195c-1.171-6.866-2.599-13.635-4.345-20.284H355.793l75.2-75.192a238.044 238.044 0 0 0-24.584-29.696l-84.702 84.694c2.281 15.363 3.302 24.285 4.334 40.478zm-15.953 174.265l60.952 60.959c10.138-6.982 19.685-14.753 28.593-23.189l-80.173-80.177c-2.559 14.828-5.595 29.15-9.372 42.407zm-29.543 71.299v27.28a233.85 233.85 0 0 0 20.284-4.727v-53.091c-5.976 11.975-12.741 22.367-20.284 30.538z" fill="#e7e7e7"/><path d="M321.707 156.259l84.694-84.694a236.803 236.803 0 0 0-24.446-21.832l-66.55 66.561c2.958 12.363 4.301 26.514 6.302 39.965z" fill="#d71f28"/><path d="M225.019.292zm11.817 473.388c-3.938 0-7.872-.108-11.81-.299 3.916.198 7.85.299 11.81.299zm0 0c14.943 0 29.535-1.447 43.708-4.099v-27.28c-12.441 13.485-26.995 31.379-43.708 31.379z" fill="#d32030"/><path d="M470.232 196.737H327.911c1.885 29.704 1.657 60.249-.681 89.75h141.2a237.59 237.59 0 0 0 5.25-49.643c0-13.68-1.219-27.06-3.448-40.107zM327.638 290.5c-1.316 13.994-5.901 24.898-8.182 38.099l80.173 80.173a239.086 239.086 0 0 0 22.183-24.094l-77.9-77.907-16.274-16.271z" fill="#d71f28"/><path d="M280.545 30.324V4.091C266.376 1.447 251.784 0 236.836 0c16.713 0 31.267 16.843 43.709 30.324z" fill="#d32030"/><path d="M300.825 422.007c6.406-12.834 11.899-27.609 16.499-43.757l-16.499-16.499v60.256zm18.552-319.101c-4.989-19.087-11.166-36.439-18.552-51.229v69.773l18.552-18.544z" fill="#29337a"/><path d="M332.234 295.092c.269-2.857.512-5.725.744-8.605h-9.349l8.605 8.605zm-31.409-173.641V51.674c-5.976-11.97-12.737-22.254-20.284-30.429v129.906l40.735-40.735a457.616 457.616 0 0 0-1.9-7.517l-18.551 18.552zm-19.596 75.286h52.429c-1.028-16.192-2.666-32.123-4.944-47.482l-47.485 47.482zm-.684 255.695c7.547-8.182 14.308-18.459 20.284-30.429v-60.256l16.499 16.499c3.784-13.264 6.959-27.434 9.525-42.261l-46.307-46.304-.001 162.751z" fill="#fff"/><path d="M280.545 452.432V289.681l46.304 46.307c2.277-13.205 4.069-26.899 5.381-40.896l-8.605-8.605h9.349c2.337-29.502 2.565-60.047.681-89.75h-52.429l47.482-47.482c-2.001-13.455-4.476-26.469-7.434-38.836l-40.728 40.735V21.248C268.103 7.763 253.549 0 236.836 0c-3.938 0-7.872.101-11.817.292a238.416 238.416 0 0 0-34.225 4.215v191.531L66.808 72.055a239.134 239.134 0 0 0-21.189 25.089l79.313 79.313 20.291 20.284H3.448C1.227 209.784 0 223.164 0 236.844c0 17.034 1.84 33.626 5.25 49.643h184.834L70.847 405.724a238.535 238.535 0 0 0 24.921 21.349l95.023-95.023v137.116a238.638 238.638 0 0 0 34.232 4.215c3.938.191 7.872.299 11.81.299 16.716 0 31.27-7.763 43.712-21.248z" fill="#e51d35"/></symbol><symbol viewBox="0 0 31.865 31.865" id="giftbox" xmlns="http://www.w3.org/2000/svg"><path d="M26.603 23.643l-9.712 5.607v-7.236l-.31.155a1.85 1.85 0 0 1-.647.121c-.21 0-.424-.04-.639-.118l-.052-.007-.168-.078-.099-.05v7.213l-9.712-5.607v-6.496l-1.914-.963v8.012c0 .342.183.658.479.828l11.626 6.714a.958.958 0 0 0 .958 0l11.625-6.714a.953.953 0 0 0 .479-.828v-8.014l-1.914.959v6.502zM16.626 4.459l-.394-.129a.97.97 0 0 0-.598 0l-.393.129c.256.588.488 1.177.691 1.737.205-.56.439-1.149.694-1.737z"/><path d="M29.854 9.475l.002-.019c-.001-.02-.01-.039-.012-.059a.995.995 0 0 0-.071-.274.93.93 0 0 0-.083-.152c-.019-.026-.034-.052-.055-.076a.92.92 0 0 0-.13-.127c-.021-.018-.041-.039-.064-.055-.006-.003-.009-.009-.015-.013a.927.927 0 0 0-.222-.107l-.006-.003-2.406-.791c-.111.123-.223.24-.328.346-1.1 1.1-2.956 2.016-4.678 2.697l2.049.832v4.72l-2.84 1.432v-4.931l-3.252-1.719c.84-.226 6.019-1.682 8.043-3.708.592-.59 1.371-1.505 1.32-2.633-.05-1.125-.836-1.784-1.468-2.313-.181-.151-.373-.311-.558-.493-.183-.183-.342-.376-.494-.558-.52-.62-1.229-1.47-2.416-1.47-1.084 0-1.963.754-2.529 1.321-2.029 2.029-3.484 7.217-3.709 8.049-.224-.829-1.68-6.02-3.71-8.049C11.656.754 10.777 0 9.694 0 8.507 0 7.797.85 7.277 1.47c-.151.181-.31.374-.493.557-.183.183-.377.342-.557.494-.633.53-1.419 1.188-1.469 2.314-.05 1.127.729 2.043 1.32 2.633 2.025 2.027 7.21 3.483 8.046 3.708l-3.254 1.719v4.931l-2.84-1.432v-4.72l2.051-.833c-1.724-.682-3.582-1.598-4.68-2.697a10.367 10.367 0 0 1-.328-.346l-2.405.791-.006.002a1.01 1.01 0 0 0-.222.108c-.006.003-.009.009-.015.013-.024.017-.043.037-.065.055-.047.04-.091.08-.129.126-.021.024-.037.05-.055.077a.973.973 0 0 0-.083.152c-.012.029-.024.057-.033.087a.846.846 0 0 0-.037.188c-.003.02-.012.038-.013.059l.002.019-.003.024v4.348c0 .362.204.692.526.854l12.966 6.529c.014.007.028.004.043.01a.956.956 0 0 0 .388.092.956.956 0 0 0 .388-.092c.016-.006.029-.003.043-.01l12.967-6.529a.959.959 0 0 0 .525-.854V9.499c.002-.007-.001-.016-.001-.024zm-9.196-7.137c1.868-1.868 2.273-.431 3.411.706 1.136 1.137 2.572 1.542.704 3.41-1.867 1.868-7.47 3.355-7.47 3.355s1.486-5.603 3.355-7.471zm-12.859.705c1.137-1.136 1.542-2.573 3.41-.705 1.869 1.869 3.355 7.471 3.355 7.471S8.961 8.323 7.093 6.455c-1.868-1.868-.43-2.274.706-3.412z"/></symbol><symbol viewBox="0 0 444.531 444.531" id="left" xmlns="http://www.w3.org/2000/svg"><path d="M213.13 222.409L351.88 83.653c7.05-7.043 10.567-15.657 10.567-25.841 0-10.183-3.518-18.793-10.567-25.835l-21.409-21.416C323.432 3.521 314.817 0 304.637 0s-18.791 3.521-25.841 10.561L92.649 196.425c-7.044 7.043-10.566 15.656-10.566 25.841s3.521 18.791 10.566 25.837l186.146 185.864c7.05 7.043 15.66 10.564 25.841 10.564s18.795-3.521 25.834-10.564l21.409-21.412c7.05-7.039 10.567-15.604 10.567-25.697 0-10.085-3.518-18.746-10.567-25.978L213.13 222.409z"/></symbol><symbol viewBox="0 0 424 424" id="menu" xmlns="http://www.w3.org/2000/svg"><path d="M35 89C15 89 0 74 0 54s15-36 35-36h353c20 0 36 16 36 36s-16 35-36 35H35zm353 87c20 0 36 16 36 36s-16 35-36 35H35c-20 0-35-15-35-35s15-36 35-36h353zm0 159c20 0 36 15 36 35s-16 36-36 36H35c-20 0-35-16-35-36s15-35 35-35h353z" fill="#010002"/></symbol><symbol viewBox="0 0 348.077 348.077" id="phone" xmlns="http://www.w3.org/2000/svg"><path d="M340.273 275.083l-53.755-53.761c-10.707-10.664-28.438-10.34-39.518.744l-27.082 27.076a792.327 792.327 0 0 1-5.344-2.973c-17.102-9.476-40.509-22.464-65.14-47.113-24.704-24.701-37.704-48.144-47.209-65.257-1.003-1.813-1.964-3.561-2.913-5.221l18.176-18.149 8.936-8.947c11.097-11.1 11.403-28.826.721-39.521L73.39 8.194c-10.682-10.68-28.421-10.356-39.518.744l-15.15 15.237.414.411c-5.08 6.482-9.325 13.958-12.484 22.02C3.74 54.28 1.927 61.603 1.098 68.941-6 127.785 20.89 181.564 93.866 254.541c100.875 100.868 182.167 93.248 185.674 92.876 7.638-.913 14.958-2.738 22.397-5.627 7.992-3.122 15.463-7.361 21.941-12.43l.331.294 15.348-15.029c11.074-11.098 11.393-28.83.716-39.542z"/></symbol><symbol viewBox="0 0 232.153 232.153" id="play" xmlns="http://www.w3.org/2000/svg"><path d="M203.791 99.628L49.307 2.294C44.74-.425 39.069.028 34.786.028 17.654.028 17.73 13.255 17.73 16.606v198.94c0 2.833-.075 16.579 17.056 16.579 4.283 0 9.955.451 14.521-2.267l154.483-97.333c12.68-7.545 10.489-16.449 10.489-16.449s2.192-8.904-10.488-16.448z" fill-rule="evenodd" clip-rule="evenodd"/></symbol><symbol viewBox="0 0 512 512" id="question" xmlns="http://www.w3.org/2000/svg"><circle cx="255.984" cy="492" r="20"/><path d="M412.979 155.775C412.321 69.765 342.147 0 255.984 0c-86.57 0-157 70.43-157 157 0 11.046 8.954 20 20 20s20-8.954 20-20c0-64.514 52.486-117 117-117s117 52.486 117 117c0 .356.009.71.028 1.062a116.936 116.936 0 0 1-71.12 106.661c-40.038 17.094-65.908 56.675-65.908 100.839V412c0 11.046 8.954 20 20 20s20-8.954 20-20v-46.438c0-28.117 16.334-53.258 41.614-64.051a156.884 156.884 0 0 0 95.418-144.516c0-.41-.013-.816-.037-1.22z"/></symbol><symbol viewBox="0 0 512 512" id="ru" xmlns="http://www.w3.org/2000/svg"><circle cx="256" cy="256" r="256" fill="#f0f0f0"/><path d="M496.077 345.043C506.368 317.31 512 287.314 512 256s-5.632-61.31-15.923-89.043H15.923C5.633 194.69 0 224.686 0 256s5.633 61.31 15.923 89.043L256 367.304l240.077-22.261z" fill="#0052b4"/><path d="M256 512c110.071 0 203.906-69.472 240.077-166.957H15.923C52.094 442.528 145.929 512 256 512z" fill="#d80027"/></symbol><symbol viewBox="0 0 512 512" id="ua" xmlns="http://www.w3.org/2000/svg"><circle cx="256" cy="256" r="256" fill="#ffda44"/><path d="M0 256C0 114.616 114.616 0 256 0s256 114.616 256 256" fill="#338af3"/></symbol></svg>