<svg xmlns="http://www.w3.org/2000/svg" viewBox="0 0 95.89 92.96"><defs><style>.cls-1{fill:#1e3264}</style></defs><g id="Слой_2" data-name="Слой 2"><g id="Layer_1" data-name="Layer 1"><path class="cls-1" d="M18.33 52.44c4.6-1.81 5.37-5.74 6.16-7.1 1-1.76 2.77-3.55 2.84-4.2.1-.9-1.53-2-3.79.07a27.49 27.49 0 0 0-2.33 3.48 11.23 11.23 0 0 1-.15-4.39c.16-.69 1.83-6.71 2-7.82s.16-2.45-.72-2.65-1.45.88-1.63 1.67-1.42 4.17-1.71 5.3-.73 2-1 1.88c-.38-.15 1.06-6.72 1-9.18 0-.64.09-2.09-1.11-2.18s-1.35 1.55-1.46 2.24-.47 2.82-.62 3.95-.73 4.75-1.1 4.82-.17-2.67-.28-4.42 0-2.88-.12-4.36-1.13-1.35-1.13-1.35c-1.49.26-1.36 2.52-1.4 4.63 0 1.49-.06 2.89 0 3.36.07 1.16.3 3.07-.49 3.2-.6.09-1.49-3.33-1.49-3.33-.33-.89-.34-4-1.78-3.64-1.67.47.38 7.41.5 8.22s-.29 1.88-.48 4.47 1.07 3.81 1.64 5.81C10 51.79 2.86 81.18 0 93h11.41c1.76-11.92 6.01-40.2 6.92-40.56z"/><path class="cls-1" d="M42.54 31.24c1.12-2.39 2.95-3.67 3.22-6.95s0-4.7.3-5.7 4.28-9.27 2.29-10.2c-1.71-.8-2.37 3.15-3 4.2 0 0-1.81 4.11-2.54 3.87-1-.32-.29-2.67 0-4.11.13-.59.37-2.35.64-4.22.38-2.66 1-5.46-.81-6.09 0 0-1.28-.38-1.68 1.47S40.5 6.72 40 9s-.8 5.65-1.25 5.48-.44-4.82-.4-6.26 0-4.18 0-5.07S38.51.13 37 0s-1.69 1.71-1.84 2.51c-.56 3.07-.09 11.59-.59 11.71-.3.07-.7-1.07-.81-2.55s-1-6-1-7-.58-2.48-1.76-2.4S29.61 4 29.58 5.45s.83 9.31.9 10.2a14.28 14.28 0 0 1-1.07 5.46 34.91 34.91 0 0 0-2.22-4.83c-2.41-3.11-4.67-2-4.73-.86 0 .83 1.81 3.43 2.72 5.84.71 1.87.88 7 6.28 10.14 1.18.7.35 47.26.08 61.55h15.77C46.23 78.72 42 32.37 42.54 31.24zm25.55 17.13c1-2.09 2.58-3.21 2.82-6.08s0-4.12.26-5 3.75-8.11 2-8.93c-1.5-.7-2.07 2.76-2.59 3.68 0 0-1.59 3.6-2.22 3.39-.85-.28-.26-2.34 0-3.6.12-.52.33-2.06.56-3.7.33-2.33.88-4.78-.71-5.33 0 0-1.12-.33-1.47 1.28s-.46 2.8-.9 4.76-.7 4.95-1.09 4.8-.39-4.22-.35-5.49 0-3.66 0-4.44.13-2.61-1.21-2.72-1.48 1.5-1.61 2.2c-.49 2.69-.08 10.15-.52 10.25-.26.06-.61-.94-.71-2.23s-.83-5.21-.89-6.11S59 22.94 58 23s-1.22 1.54-1.26 2.78.73 8.15.78 8.93a12.49 12.49 0 0 1-.94 4.78 30.54 30.54 0 0 0-1.94-4.23c-2.11-2.72-4.09-1.75-4.14-.75 0 .73 1.58 3 2.38 5.11.62 1.64.77 6.09 5.5 8.88 1 .58.54 33.46.35 44.44h12.05C70 82 67.65 49.3 68.09 48.37zm22.35 13.11c3.61-3 3.16-6.71 3.48-8.16.4-1.87 1.47-4 1.34-4.6-.17-.83-2-1.39-3.38 1.16a26 26 0 0 0-1.09 3.8 10.62 10.62 0 0 1-1.4-3.9c-.06-.66-.3-6.55-.49-7.6s-.56-2.25-1.41-2.18-1 1.21-1 2v5.25c0 1.11-.08 2-.31 2-.38 0-1-6.35-1.75-8.54-.2-.57-.53-1.9-1.63-1.64s-.76 1.78-.66 2.44.39 2.67.58 3.73.72 4.48.41 4.65-.92-2.35-1.53-3.89-.87-2.58-1.37-3.88-1.4-.89-1.4-.89c-1.26.66-.49 2.66.09 4.57.41 1.35.78 2.61.95 3 .4 1 1.16 2.67.48 3-.51.26-2.3-2.56-2.3-2.56-.56-.71-1.48-3.54-2.65-2.76-1.36.91 2.49 6.54 2.83 7.24s.29 1.77.86 4.15 2.06 3.11 3.15 4.74c.44.66 2.42 21.64 3.25 30.35h10.4c-1.82-9.11-6.13-30.96-5.45-31.48z"/></g></g></svg>