<?xml version="1.0" encoding="utf-8"?><svg xmlns="http://www.w3.org/2000/svg" xmlns:xlink="http://www.w3.org/1999/xlink"><symbol viewBox="0 -31 512 512" id="cart" xmlns="http://www.w3.org/2000/svg"><path d="M164.96 300.004h.024c.02 0 .04-.004.059-.004H437a15.003 15.003 0 0 0 14.422-10.879l60-210a15.003 15.003 0 0 0-2.445-13.152A15.006 15.006 0 0 0 497 60H130.367l-10.722-48.254A15.003 15.003 0 0 0 105 0H15C6.715 0 0 6.715 0 15s6.715 15 15 15h77.969c1.898 8.55 51.312 230.918 54.156 243.71C131.184 280.64 120 296.536 120 315c0 24.812 20.188 45 45 45h272c8.285 0 15-6.715 15-15s-6.715-15-15-15H165c-8.27 0-15-6.73-15-15 0-8.258 6.707-14.977 14.96-14.996zM477.114 90l-51.43 180H177.032l-40-180zM150 405c0 24.813 20.188 45 45 45s45-20.188 45-45-20.188-45-45-45-45 20.188-45 45zm45-15c8.27 0 15 6.73 15 15s-6.73 15-15 15-15-6.73-15-15 6.73-15 15-15zm167 15c0 24.813 20.188 45 45 45s45-20.188 45-45-20.188-45-45-45-45 20.188-45 45zm45-15c8.27 0 15 6.73 15 15s-6.73 15-15 15-15-6.73-15-15 6.73-15 15-15zm0 0"/></symbol><symbol viewBox="0 0 288.861 288.861" id="facebook" xmlns="http://www.w3.org/2000/svg"><path d="M167.172 288.861h-62.16V159.347H70.769v-59.48h34.242v-33.4C105.011 35.804 124.195 0 178.284 0c19.068 0 33.066 1.787 33.651 1.864l5.739.746-1.382 55.663-6.324-.058c-.013 0-14.223-.135-29.724-.135-11.536 0-13.066 2.847-13.066 14.171V99.88h50.913l-2.821 59.48h-48.086v129.501h-.012zm-49.314-12.854h36.453V146.5h48.677l1.607-33.779h-50.284V72.238c0-13.368 3.078-27.025 25.919-27.025 9.178 0 17.899.045 23.509.09l.778-31.292a300.444 300.444 0 0 0-26.247-1.157c-44.544 0-60.419 27.693-60.419 53.613v46.254H83.61V146.5h34.242v129.507h.006z"/></symbol><symbol viewBox="0 0 48 48" id="instagram" xmlns="http://www.w3.org/2000/svg"><path d="M40.4 5.5h-4.8A2.602 2.602 0 0 0 33 8.1v4.8c0 1.434 1.166 2.6 2.6 2.6h4.8c1.434 0 2.6-1.166 2.6-2.6V8.1c0-1.434-1.166-2.6-2.6-2.6zm.6 7.4a.6.6 0 0 1-.6.6h-4.8a.6.6 0 0 1-.6-.6V8.1a.6.6 0 0 1 .6-.6h4.8a.6.6 0 0 1 .6.6v4.8z"/><path d="M37.8.5H10.2C4.576.5 0 5.089 0 10.731V37.27C0 42.911 4.576 47.5 10.2 47.5h27.6c5.624 0 10.2-4.589 10.2-10.23V10.731C48 5.089 43.424.5 37.8.5zM46 37.27c0 4.538-3.679 8.23-8.2 8.23H10.2c-4.522 0-8.2-3.692-8.2-8.23V19.5h12.221A13.948 13.948 0 0 0 10 29.5c0 7.72 6.28 14 14 14s14-6.28 14-14c0-3.916-1.62-7.457-4.221-10H46v17.77zM36 29.5c0 6.617-5.383 12-12 12s-12-5.383-12-12 5.383-12 12-12 12 5.383 12 12zm-4.826-12c-2.101-1.261-4.55-2-7.174-2s-5.073.739-7.174 2H2v-6.769C2 6.192 5.679 2.5 10.2 2.5h27.6c4.521 0 8.2 3.692 8.2 8.231V17.5H31.174z"/><path d="M15 29.5c0 4.962 4.037 9 9 9s9-4.038 9-9-4.037-9-9-9-9 4.038-9 9zm16 0c0 3.86-3.141 7-7 7s-7-3.14-7-7 3.141-7 7-7 7 3.14 7 7z"/></symbol><symbol viewBox="0 0 373 94" id="logo" xmlns="http://www.w3.org/2000/svg"><defs><path id="da" d="M.649 1.136H41.52v59.449H.649z"/><path id="dc" d="M.998 1.351h272.477v24.44H.998z"/></defs><g fill="none" fill-rule="evenodd"><path d="M8.137 41.528h-2.67v11.74c0 .782.061 1.433.184 1.96.125.524.462.974 1.018 1.36.553.382 1.41.575 2.564.575 2.396 0 4.098-.997 5.113-2.987.696-1.373 1.044-2.91 1.044-4.621 0-1.24-.174-2.359-.521-3.362-.348-1-.827-1.84-1.433-2.51-.608-.67-1.373-1.196-2.291-1.58-.921-.383-1.923-.575-3.008-.575zm-2.67-.994h1.699c1.39 0 2.378-.18 2.972-.533a6.63 6.63 0 0 0 1.176-.973c.407-.413.794-1.062 1.166-1.945.371-.884.556-1.953.556-3.206 0-.975-.123-1.899-.37-2.776a7.71 7.71 0 0 0-1.08-2.334c-.471-.675-1.031-1.208-1.68-1.592a4.098 4.098 0 0 0-2.123-.573c-.672 0-1.444.163-2.316.486v13.446zm4.28 17.623H0v-.355h.354c.66 0 1.228-.296 1.707-.895.48-.598.718-1.49.718-2.687V29.631c0-1.163-.224-2.069-.665-2.71-.443-.64-1.042-.96-1.796-.96H0v-.376h8.508c1.122 0 2.154.202 3.097.607a6.953 6.953 0 0 1 2.398 1.68 7.774 7.774 0 0 1 1.51 2.434c.356.906.532 1.89.532 2.953 0 1.96-.507 3.55-1.521 4.776-1.015 1.222-2.376 2.122-4.087 2.695v.092c.778.101 1.527.255 2.247.464a7.389 7.389 0 0 1 1.944.86c.58.366 1.122.848 1.63 1.44.46.53.846 1.11 1.167 1.743a8.92 8.92 0 0 1 .725 2.07c.165.742.25 1.507.25 2.286 0 1.698-.353 3.158-1.055 4.382-.7 1.222-1.495 2.153-2.379 2.784-1.264.87-3.002 1.306-5.22 1.306zM23.341 25.96v-.375h15.53v5.128h-.244c0-2.74-1.465-4.11-4.39-4.11H28.81v14.79h4.774c.944 0 1.788-.189 2.532-.573.742-.385 1.166-1.26 1.27-2.63h.266v7.386h-.265c-.105-.842-.307-1.486-.602-1.939-.294-.447-.585-.746-.876-.895-.286-.146-.544-.218-.768-.218a6.362 6.362 0 0 0-1.326-.135H28.81v11.568c0 .867.13 1.622.397 2.252.266.635.88.953 1.85.953h3.872c.932 0 1.7-.168 2.3-.509.6-.34 1.076-.812 1.424-1.415.347-.604.64-1.334.876-2.188h.248l-.904 5.108H23.34v-.356h.354c.554 0 1.096-.279 1.628-.84.53-.56.796-1.47.796-2.742V29.676c0-1.003-.18-1.871-.54-2.61-.36-.739-.986-1.105-1.884-1.105h-.354zm21.112 31.843h.351c.64 0 1.202-.313 1.69-.939.492-.627.734-1.509.734-2.643V29.63c0-1.356-.27-2.299-.82-2.83a2.877 2.877 0 0 0-1.955-.84v-.376h8.332v.376c-.732.028-1.38.3-1.946.818-.566.516-.85 1.469-.85 2.851v23.772c0 1.415.284 2.395.85 2.94.566.545 1.495.82 2.777.82h2.248c.977 0 1.76-.147 2.343-.443.584-.293 1.047-.743 1.39-1.35.34-.604.687-1.456 1.043-2.564h.3l-.992 5.353H44.453v-.355zM73.4 25.584v.376c-.778 0-1.437.275-1.98.82-.543.542-.814 1.45-.814 2.716V54.22c0 1.252.288 2.162.867 2.728.576.57 1.22.854 1.927.854v.354h-8.26v-.354c.752 0 1.407-.278 1.954-.83.547-.553.823-1.471.823-2.752V29.496c0-1.354-.276-2.283-.823-2.784a2.8 2.8 0 0 0-1.954-.752v-.376h8.26zm5.174.376v-.375h15.532v5.128h-.245c0-2.74-1.465-4.11-4.39-4.11h-5.43v14.79h4.775c.945 0 1.789-.189 2.532-.573.742-.385 1.166-1.26 1.273-2.63h.263v7.386h-.263c-.107-.842-.309-1.486-.604-1.939-.292-.447-.584-.746-.875-.895-.287-.146-.545-.218-.77-.218a6.334 6.334 0 0 0-1.324-.135h-5.007v11.568c0 .867.133 1.622.4 2.252.263.635.88.953 1.848.953h3.873c.931 0 1.698-.168 2.3-.509.6-.34 1.076-.812 1.424-1.415.346-.604.64-1.334.877-2.188h.245l-.902 5.108H78.574v-.356h.354c.555 0 1.096-.279 1.628-.84.53-.56.797-1.47.797-2.742V29.676c0-1.003-.18-1.871-.54-2.61-.362-.739-.986-1.105-1.885-1.105h-.354zm44.288-.376v.376c-.661.104-1.21.384-1.647.842-.435.456-.806 1.05-1.115 1.78-.305.728-.654 1.696-1.043 2.907-.057.073-.119.25-.177.53l-7.537 26.998h-.245l-8.882-29.21a.765.765 0 0 0-.072-.264c-.34-1.255-.792-2.168-1.351-2.74-.56-.577-1.26-.858-2.1-.843v-.376h8.564v.376c-.72.089-1.297.266-1.733.531-.437.265-.655.899-.655 1.9 0 .268.095.813.284 1.64.024.072.043.15.062.23.017.082.031.142.043.188l6.847 22.866h.072l5.872-21.296c.414-1.458.619-2.555.619-3.295 0-1.164-.198-1.902-.594-2.213-.394-.308-.981-.491-1.76-.551v-.376h6.548zm4.251.376v-.375h15.532v5.128h-.245c0-2.74-1.466-4.11-4.39-4.11h-5.43v14.79h4.775c.944 0 1.788-.189 2.53-.573.744-.385 1.168-1.26 1.274-2.63h.264v7.386h-.264c-.106-.842-.308-1.486-.6-1.939-.295-.447-.588-.746-.877-.895-.288-.146-.544-.218-.77-.218a6.368 6.368 0 0 0-1.325-.135h-5.006v11.568c0 .867.132 1.622.398 2.252.265.635.88.953 1.849.953h3.873c.93 0 1.697-.168 2.3-.509a3.743 3.743 0 0 0 1.423-1.415c.347-.604.64-1.334.877-2.188h.247l-.903 5.108h-15.532v-.356h.354c.555 0 1.096-.279 1.628-.84.53-.56.796-1.47.796-2.742V29.676c0-1.003-.179-1.871-.538-2.61-.361-.739-.988-1.105-1.886-1.105h-.354z" fill="#231F20"/><g transform="translate(159.045 -.703)"><mask id="db" fill="#fff"><use xlink:href="#da"/></mask><path d="M36.776 47.854l-.268 2.065-.646 1.426-.94 2.147-.788.943-1.21 1.48c-.653.852-1.685 1.42-3.092 1.7l-1.923.602-2.375-.118h-.381l-.636.302.035-.236-.715-.246-1.054-.455h-.866l-.866-.428-1.849-.118c-.253 0-.59-.253-1.023-.756.158-.469.433-.877.831-1.245v-.241l-.152-4.152.23-1.488-.751-2.663.637-1.425.036-.639v-.663l-.152-1.818-.186-2.605c0-.347.085-.686.265-1.029l1.772-1.12 2.49-1.7c.35-.202.79-.302 1.318-.302l2.077.424 3.502.391 1.324.788 2.032 1.363c.682.444 1.157.901 1.433 1.361l.488 1.128 1.098.875c.121.086.187.337.187.758l-.04 1.032.376 3.906-.218.756zm4.63-4.725l-.485-1.18-.344-2.149-.226-.517-.867-1.027-.487-1.307-.757-.818-.454-.698c-.053-.08-.138-.117-.26-.117-.257 0-.468.19-.647.571l-.79-.179c-.101-.726-.323-1.25-.677-1.576-.351-.324-.969-.585-1.85-.79-.696-.2-1.744-.322-3.125-.36-.205-.303-.414-.458-.646-.458l-1.313.06-.642-.06-.114.637c-.204.083-.489.123-.869.123-.325 0-.606-.254-.828-.76l-2.414.939c-.878.365-1.483.55-1.808.55-.148 0-.406-.066-.752-.185-.503.67-.948 1-1.32 1-.148 0-.36-.061-.605-.182-.554-.283-.83-.553-.83-.818l.714-1.908c.13-.383.192-.718.192-.999l-.192-2.12-.036-.667c-.428-.3-.692-.533-.808-.7-.116-.161-.183-.462-.21-.909l-.04-1 .643-.244c.529-.22.795-.574.795-1.058l-.38-2.607.188-2.371 3.54.04.303-.132 5.09-.172 1.058-.028c.427-.31.308-.476.761-.492.214-.003.37.022.467.07l.556.284c.037.032.112.05.196.046l.359-.533s.47-.016.396-.235l-.073-.217.243-.227s.285.116.358-.115l.073-.23-.453-.704-1.547-.441a6.01 6.01 0 0 0-1.082-.11l-1.672.198-.155.05c-.274.304-.49.502-.646.58-.166.087-.476.146-.946.173l-1.055.051-.33-.438c-.29-.363-.693-.537-1.207-.522l-2.172.338-2.116-.057-.58-.956c-.054-.038-.08-.121-.08-.242 0-.222.05-.455.15-.696l.679-1.24-.303-3.73.38-1.183-.043-1.362.308-1.361v-.124c0-.263-.216-.68-.645-1.24l.303-.61c.306-.826.454-1.343.454-1.544 0-.26-.106-.493-.321-.694a1.046 1.046 0 0 0-.738-.305.85.85 0 0 0-.563.182l-.982.546-1.36.453-1.052.938-.681.608c.027.244.163.557.415.937l.49 1.184-.376 3.212.49 1.424c.63.059.942.374.942.937 0 .446-.312.84-.942 1.18l-.076.49c0 .239.117.574.345.997l.297.758-.712 1.304v.604l-.15.068c-.038.037-.12.054-.25.054a2.725 2.725 0 0 1-.752-.083l-1.393-.44-3.92.312-1.293-.233-.888.069-1.475-.174-.126.005c-.28.008-.147.173-.699.488l-.676-.196c-.912-.188-1.47-.28-1.687-.275-.28.01-.51.087-.702.242-.197.152-.272.324-.24.52a.56.56 0 0 0 .252.388l.68.667.636.935 1.102.113.718.46c.255-.023.02-.136.401-.32l1.207.217 2.888.174L10 19.5c-.005-.439.291-.664.89-.682.473-.01.922.2 1.351.627l.526.04c.257-.007.6-.097 1.023-.266l.773-.23.521.167.01.096-.187 3.336.146.818.041 5.337v.993c.429.446.638.88.638 1.304 0 .205-.037.347-.113.423l-.452.998c-.051.045-.073.106-.073.185l.073 1.301-.073 2.184.374 2.608-.112.816-.034.363.034.428.713.63-.074.73-.414-.059-.259.513.073 1.67-.15 4.391.077.393 1.017.481.032.489-.146.94c-.374 0-.635.087-.773.259-.136.168-.233.44-.285.802l.038 3.422-.416.728-.3.7c-.028.221-.308.542-.83.968l-.675.696.038.76.035.666.34.061.337-.121 2.373-1.124 1.32.517 2.156.182 3.386 1.03h1.133l1.618.515h.079l2.301-.424 1.996-.516 2.261-1.062 1.205-.728 2.794-2.996 1.281-.912 1.057-1.698.6-.784.114-.695.148-.31a6.57 6.57 0 0 1-.148-1.237c0-.346.148-.735.45-1.182l.38.118c.856-1.491 1.282-2.837 1.282-4.03 0-.403-.04-.735-.113-1z" fill="#91278F" mask="url(#db)"/></g><path d="M235.23 41.528h-2.67v11.74c0 .782.06 1.433.182 1.96.125.524.466.974 1.019 1.36.553.382 1.412.575 2.567.575 2.393 0 4.097-.997 5.111-2.987.697-1.373 1.043-2.91 1.043-4.621 0-1.24-.173-2.359-.518-3.362-.353-1-.826-1.84-1.436-2.51-.608-.67-1.371-1.196-2.29-1.58-.92-.383-1.924-.575-3.009-.575zm-2.67-.994h1.696c1.392 0 2.386-.18 2.974-.533a6.608 6.608 0 0 0 1.176-.973c.408-.413.794-1.062 1.168-1.945.37-.884.559-1.953.559-3.206 0-.975-.125-1.899-.373-2.776a7.713 7.713 0 0 0-1.082-2.334 5.414 5.414 0 0 0-1.68-1.592 4.101 4.101 0 0 0-2.121-.573c-.672 0-1.444.163-2.317.486v13.446zm4.278 17.623h-9.743v-.355h.353c.657 0 1.229-.296 1.708-.895.475-.598.715-1.49.715-2.687V29.631c0-1.163-.223-2.069-.664-2.71-.441-.64-1.042-.96-1.794-.96h-.318v-.376h8.508c1.12 0 2.152.202 3.097.607.94.406 1.742.968 2.395 1.68a7.804 7.804 0 0 1 1.512 2.434c.354.906.533 1.89.533 2.953 0 1.96-.511 3.55-1.523 4.776-1.016 1.222-2.376 2.122-4.088 2.695v.092c.781.101 1.527.255 2.25.464a7.389 7.389 0 0 1 1.944.86 7.26 7.26 0 0 1 1.628 1.44c.46.53.85 1.11 1.166 1.743.32.636.562 1.326.728 2.07.165.742.248 1.507.248 2.286 0 1.698-.353 3.158-1.055 4.382-.702 1.222-1.494 2.153-2.38 2.784-1.26.87-3.002 1.306-5.22 1.306zm19.097-14.441h8.298l-4.246-15.458h-.074l-3.978 15.458zm5.927-18.531l7.8 27.906c.416 1.448.802 2.494 1.17 3.143.365.648.716 1.058 1.05 1.226.339.169.766.285 1.283.345v.352h-8.505v-.352c.867 0 1.542-.102 2.017-.311.466-.206.704-.767.704-1.68 0-.5-.115-1.173-.335-2.011a.784.784 0 0 1-.072-.267l-2.314-8.648h-9.023l-2.071 8.007c-.287 1.09-.429 1.967-.429 2.63 0 .913.188 1.522.549 1.827.368.301.89.453 1.563.453v.352h-6.125v-.352c.875-.102 1.573-.523 2.096-1.252.526-.728.981-1.839 1.373-3.327l7.362-28.041h1.907zm42.604.399v.376c-.66.104-1.182.26-1.562.475-.386.214-.684.634-.897 1.261-.212.626-.318 1.53-.318 2.707v28.572h-.178l-20.006-27.904v20.032c0 1.664.051 2.904.157 3.714.109.811.262 1.393.462 1.747.435.769 1.199 1.18 2.282 1.239v.354h-6.528v-.354c.73-.044 1.301-.24 1.707-.586.405-.348.693-.98.864-1.903.173-.92.26-2.308.26-4.165V29.897l-.868-1.215c-.767-1.095-1.381-1.782-1.84-2.069-.458-.288-1.033-.506-1.718-.653v-.376h4.905l19.703 27.6V32.15c0-1.576-.047-2.755-.148-3.538-.102-.78-.367-1.408-.795-1.878-.433-.47-1.106-.73-2.026-.775v-.376h6.544zm10.553 1.548v25.807c0 1.268.16 2.199.486 2.798.326.594.83.983 1.514 1.159.684.176 1.687.265 3.006.265 1.886 0 3.478-.232 4.777-.693 1.297-.467 2.554-1.502 3.767-3.11.9-1.193 1.615-2.653 2.16-4.38.544-1.722.812-3.811.812-6.257 0-1.929-.218-3.844-.653-5.739-.436-1.892-1.104-3.577-2.002-5.05-1.002-1.667-2.288-2.973-3.862-3.916-1.577-.943-3.468-1.414-5.685-1.414-1.145 0-2.586.176-4.32.53zm-5.466-1.17v-.378h10.031c1.403 0 2.698.15 3.883.453 1.184.305 2.25.705 3.187 1.205.934.502 1.748 1.053 2.431 1.65a12.419 12.419 0 0 1 1.73 1.822 16.358 16.358 0 0 1 2.106 3.44 18.39 18.39 0 0 1 1.3 3.99c.292 1.402.434 2.845.434 4.335 0 1.489-.14 2.903-.423 4.245a17.318 17.318 0 0 1-1.222 3.726 15.365 15.365 0 0 1-1.902 3.108 14.799 14.799 0 0 1-2.573 2.52 10.934 10.934 0 0 1-2.882 1.503c-1.087.385-2.551.576-4.404.576h-11.696v-.353h.356c.813 0 1.42-.384 1.822-1.15.4-.768.6-1.578.6-2.433V29.632c0-.828-.109-1.519-.328-2.082-.22-.559-.51-.964-.874-1.213a2.12 2.12 0 0 0-1.22-.376h-.356zm44.214 5.88h-.28c-.167-1.577-.72-2.96-1.66-4.148-.936-1.185-2.17-1.778-3.705-1.778-1 0-1.893.294-2.67.884-.778.59-1.378 1.393-1.802 2.41-.426 1.019-.64 2.184-.64 3.495 0 1.017.128 1.918.383 2.71a6.293 6.293 0 0 0 1.122 2.087c.496.605 1.08 1.17 1.751 1.69.67.527 1.578 1.187 2.724 1.982 1.913 1.313 3.399 2.621 4.459 3.926 1.062 1.303 1.592 3.094 1.592 5.362a9.775 9.775 0 0 1-.858 4.013 7.6 7.6 0 0 1-2.592 3.171c-1.154.827-2.59 1.24-4.298 1.24-1.074 0-2.023-.144-2.848-.43a13.45 13.45 0 0 1-2.513-1.207c-.353-.147-.598-.22-.727-.22-.245 0-.41.109-.485.334-.078.217-.18.697-.308 1.435h-.303v-8.157h.303c.425 2.384 1.248 4.191 2.474 5.415 1.228 1.225 2.721 1.837 4.476 1.837 1.321 0 2.379-.313 3.175-.929.8-.619 1.349-1.374 1.655-2.255.307-.884.46-1.77.46-2.657 0-1.826-.444-3.318-1.337-4.477-.888-1.155-2.242-2.34-4.057-3.55-1.251-.852-2.177-1.515-2.776-1.99-.604-.468-1.213-1.084-1.832-1.834-.62-.752-1.115-1.643-1.479-2.665-.364-1.026-.549-2.198-.549-3.526 0-1.534.324-2.999.973-4.401.65-1.402 1.569-2.524 2.761-3.372 1.194-.848 2.54-1.274 4.05-1.274 1.147 0 2.32.245 3.521.73.19.119.44.179.76.179.39 0 .656-.331.8-.995h.28v6.965zm-194.654 9.145a2.21 2.21 0 1 1-4.42-.003 2.21 2.21 0 0 1 4.42.003m56.344 0a2.207 2.207 0 1 1-4.416 0 2.208 2.208 0 1 1 4.416 0M366.18 29.693c0 .198-.043.345-.043.69 0 .147.126.345.252.345.25 0 .294.05.294.098 0 .05 0 .098-.126.098-.254 0-.714-.049-.84-.049-.085 0-.418.049-.712.049-.085 0-.128-.049-.128-.098 0-.098.043-.098.17-.098h.126c.209 0 .376-.147.42-.69l.587-5.27c0-.149.123-.345.209-.345.083 0 .168.099.208.248l1.973 4.826 1.973-4.878c.04-.146.124-.196.208-.196.084 0 .124.196.124.345l.548 5.074c.084.74.25.886.629.886h.083c.127 0 .167.05.167.098 0 .05-.04.098-.123.098-.254 0-1.176-.049-1.344-.098-.084 0-.168-.048-.168-.197l-.336-4.04h-.042l-1.595 3.843c-.124.296-.209.492-.293.492-.125 0-.21-.247-.294-.492l-1.635-3.891h-.041l-.251 3.152zm-1.806-5.074c.253 0 .379 0 .503-.048.128-.049.211-.049.254-.049.042 0 0 .097 0 .297v.885c0 .15-.085.246-.126.246-.045 0-.045-.048-.085-.197l-.043-.197c-.04-.246-.084-.395-.755-.395h-.838v5.025c0 .344.126.443.335.491l.21.05c.169 0 .21.05.21.1 0 .048-.041.097-.21.097-.293 0-.88-.049-.965-.049-.084 0-.67.049-1.006.049-.167 0-.167-.049-.167-.098 0-.048.041-.098.167-.098h.21c.335-.05.38-.344.38-.542.04-.443.04-.788.04-1.675v-3.35h-1.006c-.506 0-.714.198-.756.494-.043.198-.043.198-.127.198-.042 0-.083-.05-.083-.198 0-.248.167-.984.167-1.036a.23.23 0 0 1 .043-.146c.084 0 .125.049.334.098.21.048.505.048.588.048h2.726z" fill="#231F20"/><g transform="translate(80.239 68.073)"><mask id="dd" fill="#fff"><use xlink:href="#dc"/></mask><path d="M10.974 7.203c0-.438-.34-1.01-.845-1.27-.622-.336-2.145-.75-3.303-.93-.197-.052-.252-.052-.226-.208a.467.467 0 0 0-.14-.493c-.198-.154-.452-.31-.705-.31-.34 0-.62.388-.764.698-.083.132-.168.232-.31.232-.31 0-.931.183-1.129.546-.196.285-.084.414.198.44.62.024.65.155.509.438-.765 1.632-2.538 6.06-3.02 7.768-.593 2.15.057 2.797.337 2.797a.577.577 0 0 0 .397-.157c.254-.206.369-.18.479-.129.37.182.733.439 1.073.439.282 0 1.298-.205 1.946-.49.933-.387 2.653-1.45 3.076-1.89.397-.414 1.017-1.112 1.017-1.63 0-.492-.197-.985-.62-1.322-.34-.258-1.496-.8-2.033-.984-.2-.05-.225-.076-.027-.18.816-.389 1.609-.777 2.453-1.319.763-.517 1.637-1.348 1.637-2.02v-.026zm-1.637.052c0 .878-2.369 2.25-3.188 2.589-.817.312-1.356.335-1.635.335-.255 0-.313-.104-.197-.388.14-.36 1.24-2.976 1.407-3.261.114-.232.172-.389.425-.389.677.025 1.551.205 2.427.492.48.206.76.417.76.596v.026zm-1.409 5.927c0 .698-1.78 1.813-2.88 2.201-.847.311-1.554.414-1.946.414-.28 0-.366-.05-.31-.206.055-.129.113-.26.113-.441a1.595 1.595 0 0 0-.03-.62c-.053-.156-.053-.312-.028-.597.028-.517.509-1.734.818-2.355.085-.157.2-.258.45-.258.905 0 2.005.336 2.965.88.732.414.848.646.848.955v.027zm9.142-5.72c-.396 0-1.187.207-2.118.83-.876.593-2.06 1.965-2.708 3.105-.65 1.088-1.215 2.563-1.215 3.624 0 1.008 1.186 1.943 1.864 1.943.509 0 1.524-.26 2.482-.804.905-.519 1.95-1.528 2.23-1.89.195-.285.195-.648.085-.648-.169 0-.48.13-.847.469-.563.464-1.835 1.55-3.244 1.55-.398 0-1.017-.129-1.017-.905 0-.932.31-2.047.678-2.587.196-.259.367-.364.592-.259.224.103.93.282 1.41.282.818 0 1.835-.412 2.822-1.034 2.09-1.27 4.713-3.366 6.124-5.047.365-.442.592-.934.592-1.27 0-.283-.17-.39-.366-.181-2.427 2.563-4.685 4.192-5.7 4.711-.168.132-.283.052-.254-.206.054-.778-.565-1.683-1.383-1.683h-.027zm-.594 1.346c.564 0 .902.337.849.88 0 .259-.115.468-.311.673-.367.337-1.214.672-1.61.672a1.95 1.95 0 0 1-.819-.126c-.168-.106-.198-.338 0-.625.196-.362 1.188-1.474 1.864-1.474h.027zM26.634 1.35a.65.65 0 0 0-.477.233c-.313.39-1.357 2.099-3.389 6.708-1.748 3.956-2.23 6.444-2.23 6.988 0 .907.425 1.684.988 1.684 1.75 0 4.881-2.46 7.875-5.465.308-.335.732-.801.732-1.343 0-.441-.338-.441-.65-.106-2.878 2.952-6.178 5.541-6.941 5.541-.367 0-.705-.337-.224-2.046.589-1.967 2.116-6.057 4.627-10.354.395-.649.563-1.14.057-1.685a.46.46 0 0 0-.338-.155h-.03zm6.124 1.736c-.452 0-.765.154-.818.983 0 .39.027.752.111 1.011.086.361.311.672.734.881.368.18.622.13.593-.209a6.725 6.725 0 0 1 .196-1.917c.142-.464-.252-.75-.789-.75h-.027zM29.2 17.04c.312 0 .735-.105 1.496-.44 1.58-.648 4.489-2.875 5.731-4.583.252-.36.31-.596.31-.776 0-.258-.2-.285-.454-.05-1.832 1.76-4.91 4.426-6.431 4.426-.451 0-.706-.314-.426-1.273.54-1.626 1.58-3.983 2.567-5.484.313-.466.144-.882-.026-1.036-.085-.102-.196-.181-.34-.181-.59 0-1.775 1.656-2.2 2.485a2.514 2.514 0 0 0-.227.749 2.974 2.974 0 0 1-.166.597c-.31.774-.934 2.564-1.102 3.105a1.872 1.872 0 0 0 .112 1.555c.397.673.792.906 1.13.906h.026zm10.726-7.428c0 .905-1.018 2.2-2.371 2.2-.254 0-.311-.052-.254-.209.424-1.01 1.439-2.613 2.172-2.613.313 0 .453.31.453.593v.029zm-5.14 5.437c0 1.264.964 1.965 1.807 1.965 2.37 0 4.63-2.046 4.91-2.536.115-.208.143-.414.143-.598 0-.206-.112-.258-.311-.103-.929.907-2.766 1.97-4.121 1.97-.563 0-.956-.285-.956-.933 0-.517.227-1.475.562-2.096.057-.13.14-.18.226-.104.397.388.734.414 1.3.285 1.381-.285 5.952-1.787 8.098-3.6.252-.233.45-.594.45-.957 0-.26-.14-.26-.28-.13-2.203 1.606-4.828 2.589-5.73 2.821-.256.079-.423.026-.256-.126.255-.287.821-1.166.821-1.685 0-.284-.144-.543-.765-.725-.278-.053-.448-.155-.533-.416-.114-.282-.253-.646-.678-.646-.31 0-.649.182-1.071.518-1.638 1.243-3.615 4.969-3.615 7.068v.028zm16.652-7.406c-.48 0-1.157.7-1.157 1.19 0 .416.197.83.45 1.062.14.155.14.261.059.466-.736 1.788-2.682 3.78-4.01 4.66-.423.282-.817.415-1.07.415-.338 0-.65-.338-.338-1.58.423-1.578.817-2.435 1.382-3.367.282-.465.45-.774.48-1.215 0-.622-.198-1.45-.593-1.45-.678 0-1.214 1.425-1.439 2.2-.03.155-.056.311-.113.518-.058.182-.086.39-.17.544-.93 2.201-1.13 3.311-1.213 4.012-.142 1.374.62 1.837 1.015 1.837.398 0 .85-.05 1.636-.414 1.665-.827 4.317-3.105 5.672-5.773.085-.206.142-.284.313-.23.223.05.703.128 1.408.128 1.328 0 2.598-.441 3.387-1.215.284-.34.284-.752-.087-.52-.562.413-1.549.752-2.707.752-.677 0-1.41-.13-1.749-.34-.17-.127-.226-.257-.226-.385-.055-.441-.28-1.295-.903-1.295h-.027zm2.566 7.041c0 1.476 1.07 2.305 2.089 2.305 1.524 0 3.384-1.192 3.98-1.89.253-.285.366-.544.366-.776-.113-.13-.453 0-.678.155-.563.387-1.863 1.216-2.963 1.216-.76 0-1.242-.391-1.242-1.216 0-.493.197-1.14.34-1.425.085-.18.141-.18.253-.103.169.13.394.232.649.232 1.44 0 2.483-.697 3.244-1.475.537-.543.931-1.399.931-2.203 0-.772-.507-1.212-1.155-1.24-.226-.052-.31-.157-.31-.233-.03-.232-.227-.465-.622-.465-1.016 0-2.595 1.938-3.047 2.59-1.1 1.63-1.835 3.518-1.835 4.502v.026zm2.794-2.667c-.367 0-.424-.077-.34-.257.453-.985 1.58-2.744 2.284-2.744.371 0 .765.335.765.958 0 1.033-1.298 2.043-2.683 2.043h-.026zm14.446-4.193c-.142-.234-.367-.258-.704.025-.397.311-.847.907-1.159 1.347a6.98 6.98 0 0 0-.506.907c-.086.258-.142.49-.172.698-.027.13-.084.285-.196.519-.254.62-.732 2.046-1.129 3.469-.17.62-.139.958-.28 1.217-.144.258-.144.49 0 .698.084.155.422.336.704.336.506 0 1.156-.362 1.976-.853 2.54-1.608 4.824-3.833 6.347-5.747.48-.65.735-1.14.735-1.45 0-.338-.169-.443-.368-.182-1.862 2.304-4.376 4.84-6.574 6.135-.312.18-.594.258-.76.258-.172 0-.254-.283-.228-.622.143-1.424 1.551-4.504 2.37-5.59.368-.466.086-.93-.056-1.165zm1.524-4.997c-.367 0-.763.105-.79.985 0 .362.027.828.168 1.216.086.26.225.519.648.75.341.184.539.08.509-.231-.058-.596.087-1.502.314-2.02.167-.413-.142-.7-.823-.7h-.026zm3.696 12.764c-.675 0-.93-.39-.761-1.294.169-.908.902-2.9 1.384-4.065.14-.258.198-.285.506-.337 1.862-.283 3.529-.544 4.287-.776.454-.13.793-.572.142-.572-1.578 0-3.075.132-3.92.185-.226 0-.368 0-.283-.21.112-.23.593-1.472 1.354-2.845.198-.364.17-.649 0-.907-.112-.209-.254-.285-.451-.285-.424 0-.929.437-1.1.802-.254.57-1.158 2.925-1.329 3.287-.08.182-.196.286-.479.337a17.85 17.85 0 0 0-1.467.208c-.392.077-.563.155-.76.364-.197.18-.254.464-.055.62.138.102.338.18.59.154.283-.025.932-.1 1.27-.13.253-.024.282.03.199.261-.257.519-1.186 3.234-1.469 3.956-.226.546-.338.959-.338 1.273 0 .855.989 1.347 1.525 1.347a3.33 3.33 0 0 0 1.014-.157c2.032-.647 3.217-1.553 3.587-1.993.252-.285.167-.7-.2-.47-.705.445-2.258 1.247-3.218 1.247h-.028zm6.377-.855c-.648 0-1.383.855-1.383 1.398 0 .414.452.88.873.88.765 0 1.697-.646 1.697-1.217 0-.414-.594-1.061-1.16-1.061h-.027zm4.26 0c-.648 0-1.381.855-1.381 1.398 0 .414.451.88.875.88.76 0 1.692-.646 1.692-1.217 0-.414-.594-1.061-1.156-1.061h-.03zm17.806-10.198c-.368 0-.817.102-1.694.413-2.934 1.06-4.43 2.77-4.43 4.271 0 .466.11 1.086.62 2.252.48 1.088.735 2.02.735 2.564 0 1.242-1.129 1.838-2.062 1.838-.561 0-1.239-.26-1.72-.544-.339-.208-.79-.052-1.015.154a.698.698 0 0 0-.284.57c0 .312.2.492.54.648.363.155 1.1.26 1.719.26 1.157 0 2.567-.339 3.385-.958.592-.494 1.045-1.167 1.045-1.968 0-.572-.257-1.735-.68-2.797-.42-1.062-.648-1.89-.648-2.536 0-1.296 1.157-2.278 2.599-2.512.534-.052.931 0 1.295.026.707.027 1.102-.337 1.298-.777a.756.756 0 0 0-.084-.672c-.14-.156-.336-.232-.59-.232h-.03zm5.389 3.08c-.311 0-1.102.13-2.257 1.087-1.386 1.086-2.711 2.822-3.445 4.168-.902 1.552-1.07 2.381-1.07 2.821 0 .957.93 1.27 1.184 1.27.424 0 .958-.235 1.637-.777.761-.596 2.342-2.202 2.736-2.694.17-.154.226-.127.226.052 0 .286.029 1.01.085 1.553.111 1.062.93 1.866 1.607 1.866 1.469 0 4.433-2.62 5.475-4.507.172-.36.257-.672.257-.907 0-.203-.257-.23-.425.028-1.354 1.709-3.556 4.039-4.742 4.039-.677 0-.843-.854-.843-2.02 0-1.473.533-2.977 1.381-4.686.14-.26.168-.517-.255-.75-.17-.102-.338-.102-.537.027-.113.075-.223.051-.252-.055-.17-.205-.451-.516-.737-.516h-.025zm-.761 1.398c.365 0 .534.258.59.567.057.312-.024.7-.14.959-.113.182-.705 1.294-1.045 1.736-.845 1.035-1.635 1.94-2.116 2.354-.537.44-.957.724-1.184.724-.368 0-.481-.388-.312-.878.282-.933 1.073-2.693 2.429-4.143.76-.852 1.354-1.32 1.746-1.32h.032zm6.263 4.995c-.029 1.657.196 2.302.706 2.302.14 0 .337-.023.62-.102.198-.051.198-.024.055.102-.592.676-2.426 2.926-3.019 3.6-.93 1.038-1.777 2.305-1.919 2.564a.765.765 0 0 1-.45.36c-.227.08-.594.26-1.159.933-.478.597-.674.907-.79 1.346-.14.415.116.675.535.675.482 0 .82-.39 1.215-.958.17-.26.369-.466.847-.648.423-.206 2.003-.933 2.003-1.448 0-.208-.17-.34-.478-.415-.113-.028-.085-.129.056-.338.566-.75 2.509-3.16 5.615-6.628 1.27-1.423 3.019-4.323 3.469-5.281.34-.698.536-1.396.536-1.655 0-.442-.42-.985-.702-.985-.227 0-.425.103-.62.466-.286.466-.426.75-.679 1.139-.226.337-.197.595-.169.855.028.208.053.518-.566 1.502-1.495 2.51-2.623 3.701-3.218 3.701-.28 0-.59-.414-.507-1.373.057-.852.37-3.156.424-4.037.057-.698.029-2.122-.507-2.122-.482 0-.876.854-1.102 1.242-.14.284-.14.595-.083.827.026.156.083.362.057.907l-.17 3.469zm17.523-6.187c-.139-.234-.368-.258-.706.025-.394.311-.848.907-1.158 1.347-.17.258-.367.595-.507.907-.086.258-.143.49-.17.698a2.35 2.35 0 0 1-.197.519c-.252.62-.733 2.046-1.127 3.469-.17.62-.145.958-.284 1.217-.14.258-.14.49 0 .698.084.155.424.336.706.336.509 0 1.157-.362 1.973-.853 2.54-1.608 4.827-3.833 6.35-5.747.48-.65.733-1.14.733-1.45 0-.338-.166-.443-.367-.182-1.861 2.304-4.37 4.84-6.574 6.135-.31.18-.593.258-.764.258-.166 0-.252-.283-.22-.622.14-1.424 1.549-4.504 2.368-5.59.367-.466.083-.93-.056-1.165zm1.523-4.997c-.368 0-.763.105-.788.985 0 .362.025.828.168 1.216.083.26.224.519.65.75.336.184.534.08.508-.231-.059-.596.081-1.502.31-2.02.168-.413-.141-.7-.817-.7h-.03zm3.697 12.764c-.678 0-.933-.39-.764-1.294.171-.908.903-2.9 1.383-4.065.14-.258.198-.285.509-.337 1.864-.283 3.526-.544 4.288-.776.452-.13.793-.572.144-.572-1.582 0-3.077.132-3.926.185-.224 0-.364 0-.278-.21.111-.23.589-1.472 1.352-2.845.197-.364.17-.649 0-.907-.113-.209-.255-.285-.453-.285-.422 0-.93.437-1.101.802-.253.57-1.154 2.925-1.323 3.287-.086.182-.198.286-.478.337-.536.053-1.045.129-1.47.208-.396.077-.564.155-.76.364-.2.18-.256.464-.059.62.142.102.337.18.593.154.284-.025.929-.1 1.271-.13.254-.024.28.03.197.261-.254.519-1.184 3.234-1.468 3.956-.223.546-.338.959-.338 1.273 0 .855.989 1.347 1.522 1.347a3.37 3.37 0 0 0 1.02-.157c2.03-.647 3.213-1.553 3.58-1.993.254-.285.17-.7-.198-.47-.705.445-2.257 1.247-3.217 1.247h-.026zm6.376-.855c-.649 0-1.382.855-1.382 1.398 0 .414.451.88.874.88.762 0 1.693-.646 1.693-1.217 0-.414-.593-1.061-1.157-1.061h-.028zm4.26 0c-.65 0-1.384.855-1.384 1.398 0 .414.453.88.874.88.764 0 1.697-.646 1.697-1.217 0-.414-.594-1.061-1.16-1.061h-.027zm13.77-9.861c-.142 0-.423.1-.622.282-.196.23-.366.492-.308.675.024.153-.029.284-.17.414a1.22 1.22 0 0 0-.508.645c-.115.26.056.465.2.571.165.128.224.26.11.516-.197.57-1.892 4.584-3.16 7.354-.143.285-.31.697-.31.981 0 .598.366.933.817.933.225 0 .508-.102.734-.413.649-.957.619-.881.764-2.304.027-.31.053-.518.196-.984.196-.646.959-2.433 1.919-4.375.139-.285.224-.31.365-.104.284.467 2.23 3.833 3.134 5.231.93 1.45 1.184 1.914 1.326 2.147.197.234.536.491.874.491.281 0 .535-.155.704-.335.172-.21.255-.466.114-.672-.169-.234-.338-.466-.338-.83 0-.335.055-.7.338-1.605.425-1.397 1.356-4.039 2.624-6.498.172-.39.367-.49.818-.568.34-.028.509-.155.48-.465-.026-.338-.253-1.477-.875-1.477-.224 0-.506.129-.79.39-.25.334-.675.983-1.352 2.64-.678 1.475-1.299 3.002-2.287 5.874-.113.336-.228.364-.423.053-1.3-1.943-2.598-4.193-3.582-5.904-.228-.388-.314-.594-.314-.773 0-.132.086-.26.255-.519.14-.183.17-.544 0-.881-.169-.311-.365-.49-.706-.49h-.027zm16.704 6.08c0-.154 0-.673-.083-.93-.058-.157-.028-.26.111-.234.337.053.763.077 1.243.077.62-.024 2.114-.233 3.047-.619.592-.26.874-.622.874-.882 0-.18-.169-.207-.392-.104-1.046.416-2.4.545-3.217.545-.906 0-1.666-.129-2.118-.335-.255-.106-.424-.234-.451-.285-.311-.339-.79-.96-1.271-.96-.393 0-.903.207-1.383.544-.537.388-1.354 1.32-1.805 2.019-1.298 1.916-2.146 3.598-2.146 5.048 0 1.503 1.326 2.2 1.639 2.2.392 0 1.155-.232 1.775-.542 1.695-.829 4.177-3.598 4.177-5.514v-.027zm-5.586 4.842c-.224 0-.452-.465-.452-1.034 0-.598.308-1.788.961-2.978.874-1.528 1.467-2.302 1.975-2.72.197-.154.336-.127.452-.05.197.155.618.388.841.468.201.05.4.18.458.308.081.206.081.491.081.726 0 1.476-1.496 3.52-2.54 4.4-.844.7-1.523.88-1.75.88h-.026zm15.604-.441c-.284 0-.676-.206-.65-.959 0-.49.169-1.604.309-2.094.341-1.32 1.046-2.408 1.47-2.849.252-.335.366-.464.366-.646.028-.414-.17-.8-.536-.8-.339 0-1.074.359-1.383.824-.252.417-.592 1.243-.734 1.608a5.05 5.05 0 0 1-.79 1.216c-.734.829-2.793 2.718-3.302 3.08-.45.285-.76.414-.96.362-.225-.026-.306-.493-.11-1.345.196-1.14.788-2.538 1.155-3.313a5.132 5.132 0 0 1 1.185-1.555c.338-.258.397-.491.313-.673-.087-.18-.51-.622-.82-.622-.224 0-.565.132-.902.491-.451.493-.735 1.193-.848 1.502-.112.337-.14.467-.222.752-.089.207-.116.337-.23.542-.395.83-.96 2.331-1.298 3.886-.057.335-.14.646-.113.984-.027.517.284 1.242.874 1.242.424 0 1.327-.415 1.892-.83.508-.387 2.455-2.121 3.132-2.743.226-.234.338-.155.31.077-.057.284-.226 1.191-.226 1.605-.027 1.244.62 1.916 1.13 1.916.199 0 .819-.155 1.298-.389.365-.181 1.157-.778 1.975-1.448 1.299-1.166 3.724-4.065 3.782-6.137 0-.748-.2-1.474-.763-1.474-.255 0-.733.258-1.185.776-.31.363-.45.622-.17 1.009.225.337.395.673.395 1.037-.027.413-.395 1.241-.93 1.992-.846 1.113-2.596 2.976-3.387 2.976h-.027zM206.43 4.719c-.312 0-.679.232-1.071.515-.367.313-.455.57-.397.959.056.491.087.983-.058 1.94-.394 2.953-.365 5.283-.365 7.819.027.569.51.983.82.983.11 0 .223-.024.31-.076.253-.18.422-.31.508-.7.056-.337.14-.542.39-.905.766-1.036 4.095-4.506 4.827-5.075.314-.26.454-.26.454.103.027.338.056.595.056 1.01 0 2.15.253 3.287.424 4.194.225 1.165.646 1.503 1.072 1.503.31 0 .591-.182.677-.545.195-.672.731-1.605 2.793-3.726 2.371-2.436 3.472-3.444 4.711-5.1.595-.752.874-1.4.904-1.994 0-.467-.283-1.139-.904-1.139-.253 0-.62.155-.958.466-.367.336-.594.646-.311.957.255.258.283.569.283.802 0 .31-.227.778-1.076 1.684-.874.88-3.863 3.623-5.416 5.331-.367.366-.507.389-.563.08-.17-1.035-.255-1.762-.198-3.83 0-1.997.367-2.566.735-2.98.227-.23.393-.362.535-.438a.537.537 0 0 0 .225-.441c0-.467-.903-1.01-1.326-1.01-.677 0-1.101.88-1.269 1.785-.057.465-.17.984-.818 1.606-.622.673-3.95 3.857-5.024 5.048-.223.232-.367.26-.394-.079-.03-.258-.084-.8 0-1.734.112-2.12.394-3.908.847-5.305.338-1.04.082-1.708-.395-1.708h-.028zm14.419 9.786c0 1.916 1.297 2.459 2.397 2.459 2.513 0 5.869-2.02 7.649-4.194.253-.338.366-.646.308-.83-.082-.18-.224-.18-.393-.026-1.638 1.682-4.826 3.833-6.915 3.833-.818 0-1.41-.519-1.41-1.554 0-.44.083-.854.198-1.14.086-.18.17-.18.282-.103.17.13.45.232.763.232 1.352 0 2.398-.697 3.159-1.475.536-.543.93-1.399.93-2.203 0-.772-.506-1.212-1.156-1.24-.224-.052-.31-.157-.31-.233-.03-.232-.225-.465-.62-.465-1.018 0-2.595 1.837-3.134 2.59-1.043 1.447-1.748 3.183-1.748 4.322v.027zm2.794-2.488c-.37 0-.507-.077-.426-.257.369-.985 1.638-2.744 2.373-2.744.366 0 .761.335.761.958-.03 1.033-1.327 2.043-2.68 2.043h-.028zm5.134 3.677c0 .957.903 1.27 1.185 1.27.394 0 .933-.235 1.638-.777.732-.596 2.34-2.202 2.736-2.694.144-.18.198-.127.198.028.027.232-.113.984-.113 1.474-.027 1.165.45 1.969 1.212 1.969 1.807 0 4.12-2.746 6.181-5.232.536-.673.903-1.344.903-1.785 0-.335-.367-.388-.678.027-2.626 3.181-4.881 5.59-5.698 5.59-.595 0-.623-.854-.509-1.942.11-1.473.648-3.002 1.495-4.71.141-.26.167-.518-.254-.752a.416.416 0 0 0-.507.028c-.144.075-.254.051-.282-.055-.14-.205-.452-.516-.763-.516-.308 0-1.1.13-2.258 1.088-1.384 1.086-2.707 2.822-3.44 4.168-.877 1.552-1.046 2.381-1.046 2.795v.026zm1.722-.776c0-1.165 1.636-3.677 2.483-4.583.76-.852 1.354-1.32 1.776-1.32.366 0 .538.259.596.568.054.312 0 .7-.14.959-.09.182-.68 1.294-1.047 1.706-.848 1.065-1.639 1.945-2.118 2.357-.507.467-.958.727-1.184.727-.254 0-.366-.182-.366-.389v-.025zm17.352-7.352c-.592 0-1.211.387-1.975 1.086-1.102.96-2.37 2.563-3.132 3.596-.253.314-.365.314-.31-.049.114-.725.592-2.408.99-3.107.11-.207.253-.413.253-.672.027-.313-.228-.83-.62-.83-.286 0-.736.441-.962.673-.255.234-.37.622-.51 1.528-.224 1.242-.93 4.714-1.436 5.85-.17.388-.199.672 0 .907.168.232.423.363.65.363.253 0 .477-.13.648-.49 1.07-2.124 2.257-4.173 3.807-5.852.648-.7 1.216-1.27 1.61-1.27.253 0 .48.132.65.234.17.13.423.102.648-.13.228-.207.481-.622.536-.93.084-.465-.224-.907-.82-.907h-.027zm9.707.258c-.14-.234-.367-.258-.708.025-.39.311-.845.907-1.154 1.347-.17.258-.367.595-.51.907-.084.258-.14.49-.167.698-.031.13-.087.285-.197.519-.256.62-.734 2.046-1.131 3.469-.166.62-.14.958-.28 1.217-.143.258-.143.49 0 .698.082.155.423.336.704.336.509 0 1.158-.362 1.976-.853 2.539-1.608 4.827-3.833 6.346-5.747.481-.65.735-1.14.735-1.45 0-.338-.169-.443-.367-.182-1.861 2.304-4.371 4.84-6.576 6.135-.307.18-.59.258-.76.258-.167 0-.253-.283-.225-.622.144-1.424 1.552-4.504 2.37-5.59.367-.466.086-.93-.056-1.165zm1.522-4.997c-.365 0-.76.105-.788.985 0 .362.027.828.169 1.216.086.26.225.519.649.75.338.184.533.08.51-.231-.059-.596.08-1.502.31-2.02.169-.413-.142-.7-.82-.7h-.03zm3.698 12.764c-.676 0-.931-.39-.76-1.294.168-.908.9-2.9 1.38-4.065.14-.258.198-.285.51-.337 1.863-.283 3.528-.544 4.288-.776.451-.13.793-.572.141-.572-1.58 0-3.074.132-3.923.185-.225 0-.366 0-.28-.21.11-.23.59-1.472 1.352-2.845.2-.364.17-.649 0-.907-.113-.209-.25-.285-.451-.285-.423 0-.93.437-1.1.802-.254.57-1.157 2.925-1.325 3.287-.086.182-.197.286-.481.337-.533.053-1.045.129-1.467.208-.394.077-.563.155-.764.364-.198.18-.252.464-.054.62.141.102.336.18.593.154.282-.025.93-.1 1.27-.13.253-.024.28.03.196.261-.254.519-1.184 3.234-1.466 3.956-.227.546-.338.959-.338 1.273 0 .855.985 1.347 1.521 1.347.283 0 .595-.029 1.016-.157 2.033-.647 3.217-1.553 3.584-1.993.253-.285.17-.7-.198-.47-.702.445-2.255 1.247-3.217 1.247h-.027zm9.65-10.587c-.367 0-.649.179-.82.645-.845 2.36-1.888 5.358-2.03 5.929-.312 1.245-.142 1.528.112 1.528.198 0 .539-.131.762-.674.849-2.124 1.412-3.287 1.807-4.065.424-.853.595-1.01.903-1.268.28-.26.367-.57.28-.958-.14-.464-.45-1.137-.985-1.137h-.029zm-3.529 9.81c-.534 0-1.185.672-1.185 1.192 0 .438.341 1.164 1.016 1.164.625 0 1.217-.466 1.217-1.063 0-.413-.343-1.293-1.016-1.293h-.032z" fill="#808184" mask="url(#dd)"/></g></g></symbol><symbol viewBox="0 0 53 53" id="menu" xmlns="http://www.w3.org/2000/svg"><path d="M2 13.5h49a2 2 0 0 0 0-4H2a2 2 0 0 0 0 4zm0 15h49a2 2 0 0 0 0-4H2a2 2 0 0 0 0 4zm0 15h49a2 2 0 0 0 0-4H2a2 2 0 0 0 0 4z"/></symbol><symbol viewBox="0 0 129 129" id="right" xmlns="http://www.w3.org/2000/svg"><path d="M40.4 121.3c-.8.8-1.8 1.2-2.9 1.2s-2.1-.4-2.9-1.2c-1.6-1.6-1.6-4.2 0-5.8l51-51-51-51c-1.6-1.6-1.6-4.2 0-5.8 1.6-1.6 4.2-1.6 5.8 0l53.9 53.9c1.6 1.6 1.6 4.2 0 5.8l-53.9 53.9z"/></symbol><symbol viewBox="0 0 451 451" id="search" xmlns="http://www.w3.org/2000/svg"><path d="M447.05 428l-109.6-109.6c29.4-33.8 47.2-77.9 47.2-126.1C384.65 86.2 298.35 0 192.35 0 86.25 0 .05 86.3.05 192.3s86.3 192.3 192.3 192.3c48.2 0 92.3-17.8 126.1-47.2L428.05 447c2.6 2.6 6.1 4 9.5 4s6.9-1.3 9.5-4c5.2-5.2 5.2-13.8 0-19zM26.95 192.3c0-91.2 74.2-165.3 165.3-165.3 91.2 0 165.3 74.2 165.3 165.3s-74.1 165.4-165.3 165.4c-91.1 0-165.3-74.2-165.3-165.4z"/></symbol><symbol viewBox="0 0 16.662 16.662" id="stone" xmlns="http://www.w3.org/2000/svg"><path d="M13.365.324H3.297L0 5.109l8.331 11.229 8.331-11.229L13.365.324zm1.848 4.41h-3.4l1.298-3.054 2.102 3.054zm-2.687-3.431l-1.342 3.156-2.113-3.156h3.455zm-1.982 3.431H6.442l1.909-3.273 2.193 3.273zM7.648 1.303L5.856 4.378 4.185 1.303h3.463zm-4.064.331l1.685 3.1h-3.82l2.135-3.1zM1.45 5.421h4.124l1.95 8.184L1.45 5.421zm4.829 0h4.548l-2.468 8.732-2.08-8.732zm3.001 7.992l2.259-7.992h3.672L9.28 13.413z"/></symbol><symbol viewBox="0 0 492.308 492.308" id="user" xmlns="http://www.w3.org/2000/svg"><path d="M401.817 367.952v-45.644h-19.692v45.644h-45.644v19.692h45.644v45.635h19.692v-45.635h45.645v-19.692z"/><path d="M392.15 277.471c-14.551-19.507-31.998-36.447-52.15-50.144-1.615-1.106-4.875-3.221-4.875-3.221L327.26 219l-5.481 7.615c-24.096 33.452-63.01 53.433-104.077 53.433-41.077 0-79.981-19.981-104.077-53.442l-5.5-7.644-11.904 7.817C35.971 267.356 0 334.904 0 407.462v31.644h312.725c18.37 23.685 47.018 39.019 79.246 39.019 55.327 0 100.337-45.01 100.337-100.327 0-55.267-44.914-100.229-100.158-100.327zM19.692 419.414v-11.952c0-64.481 31.231-124.615 83.788-161.769 28 34.01 70.019 54.048 114.221 54.048s86.221-20.038 114.221-54.048a198.006 198.006 0 0 1 37.421 34.438c-44.448 10.3-77.709 50.132-77.709 97.668 0 14.855 3.332 28.919 9.153 41.615H19.692zm372.279 39.019c-44.471 0-80.644-36.173-80.644-80.635 0-44.471 36.173-80.644 80.644-80.644s80.644 36.173 80.644 80.644c0 44.462-36.173 80.635-80.644 80.635z"/><path d="M217.702 14.183c-59.529 0-107.952 48.433-107.952 107.962s48.423 107.952 107.952 107.952c59.529 0 107.962-48.423 107.962-107.952-.001-59.53-48.433-107.962-107.962-107.962zm0 196.221c-48.663 0-88.26-39.596-88.26-88.26 0-48.673 39.596-88.269 88.26-88.269 48.673 0 88.269 39.596 88.269 88.269 0 48.664-39.596 88.26-88.269 88.26z"/></symbol></svg>